<?xml version="1.0" encoding="UTF-8" standalone="no"?>
<svg width="1129px" height="698px" viewBox="0 0 1129 698" version="1.1" xmlns="http://www.w3.org/2000/svg" xmlns:xlink="http://www.w3.org/1999/xlink" xmlns:sketch="http://www.bohemiancoding.com/sketch/ns">
    <!-- Generator: Sketch 3.3.2 (12043) - http://www.bohemiancoding.com/sketch -->
    <title>exposition</title>
    <desc>Created with Sketch.</desc>
    <defs></defs>
    <g id="Page-1" stroke="none" stroke-width="1" fill="none" fill-rule="evenodd" sketch:type="MSPage">
        <g id="Desktop-HD" sketch:type="MSArtboardGroup" transform="translate(-189.000000, -814.000000)">
            <g id="exposition" sketch:type="MSLayerGroup" transform="translate(184.000000, 802.000000)">
                <ellipse id="Oval-3" fill-opacity="0.5" fill="#138C8F" sketch:type="MSShapeGroup" cx="830.956846" cy="142.024792" rx="21.5" ry="21.5"></ellipse>
                <ellipse id="Oval-3-Copy" fill-opacity="0.1" fill="#D75B36" sketch:type="MSShapeGroup" cx="849.956846" cy="168.024792" rx="21.5" ry="21.5"></ellipse>
                <circle id="Oval-3-Copy-2" fill-opacity="0.3" fill="#D75B36" sketch:type="MSShapeGroup" cx="817.956846" cy="267.024792" r="34.5"></circle>
                <circle id="Oval-3-Copy-46" fill-opacity="0.3" fill="#D75B36" sketch:type="MSShapeGroup" cx="629.013933" cy="279.130862" r="34.5"></circle>
                <circle id="Oval-3-Copy-4" fill-opacity="0.3" fill="#D75B36" sketch:type="MSShapeGroup" cx="867.956846" cy="75.0247922" r="15.5"></circle>
                <circle id="Oval-3-Copy-5" fill-opacity="0.1" fill="#D75B36" sketch:type="MSShapeGroup" cx="846.956846" cy="252.024792" r="15.5"></circle>
                <ellipse id="Oval-3-Copy-3" fill-opacity="0.6" fill="#138C8F" sketch:type="MSShapeGroup" cx="914.456846" cy="245.524792" rx="13" ry="13"></ellipse>
                <circle id="Oval-3-Copy-6" fill-opacity="0.6" fill="#138C8F" sketch:type="MSShapeGroup" cx="921.956846" cy="159.024792" r="20.5"></circle>
                <circle id="Oval-3-Copy-9" fill-opacity="0.1" fill="#138C8F" sketch:type="MSShapeGroup" cx="918.456846" cy="104.524792" r="12"></circle>
                <ellipse id="Oval-3-Copy-7" fill-opacity="0.05" fill="#138C8F" sketch:type="MSShapeGroup" cx="970.456846" cy="189.524792" rx="10" ry="10"></ellipse>
                <ellipse id="Oval-3-Copy-8" fill-opacity="0.6" fill="#D75B36" sketch:type="MSShapeGroup" cx="963.956846" cy="312.024792" rx="30.5" ry="30.5"></ellipse>
                <circle id="Oval-3-Copy-19" fill-opacity="0.5" fill="#138C8F" sketch:type="MSShapeGroup" transform="translate(1090.956846, 261.024792) rotate(-270.000000) translate(-1090.956846, -261.024792) " cx="1090.95685" cy="261.024792" r="26.5"></circle>
                <circle id="Oval-3-Copy-21" fill-opacity="0.5" fill="#138C8F" sketch:type="MSShapeGroup" transform="translate(998.956846, 138.524792) rotate(-270.000000) translate(-998.956846, -138.524792) " cx="998.956846" cy="138.524792" r="8.75"></circle>
                <ellipse id="Oval-3-Copy-22" fill-opacity="0.3" fill="#138C8F" sketch:type="MSShapeGroup" transform="translate(996.331846, 175.899792) rotate(-270.000000) translate(-996.331846, -175.899792) " cx="996.331846" cy="175.899792" rx="6.125" ry="6.125"></ellipse>
                <ellipse id="Oval-3-Copy-10" fill-opacity="0.1" fill="#138C8F" sketch:type="MSShapeGroup" transform="translate(1057.456846, 230.024792) rotate(-270.000000) translate(-1057.456846, -230.024792) " cx="1057.45685" cy="230.024792" rx="11.5" ry="11.5"></ellipse>
                <circle id="Oval-3-Copy-20" fill-opacity="0.1" fill="#D75B36" sketch:type="MSShapeGroup" transform="translate(1025.206846, 55.774792) rotate(-270.000000) translate(-1025.206846, -55.774792) " cx="1025.20685" cy="55.7747922" r="43.75"></circle>
                <circle id="Oval-3-Copy-11" fill-opacity="0.3" fill="#138C8F" sketch:type="MSShapeGroup" transform="translate(940.456846, 169.024792) rotate(-270.000000) translate(-940.456846, -169.024792) " cx="940.456846" cy="169.024792" r="10.5"></circle>
                <ellipse id="Oval-3-Copy-12" fill-opacity="0.3" fill="#138C8F" sketch:type="MSShapeGroup" transform="translate(1049.456846, 333.024792) rotate(-270.000000) translate(-1049.456846, -333.024792) " cx="1049.45685" cy="333.024792" rx="15.5" ry="15.5"></ellipse>
                <ellipse id="Oval-3-Copy-13" fill-opacity="0.1" fill="#D75B36" sketch:type="MSShapeGroup" transform="translate(1094.456846, 132.024792) rotate(-270.000000) translate(-1094.456846, -132.024792) " cx="1094.45685" cy="132.024792" rx="39.5" ry="39.5"></ellipse>
                <circle id="Oval-3-Copy-14" fill-opacity="0.5" fill="#CA4D85" sketch:type="MSShapeGroup" transform="translate(1050.956846, 136.423230) rotate(-270.000000) translate(-1050.956846, -136.423230) " cx="1050.95685" cy="136.42323" r="28"></circle>
                <circle id="Oval-3-Copy-15" fill-opacity="0.6" fill="#138C8F" sketch:type="MSShapeGroup" transform="translate(995.456846, 249.024792) rotate(-270.000000) translate(-995.456846, -249.024792) " cx="995.456846" cy="249.024792" r="20.5"></circle>
                <circle id="Oval-3-Copy-16" fill-opacity="0.1" fill="#138C8F" sketch:type="MSShapeGroup" transform="translate(998.956846, 303.524792) rotate(-270.000000) translate(-998.956846, -303.524792) " cx="998.956846" cy="303.524792" r="12"></circle>
                <ellipse id="Oval-3-Copy-17" fill-opacity="0.2" fill="#138C8F" sketch:type="MSShapeGroup" transform="translate(943.456846, 215.024792) rotate(-270.000000) translate(-943.456846, -215.024792) " cx="943.456846" cy="215.024792" rx="13.5" ry="13.5"></ellipse>
                <circle id="Oval-3-Copy-18" fill-opacity="0.6" fill="#138C8F" sketch:type="MSShapeGroup" transform="translate(937.956846, 111.524792) rotate(-270.000000) translate(-937.956846, -111.524792) " cx="937.956846" cy="111.524792" r="15"></circle>
                <path d="M608.499513,252.670626 C613.534514,243.949748 610.546521,232.798404 601.825643,227.763403 C593.104765,222.728402 581.953421,225.716395 576.91842,234.437273 C571.883419,243.158151 574.871412,254.309495 583.59229,259.344496 C592.313168,264.379497 603.464512,261.391504 608.499513,252.670626 L608.499513,252.670626 Z" id="Oval-3-Copy-45" fill-opacity="0.5" fill="#138C8F" sketch:type="MSShapeGroup" transform="translate(592.708966, 243.553949) rotate(-60.000000) translate(-592.708966, -243.553949) "></path>
                <path d="M635.260496,250.001776 C640.295497,241.280898 637.307504,230.129554 628.586626,225.094553 C619.865748,220.059552 608.714404,223.047545 603.679403,231.768423 C598.644402,240.489301 601.632395,251.640645 610.353273,256.675646 C619.074151,261.710647 630.225495,258.722654 635.260496,250.001776 L635.260496,250.001776 Z" id="Oval-3-Copy-23" fill-opacity="0.1" fill="#138C8F" sketch:type="MSShapeGroup" transform="translate(619.469949, 240.885099) rotate(-60.000000) translate(-619.469949, -240.885099) "></path>
                <path d="M703.959095,321.006441 C712.038515,307.012474 707.243828,289.118457 693.249861,281.039037 C679.255894,272.959616 661.361878,277.754303 653.282457,291.74827 C645.203037,305.742237 649.997724,323.636254 663.991691,331.715674 C677.985658,339.795095 695.879674,335.000408 703.959095,321.006441 L703.959095,321.006441 Z" id="Oval-3-Copy-24" fill-opacity="0.3" fill="#138C8F" sketch:type="MSShapeGroup" transform="translate(678.620776, 306.377356) rotate(-60.000000) translate(-678.620776, -306.377356) "></path>
                <path d="M570.172974,194.793877 C573.802858,188.506733 571.648723,180.467392 565.361579,176.837508 C559.074434,173.207623 551.035094,175.361758 547.405209,181.648902 C543.775324,187.936047 545.929459,195.975388 552.216604,199.605272 C558.503748,203.235157 566.543089,201.081022 570.172974,194.793877 L570.172974,194.793877 Z" id="Oval-3-Copy-25" fill-opacity="0.3" fill="#138C8F" sketch:type="MSShapeGroup" transform="translate(558.789091, 188.221390) rotate(-60.000000) translate(-558.789091, -188.221390) "></path>
                <path d="M691.285124,285.285876 C694.915008,278.998732 692.760874,270.959391 686.473729,267.329506 C680.186584,263.699622 672.147244,265.853757 668.517359,272.140901 C664.887475,278.428046 667.041609,286.467386 673.328754,290.097271 C679.615899,293.727156 687.655239,291.573021 691.285124,285.285876 L691.285124,285.285876 Z" id="Oval-3-Copy-26" fill-opacity="0.1" fill="#138C8F" sketch:type="MSShapeGroup" transform="translate(679.901242, 278.713389) rotate(-60.000000) translate(-679.901242, -278.713389) "></path>
                <path d="M713.301233,231.885884 C716.345652,226.612795 714.538958,219.870122 709.265869,216.825703 C703.99278,213.781283 697.250108,215.587977 694.205688,220.861066 C691.161269,226.134155 692.967963,232.876828 698.241052,235.921247 C703.514141,238.965667 710.256813,237.158973 713.301233,231.885884 L713.301233,231.885884 Z" id="Oval-3-Copy-27" fill-opacity="0.6" fill="#138C8F" sketch:type="MSShapeGroup" transform="translate(703.753460, 226.373475) rotate(-60.000000) translate(-703.753460, -226.373475) "></path>
                <path d="M658.450314,192.872025 C663.251129,184.556769 660.402112,173.924093 652.086857,169.123278 C643.771601,164.322463 633.138925,167.17148 628.33811,175.486735 C623.537294,183.801991 626.386311,194.434667 634.701567,199.235482 C643.016823,204.036298 653.649499,201.187281 658.450314,192.872025 L658.450314,192.872025 Z" id="Oval-3-Copy-28" fill-opacity="0.6" fill="#138C8F" sketch:type="MSShapeGroup" transform="translate(643.394212, 184.179380) rotate(-60.000000) translate(-643.394212, -184.179380) "></path>
                <path d="M610.6893,168.725168 C613.499533,163.857701 611.831816,157.633696 606.964349,154.823462 C602.096882,152.013229 595.872876,153.680946 593.062643,158.548413 C590.25241,163.41588 591.920127,169.639885 596.787594,172.450119 C601.655061,175.260352 607.879066,173.592635 610.6893,168.725168 L610.6893,168.725168 Z" id="Oval-3-Copy-29" fill-opacity="0.1" fill="#138C8F" sketch:type="MSShapeGroup" transform="translate(601.875971, 163.636790) rotate(-60.000000) translate(-601.875971, -163.636790) "></path>
                <path d="M693.711894,165.728331 C696.053755,161.672108 694.663991,156.485437 690.607769,154.143576 C686.551546,151.801715 681.364875,153.191479 679.023014,157.247702 C676.681153,161.303924 678.070917,166.490595 682.12714,168.832456 C686.183362,171.174317 691.370033,169.784553 693.711894,165.728331 L693.711894,165.728331 Z" id="Oval-3-Copy-30" fill-opacity="0.05" fill="#138C8F" sketch:type="MSShapeGroup" transform="translate(686.367454, 161.488016) rotate(-60.000000) translate(-686.367454, -161.488016) "></path>
                <path d="M795.995747,231.148185 C803.138423,218.776707 798.899642,202.957359 786.528164,195.814683 C774.156686,188.672007 758.337338,192.910788 751.194662,205.282266 C744.051986,217.653744 748.290767,233.473092 760.662245,240.615768 C773.033723,247.758444 788.853071,243.519663 795.995747,231.148185 L795.995747,231.148185 Z" id="Oval-3-Copy-31" fill-opacity="0.6" fill="#D75B36" sketch:type="MSShapeGroup" transform="translate(773.595205, 218.215226) rotate(-60.000000) translate(-773.595205, -218.215226) "></path>
                <path d="M809.456058,114.532879 C815.66199,103.78389 811.979114,90.039211 801.230125,83.8332792 C790.481136,77.6273475 776.736457,81.3102231 770.530525,92.0592122 C764.324593,102.808201 768.007469,116.55288 778.756458,122.758812 C789.505447,128.964744 803.250126,125.281868 809.456058,114.532879 L809.456058,114.532879 Z" id="Oval-3-Copy-32" fill-opacity="0.5" fill="#138C8F" sketch:type="MSShapeGroup" transform="translate(789.993292, 103.296046) rotate(-60.000000) translate(-789.993292, -103.296046) "></path>
                <path d="M667.417854,122.633927 C669.466983,119.084732 668.250939,114.546395 664.701744,112.497266 C661.15255,110.448138 656.614212,111.664182 654.565084,115.213376 C652.515956,118.762571 653.731999,123.300908 657.281194,125.350037 C660.830388,127.399165 665.368726,126.183121 667.417854,122.633927 L667.417854,122.633927 Z" id="Oval-3-Copy-33" fill-opacity="0.5" fill="#138C8F" sketch:type="MSShapeGroup" transform="translate(660.991469, 118.923652) rotate(-60.000000) translate(-660.991469, -118.923652) "></path>
                <path d="M691.831099,139.299903 C693.265489,136.815467 692.414258,133.638631 689.929822,132.204241 C687.445386,130.769851 684.26855,131.621082 682.83416,134.105518 C681.39977,136.589954 682.251001,139.766791 684.735437,141.20118 C687.219873,142.63557 690.396709,141.78434 691.831099,139.299903 L691.831099,139.299903 Z" id="Oval-3-Copy-34" fill-opacity="0.3" fill="#138C8F" sketch:type="MSShapeGroup" transform="translate(687.332629, 136.702711) rotate(-60.000000) translate(-687.332629, -136.702711) "></path>
                <path d="M761.460406,119.63322 C764.153546,114.968565 762.555317,109.003893 757.890662,106.310752 C753.226006,103.617612 747.261334,105.215841 744.568194,109.880497 C741.875053,114.545153 743.473282,120.509825 748.137938,123.202965 C752.802594,125.896105 758.767266,124.297876 761.460406,119.63322 L761.460406,119.63322 Z" id="Oval-3-Copy-35" fill-opacity="0.1" fill="#138C8F" sketch:type="MSShapeGroup" transform="translate(753.014300, 114.756859) rotate(-60.000000) translate(-753.014300, -114.756859) "></path>
                <path d="M643.470689,83.0981914 C653.716331,65.3522188 647.636111,42.6605316 629.890139,32.4148895 C612.144166,22.1692475 589.452479,28.2494667 579.206837,45.9954393 C568.961195,63.7414119 575.041414,86.4330991 592.787387,96.6787412 C610.533359,106.924383 633.225047,100.844164 643.470689,83.0981914 L643.470689,83.0981914 Z" id="Oval-3-Copy-36" fill-opacity="0.1" fill="#D75B36" sketch:type="MSShapeGroup" transform="translate(611.338763, 64.546815) rotate(-60.000000) translate(-611.338763, -64.546815) "></path>
                <path d="M666.297432,179.28325 C668.756386,175.024216 667.297134,169.578211 663.0381,167.119257 C658.779067,164.660303 653.333062,166.119556 650.874108,170.378589 C648.415154,174.637623 649.874406,180.083628 654.13344,182.542582 C658.392473,185.001536 663.838478,183.542283 666.297432,179.28325 L666.297432,179.28325 Z" id="Oval-3-Copy-37" fill-opacity="0.3" fill="#138C8F" sketch:type="MSShapeGroup" transform="translate(658.585770, 174.830920) rotate(-60.000000) translate(-658.585770, -174.830920) "></path>
                <path d="M836.665729,170.888412 C840.295614,164.601267 838.141479,156.561927 831.854335,152.932042 C825.56719,149.302157 817.527849,151.456292 813.897965,157.743437 C810.26808,164.030581 812.422215,172.069922 818.70936,175.699806 C824.996504,179.329691 833.035845,177.175556 836.665729,170.888412 L836.665729,170.888412 Z" id="Oval-3-Copy-38" fill-opacity="0.3" fill="#138C8F" sketch:type="MSShapeGroup" transform="translate(825.281847, 164.315924) rotate(-60.000000) translate(-825.281847, -164.315924) "></path>
                <path d="M725.72909,62.7651139 C734.979441,46.7430358 729.489872,26.2556839 713.467794,17.0053328 C697.445715,7.75498169 676.958364,13.2445511 667.708012,29.2666292 C658.457661,45.2887073 663.947231,65.7760592 679.969309,75.0264103 C695.991387,84.2767614 716.478739,78.7871921 725.72909,62.7651139 L725.72909,62.7651139 Z" id="Oval-3-Copy-39" fill-opacity="0.1" fill="#D75B36" sketch:type="MSShapeGroup" transform="translate(696.718551, 46.015872) rotate(-60.000000) translate(-696.718551, -46.015872) "></path>
                <path d="M702.065481,91.7077889 C708.622692,80.3503664 704.731352,65.8276866 693.373929,59.2704757 C682.016507,52.7132648 667.493827,56.6046051 660.936616,67.9620276 C654.379405,79.3194501 658.270746,93.8421298 669.628168,100.399341 C680.98559,106.956552 695.50827,103.065211 702.065481,91.7077889 L702.065481,91.7077889 Z" id="Oval-3-Copy-40" fill-opacity="0.5" fill="#CA4D85" sketch:type="MSShapeGroup" transform="translate(681.501049, 79.834908) rotate(-60.000000) translate(-681.501049, -79.834908) "></path>
                <path d="M755.732829,177.050579 C760.533644,168.735323 757.684627,158.102647 749.369371,153.301832 C741.054115,148.501017 730.421439,151.350034 725.620624,159.665289 C720.819809,167.980545 723.668826,178.613221 731.984082,183.414036 C740.299337,188.214852 750.932014,185.365835 755.732829,177.050579 L755.732829,177.050579 Z" id="Oval-3-Copy-41" fill-opacity="0.6" fill="#138C8F" sketch:type="MSShapeGroup" transform="translate(740.676726, 168.357934) rotate(-60.000000) translate(-740.676726, -168.357934) "></path>
                <path d="M791.008295,193.988901 C793.818528,189.121434 792.150811,182.897429 787.283344,180.087195 C782.415878,177.276962 776.191872,178.944679 773.381639,183.812146 C770.571405,188.679613 772.239123,194.903619 777.106589,197.713852 C781.974056,200.524085 788.198062,198.856368 791.008295,193.988901 L791.008295,193.988901 Z" id="Oval-3-Copy-42" fill-opacity="0.1" fill="#138C8F" sketch:type="MSShapeGroup" transform="translate(782.194967, 188.900524) rotate(-60.000000) translate(-782.194967, -188.900524) "></path>
                <path d="M703.563137,197.860348 C706.72465,192.384448 704.848468,185.382441 699.372568,182.220929 C693.896667,179.059417 686.894661,180.935599 683.733149,186.411499 C680.571636,191.887399 682.447818,198.889405 687.923718,202.050918 C693.399618,205.21243 700.401625,203.336248 703.563137,197.860348 L703.563137,197.860348 Z" id="Oval-3-Copy-43" fill-opacity="0.2" fill="#138C8F" sketch:type="MSShapeGroup" transform="translate(693.648143, 192.135923) rotate(-60.000000) translate(-693.648143, -192.135923) "></path>
                <path d="M626.304592,158.641928 C629.817384,152.557595 627.732737,144.777588 621.648404,141.264796 C615.56407,137.752005 607.784063,139.836651 604.271272,145.920985 C600.75848,152.005318 602.843127,159.785325 608.92746,163.298117 C615.011794,166.810908 622.791801,164.726262 626.304592,158.641928 L626.304592,158.641928 Z" id="Oval-3-Copy-44" fill-opacity="0.6" fill="#138C8F" sketch:type="MSShapeGroup" transform="translate(615.287932, 152.281457) rotate(-60.000000) translate(-615.287932, -152.281457) "></path>
                <ellipse id="Oval-3" fill-opacity="0.3" fill="#138C8F" sketch:type="MSShapeGroup" transform="translate(674.713960, 467.427986) rotate(-180.000000) translate(-674.713960, -467.427986) " cx="674.71396" cy="467.427986" rx="17.1927609" ry="17.1927609"></ellipse>
                <ellipse id="Oval-3-Copy" fill-opacity="0.1" fill="#138C8F" sketch:type="MSShapeGroup" transform="translate(659.520357, 446.636740) rotate(-180.000000) translate(-659.520357, -446.636740) " cx="659.520357" cy="446.63674" rx="17.1927609" ry="17.1927609"></ellipse>
                <ellipse id="Oval-3-Copy-2" fill-opacity="0.3" fill="#D75B36" sketch:type="MSShapeGroup" transform="translate(685.109583, 367.470074) rotate(-180.000000) translate(-685.109583, -367.470074) " cx="685.109583" cy="367.470074" rx="27.5883838" ry="27.5883838"></ellipse>
                <ellipse id="Oval-3-Copy-4" fill-opacity="0.3" fill="#138C8F" sketch:type="MSShapeGroup" transform="translate(645.126418, 521.005427) rotate(-180.000000) translate(-645.126418, -521.005427) " cx="645.126418" cy="521.005427" rx="12.3947811" ry="12.3947811"></ellipse>
                <ellipse id="Oval-3-Copy-5" fill-opacity="0.1" fill="#138C8F" sketch:type="MSShapeGroup" transform="translate(661.919347, 379.465023) rotate(-180.000000) translate(-661.919347, -379.465023) " cx="661.919347" cy="379.465023" rx="12.3947811" ry="12.3947811"></ellipse>
                <circle id="Oval-3-Copy-3" fill-opacity="0.6" fill="#138C8F" sketch:type="MSShapeGroup" transform="translate(607.942074, 384.662834) rotate(-180.000000) translate(-607.942074, -384.662834) " cx="607.942074" cy="384.662834" r="10.3956229"></circle>
                <ellipse id="Oval-3-Copy-6" fill-opacity="0.6" fill="#138C8F" sketch:type="MSShapeGroup" transform="translate(601.944600, 453.833710) rotate(-180.000000) translate(-601.944600, -453.833710) " cx="601.9446" cy="453.83371" rx="16.3930976" ry="16.3930976"></ellipse>
                <circle id="Oval-3-Copy-9" fill-opacity="0.1" fill="#138C8F" sketch:type="MSShapeGroup" transform="translate(604.743421, 497.415360) rotate(-180.000000) translate(-604.743421, -497.415360) " cx="604.743421" cy="497.41536" r="9.5959596"></circle>
                <ellipse id="Oval-3-Copy-7" fill-opacity="0.05" fill="#138C8F" sketch:type="MSShapeGroup" transform="translate(563.160929, 429.443979) rotate(-180.000000) translate(-563.160929, -429.443979) " cx="563.160929" cy="429.443979" rx="7.996633" ry="7.996633"></ellipse>
                <ellipse id="Oval-3-Copy-8" fill-opacity="0.6" fill="#D75B36" sketch:type="MSShapeGroup" transform="translate(568.358741, 331.485225) rotate(-180.000000) translate(-568.358741, -331.485225) " cx="568.358741" cy="331.485225" rx="24.3897306" ry="24.3897306"></ellipse>
                <path d="M445.610424,372.268053 C445.610424,383.971562 455.097993,393.459131 466.801502,393.459131 C478.505011,393.459131 487.992579,383.971562 487.992579,372.268053 C487.992579,360.564544 478.505011,351.076976 466.801502,351.076976 C455.097993,351.076976 445.610424,360.564544 445.610424,372.268053 L445.610424,372.268053 Z" id="Oval-3-Copy-19" fill-opacity="0.5" fill="#138C8F" sketch:type="MSShapeGroup" transform="translate(466.801502, 372.268053) rotate(-180.000000) translate(-466.801502, -372.268053) "></path>
                <path d="M533.373472,470.226808 C533.373472,474.091174 536.506159,477.223861 540.370525,477.223861 C544.234892,477.223861 547.367579,474.091174 547.367579,470.226808 C547.367579,466.362441 544.234892,463.229754 540.370525,463.229754 C536.506159,463.229754 533.373472,466.362441 533.373472,470.226808 L533.373472,470.226808 Z" id="Oval-3-Copy-21" fill-opacity="0.5" fill="#138C8F" sketch:type="MSShapeGroup" transform="translate(540.370525, 470.226808) rotate(-180.000000) translate(-540.370525, -470.226808) "></path>
                <path d="M537.571704,440.339392 C537.571704,443.044448 539.764585,445.237329 542.469642,445.237329 C545.174698,445.237329 547.367579,443.044448 547.367579,440.339392 C547.367579,437.634335 545.174698,435.441454 542.469642,435.441454 C539.764585,435.441454 537.571704,437.634335 537.571704,440.339392 L537.571704,440.339392 Z" id="Oval-3-Copy-22" fill-opacity="0.3" fill="#138C8F" sketch:type="MSShapeGroup" transform="translate(542.469642, 440.339392) rotate(-180.000000) translate(-542.469642, -440.339392) "></path>
                <path d="M484.394094,397.057616 C484.394094,402.136497 488.511341,406.253744 493.590222,406.253744 C498.669104,406.253744 502.78635,402.136497 502.78635,397.057616 C502.78635,391.978734 498.669104,387.861488 493.590222,387.861488 C488.511341,387.861488 484.394094,391.978734 484.394094,397.057616 L484.394094,397.057616 Z" id="Oval-3-Copy-10" fill-opacity="0.1" fill="#138C8F" sketch:type="MSShapeGroup" transform="translate(493.590222, 397.057616) rotate(-180.000000) translate(-493.590222, -397.057616) "></path>
                <path d="M484.394094,536.398946 C484.394094,555.720776 500.057533,571.384215 519.379364,571.384215 C538.701195,571.384215 554.364633,555.720776 554.364633,536.398946 C554.364633,517.077115 538.701195,501.413676 519.379364,501.413676 C500.057533,501.413676 484.394094,517.077115 484.394094,536.398946 L484.394094,536.398946 Z" id="Oval-3-Copy-20" fill-opacity="0.1" fill="#D75B36" sketch:type="MSShapeGroup" transform="translate(519.379364, 536.398946) rotate(-180.000000) translate(-519.379364, -536.398946) "></path>
                <path d="M578.754364,445.837077 C578.754364,450.474316 582.513589,454.233542 587.150828,454.233542 C591.788068,454.233542 595.547293,450.474316 595.547293,445.837077 C595.547293,441.199838 591.788068,437.440612 587.150828,437.440612 C582.513589,437.440612 578.754364,441.199838 578.754364,445.837077 L578.754364,445.837077 Z" id="Oval-3-Copy-11" fill-opacity="0.3" fill="#138C8F" sketch:type="MSShapeGroup" transform="translate(587.150828, 445.837077) rotate(-180.000000) translate(-587.150828, -445.837077) "></path>
                <path d="M487.592748,314.692296 C487.592748,321.537744 493.14208,327.087077 499.987529,327.087077 C506.832977,327.087077 512.38231,321.537744 512.38231,314.692296 C512.38231,307.846847 506.832977,302.297515 499.987529,302.297515 C493.14208,302.297515 487.592748,307.846847 487.592748,314.692296 L487.592748,314.692296 Z" id="Oval-3-Copy-12" fill-opacity="0.3" fill="#138C8F" sketch:type="MSShapeGroup" transform="translate(499.987529, 314.692296) rotate(-180.000000) translate(-499.987529, -314.692296) "></path>
                <path d="M432.41598,475.424619 C432.41598,492.869472 446.557827,507.011319 464.00268,507.011319 C481.447533,507.011319 495.589381,492.869472 495.589381,475.424619 C495.589381,457.979766 481.447533,443.837919 464.00268,443.837919 C446.557827,443.837919 432.41598,457.979766 432.41598,475.424619 L432.41598,475.424619 Z" id="Oval-3-Copy-13" fill-opacity="0.1" fill="#D75B36" sketch:type="MSShapeGroup" transform="translate(464.002680, 475.424619) rotate(-180.000000) translate(-464.002680, -475.424619) "></path>
                <path d="M476.397461,471.90735 C476.397461,484.273322 486.422062,494.297922 498.788034,494.297922 C511.154006,494.297922 521.178606,484.273322 521.178606,471.90735 C521.178606,459.541378 511.154006,449.516778 498.788034,449.516778 C486.422062,449.516778 476.397461,459.541378 476.397461,471.90735 L476.397461,471.90735 Z" id="Oval-3-Copy-14" fill-opacity="0.5" fill="#CA4D85" sketch:type="MSShapeGroup" transform="translate(498.788034, 471.907350) rotate(-180.000000) translate(-498.788034, -471.907350) "></path>
                <path d="M526.776249,381.864013 C526.776249,390.917671 534.115689,398.257111 543.169347,398.257111 C552.223005,398.257111 559.562445,390.917671 559.562445,381.864013 C559.562445,372.810355 552.223005,365.470915 543.169347,365.470915 C534.115689,365.470915 526.776249,372.810355 526.776249,381.864013 L526.776249,381.864013 Z" id="Oval-3-Copy-15" fill-opacity="0.5" fill="#CA4D85" sketch:type="MSShapeGroup" transform="translate(543.169347, 381.864013) rotate(-180.000000) translate(-543.169347, -381.864013) "></path>
                <path d="M530.774566,338.282363 C530.774566,343.582065 535.070823,347.878323 540.370525,347.878323 C545.670228,347.878323 549.966485,343.582065 549.966485,338.282363 C549.966485,332.982661 545.670228,328.686404 540.370525,328.686404 C535.070823,328.686404 530.774566,332.982661 530.774566,338.282363 L530.774566,338.282363 Z" id="Oval-3-Copy-16" fill-opacity="0.1" fill="#138C8F" sketch:type="MSShapeGroup" transform="translate(540.370525, 338.282363) rotate(-180.000000) translate(-540.370525, -338.282363) "></path>
                <path d="M573.956384,409.052565 C573.956384,415.01473 578.789674,419.84802 584.751839,419.84802 C590.714003,419.84802 595.547293,415.01473 595.547293,409.052565 C595.547293,403.0904 590.714003,398.257111 584.751839,398.257111 C578.789674,398.257111 573.956384,403.0904 573.956384,409.052565 L573.956384,409.052565 Z" id="Oval-3-Copy-17" fill-opacity="0.2" fill="#138C8F" sketch:type="MSShapeGroup" transform="translate(584.751839, 409.052565) rotate(-180.000000) translate(-584.751839, -409.052565) "></path>
                <path d="M577.155037,491.817717 C577.155037,498.442344 582.525359,503.812666 589.149987,503.812666 C595.774614,503.812666 601.144936,498.442344 601.144936,491.817717 C601.144936,485.193089 595.774614,479.822767 589.149987,479.822767 C582.525359,479.822767 577.155037,485.193089 577.155037,491.817717 L577.155037,491.817717 Z" id="Oval-3-Copy-18" fill-opacity="0.1" fill="#138C8F" sketch:type="MSShapeGroup" transform="translate(589.149987, 491.817717) rotate(-180.000000) translate(-589.149987, -491.817717) "></path>
                <path d="M877.859166,378.948574 C873.83286,371.974808 864.91554,369.585419 857.941774,373.611725 C850.968008,377.63803 848.578619,386.55535 852.604925,393.529117 C856.631231,400.502883 865.548551,402.892271 872.522317,398.865966 C879.496083,394.83966 881.885472,385.92234 877.859166,378.948574 L877.859166,378.948574 L877.859166,378.948574 Z" id="Oval-3-Copy-45" fill-opacity="0.5" fill="#138C8F" sketch:type="MSShapeGroup" transform="translate(865.232045, 386.238845) rotate(-180.000000) translate(-865.232045, -386.238845) "></path>
                <path d="M856.45939,381.082755 C852.433084,374.108989 843.515764,371.7196 836.541998,375.745906 C829.568232,379.772212 827.178843,388.689532 831.205149,395.663298 C835.231455,402.637064 844.148775,405.026453 851.122541,401.000147 C858.096307,396.973841 860.485696,388.056521 856.45939,381.082755 L856.45939,381.082755 L856.45939,381.082755 Z" id="Oval-3-Copy-23" fill-opacity="0.1" fill="#138C8F" sketch:type="MSShapeGroup" transform="translate(843.832269, 388.373027) rotate(-180.000000) translate(-843.832269, -388.373027) "></path>
                <path d="M816.793648,324.30293 C810.332832,313.112469 796.023644,309.278333 784.833182,315.739149 C773.64272,322.199966 769.808585,336.509154 776.269401,347.699615 C782.730217,358.890077 797.039405,362.724213 808.229867,356.263396 C819.420329,349.80258 823.254464,335.493392 816.793648,324.30293 L816.793648,324.30293 L816.793648,324.30293 Z" id="Oval-3-Copy-24" fill-opacity="0.3" fill="#138C8F" sketch:type="MSShapeGroup" transform="translate(796.531524, 336.001273) rotate(-180.000000) translate(-796.531524, -336.001273) "></path>
                <path d="M901.459798,425.230485 C898.557112,420.202886 892.128346,418.480304 887.100748,421.382989 C882.073149,424.285675 880.350566,430.714441 883.253252,435.742039 C886.155937,440.769638 892.584703,442.492221 897.612302,439.589535 C902.6399,436.68685 904.362483,430.258084 901.459798,425.230485 L901.459798,425.230485 L901.459798,425.230485 Z" id="Oval-3-Copy-25" fill-opacity="0.3" fill="#138C8F" sketch:type="MSShapeGroup" transform="translate(892.356525, 430.486262) rotate(-180.000000) translate(-892.356525, -430.486262) "></path>
                <path d="M804.610856,352.867355 C801.70817,347.839756 795.279405,346.117173 790.251806,349.019859 C785.224207,351.922545 783.501625,358.35131 786.40431,363.378909 C789.306996,368.406508 795.735761,370.12909 800.76336,367.226405 C805.790959,364.323719 807.513541,357.894954 804.610856,352.867355 L804.610856,352.867355 L804.610856,352.867355 Z" id="Oval-3-Copy-26" fill-opacity="0.1" fill="#138C8F" sketch:type="MSShapeGroup" transform="translate(795.507583, 358.123132) rotate(-180.000000) translate(-795.507583, -358.123132) "></path>
                <path d="M784.068842,395.569369 C781.634331,391.352673 776.242464,389.907927 772.025768,392.342437 C767.809072,394.776947 766.364325,400.168815 768.798836,404.385511 C771.233346,408.602207 776.625214,410.046953 780.84191,407.612443 C785.058606,405.177933 786.503352,399.786065 784.068842,395.569369 L784.068842,395.569369 L784.068842,395.569369 Z" id="Oval-3-Copy-27" fill-opacity="0.6" fill="#138C8F" sketch:type="MSShapeGroup" transform="translate(776.433839, 399.977440) rotate(-180.000000) translate(-776.433839, -399.977440) "></path>
                <path d="M836.740727,426.76732 C832.901692,420.117915 824.399131,417.839661 817.749726,421.678697 C811.100321,425.517732 808.822067,434.020293 812.661102,440.669698 C816.500138,447.319103 825.002699,449.597357 831.652104,445.758322 C838.301509,441.919286 840.579763,433.416725 836.740727,426.76732 L836.740727,426.76732 L836.740727,426.76732 Z" id="Oval-3-Copy-28" fill-opacity="0.6" fill="#138C8F" sketch:type="MSShapeGroup" transform="translate(824.700915, 433.718509) rotate(-180.000000) translate(-824.700915, -433.718509) "></path>
                <path d="M864.949223,446.076675 C862.701983,442.184341 857.724874,440.850729 853.832539,443.097969 C849.940205,445.345209 848.606592,450.322318 850.853833,454.214653 C853.101073,458.106987 858.078182,459.4406 861.970517,457.193359 C865.862851,454.946119 867.196463,449.96901 864.949223,446.076675 L864.949223,446.076675 L864.949223,446.076675 Z" id="Oval-3-Copy-29" fill-opacity="0.1" fill="#138C8F" sketch:type="MSShapeGroup" transform="translate(857.901528, 450.145664) rotate(-180.000000) translate(-857.901528, -450.145664) "></path>
                <path d="M796.209869,448.473136 C794.337169,445.229524 790.189578,444.118181 786.945966,445.990881 C783.702354,447.863581 782.59101,452.011172 784.463711,455.254784 C786.336411,458.498396 790.484002,459.60974 793.727614,457.737039 C796.971226,455.864339 798.08257,451.716748 796.209869,448.473136 L796.209869,448.473136 L796.209869,448.473136 Z" id="Oval-3-Copy-30" fill-opacity="0.05" fill="#138C8F" sketch:type="MSShapeGroup" transform="translate(790.336790, 451.863960) rotate(-180.000000) translate(-790.336790, -451.863960) "></path>
                <path d="M738.496851,396.15928 C732.785115,386.266263 720.134963,382.876665 710.241946,388.588401 C700.348929,394.300137 696.959332,406.950289 702.671068,416.843306 C708.382804,426.736322 721.032955,430.12592 730.925972,424.414184 C740.818989,418.702448 744.208587,406.052297 738.496851,396.15928 L738.496851,396.15928 L738.496851,396.15928 Z" id="Oval-3-Copy-31" fill-opacity="0.6" fill="#138C8F" sketch:type="MSShapeGroup" transform="translate(720.583959, 406.501293) rotate(-180.000000) translate(-720.583959, -406.501293) "></path>
                <path d="M723.034671,489.41226 C718.072015,480.816688 707.0809,477.871627 698.485328,482.834283 C689.889755,487.796939 686.944695,498.788054 691.907351,507.383627 C696.870007,515.979199 707.861122,518.924259 716.456694,513.961603 C725.052266,508.998947 727.997327,498.007832 723.034671,489.41226 L723.034671,489.41226 L723.034671,489.41226 Z" id="Oval-3-Copy-32" fill-opacity="0.1" fill="#D75B36" sketch:type="MSShapeGroup" transform="translate(707.471011, 498.397943) rotate(-180.000000) translate(-707.471011, -498.397943) "></path>
                <path d="M815.767978,482.934149 C814.129366,480.095989 810.500224,479.123563 807.662063,480.762176 C804.823902,482.400789 803.851477,486.029931 805.49009,488.868091 C807.128702,491.706252 810.757844,492.678678 813.596005,491.040065 C816.434165,489.401452 817.406591,485.77231 815.767978,482.934149 L815.767978,482.934149 L815.767978,482.934149 Z" id="Oval-3-Copy-33" fill-opacity="0.5" fill="#138C8F" sketch:type="MSShapeGroup" transform="translate(810.629034, 485.901120) rotate(-180.000000) translate(-810.629034, -485.901120) "></path>
                <path d="M793.162236,469.60698 C792.015207,467.620267 789.474808,466.939569 787.488095,468.086598 C785.501383,469.233627 784.820685,471.774026 785.967714,473.760739 C787.114743,475.747451 789.655142,476.428149 791.641854,475.28112 C793.628567,474.134091 794.309265,471.593692 793.162236,469.60698 L793.162236,469.60698 L793.162236,469.60698 Z" id="Oval-3-Copy-34" fill-opacity="0.3" fill="#138C8F" sketch:type="MSShapeGroup" transform="translate(789.564975, 471.683859) rotate(-180.000000) translate(-789.564975, -471.683859) "></path>
                <path d="M743.795795,485.333704 C741.642189,481.60355 736.87246,480.325505 733.142306,482.479111 C729.412152,484.632716 728.134107,489.402445 730.287712,493.132599 C732.441318,496.862753 737.211047,498.140798 740.941201,495.987193 C744.671355,493.833587 745.9494,489.063858 743.795795,485.333704 L743.795795,485.333704 L743.795795,485.333704 Z" id="Oval-3-Copy-35" fill-opacity="0.1" fill="#138C8F" sketch:type="MSShapeGroup" transform="translate(737.041754, 489.233152) rotate(-180.000000) translate(-737.041754, -489.233152) "></path>
                <path d="M876.029203,514.549426 C867.836139,500.358623 849.690429,495.496495 835.499626,503.689559 C821.308823,511.882623 816.446695,530.028332 824.639759,544.219135 C832.832823,558.409938 850.978532,563.272066 865.169335,555.079002 C879.360139,546.885939 884.222267,528.740229 876.029203,514.549426 L876.029203,514.549426 L876.029203,514.549426 Z" id="Oval-3-Copy-36" fill-opacity="0.1" fill="#138C8F" sketch:type="MSShapeGroup" transform="translate(850.334481, 529.384281) rotate(-180.000000) translate(-850.334481, -529.384281) "></path>
                <path d="M818.719516,437.633765 C816.753181,434.227972 812.398211,433.061061 808.992418,435.027397 C805.586625,436.993732 804.419715,441.348702 806.38605,444.754495 C808.352385,448.160288 812.707355,449.327199 816.113148,447.360863 C819.518941,445.394528 820.685852,441.039558 818.719516,437.633765 L818.719516,437.633765 L818.719516,437.633765 Z" id="Oval-3-Copy-37" fill-opacity="0.3" fill="#138C8F" sketch:type="MSShapeGroup" transform="translate(812.552783, 441.194130) rotate(-180.000000) translate(-812.552783, -441.194130) "></path>
                <path d="M688.355321,444.346809 C685.452636,439.31921 679.02387,437.596627 673.996271,440.499313 C668.968672,443.401999 667.24609,449.830764 670.148775,454.858363 C673.051461,459.885962 679.480227,461.608544 684.507825,458.705859 C689.535424,455.803173 691.258007,449.374408 688.355321,444.346809 L688.355321,444.346809 L688.355321,444.346809 Z" id="Oval-3-Copy-38" fill-opacity="0.3" fill="#138C8F" sketch:type="MSShapeGroup" transform="translate(679.252048, 449.602586) rotate(-180.000000) translate(-679.252048, -449.602586) "></path>
                <path d="M758.947471,439.41915 C755.108435,432.769745 746.605874,430.491491 739.956469,434.330526 C733.307064,438.169562 731.02881,446.672123 734.867846,453.321528 C738.706881,459.970933 747.209442,462.249187 753.858847,458.410151 C760.508252,454.571116 762.786506,446.068555 758.947471,439.41915 L758.947471,439.41915 L758.947471,439.41915 Z" id="Oval-3-Copy-41" fill-opacity="0.6" fill="#138C8F" sketch:type="MSShapeGroup" transform="translate(746.907658, 446.370339) rotate(-180.000000) translate(-746.907658, -446.370339) "></path>
                <path d="M720.75474,425.874195 C718.5075,421.981861 713.530391,420.648248 709.638056,422.895489 C705.745722,425.142729 704.412109,430.119838 706.65935,434.012173 C708.90659,437.904507 713.883699,439.238119 717.776034,436.990879 C721.668368,434.743639 723.001981,429.76653 720.75474,425.874195 L720.75474,425.874195 L720.75474,425.874195 Z" id="Oval-3-Copy-42" fill-opacity="0.1" fill="#138C8F" sketch:type="MSShapeGroup" transform="translate(713.707045, 429.943184) rotate(-180.000000) translate(-713.707045, -429.943184) "></path>
                <path d="M792.443347,422.778341 C789.915202,418.399465 784.315954,416.899151 779.937078,419.427297 C775.558202,421.955442 774.057888,427.554689 776.586033,431.933566 C779.114179,436.312442 784.713426,437.812756 789.092303,435.284611 C793.471179,432.756465 794.971493,427.157218 792.443347,422.778341 L792.443347,422.778341 L792.443347,422.778341 Z" id="Oval-3-Copy-43" fill-opacity="0.2" fill="#138C8F" sketch:type="MSShapeGroup" transform="translate(784.514690, 427.355954) rotate(-180.000000) translate(-784.514690, -427.355954) "></path>
                <path d="M855.986094,454.139872 C853.177044,449.274454 846.955658,447.607439 842.090239,450.416489 C837.224821,453.22554 835.557806,459.446926 838.366856,464.312344 C841.175907,469.177762 847.397293,470.844777 852.262711,468.035727 C857.128129,465.226676 858.795145,459.00529 855.986094,454.139872 L855.986094,454.139872 L855.986094,454.139872 Z" id="Oval-3-Copy-44" fill-opacity="0.6" fill="#138C8F" sketch:type="MSShapeGroup" transform="translate(847.176475, 459.226108) rotate(-180.000000) translate(-847.176475, -459.226108) "></path>
                <ellipse id="Oval-3" fill-opacity="0.5" fill="#138C8F" sketch:type="MSShapeGroup" transform="translate(349.498711, 389.355321) rotate(-20.000000) translate(-349.498711, -389.355321) " cx="349.498711" cy="389.355321" rx="29.2044104" ry="29.2044104"></ellipse>
                <ellipse id="Oval-3-Copy" fill-opacity="0.1" fill="#D75B36" sketch:type="MSShapeGroup" transform="translate(385.829926, 413.715366) rotate(-20.000000) translate(-385.829926, -413.715366) " cx="385.829926" cy="413.715366" rx="29.2044104" ry="29.2044104"></ellipse>
                <circle id="Oval-3-Copy-2" fill-opacity="0.3" fill="#138C8F" sketch:type="MSShapeGroup" transform="translate(390.977822, 554.948185) rotate(-20.000000) translate(-390.977822, -554.948185) " cx="390.977822" cy="554.948185" r="46.8628911"></circle>
                <circle id="Oval-3-Copy-4" fill-opacity="0.3" fill="#138C8F" sketch:type="MSShapeGroup" transform="translate(365.599547, 286.645243) rotate(-20.000000) translate(-365.599547, -286.645243) " cx="365.599547" cy="286.645243" r="21.0543424"></circle>
                <circle id="Oval-3-Copy-5" fill-opacity="0.1" fill="#138C8F" sketch:type="MSShapeGroup" transform="translate(421.025471, 522.328932) rotate(-20.000000) translate(-421.025471, -522.328932) " cx="421.025471" cy="522.328932" r="21.0543424"></circle>
                <ellipse id="Oval-3-Copy-6" fill-opacity="0.6" fill="#138C8F" sketch:type="MSShapeGroup" transform="translate(473.551400, 368.777679) rotate(-20.000000) translate(-473.551400, -368.777679) " cx="473.5514" cy="368.777679" rx="27.8460657" ry="27.8460657"></ellipse>
                <circle id="Oval-3-Copy-9" fill-opacity="0.1" fill="#D75B36" sketch:type="MSShapeGroup" transform="translate(443.764230, 300.838471) rotate(-20.000000) translate(-443.764230, -300.838471) " cx="443.76423" cy="300.838471" r="16.300136"></circle>
                <ellipse id="Oval-3-Copy-7" fill-opacity="0.05" fill="#138C8F" sketch:type="MSShapeGroup" transform="translate(549.627811, 385.176496) rotate(-20.000000) translate(-549.627811, -385.176496) " cx="549.627811" cy="385.176496" rx="13.5834467" ry="13.5834467"></ellipse>
                <path d="M700.658625,420.458948 C700.658625,440.339064 716.774643,456.455082 736.654759,456.455082 C756.534874,456.455082 772.650892,440.339064 772.650892,420.458948 C772.650892,400.578833 756.534874,384.462815 736.654759,384.462815 C716.774643,384.462815 700.658625,400.578833 700.658625,420.458948 L700.658625,420.458948 Z" id="Oval-3-Copy-19" fill-opacity="0.5" fill="#CA4D85" sketch:type="MSShapeGroup" transform="translate(736.654759, 420.458948) rotate(-20.000000) translate(-736.654759, -420.458948) "></path>
                <path d="M550.426807,306.838181 C550.426807,313.40237 555.748133,318.723697 562.312322,318.723697 C568.876512,318.723697 574.197838,313.40237 574.197838,306.838181 C574.197838,300.273992 568.876512,294.952665 562.312322,294.952665 C555.748133,294.952665 550.426807,300.273992 550.426807,306.838181 L550.426807,306.838181 Z" id="Oval-3-Copy-21" fill-opacity="0.5" fill="#138C8F" sketch:type="MSShapeGroup" transform="translate(562.312322, 306.838181) rotate(-20.000000) translate(-562.312322, -306.838181) "></path>
                <path d="M568.005566,355.764145 C568.005566,360.359078 571.730494,364.084007 576.325427,364.084007 C580.920359,364.084007 584.645288,360.359078 584.645288,355.764145 C584.645288,351.169213 580.920359,347.444284 576.325427,347.444284 C571.730494,347.444284 568.005566,351.169213 568.005566,355.764145 L568.005566,355.764145 Z" id="Oval-3-Copy-22" fill-opacity="0.3" fill="#138C8F" sketch:type="MSShapeGroup" transform="translate(576.325427, 355.764145) rotate(-20.000000) translate(-576.325427, -355.764145) "></path>
                <path d="M663.87149,396.4532 C663.87149,405.08042 670.865234,412.074163 679.492454,412.074163 C688.119674,412.074163 695.113418,405.08042 695.113418,396.4532 C695.113418,387.82598 688.119674,380.832236 679.492454,380.832236 C670.865234,380.832236 663.87149,387.82598 663.87149,396.4532 L663.87149,396.4532 Z" id="Oval-3-Copy-10" fill-opacity="0.1" fill="#138C8F" sketch:type="MSShapeGroup" transform="translate(679.492454, 396.453200) rotate(-20.000000) translate(-679.492454, -396.453200) "></path>
                <path d="M497.94684,189.018633 C497.94684,221.839579 524.553474,248.446213 557.37442,248.446213 C590.195365,248.446213 616.801999,221.839579 616.801999,189.018633 C616.801999,156.197688 590.195365,129.591054 557.37442,129.591054 C524.553474,129.591054 497.94684,156.197688 497.94684,189.018633 L497.94684,189.018633 Z" id="Oval-3-Copy-20" fill-opacity="0.1" fill="#138C8F" sketch:type="MSShapeGroup" transform="translate(557.374420, 189.018633) rotate(-20.000000) translate(-557.374420, -189.018633) "></path>
                <path d="M487.548483,372.94719 C487.548483,380.824217 493.934075,387.209809 501.811102,387.209809 C509.688129,387.209809 516.073721,380.824217 516.073721,372.94719 C516.073721,365.070163 509.688129,358.684571 501.811102,358.684571 C493.934075,358.684571 487.548483,365.070163 487.548483,372.94719 L487.548483,372.94719 Z" id="Oval-3-Copy-11" fill-opacity="0.3" fill="#138C8F" sketch:type="MSShapeGroup" transform="translate(501.811102, 372.947190) rotate(-20.000000) translate(-501.811102, -372.947190) "></path>
                <path d="M696.078567,531.641775 C696.078567,543.269767 705.504917,552.696117 717.13291,552.696117 C728.760902,552.696117 738.187252,543.269767 738.187252,531.641775 C738.187252,520.013783 728.760902,510.587433 717.13291,510.587433 C705.504917,510.587433 696.078567,520.013783 696.078567,531.641775 L696.078567,531.641775 Z" id="Oval-3-Copy-12" fill-opacity="0.3" fill="#138C8F" sketch:type="MSShapeGroup" transform="translate(717.132910, 531.641775) rotate(-20.000000) translate(-717.132910, -531.641775) "></path>
                <path d="M627.536657,254.1739 C627.536657,283.806526 651.558646,307.828515 681.191272,307.828515 C710.823897,307.828515 734.845886,283.806526 734.845886,254.1739 C734.845886,224.541275 710.823897,200.519286 681.191272,200.519286 C651.558646,200.519286 627.536657,224.541275 627.536657,254.1739 L627.536657,254.1739 Z" id="Oval-3-Copy-13" fill-opacity="0.1" fill="#D75B36" sketch:type="MSShapeGroup" transform="translate(681.191272, 254.173900) rotate(-20.000000) translate(-681.191272, -254.173900) "></path>
                <path d="M609.181057,477.355405 C624.560014,477.355405 637.027122,464.888297 637.027122,449.509339 C637.027122,434.130382 624.560014,421.663273 609.181057,421.663273 C593.802099,421.663273 581.334991,434.130382 581.334991,449.509339 C581.334991,464.888297 593.802099,477.355405 609.181057,477.355405 Z" id="Oval-3-Copy-15" fill-opacity="0.1" fill="#138C8F" sketch:type="MSShapeGroup" transform="translate(609.181057, 449.509339) rotate(-20.000000) translate(-609.181057, -449.509339) "></path>
                <path d="M622.668091,517.448547 C622.668091,526.450864 629.96591,533.748683 638.968227,533.748683 C647.970543,533.748683 655.268363,526.450864 655.268363,517.448547 C655.268363,508.44623 647.970543,501.148411 638.968227,501.148411 C629.96591,501.148411 622.668091,508.44623 622.668091,517.448547 L622.668091,517.448547 Z" id="Oval-3-Copy-16" fill-opacity="0.1" fill="#138C8F" sketch:type="MSShapeGroup" transform="translate(638.968227, 517.448547) rotate(-20.000000) translate(-638.968227, -517.448547) "></path>
                <path d="M508.673466,430.269064 C508.673466,440.39667 516.883512,448.606717 527.011119,448.606717 C537.138725,448.606717 545.348772,440.39667 545.348772,430.269064 C545.348772,420.141458 537.138725,411.931411 527.011119,411.931411 C516.883512,411.931411 508.673466,420.141458 508.673466,430.269064 L508.673466,430.269064 Z" id="Oval-3-Copy-17" fill-opacity="0.2" fill="#138C8F" sketch:type="MSShapeGroup" transform="translate(527.011119, 430.269064) rotate(-20.000000) translate(-527.011119, -430.269064) "></path>
                <path d="M451.531445,300.714122 C451.531445,311.967017 460.653719,321.089292 471.906615,321.089292 C483.159511,321.089292 492.281785,311.967017 492.281785,300.714122 C492.281785,289.461226 483.159511,280.338952 471.906615,280.338952 C460.653719,280.338952 451.531445,289.461226 451.531445,300.714122 L451.531445,300.714122 Z" id="Oval-3-Copy-18" fill-opacity="0.6" fill="#138C8F" sketch:type="MSShapeGroup" transform="translate(471.906615, 300.714122) rotate(-20.000000) translate(-471.906615, -300.714122) "></path>
                <path d="M114.010359,617.251731 C107.171092,605.405773 92.0237241,601.347048 80.177766,608.186315 C68.3318079,615.025582 64.2730829,630.17295 71.11235,642.018908 C77.9516172,653.864866 93.098985,657.923591 104.944943,651.084324 C116.790901,644.245057 120.849626,629.097689 114.010359,617.251731 L114.010359,617.251731 L114.010359,617.251731 Z" id="Oval-3-Copy-45" fill-opacity="0.5" fill="#CA4D85" sketch:type="MSShapeGroup" transform="translate(92.561355, 629.635319) rotate(-20.000000) translate(-92.561355, -629.635319) "></path>
                <path d="M146.928888,601.412489 C140.089621,589.566531 124.942253,585.507806 113.096295,592.347073 C101.250337,599.18634 97.1916122,614.333708 104.030879,626.179666 C110.870146,638.025625 126.017514,642.084349 137.863472,635.245082 C149.70943,628.405815 153.768155,613.258447 146.928888,601.412489 L146.928888,601.412489 L146.928888,601.412489 Z" id="Oval-3-Copy-23" fill-opacity="0.1" fill="#138C8F" sketch:type="MSShapeGroup" transform="translate(125.479884, 613.796078) rotate(-20.000000) translate(-125.479884, -613.796078) "></path>
                <path d="M265.826208,650.040423 C254.85157,631.031792 230.545328,624.518954 211.536698,635.493592 C192.528067,646.46823 186.01523,670.774472 196.989867,689.783102 C207.964505,708.791733 232.270747,715.30457 251.279377,704.329932 C270.288008,693.355295 276.800845,669.049053 265.826208,650.040423 L265.826208,650.040423 L265.826208,650.040423 Z" id="Oval-3-Copy-24" fill-opacity="0.3" fill="#D75B36" sketch:type="MSShapeGroup" transform="translate(231.408037, 669.911762) rotate(-20.000000) translate(-231.408037, -669.911762) "></path>
                <path d="M39.0218952,565.83821 C34.0912608,557.298101 23.1710654,554.372043 14.630956,559.302678 C6.09084669,564.233312 3.16478914,575.153508 8.09542357,583.693617 C13.026058,592.233726 23.9462534,595.159784 32.4863628,590.22915 C41.0264721,585.298515 43.9525296,574.37832 39.0218952,565.83821 L39.0218952,565.83821 L39.0218952,565.83821 Z" id="Oval-3-Copy-25" fill-opacity="0.3" fill="#138C8F" sketch:type="MSShapeGroup" transform="translate(23.558659, 574.765914) rotate(-20.000000) translate(-23.558659, -574.765914) "></path>
                <path d="M235.653534,625.07816 C230.722899,616.53805 219.802704,613.611993 211.262594,618.542627 C202.722485,623.473261 199.796427,634.393457 204.727062,642.933566 C209.657696,651.473676 220.577892,654.399733 229.118001,649.469099 C237.65811,644.538464 240.584168,633.618269 235.653534,625.07816 L235.653534,625.07816 L235.653534,625.07816 Z" id="Oval-3-Copy-26" fill-opacity="0.1" fill="#D75B36" sketch:type="MSShapeGroup" transform="translate(220.190298, 634.005863) rotate(-20.000000) translate(-220.190298, -634.005863) "></path>
                <path d="M239.288925,548.628767 C235.153554,541.466095 225.99468,539.011982 218.832008,543.147353 C211.669336,547.282724 209.215223,556.441597 213.350594,563.60427 C217.485965,570.766942 226.644838,573.221055 233.80751,569.085684 C240.970183,564.950313 243.424296,555.79144 239.288925,548.628767 L239.288925,548.628767 L239.288925,548.628767 Z" id="Oval-3-Copy-27" fill-opacity="0.6" fill="#138C8F" sketch:type="MSShapeGroup" transform="translate(226.319759, 556.116519) rotate(-20.000000) translate(-226.319759, -556.116519) "></path>
                <path d="M150.124409,518.493026 C143.603247,507.198043 129.160408,503.328096 117.865425,509.849257 C106.570441,516.370419 102.700494,530.813258 109.221656,542.108241 C115.742817,553.403225 130.185657,557.273172 141.48064,550.75201 C152.775623,544.230848 156.64557,529.788009 150.124409,518.493026 L150.124409,518.493026 L150.124409,518.493026 Z" id="Oval-3-Copy-28" fill-opacity="0.6" fill="#D75B36" sketch:type="MSShapeGroup" transform="translate(129.673032, 530.300634) rotate(-20.000000) translate(-129.673032, -530.300634) "></path>
                <path d="M79.1058871,516.456354 C75.2886218,509.844656 66.8342769,507.579322 60.2225794,511.396587 C53.6108818,515.213852 51.3455469,523.668197 55.1628123,530.279895 C58.9800776,536.891592 67.4344225,539.156927 74.0461201,535.339662 C80.6578176,531.522396 82.9231525,523.068051 79.1058871,516.456354 L79.1058871,516.456354 L79.1058871,516.456354 Z" id="Oval-3-Copy-29" fill-opacity="0.1" fill="#138C8F" sketch:type="MSShapeGroup" transform="translate(67.134350, 523.368124) rotate(-20.000000) translate(-67.134350, -523.368124) "></path>
                <path d="M183.959515,475.612406 C180.778461,470.102658 173.733173,468.214879 168.223425,471.395933 C162.713677,474.576988 160.825898,481.622275 164.006953,487.132023 C167.188007,492.641771 174.233295,494.52955 179.743043,491.348495 C185.25279,488.167441 187.14057,481.122154 183.959515,475.612406 L183.959515,475.612406 L183.959515,475.612406 Z" id="Oval-3-Copy-30" fill-opacity="0.05" fill="#138C8F" sketch:type="MSShapeGroup" transform="translate(173.983234, 481.372214) rotate(-20.000000) translate(-173.983234, -481.372214) "></path>
                <path d="M342.105097,495.688533 C332.402881,478.883802 310.914755,473.126076 294.110024,482.828292 C277.305292,492.530508 271.547566,514.018634 281.249782,530.823366 C290.951998,547.628097 312.440125,553.385823 329.244856,543.683607 C346.049587,533.981391 351.807314,512.493264 342.105097,495.688533 L342.105097,495.688533 L342.105097,495.688533 Z" id="Oval-3-Copy-31" fill-opacity="0.6" fill="#D75B36" sketch:type="MSShapeGroup" transform="translate(311.677440, 513.255949) rotate(-20.000000) translate(-311.677440, -513.255949) "></path>
                <path d="M305.656242,343.688331 C297.226448,329.087498 278.556436,324.084884 263.955604,332.514678 C249.354772,340.944473 244.352158,359.614484 252.781952,374.215316 C261.211746,388.816148 279.881758,393.818763 294.48259,385.388968 C309.083422,376.959174 314.086037,358.289163 305.656242,343.688331 L305.656242,343.688331 L305.656242,343.688331 Z" id="Oval-3-Copy-32" fill-opacity="0.5" fill="#CA4D85" sketch:type="MSShapeGroup" transform="translate(279.219097, 358.951823) rotate(-20.000000) translate(-279.219097, -358.951823) "></path>
                <path d="M130.547296,433.791307 C127.763873,428.970277 121.599247,427.318471 116.778217,430.101893 C111.957188,432.885316 110.305381,439.049943 113.088804,443.870972 C115.872226,448.692001 122.036853,450.343808 126.857882,447.560385 C131.678912,444.776963 133.330719,438.612336 130.547296,433.791307 L130.547296,433.791307 L130.547296,433.791307 Z" id="Oval-3-Copy-33" fill-opacity="0.5" fill="#138C8F" sketch:type="MSShapeGroup" transform="translate(121.818050, 438.831139) rotate(-20.000000) translate(-121.818050, -438.831139) "></path>
                <path d="M169.810893,445.75931 C167.862498,442.384589 163.547259,441.228324 160.172538,443.17672 C156.797818,445.125116 155.641553,449.440354 157.589949,452.815075 C159.538345,456.189796 163.853583,457.34606 167.228304,455.397665 C170.603025,453.449269 171.759289,449.13403 169.810893,445.75931 L169.810893,445.75931 L169.810893,445.75931 Z" id="Oval-3-Copy-34" fill-opacity="0.3" fill="#138C8F" sketch:type="MSShapeGroup" transform="translate(163.700421, 449.287192) rotate(-20.000000) translate(-163.700421, -449.287192) "></path>
                <path d="M248.815336,384.136674 C245.157123,377.800464 237.055042,375.629518 230.718832,379.287731 C224.382622,382.945943 222.211676,391.048024 225.869889,397.384234 C229.528102,403.720444 237.630182,405.89139 243.966392,402.233177 C250.302602,398.574965 252.473548,390.472884 248.815336,384.136674 L248.815336,384.136674 L248.815336,384.136674 Z" id="Oval-3-Copy-35" fill-opacity="0.1" fill="#138C8F" sketch:type="MSShapeGroup" transform="translate(237.342612, 390.760454) rotate(-20.000000) translate(-237.342612, -390.760454) "></path>
                <path d="M78.3355474,382.189673 C71.3904328,370.160382 56.0086375,366.038842 43.979346,372.983957 C31.9500546,379.929071 27.828515,395.310867 34.7736296,407.340158 C41.7187443,419.36945 57.1005396,423.490989 69.129831,416.545875 C81.1591224,409.60076 85.280662,394.218965 78.3355474,382.189673 L78.3355474,382.189673 L78.3355474,382.189673 Z" id="Oval-3-Copy-36" fill-opacity="0.1" fill="#138C8F" sketch:type="MSShapeGroup" transform="translate(56.554589, 394.764916) rotate(-20.000000) translate(-56.554589, -394.764916) "></path>
                <path d="M155.195915,505.262499 C151.855808,499.477264 144.458256,497.495096 138.673021,500.835203 C132.887785,504.17531 130.905617,511.572862 134.245725,517.358097 C137.585832,523.143333 144.983384,525.125501 150.768619,521.785394 C156.553854,518.445286 158.536022,511.047735 155.195915,505.262499 L155.195915,505.262499 L155.195915,505.262499 Z" id="Oval-3-Copy-37" fill-opacity="0.3" fill="#138C8F" sketch:type="MSShapeGroup" transform="translate(144.720820, 511.310298) rotate(-20.000000) translate(-144.720820, -511.310298) "></path>
                <path d="M368.07427,411.517107 C363.143635,402.976997 352.22344,400.05094 343.683331,404.981574 C335.143221,409.912209 332.217164,420.832404 337.147798,429.372514 C342.078432,437.912623 352.998628,440.83868 361.538737,435.908046 C370.078847,430.977412 373.004904,420.057216 368.07427,411.517107 L368.07427,411.517107 L368.07427,411.517107 Z" id="Oval-3-Copy-38" fill-opacity="0.3" fill="#138C8F" sketch:type="MSShapeGroup" transform="translate(352.611034, 420.444810) rotate(-20.000000) translate(-352.611034, -420.444810) "></path>
                <path d="M172.955767,306.420344 C160.390602,284.656839 132.561716,277.200112 110.798212,289.765277 C89.0347076,302.330442 81.5779803,330.159327 94.1431455,351.922832 C106.708311,373.686336 134.537196,381.143063 156.3007,368.577898 C178.064205,356.012733 185.520932,328.183848 172.955767,306.420344 L172.955767,306.420344 L172.955767,306.420344 Z" id="Oval-3-Copy-39" fill-opacity="0.1" fill="#D75B36" sketch:type="MSShapeGroup" transform="translate(133.549456, 329.171588) rotate(-20.000000) translate(-133.549456, -329.171588) "></path>
                <path d="M157.77071,363.281403 C148.863758,347.854109 129.136953,342.568327 113.709659,351.47528 C98.2823647,360.382232 92.9965833,380.109037 101.903536,395.536331 C110.810488,410.963626 130.537293,416.249407 145.964587,407.342455 C161.391882,398.435502 166.677663,378.708697 157.77071,363.281403 L157.77071,363.281403 L157.77071,363.281403 Z" id="Oval-3-Copy-40" fill-opacity="0.6" fill="#D75B36" sketch:type="MSShapeGroup" transform="translate(129.837123, 379.408867) rotate(-20.000000) translate(-129.837123, -379.408867) "></path>
                <path d="M266.948037,453.102483 C260.426876,441.807499 245.984037,437.937552 234.689053,444.458714 C223.39407,450.979875 219.524123,465.422715 226.045285,476.717698 C232.566446,488.012681 247.009285,491.882628 258.304269,485.361467 C269.599252,478.840305 273.469199,464.397466 266.948037,453.102483 L266.948037,453.102483 L266.948037,453.102483 Z" id="Oval-3-Copy-41" fill-opacity="0.6" fill="#138C8F" sketch:type="MSShapeGroup" transform="translate(246.496661, 464.910090) rotate(-20.000000) translate(-246.496661, -464.910090) "></path>
                <path d="M321.006881,464.930829 C317.189616,458.319132 308.735271,456.053797 302.123573,459.871062 C295.511876,463.688328 293.246541,472.142672 297.063806,478.75437 C300.881072,485.366067 309.335416,487.631402 315.947114,483.814137 C322.558811,479.996872 324.824146,471.542527 321.006881,464.930829 L321.006881,464.930829 L321.006881,464.930829 Z" id="Oval-3-Copy-42" fill-opacity="0.1" fill="#D75B36" sketch:type="MSShapeGroup" transform="translate(309.035344, 471.842600) rotate(-20.000000) translate(-309.035344, -471.842600) "></path>
                <path d="M210.98292,509.333801 C206.688496,501.895641 197.177358,499.347139 189.739199,503.641563 C182.301039,507.935986 179.752537,517.447124 184.046961,524.885284 C188.341384,532.323444 197.852522,534.871946 205.290682,530.577522 C212.728842,526.283099 215.277343,516.771961 210.98292,509.333801 L210.98292,509.333801 L210.98292,509.333801 Z" id="Oval-3-Copy-43" fill-opacity="0.2" fill="#138C8F" sketch:type="MSShapeGroup" transform="translate(197.514940, 517.109542) rotate(-20.000000) translate(-197.514940, -517.109542) "></path>
                <path d="M93.9426777,494.003217 C89.171096,485.738595 78.6031649,482.906927 70.338543,487.678509 C62.0739211,492.45009 59.2422525,503.018021 64.0138342,511.282643 C68.7854159,519.547265 79.3533469,522.378934 87.6179689,517.607352 C95.8825908,512.83577 98.7142594,502.267839 93.9426777,494.003217 L93.9426777,494.003217 L93.9426777,494.003217 Z" id="Oval-3-Copy-44" fill-opacity="0.6" fill="#138C8F" sketch:type="MSShapeGroup" transform="translate(78.978256, 502.642930) rotate(-20.000000) translate(-78.978256, -502.642930) "></path>
                <g id="Group-+-Group-+-Group" transform="translate(15.000000, 67.000000)" stroke="#138C8F" stroke-opacity="0.05" stroke-width="3" fill="#D8D8D8" stroke-linecap="square" sketch:type="MSShapeGroup">
                    <g id="Group" transform="translate(0.000000, 148.000000)">
                        <path d="M127.193017,290.631054 L218.202109,277.047607" id="Line" transform="translate(172.697563, 283.839330) rotate(-20.000000) translate(-172.697563, -283.839330) "></path>
                        <path d="M577.495408,21.6831039 L584.287131,40.6999292" id="Line" transform="translate(580.891270, 31.191517) rotate(-20.000000) translate(-580.891270, -31.191517) "></path>
                        <path d="M583.154711,80.2810353 L554.949229,84.6202011" id="Line" transform="translate(568.770056, 82.582684) rotate(-20.000000) translate(-568.770056, -82.582684) "></path>
                        <path d="M379.140142,270.754441 L625.051378,129.344962" id="Line" transform="translate(501.960969, 199.890870) rotate(-20.000000) translate(-501.960969, -199.890870) "></path>
                        <path d="M67.5375872,145.268472 L234.613982,176.510399" id="Line" transform="translate(151.075784, 160.889436) rotate(-20.000000) translate(-151.075784, -160.889436) "></path>
                        <path d="M360.126652,214.987797 L377.787371,298.036574" id="Line" transform="translate(368.943954, 256.384192) rotate(-20.000000) translate(-368.943954, -256.384192) "></path>
                        <path d="M625.218128,236.564739 L397.016224,34.1713831" id="Line" transform="translate(511.117176, 135.368061) rotate(-20.000000) translate(-511.117176, -135.368061) "></path>
                        <path d="M236.398184,414.332936 L347.782446,384.449354" id="Line" transform="translate(292.090315, 399.391145) rotate(-20.000000) translate(-292.090315, -399.391145) "></path>
                        <path d="M0.93016173,298.208904 L326.932882,241.158428" id="Line" transform="translate(163.931522, 269.683666) rotate(-20.000000) translate(-163.931522, -269.683666) "></path>
                        <path d="M432.291755,61.4386071 L504.733596,20.0371977" id="Line" transform="translate(468.262020, 40.858025) rotate(-20.000000) translate(-468.262020, -40.858025) "></path>
                        <path d="M698.608578,297.732967 L728.492161,243.39918" id="Line" transform="translate(713.550370, 270.566074) rotate(-20.000000) translate(-713.550370, -270.566074) "></path>
                    </g>
                    <g id="Group" transform="translate(553.000000, 0.000000)">
                        <path d="M89.9568461,115.024792 L156.956846,105.024792" id="Line"></path>
                        <path d="M188.956846,101.024792 L409.956846,175.024792" id="Line"></path>
                        <path d="M466.956846,31.0247922 L471.956846,45.0247922" id="Line"></path>
                        <path d="M454.956846,72.0247922 L437.956846,72.0247922" id="Line"></path>
                        <path d="M281.956846,187.024792 L469.956846,93.0247922" id="Line"></path>
                        <path d="M77.9568461,8.02479224 L200.956846,31.0247922" id="Line"></path>
                        <path d="M255.956846,110.024792 L271.956846,169.024792" id="Line"></path>
                        <path d="M478.956846,167.024792 L310.956846,18.0247922" id="Line"></path>
                        <path d="M135.956846,231.024792 L217.956846,209.024792" id="Line"></path>
                        <path d="M0.956846091,119.024792 L240.956846,77.0247922" id="Line"></path>
                        <path d="M361.5,30.5000005 L415.956846,1.02479224" id="Line"></path>
                        <path d="M489.956846,257.024792 L511.956846,217.024792" id="Line"></path>
                    </g>
                    <g id="Group" transform="translate(460.000000, 254.000000)">
                        <path d="M284.47827,122.438087 L338.055711,114.441454" id="Line" transform="translate(311.266990, 118.439771) rotate(-180.000000) translate(-311.266990, -118.439771) "></path>
                        <path d="M82.1634547,66.461656 L258.889044,125.63674" id="Line" transform="translate(170.526249, 96.049198) rotate(-180.000000) translate(-170.526249, -96.049198) "></path>
                        <path d="M32.5843301,170.417885 L36.5826466,181.613171" id="Line" transform="translate(34.583488, 176.015528) rotate(-180.000000) translate(-34.583488, -176.015528) "></path>
                        <path d="M59.7728823,148.826976 L46.1786062,148.826976" id="Line" transform="translate(52.975744, 148.826976) rotate(-180.000000) translate(-52.975744, -148.826976) "></path>
                        <path d="M34.1836567,132.034047 L184.520357,56.8656964" id="Line" transform="translate(109.352007, 94.449872) rotate(-180.000000) translate(-109.352007, -94.449872) "></path>
                        <path d="M249.293084,181.613171 L347.65167,200.005427" id="Line" transform="translate(298.472377, 190.809299) rotate(-180.000000) translate(-298.472377, -190.809299) "></path>
                        <path d="M192.51699,71.2596358 L205.311603,118.439771" id="Line" transform="translate(198.914296, 94.849703) rotate(-180.000000) translate(-198.914296, -94.849703) "></path>
                        <path d="M161.330121,192.008794 L26.9866871,72.8589624" id="Line" transform="translate(94.158404, 132.433878) rotate(-180.000000) translate(-94.158404, -132.433878) "></path>
                        <path d="M235.698808,39.2731038 L301.271199,21.6805113" id="Line" transform="translate(268.485004, 30.476808) rotate(-180.000000) translate(-268.485004, -30.476808) "></path>
                        <path d="M217.306552,144.828659 L409.225744,111.242801" id="Line" transform="translate(313.266148, 128.035730) rotate(-180.000000) translate(-313.266148, -128.035730) "></path>
                        <path d="M76.9868421,205.505803 L106.121367,179.402733" id="Line" transform="translate(91.743421, 192.502902) rotate(-180.000000) translate(-91.743421, -192.502902) "></path>
                        <path d="M0.597798163,32.8757974 L18.1903908,0.889265461" id="Line" transform="translate(9.394094, 16.882531) rotate(-180.000000) translate(-9.394094, -16.882531) "></path>
                    </g>
                </g>
            </g>
        </g>
    </g>
</svg>