<?xml version="1.0" encoding="UTF-8" standalone="no"?>
<svg width="144px" height="114px" viewBox="0 0 144 114" version="1.1" xmlns="http://www.w3.org/2000/svg" xmlns:xlink="http://www.w3.org/1999/xlink" xmlns:sketch="http://www.bohemiancoding.com/sketch/ns">
    <!-- Generator: Sketch 3.3.3 (12072) - http://www.bohemiancoding.com/sketch -->
    <title> +  copy</title>
    <desc>Created with Sketch.</desc>
    <defs></defs>
    <g id="Page-1" stroke="none" stroke-width="1" fill="none" fill-rule="evenodd" sketch:type="MSPage">
        <g id="-+--copy" sketch:type="MSLayerGroup">
            <path d="M113.142992,41.2856407 C113.142992,18.5445422 87.8304618,0.142734528 56.571496,0.142734528 C25.3125302,0.142734528 0,18.5445422 0,41.2856407 C0,54.3035134 8.35715282,65.955313 21.3750255,73.5088934 C18.6428794,80.1785442 15.1071609,83.3124765 11.9732286,86.848195 C11.0892989,87.8928391 10.0446548,88.857126 10.3660838,90.3839135 C10.6071555,91.7499866 11.7321568,92.7142735 12.9375154,92.7142735 L13.1785871,92.7142735 C15.5893043,92.3928445 17.9196642,91.9910583 20.0893097,91.4285576 C28.2053908,89.3392694 35.7589712,85.8839082 42.428622,81.1428311 C46.9286274,81.9464035 51.6697045,82.4285469 56.571496,82.4285469 C87.8304618,82.4285469 113.142992,64.0267393 113.142992,41.2856407 L113.142992,41.2856407 Z" id="" fill-opacity="0.5" fill="#CA4D85" sketch:type="MSShapeGroup"></path>
            <path d="M144.000172,61.8570938 C144.000172,48.437435 135.160875,36.5445636 121.580502,29.0713404 C122.785861,33.0088451 123.428719,37.1070643 123.428719,41.2856407 C123.428719,55.6695864 116.035853,68.9285308 102.616194,78.7321139 C90.1608218,87.7321247 73.8483023,92.7142735 56.571496,92.7142735 C54.2411361,92.7142735 51.8304189,92.553559 49.500059,92.3928445 C59.5447138,98.9821381 72.8840155,103 87.4286757,103 C92.3304672,103 97.0715443,102.517857 101.57155,101.714284 C108.2412,106.455361 115.794781,109.910723 123.910862,112.000011 C126.080507,112.562511 128.410867,112.964298 130.821585,113.285727 C132.1073,113.446441 133.312659,112.401797 133.634088,110.955367 C133.955517,109.428579 132.910873,108.464292 132.026943,107.419648 C128.893011,103.88393 125.357292,100.749997 122.625146,94.0803465 C135.643019,86.5267661 144.000172,74.9553237 144.000172,61.8570938 L144.000172,61.8570938 Z" id="-copy" fill-opacity="0.6" fill="#138C8F" sketch:type="MSShapeGroup"></path>
        </g>
    </g>
</svg>