<?xml version="1.0" encoding="UTF-8" standalone="no"?>
<svg width="32px" height="35px" viewBox="0 0 32 35" version="1.1" xmlns="http://www.w3.org/2000/svg" xmlns:xlink="http://www.w3.org/1999/xlink" xmlns:sketch="http://www.bohemiancoding.com/sketch/ns">
    <!-- Generator: Sketch 3.0.4 (8053) - http://www.bohemiancoding.com/sketch -->
    <title>Shape 2</title>
    <desc>Created with Sketch.</desc>
    <defs></defs>
    <g id="Page-1" stroke="none" stroke-width="1" fill="none" fill-rule="evenodd" sketch:type="MSPage">
        <g id="Account-Settings-2" sketch:type="MSArtboardGroup" transform="translate(-311.000000, -1698.000000)" fill="#138C8F">
            <path d="M342.169838,1707.37938 L342.169838,1707.29417 L342.140107,1707.18252 L342.136171,1707.15104 L342.131799,1707.13215 L342.123055,1707.11284 L342.113435,1707.09857 L342.111686,1707.05743 L342.104691,1707.02427 L342.09376,1706.99825 L342.081955,1706.98272 L342.081955,1706.96719 L342.081955,1706.95417 L342.074959,1706.93822 L342.064028,1706.92857 L342.05266,1706.92521 L342.03998,1706.87484 L342.025989,1706.82741 L342.011998,1706.78753 L342.001941,1706.75773 L342.001941,1706.73212 L341.985326,1706.70022 L341.973521,1706.67798 L341.957344,1706.63012 L341.949911,1706.6083 L341.945976,1706.59193 L341.943352,1706.5638 L341.9263,1706.54785 L341.917993,1706.53358 L341.910997,1706.5063 L341.86159,1706.44627 L341.827048,1706.39254 L341.827048,1706.37575 L341.82049,1706.36064 L341.797317,1706.33336 L341.688009,1706.16965 L341.670082,1706.14111 L341.655216,1706.11928 L341.628982,1706.0836 L341.570393,1706.02652 L341.51399,1705.9476 L341.317673,1705.7478 L341.287941,1705.72346 L341.264331,1705.70877 L341.242906,1705.69659 L341.230227,1705.69323 L341.213612,1705.66805 L341.200058,1705.65168 L341.183443,1705.63909 L341.1712,1705.63909 L341.033472,1705.49469 L340.947775,1705.43886 L340.916731,1705.42501 L340.894432,1705.4162 L340.871259,1705.4099 L340.858579,1705.4099 L340.858579,1705.38765 L340.818354,1705.37044 L340.785562,1705.35617 L340.762388,1705.34022 L340.74796,1705.32889 L340.731345,1705.32763 L340.716042,1705.32091 L340.689808,1705.29867 L327.998709,1698.26864 L327.914761,1698.22709 L327.832124,1698.19183 L327.749487,1698.16035 L327.665101,1698.1318 L327.495892,1698.08437 L327.410632,1698.06212 L327.32887,1698.04617 L327.153977,1698.01931 L327.067405,1698.00756 L326.982582,1698.0042 L326.805503,1698 L326.720242,1698.00336 L326.635419,1698.01133 L326.453968,1698.00042 L326.280387,1698.00462 L326.10462,1698.01931 L325.935848,1698.04617 L325.763579,1698.08437 L325.595682,1698.1318 L325.429096,1698.19225 L325.265134,1698.26906 L312.70608,1705.28691 L312.676348,1705.31546 L312.63656,1705.32805 L312.60814,1705.344 L312.58278,1705.35659 L312.566165,1705.37254 L312.535559,1705.37254 L312.514135,1705.37842 L312.492273,1705.38514 L312.478282,1705.40444 L312.363727,1705.45859 L312.333995,1705.4758 L312.319566,1705.48042 L312.30951,1705.4842 L312.26535,1705.51946 L312.230371,1705.5522 L312.195393,1705.57612 L312.165661,1705.59879 L312.148171,1705.60802 L312.142925,1705.60802 L312.139427,1705.60802 L312.139427,1705.61138 L312.13418,1705.61768 L312.116691,1705.62272 L312.106634,1705.62398 L312.019625,1705.7096 L311.994703,1705.72262 L311.978088,1705.73815 L311.969781,1705.75116 L311.96672,1705.76711 L311.880148,1705.84728 L311.852603,1705.85904 L311.836425,1705.87415 L311.825494,1705.89052 L311.822871,1705.90563 L311.683394,1706.04625 L311.666342,1706.05842 L311.655848,1706.07143 L311.640108,1706.09032 L311.6318,1706.09998 L311.628303,1706.11215 L311.625242,1706.12726 L311.598571,1706.13817 L311.582393,1706.15412 L311.571462,1706.16965 L311.567964,1706.1856 L311.552661,1706.19778 L311.541293,1706.21079 L311.5308,1706.22002 L311.524241,1706.23472 L311.515934,1706.24311 L311.514185,1706.2536 L311.511124,1706.2683 L311.493635,1706.29348 L311.478332,1706.31237 L311.46128,1706.32202 L311.451224,1706.32832 L311.435046,1706.36358 L311.42499,1706.39212 L311.410124,1706.41731 L311.398756,1706.4362 L311.374708,1706.46306 L311.368587,1706.4744 L311.368587,1706.49286 L311.284201,1706.6083 L311.284201,1706.66035 L311.196754,1706.82993 L311.193257,1706.84168 L311.188447,1706.85679 L311.166148,1706.88995 L311.153031,1706.92857 L311.144724,1706.96383 L311.139914,1706.99489 L311.139914,1707.02763 L311.114555,1707.05575 L311.109308,1707.0843 L311.084823,1707.19847 L311.080888,1707.2077 L311.080888,1707.22198 L311.075641,1707.24422 L311.069957,1707.25304 L311.068208,1707.26185 L311.057715,1707.27738 L311.057715,1707.39533 L311.027108,1707.45242 L311.027108,1707.59094 L311.00481,1707.61738 L311,1707.63081 L311,1707.64677 L311.027108,1710.76889 L311,1714.88121 L311.027108,1719.33101 L311,1722.56185 L311.027108,1722.61726 L311.027108,1722.73143 L311.027108,1722.7604 L311.031918,1722.78222 L311.0411,1722.80321 L311.058152,1722.81916 L311.058152,1722.92998 L311.068645,1722.9539 L311.070394,1722.96356 L311.076078,1722.97825 L311.081325,1722.9984 L311.08526,1723.01477 L311.109745,1723.1239 L311.140352,1723.18183 L311.167023,1723.32412 L311.189321,1723.35099 L311.194131,1723.36358 L311.196754,1723.38163 L311.284201,1723.54785 L311.289448,1723.57598 L311.29863,1723.58857 L311.311309,1723.60452 L311.369024,1723.71533 L311.390448,1723.7443 L311.397444,1723.75731 L311.399193,1723.77242 L311.451224,1723.86015 L311.478332,1723.908 L311.493635,1723.92647 L311.511124,1723.94452 L311.567964,1724.02385 L311.625242,1724.08346 L311.652788,1724.13173 L311.666342,1724.15062 L311.682957,1724.16615 L311.69345,1724.1884 L311.710939,1724.20854 L311.721433,1724.22072 L311.726242,1724.22072 L311.730178,1724.22072 L311.734987,1724.22365 L312.019625,1724.50867 L312.106634,1724.56533 L312.165224,1724.61822 L312.215505,1724.64341 L312.261415,1724.67195 L312.30164,1724.69672 L312.333558,1724.72946 L312.36329,1724.72946 L312.508888,1724.81593 L312.535122,1724.83901 L312.550425,1724.84321 L312.565728,1724.84741 L312.675911,1724.90491 L312.705642,1724.90491 L325.264697,1731.83881 L325.41423,1731.90388 L325.569885,1731.95802 L325.732972,1732.0021 L325.902618,1732.0319 L326.0762,1732.05457 L326.258088,1732.06884 L326.439977,1732.06884 L326.634545,1732.06212 L326.727675,1732.06548 L326.77271,1732.06548 L326.821243,1732.06884 L326.91175,1732.06884 L327.007067,1732.06884 L327.092327,1732.05919 L327.183271,1732.05457 L327.358164,1732.0319 L327.439052,1732.01805 L327.524312,1732.0021 L327.604326,1731.97775 L327.684776,1731.9576 L327.763478,1731.92906 L327.84218,1731.90346 L327.918258,1731.87114 L327.998709,1731.8384 L340.522785,1725.01657 L340.522785,1724.99222 L340.545958,1724.99222 L340.689808,1724.90449 L340.701176,1724.90449 L340.709483,1724.90449 L340.731345,1724.89694 L340.735717,1724.89106 L340.739652,1724.88938 L340.748397,1724.87805 L340.833657,1724.81677 L340.859017,1724.81677 L340.880441,1724.80165 L340.883939,1724.79746 L340.889186,1724.79326 L340.902303,1724.78864 L340.911922,1724.77311 L340.917168,1724.7601 L340.956957,1724.74625 L340.971385,1724.73785 L340.988,1724.73198 L341.011173,1724.7156 L341.034347,1724.70679 L341.092498,1724.65264 L341.172512,1724.59472 L341.195248,1724.57877 L341.215361,1724.56365 L341.22804,1724.5477 L341.231976,1724.53847 L341.319422,1724.48054 L341.329041,1724.45284 L341.345656,1724.43605 L341.358336,1724.42723 L341.37495,1724.42388 L341.457587,1724.34286 L341.468955,1724.31642 L341.486007,1724.30089 L341.496938,1724.28998 L341.514865,1724.28662 L341.541973,1724.23541 L341.556402,1724.21316 L341.571268,1724.19889 L341.582636,1724.17328 L341.59925,1724.15649 L341.602748,1724.14768 L341.612367,1724.14474 L341.629419,1724.14222 L341.64035,1724.10277 L341.655216,1724.07128 L341.670082,1724.04988 L341.688009,1724.03141 L341.742663,1723.97474 L341.797317,1723.89037 L341.810434,1723.86225 L341.820053,1723.84042 L341.827048,1723.81733 L341.827048,1723.80558 L341.850222,1723.7783 L341.869897,1723.75605 L341.881702,1723.73758 L341.886949,1723.72499 L341.911434,1723.6658 L341.941166,1723.61123 L341.949911,1723.58899 L341.964339,1723.57262 L341.972647,1723.55247 L341.984452,1723.53862 L342.001067,1723.52309 L342.001067,1723.46894 L342.009811,1723.43998 L342.020742,1723.41437 L342.039543,1723.3703 L342.047413,1723.32916 L342.05266,1723.29852 L342.075396,1723.26872 L342.082392,1723.25277 L342.082392,1723.24311 L342.113873,1723.13272 L342.123492,1723.10249 L342.132236,1723.08193 L342.136609,1723.05842 L342.140544,1723.04625 L342.145353,1722.9858 L342.170713,1722.93165 L342.170713,1722.85022 L342.183393,1722.81832 L342.192137,1722.79188 L342.197384,1722.76459 L342.198696,1722.73689 L342.198696,1707.48768 L342.169838,1707.37938 L342.169838,1707.37938 Z M328.73938,1717.34894 L335.848337,1713.23956 C336.3376,1713.02464 336.916058,1713.02674 337.421498,1713.24879 L337.746799,1713.39486 C338.416638,1713.68995 338.851684,1714.34141 338.851684,1715.05289 C338.851684,1715.05289 338.851684,1715.05289 338.851684,1715.05541 C338.849935,1715.76689 338.413577,1716.41541 337.74024,1716.71175 L328.730636,1721.6342 C328.730636,1721.6342 328.748125,1727.31807 328.748125,1727.31933 C328.748125,1727.93385 328.430257,1728.5022 327.899457,1728.8422 C327.363848,1729.18262 326.692697,1729.24222 326.102871,1728.9996 L325.753522,1728.85773 C325.053514,1728.56978 324.598355,1727.91328 324.596169,1727.18249 L324.575182,1721.66442 L318.505526,1718.31101 L318.505526,1722.0741 C318.505526,1722.80531 318.05474,1723.46306 317.355606,1723.75143 L317.001448,1723.89877 C316.410747,1724.14264 315.736972,1724.0864 315.200051,1723.74514 C314.663568,1723.40556 314.344388,1722.83385 314.3457,1722.21472 L314.372808,1715.64978 C314.372808,1715.62753 314.3457,1715.33916 314.3457,1715.33916 L314.375432,1708.45353 C314.378492,1707.74289 314.815724,1707.09353 315.489499,1706.79844 L315.8148,1706.65573 C316.407249,1706.39842 317.085833,1706.44585 317.633685,1706.78249 C318.179351,1707.12165 318.505526,1707.6942 318.505526,1708.31921 L318.505526,1714.0203 L324.584364,1717.38336 L324.569935,1713.42299 C324.569935,1713.39738 324.571247,1713.37262 324.571247,1713.37262 L324.590485,1713.1598 L324.608849,1713.0641 C324.608849,1713.06578 324.64339,1712.91802 324.64339,1712.91802 L324.670061,1712.83869 C324.677057,1712.82274 324.730399,1712.68758 324.730399,1712.68758 L324.775871,1712.5944 L324.848015,1712.47183 L324.90398,1712.38494 L324.99405,1712.27035 C325.010665,1712.25104 325.061821,1712.19395 325.061821,1712.19395 L325.172004,1712.08775 C325.171129,1712.08901 325.203047,1712.05795 325.203047,1712.05795 L325.24371,1712.02269 L325.420789,1711.89551 L325.452269,1711.8762 C325.456205,1711.87032 325.678756,1711.75615 325.678756,1711.75615 L335.846151,1706.35686 C336.3376,1706.14069 336.912997,1706.14447 337.412753,1706.3619 L337.738491,1706.50336 C338.413577,1706.8018 338.851684,1707.45284 338.851684,1708.16432 C338.851684,1708.87706 338.414889,1709.52978 337.74024,1709.82528 L328.730636,1714.76074 L328.73938,1717.34894 L328.73938,1717.34894 Z" id="Shape-2" sketch:type="MSShapeGroup"></path>
        </g>
    </g>
</svg>