<?xml version="1.0" encoding="utf-8"?>
<!-- Generator: Adobe Illustrator 19.2.1, SVG Export Plug-In . SVG Version: 6.00 Build 0)  -->
<svg version="1.1" id="Layer_1" xmlns="http://www.w3.org/2000/svg" xmlns:xlink="http://www.w3.org/1999/xlink" x="0px" y="0px"
	 viewBox="0 0 444.7 241.3" style="enable-background:new 0 0 444.7 241.3;" xml:space="preserve">
<style type="text/css">
	.st0{enable-background:new    ;}
	.st1{fill:#EF7B10;}
	.st2{fill:#0061A1;}
</style>
<g>
	<g class="st0">
		<path class="st1" d="M167.6,7.6h6.6V66h-6.6V7.6z"/>
		<path class="st1" d="M187.4,57.5l4.1-4.8c6.1,5.5,11.9,8.3,20,8.3c7.8,0,13-4.2,13-9.9v-0.2c0-5.4-2.9-8.5-15.2-11.1
			c-13.4-2.9-19.6-7.3-19.6-16.9v-0.2c0-9.2,8.1-15.9,19.2-15.9c8.5,0,14.6,2.4,20.5,7.2l-3.8,5.1c-5.4-4.4-10.8-6.3-16.9-6.3
			c-7.6,0-12.4,4.2-12.4,9.4v0.2c0,5.5,3,8.6,15.9,11.3c13,2.8,19,7.6,19,16.5v0.2c0,10-8.3,16.5-19.9,16.5
			C202,66.8,194.4,63.7,187.4,57.5z"/>
		<path class="st1" d="M242.1,36.9v-0.2c0-16.1,12.1-30.2,29.9-30.2c17.8,0,29.7,13.9,29.7,30v0.2c0,16.1-12.1,30.2-29.9,30.2
			S242.1,53,242.1,36.9z M294.8,36.9v-0.2c0-13.3-9.7-24.1-23-24.1s-22.9,10.7-22.9,23.9v0.2c0,13.3,9.7,24.1,23,24.1
			S294.8,50.2,294.8,36.9z"/>
	</g>
	<g class="st0">
		<path class="st1" d="M162.7,145l21.2-18.7c8.9-8,12.2-12.5,12.2-18.4c0-6.8-5.4-11.2-11.8-11.2c-6.7,0-11,3.5-15.7,10l-4.8-3.5
			c5.3-7.8,10.8-12.4,21-12.4c10.5,0,18.1,7,18.1,16.5v0.2c0,8.5-4.5,13.8-14.8,22.7l-15.6,13.8h31v6h-40.8V145z"/>
		<path class="st1" d="M245.5,97.7h-32.1v-6H253v4.9l-26.5,53.5h-7.3L245.5,97.7z"/>
		<path class="st1" d="M260.9,121v-0.2c0-16.4,9.8-30.2,24.8-30.2s24.5,13.7,24.5,30v0.2c0,16.4-9.7,30.2-24.7,30.2
			C270.4,151.1,260.9,137.4,260.9,121z M303.4,121v-0.2c0-12.8-7-24.2-17.9-24.2c-10.9,0-17.8,11.2-17.8,24v0.2
			c0,12.8,7,24.2,17.9,24.2C296.6,145.1,303.4,133.8,303.4,121z"/>
		<path class="st1" d="M320.6,121v-0.2c0-16.4,9.8-30.2,24.8-30.2s24.5,13.7,24.5,30v0.2c0,16.4-9.7,30.2-24.7,30.2
			C330.1,151.1,320.6,137.4,320.6,121z M363,121v-0.2c0-12.8-7-24.2-17.9-24.2c-10.9,0-17.8,11.2-17.8,24v0.2
			c0,12.8,7,24.2,17.9,24.2C356.3,145.1,363,133.8,363,121z"/>
		<path class="st1" d="M389.6,98.1l-11,3.4l-1.6-5.3l14.3-4.9h4.8v58.8h-6.5V98.1z"/>
	</g>
	<g class="st0">
		<path class="st1" d="M320.9,210.4h-3.5v-1.1h8.2v1.1h-3.5v9.3h-1.2V210.4z"/>
		<path class="st1" d="M327.7,209.3h1.2l3.8,5.7l3.8-5.7h1.2v10.4h-1.2v-8.4l-3.8,5.6h-0.1l-3.8-5.6v8.4h-1.1V209.3z"/>
	</g>
	<g>
		<path class="st1" d="M121.1,112.1c-3.2,1.2-6.1,2.3-7.9,4.8c-0.8,1.2-1.4,3.3-2.5,3.9c-1,0.6-3.1,0.5-4.5,0.9
			c-1.3,0.4-2.6,0.9-3.6,1.7c-1.3,1-2.6,3.5-3.9,3.8c-1.6,0.3-3.4-0.3-4.9-0.1c-1.4,0.2-2.6,0.5-3.9,1.2c-1,0.6-2.8,2.4-3.9,2.6
			c-1,0.1-2.3-0.6-3.4-0.8c-2.5-0.6-5-0.2-7,0.7c-0.8,0.4-2.1,1.1-3,1.1c-0.8,0-2-0.9-2.9-1.3c-1.9-1-4.2-1.5-6.9-1
			c-1.2,0.2-2.5,0.7-3.5,0.6c-1.4-0.2-2.5-2-4-2.9c-1.3-0.7-2.4-1.1-3.8-1.3c-1.6-0.3-3.4,0.2-4.9-0.2c-1.1-0.3-2.2-2.6-3.1-3.5
			c-1-1-2.5-2-4-2.5c-1.3-0.4-3.7-0.6-4.5-1.1c-0.9-0.6-1.5-2.9-2.2-4c-0.8-1.2-2.3-2.5-3.4-3.2c-1.2-0.7-3.5-1.2-4.3-2.2
			c-0.7-0.9-0.7-2.8-1.2-4.3c-0.4-1.1-1.3-2.6-2.2-3.4c-1-1-3.8-2.3-4.2-3.4c-0.5-1.2-0.2-3.1-0.4-4.6c-0.4-2.5-1.5-4-3.1-5.7
			c-0.6-0.7-1.5-1.6-1.6-2.2c-0.3-1.4,0.6-3.3,0.6-4.8c0-2.7-0.9-4.3-2-6.1c-1.1-1.9-1.2-2.4-0.4-4.5c0.6-1.6,1.3-3.4,1.1-5.7
			c-0.1-1-0.4-1.9-0.7-2.8c-0.3-0.9-0.8-1.9-0.7-2.7c0.1-1.2,1.6-2.6,2.3-3.8c0.6-1.2,1.2-2.9,1.2-4.7c0-1.5-0.6-3.1-0.4-4.4
			c0.3-1.4,2.8-2.8,3.6-4c1.1-1.6,1.6-3.5,1.9-6c0.1-0.7,0.1-1.8,0.3-2.3C19.6,33,22,32,23,31.2c1.8-1.4,2.8-3.3,3.6-5.8
			c0.2-0.7,0.5-2.1,1-2.5c1.1-0.9,3.3-1.2,4.6-2c1.3-0.7,2.5-1.9,3.2-2.9c0.9-1.2,1.5-3.2,2.4-3.8c1.1-0.7,3.4-0.5,4.8-0.9
			c1.2-0.3,2.7-1.2,3.7-2.1s2.4-3.2,3.4-3.5c1.2-0.4,3.7,0.2,5.1,0.1c1.3-0.1,2.7-0.6,3.7-1.1c1.3-0.7,3.1-2.6,4.1-2.8
			c1.2-0.2,3.5,1,4.6,1.1c3.4,0.5,5.4-1,8.3-2.1c1.3-0.5,3.7,1.6,5,2.1c1.5,0.5,3,0.6,4.5,0.4c1.3-0.2,2.8-0.9,4-0.8
			c1.4,0.1,2.9,2.3,4.1,3S96,8.9,97.4,9s3.1-0.3,4.3,0.1c1.3,0.4,2.3,2.7,3.3,3.6s2.4,1.8,3.7,2.3c1.5,0.5,3.7,0.4,4.7,1.1
			c0.8,0.6,1.6,3.2,2.3,4.1c1.4,2.1,3.1,3.1,5.6,4.2c0.7,0.3,1.7,0.6,2.1,1c0.6,0.8,0.7,2.5,1,3.7c0.7,2.2,2.2,4.1,4,5.4
			c0.8,0.6,2.2,1.2,2.6,2.1c0.4,1.1,0.1,2.7,0.3,4.3c0.2,1.5,1,3.3,1.7,4.3c0.9,1.3,2.9,2.7,3.1,3.8c0.2,1.4-0.6,3.2-0.6,4.8
			c0,1.8,0.5,3.4,1.1,4.6c0.6,1.1,1.9,2.7,2,3.7c0,0.7-0.7,1.9-1,2.9c-0.5,1.4-1,2.9-0.8,5s1.6,3.8,1.4,5.4
			c-0.1,1.2-1.9,2.9-2.5,4.2c-0.6,1.2-1,2.7-1,4.2c0,1.4,0.6,3.1,0.4,4.4c-0.3,1.4-2.8,2.9-3.7,4.2c-0.7,1-1.3,2.4-1.5,3.6
			c-0.3,1.4-0.1,3.2-0.6,4.4c-0.5,1.1-2.8,2-3.8,2.8C123.2,105.8,122.3,108.7,121.1,112.1"/>
		<path class="st1" d="M70.8,139v73c-19,7.5-37.9,15-57,22.3V105c0-0.1,0-0.3,0.1-0.3c1.1,0.9,2.5,1.4,3.1,2.6
			c0.9,1.7,0.8,3.4,1.5,4.9c0.8,1.7,1.9,2.8,3.1,3.5c1.4,0.9,3.5,1.1,4.7,2.4c1.2,1.2,1.5,3.2,2.6,4.6c0.8,1.1,2,2.1,3.3,2.7
			c1.5,0.7,3.3,0.5,5.1,1.3c1.9,0.8,2.8,3.2,4.3,4.4c1.3,1,3,1.7,4.7,1.9c1.2,0.1,2.6-0.2,4.2,0.1c1.9,0.4,3,2.3,4.6,3.2
			c1.3,0.7,2.5,1.2,4.3,1.1c1.7,0,3.5-1.1,5.3-0.9C67.2,136.6,68.6,138.6,70.8,139"/>
		<path class="st1" d="M132.9,107.6c0.2,42.1,0,84.5,0.1,126.8c-0.6,0.1-1.1-0.2-1.6-0.4c-17.6-7.2-35.6-14.7-53.3-21.9
			c0.1-24.9-0.1-50,0.1-74.7c2.8-1.2,4.6,0.6,7.2,0.7c2.8,0.1,4.5-1.2,6.2-2.4c0.8-0.6,1.7-1.4,2.5-1.5c2-0.4,3.8,0.2,5.2,0.1
			c1.6-0.1,3-0.7,4.1-1.5c1.6-1.1,2.4-3.5,4.4-4.2c1.5-0.6,3-0.4,4.2-0.7c1.6-0.4,3.3-1.5,4.3-2.6c1.3-1.4,1.8-4,3.4-5
			c1.5-1,3.2-1.1,4.5-1.9c1.3-0.7,2.4-1.7,3.2-3.2c0.9-1.6,0.7-3.2,1.8-4.9C129.9,109.1,131.9,108.4,132.9,107.6"/>
	</g>
	<g class="st0">
		<path class="st2" d="M161.1,186L161.1,186c0-7.1,5.2-12.9,12.5-12.9c4.5,0,7.2,1.6,9.6,3.9l-1.9,2c-2.1-2-4.4-3.4-7.8-3.4
			c-5.5,0-9.6,4.5-9.6,10.1v0.1c0,5.7,4.1,10.2,9.6,10.2c3.4,0,5.6-1.3,8-3.6l1.8,1.8c-2.6,2.6-5.4,4.3-9.9,4.3
			C166.4,198.7,161.1,193.1,161.1,186z"/>
		<path class="st2" d="M188.4,173.6h17.9v2.5h-15.1v8.4h13.5v2.5h-13.5v8.7h15.3v2.5h-18.1V173.6z"/>
	</g>
	<g class="st0">
		<path class="st2" d="M212.1,173.6h10.6c3,0,5.5,0.9,7,2.5c1.2,1.2,1.9,2.9,1.9,4.9v0.1c0,4.1-2.8,6.5-6.7,7.2l7.6,10.1h-3.4
			l-7.2-9.6h-7.1v9.6h-2.8V173.6z M222.5,186.2c3.7,0,6.4-1.9,6.4-5.1v-0.1c0-3-2.3-4.9-6.3-4.9h-7.6v10H222.5z"/>
	</g>
	<g class="st0">
		<path class="st2" d="M243.8,176.2h-8.3v-2.6H255v2.6h-8.3v22.1h-2.8V176.2z"/>
		<path class="st2" d="M260.3,173.6h2.8v24.7h-2.8V173.6z"/>
		<path class="st2" d="M270.3,173.6h17.8v2.6h-15v8.8h13.4v2.5h-13.4v10.8h-2.8V173.6z"/>
		<path class="st2" d="M293.7,173.6h2.8v24.7h-2.8V173.6z"/>
		<path class="st2" d="M302.7,186L302.7,186c0-7.1,5.2-12.9,12.5-12.9c4.5,0,7.2,1.6,9.6,3.9l-1.9,2c-2.1-2-4.4-3.4-7.8-3.4
			c-5.5,0-9.6,4.5-9.6,10.1v0.1c0,5.7,4.1,10.2,9.6,10.2c3.4,0,5.6-1.3,8-3.6l1.8,1.8c-2.6,2.6-5.4,4.3-9.9,4.3
			C307.9,198.7,302.7,193.1,302.7,186z"/>
	</g>
	<g class="st0">
		<path class="st2" d="M339.2,173.4h2.6l11.3,24.9h-3l-2.9-6.5h-13.5l-2.9,6.5h-2.9L339.2,173.4z M346,189.3l-5.6-12.6l-5.7,12.6
			H346z"/>
	</g>
	<g class="st0">
		<path class="st2" d="M361.1,176.2h-8.3v-2.6h19.5v2.6h-8.3v22.1h-2.8V176.2z"/>
		<path class="st2" d="M377.6,173.6h2.8v24.7h-2.8V173.6z"/>
		<path class="st2" d="M386.5,186L386.5,186c0-6.9,5.1-12.9,12.6-12.9s12.6,5.9,12.6,12.7v0.1c0,6.8-5.1,12.8-12.6,12.8
			C391.6,198.7,386.5,192.8,386.5,186z M408.9,186L408.9,186c0-5.7-4.1-10.3-9.7-10.3c-5.7,0-9.7,4.5-9.7,10.1v0.1
			c0,5.6,4.1,10.2,9.7,10.2C404.8,196.2,408.9,191.6,408.9,186z"/>
		<path class="st2" d="M417.6,173.6h2.6l15.6,19.8v-19.8h2.7v24.7h-2.2l-16-20.3v20.3h-2.7V173.6z"/>
	</g>
	<g class="st0">
		<path class="st2" d="M162.2,209.2h17.9v2.5H165v8.4h13.5v2.5H165v8.7h15.3v2.5h-18.1V209.2z"/>
		<path class="st2" d="M185.5,223.6v-14.4h2.8v14.2c0,5.3,2.8,8.3,7.6,8.3c4.6,0,7.5-2.8,7.5-8.2v-14.4h2.8v14.2
			c0,7.2-4.1,11-10.3,11C189.6,234.3,185.5,230.6,185.5,223.6z"/>
		<path class="st2" d="M212.7,209.2h10.6c3,0,5.5,0.9,7,2.5c1.2,1.2,1.9,2.9,1.9,4.9v0.1c0,4.1-2.8,6.5-6.7,7.2l7.6,10.1h-3.4
			l-7.2-9.6h-7.1v9.6h-2.8V209.2z M223.1,221.8c3.7,0,6.4-1.9,6.4-5.1v-0.1c0-3-2.3-4.9-6.3-4.9h-7.6v10H223.1z"/>
		<path class="st2" d="M237.1,221.6L237.1,221.6c0-6.9,5.1-12.9,12.6-12.9s12.6,5.9,12.6,12.7v0.1c0,6.8-5.1,12.8-12.6,12.8
			C242.2,234.3,237.1,228.4,237.1,221.6z M259.4,221.6L259.4,221.6c0-5.7-4.1-10.3-9.7-10.3c-5.7,0-9.7,4.5-9.7,10.1v0.1
			c0,5.6,4.1,10.2,9.7,10.2C255.4,231.8,259.4,227.2,259.4,221.6z"/>
		<path class="st2" d="M268.2,209.2h9.3c5.6,0,9.3,3,9.3,7.8v0.1c0,5.3-4.5,8.1-9.7,8.1h-6v8.7h-2.8V209.2z M277.1,222.7
			c4.1,0,6.8-2.2,6.8-5.4v-0.1c0-3.5-2.6-5.4-6.6-5.4H271v10.9H277.1z"/>
		<path class="st2" d="M291.8,209.2h17.9v2.5h-15.1v8.4h13.5v2.5h-13.5v8.7h15.3v2.5h-18.1V209.2z"/>
	</g>
</g>
</svg>
