<?xml version="1.0" standalone="no"?>
<!DOCTYPE svg PUBLIC "-//W3C//DTD SVG 1.1//EN" "http://www.w3.org/Graphics/SVG/1.1/DTD/svg11.dtd">
<svg width="318px" height="173px" version="1.1" xmlns="http://www.w3.org/2000/svg" xmlns:xlink="http://www.w3.org/1999/xlink" xml:space="preserve" style="fill-rule:evenodd;clip-rule:evenodd;stroke-linejoin:round;stroke-miterlimit:1.41421;">
    <g>
        <g id="Layer1">
            <g>
                <g>
                    <rect x="115.135" y="3.55632" width="4.79717" height="42.4324" style="fill:rgb(25,142,145);fill-rule:nonzero;"/>
                    <path d="M146.954,46.5949C155.395,46.5949 161.467,41.8667 161.467,34.5926L161.467,34.4714C161.467,27.9853 157.095,24.5301 147.622,22.4691C138.271,20.4687 136.085,18.2258 136.085,14.225L136.085,14.1038C136.085,10.2849 139.607,7.254 145.133,7.254C149.505,7.254 153.452,8.64821 157.399,11.8609L160.192,8.16327C155.881,4.70805 151.448,2.95014 145.254,2.95014C137.178,2.95014 131.288,7.86018 131.288,14.5281L131.288,14.6494C131.288,21.6204 135.781,24.7725 145.558,26.8941C154.484,28.7733 156.61,31.0162 156.61,34.9563L156.61,35.0775C156.61,39.2602 152.845,42.2911 147.137,42.2911C141.246,42.2911 136.996,40.2907 132.563,36.2899L129.587,39.8057C134.688,44.3521 140.214,46.5949 146.954,46.5949Z" style="fill:rgb(25,142,145);fill-rule:nonzero;"/>
                    <path d="M190.979,46.7161C203.913,46.7161 212.718,36.4717 212.718,24.7725L212.718,24.6513C212.718,12.9521 204.035,2.8289 191.101,2.8289C178.166,2.8289 169.361,13.0733 169.361,24.7725L169.361,24.8938C169.361,36.593 178.045,46.7161 190.979,46.7161ZM191.101,42.2911C181.385,42.2911 174.341,34.4107 174.341,24.7725L174.341,24.6513C174.341,15.0131 181.263,7.254 190.979,7.254C200.695,7.254 207.739,15.1343 207.739,24.7725L207.739,24.8938C207.739,34.532 200.816,42.2911 191.101,42.2911Z" style="fill:rgb(25,142,145);fill-rule:nonzero;"/>
                </g>
                <g>
                    <path d="M111.863,107.091L141.557,107.091L141.557,102.727L119.029,102.727L130.384,92.6644C137.853,86.1783 141.132,82.3594 141.132,76.1764L141.132,76.0551C141.132,69.1447 135.606,64.0528 127.955,64.0528C120.486,64.0528 116.478,67.3868 112.653,73.0849L116.175,75.6308C119.575,70.9026 122.733,68.3567 127.591,68.3567C132.206,68.3567 136.153,71.5088 136.153,76.4795C136.153,80.7227 133.785,83.9961 127.287,89.8154L111.863,103.394L111.863,107.091Z" style="fill:rgb(25,142,145);fill-rule:nonzero;"/>
                    <path d="M153.641,107.091L158.985,107.091L178.295,68.2354L178.295,64.659L149.451,64.659L149.451,69.0235L172.83,69.0235L153.641,107.091Z" style="fill:rgb(25,142,145);fill-rule:nonzero;"/>
                    <path d="M203.192,107.819C214.122,107.819 221.166,97.7563 221.166,85.8752L221.166,85.754C221.166,73.8729 214.243,63.9316 203.313,63.9316C192.383,63.9316 185.278,73.9941 185.278,85.8752L185.278,85.9964C185.278,97.8775 192.201,107.819 203.192,107.819ZM203.313,103.454C195.358,103.454 190.258,95.1497 190.258,85.8752L190.258,85.754C190.258,76.4188 195.237,68.2961 203.192,68.2961C211.086,68.2961 216.187,76.6007 216.187,85.8752L216.187,85.9964C216.187,95.271 211.268,103.454 203.313,103.454Z" style="fill:rgb(25,142,145);fill-rule:nonzero;"/>
                    <path d="M246.609,107.819C257.539,107.819 264.583,97.7563 264.583,85.8752L264.583,85.754C264.583,73.8729 257.661,63.9316 246.731,63.9316C235.8,63.9316 228.696,73.9941 228.696,85.8752L228.696,85.9964C228.696,97.8775 235.618,107.819 246.609,107.819ZM246.731,103.454C238.776,103.454 233.675,95.1497 233.675,85.8752L233.675,85.754C233.675,76.4188 238.654,68.2961 246.609,68.2961C254.503,68.2961 259.604,76.6007 259.604,85.8752L259.604,85.9964C259.604,95.271 254.685,103.454 246.731,103.454Z" style="fill:rgb(25,142,145);fill-rule:nonzero;"/>
                    <path d="M279.218,107.091L283.954,107.091L283.954,64.3559L280.432,64.3559L270.048,67.9324L271.202,71.8119L279.218,69.3266L279.218,107.091Z" style="fill:rgb(25,142,145);fill-rule:nonzero;"/>
                </g>
                <g>
                    <path d="M226.788,157.693L227.654,157.693L227.654,150.916L230.199,150.916L230.199,150.127L224.244,150.127L224.244,150.916L226.788,150.916L226.788,157.693Z" style="fill:rgb(25,142,145);fill-rule:nonzero;"/>
                    <path d="M231.801,157.693L232.635,157.693L232.635,151.575L235.396,155.618L235.439,155.618L238.2,151.565L238.2,157.693L239.055,157.693L239.055,150.127L238.189,150.127L235.428,154.256L232.667,150.127L231.801,150.127L231.801,157.693Z" style="fill:rgb(25,142,145);fill-rule:nonzero;"/>
                </g>
            </g>
            <g>
                <g>
                    <path d="M119.718,142.456C122.983,142.456 125.039,141.199 126.916,139.3L125.579,137.991C123.857,139.633 122.237,140.583 119.769,140.583C115.81,140.583 112.803,137.324 112.803,133.167L112.803,133.115C112.803,128.984 115.785,125.75 119.769,125.75C122.212,125.75 123.908,126.777 125.425,128.214L126.813,126.725C125.014,125.032 123.06,123.877 119.795,123.877C114.499,123.877 110.695,128.085 110.695,133.167L110.695,133.218C110.695,138.376 114.525,142.456 119.718,142.456Z" style="fill:rgb(25,142,145);fill-rule:nonzero;"/>
                    <path d="M130.464,142.148L143.6,142.148L143.6,140.301L132.494,140.301L132.494,134.013L142.314,134.013L142.314,132.166L132.494,132.166L132.494,126.032L143.471,126.032L143.471,124.185L130.464,124.185L130.464,142.148Z" style="fill:rgb(25,142,145);fill-rule:nonzero;"/>
                </g>
                <g>
                    <path d="M147.687,142.148L149.718,142.148L149.718,135.168L154.86,135.168L160.078,142.148L162.572,142.148L157.045,134.809C159.872,134.296 161.929,132.551 161.929,129.574L161.929,129.522C161.929,128.111 161.415,126.854 160.541,125.981C159.41,124.852 157.636,124.185 155.425,124.185L147.687,124.185L147.687,142.148ZM149.718,133.346L149.718,126.058L155.271,126.058C158.176,126.058 159.872,127.393 159.872,129.599L159.872,129.651C159.872,131.96 157.944,133.346 155.245,133.346L149.718,133.346Z" style="fill:rgb(25,142,145);fill-rule:nonzero;"/>
                </g>
                <g>
                    <path d="M170.849,142.148L172.906,142.148L172.906,126.058L178.947,126.058L178.947,124.185L164.808,124.185L164.808,126.058L170.849,126.058L170.849,142.148Z" style="fill:rgb(25,142,145);fill-rule:nonzero;"/>
                    <rect x="182.932" y="124.185" width="2.03086" height="17.9635" style="fill:rgb(25,142,145);fill-rule:nonzero;"/>
                    <path d="M190.232,142.148L192.263,142.148L192.263,134.321L202.006,134.321L202.006,132.474L192.263,132.474L192.263,126.058L203.163,126.058L203.163,124.185L190.232,124.185L190.232,142.148Z" style="fill:rgb(25,142,145);fill-rule:nonzero;"/>
                    <rect x="207.276" y="124.185" width="2.03086" height="17.9635" style="fill:rgb(25,142,145);fill-rule:nonzero;"/>
                    <path d="M222.803,142.456C226.068,142.456 228.125,141.199 230.001,139.3L228.664,137.991C226.942,139.633 225.323,140.583 222.855,140.583C218.896,140.583 215.888,137.324 215.888,133.167L215.888,133.115C215.888,128.984 218.87,125.75 222.855,125.75C225.297,125.75 226.994,126.777 228.51,128.214L229.898,126.725C228.099,125.032 226.145,123.877 222.88,123.877C217.585,123.877 213.78,128.085 213.78,133.167L213.78,133.218C213.78,138.376 217.61,142.456 222.803,142.456Z" style="fill:rgb(25,142,145);fill-rule:nonzero;"/>
                </g>
                <g>
                    <path d="M232.006,142.148L234.089,142.148L236.222,137.401L246.017,137.401L248.125,142.148L250.31,142.148L242.109,124.056L240.207,124.056L232.006,142.148ZM237.019,135.553L241.132,126.417L245.22,135.553L237.019,135.553Z" style="fill:rgb(25,142,145);fill-rule:nonzero;"/>
                </g>
                <g>
                    <path d="M256.3,142.148L258.356,142.148L258.356,126.058L264.397,126.058L264.397,124.185L250.258,124.185L250.258,126.058L256.3,126.058L256.3,142.148Z" style="fill:rgb(25,142,145);fill-rule:nonzero;"/>
                    <rect x="268.382" y="124.185" width="2.03086" height="17.9635" style="fill:rgb(25,142,145);fill-rule:nonzero;"/>
                    <path d="M284.037,142.456C289.513,142.456 293.241,138.119 293.241,133.167L293.241,133.115C293.241,128.162 289.564,123.877 284.089,123.877C278.613,123.877 274.886,128.214 274.886,133.167L274.886,133.218C274.886,138.171 278.562,142.456 284.037,142.456ZM284.089,140.583C279.976,140.583 276.994,137.247 276.994,133.167L276.994,133.115C276.994,129.035 279.924,125.75 284.037,125.75C288.151,125.75 291.133,129.086 291.133,133.167L291.133,133.218C291.133,137.298 288.202,140.583 284.089,140.583Z" style="fill:rgb(25,142,145);fill-rule:nonzero;"/>
                    <path d="M297.534,142.148L299.513,142.148L299.513,127.418L311.133,142.148L312.752,142.148L312.752,124.185L310.773,124.185L310.773,138.581L299.436,124.185L297.534,124.185L297.534,142.148Z" style="fill:rgb(25,142,145);fill-rule:nonzero;"/>
                </g>
                <g>
                    <path d="M111.492,168.016L124.628,168.016L124.628,166.168L113.523,166.168L113.523,159.881L123.343,159.881L123.343,158.033L113.523,158.033L113.523,151.9L124.499,151.9L124.499,150.052L111.492,150.052L111.492,168.016Z" style="fill:rgb(25,142,145);fill-rule:nonzero;"/>
                    <path d="M135.913,168.298C140.412,168.298 143.42,165.578 143.42,160.343L143.42,150.052L141.389,150.052L141.389,160.497C141.389,164.423 139.281,166.425 135.965,166.425C132.546,166.425 130.464,164.243 130.464,160.368L130.464,150.052L128.433,150.052L128.433,160.497C128.433,165.578 131.466,168.298 135.913,168.298Z" style="fill:rgb(25,142,145);fill-rule:nonzero;"/>
                    <path d="M148.227,168.016L150.258,168.016L150.258,161.036L155.399,161.036L160.618,168.016L163.111,168.016L157.584,160.676C160.412,160.163 162.469,158.418 162.469,155.441L162.469,155.39C162.469,153.979 161.955,152.721 161.081,151.849C159.95,150.719 158.176,150.052 155.965,150.052L148.227,150.052L148.227,168.016ZM150.258,159.214L150.258,151.926L155.811,151.926C158.716,151.926 160.412,153.26 160.412,155.467L160.412,155.518C160.412,157.828 158.484,159.214 155.785,159.214L150.258,159.214Z" style="fill:rgb(25,142,145);fill-rule:nonzero;"/>
                    <path d="M175.168,168.324C180.644,168.324 184.371,163.987 184.371,159.034L184.371,158.983C184.371,154.03 180.695,149.744 175.219,149.744C169.744,149.744 166.016,154.081 166.016,159.034L166.016,159.085C166.016,164.038 169.692,168.324 175.168,168.324ZM175.219,166.45C171.106,166.45 168.124,163.114 168.124,159.034L168.124,158.983C168.124,154.902 171.055,151.618 175.168,151.618C179.281,151.618 182.263,154.954 182.263,159.034L182.263,159.085C182.263,163.166 179.333,166.45 175.219,166.45Z" style="fill:rgb(25,142,145);fill-rule:nonzero;"/>
                    <path d="M188.664,168.016L190.695,168.016L190.695,161.677L195.065,161.677C198.896,161.677 202.135,159.676 202.135,155.801L202.135,155.749C202.135,152.208 199.461,150.052 195.4,150.052L188.664,150.052L188.664,168.016ZM190.695,159.83L190.695,151.926L195.245,151.926C198.15,151.926 200.078,153.26 200.078,155.826L200.078,155.878C200.078,158.238 198.124,159.83 195.142,159.83L190.695,159.83Z" style="fill:rgb(25,142,145);fill-rule:nonzero;"/>
                    <path d="M205.837,168.016L218.973,168.016L218.973,166.168L207.867,166.168L207.867,159.881L217.688,159.881L217.688,158.033L207.867,158.033L207.867,151.9L218.844,151.9L218.844,150.052L205.837,150.052L205.837,168.016Z" style="fill:rgb(25,142,145);fill-rule:nonzero;"/>
                </g>
            </g>
            <path d="M81.5716,79.4784C79.2774,80.383 77.1404,81.1401 75.8091,82.99C75.205,83.827 74.7967,85.3798 74.012,85.8295C73.2514,86.2618 71.7382,86.2117 70.7192,86.5001C69.7846,86.769 68.8624,87.1752 68.0974,87.7702C67.1825,88.4881 66.1875,90.3373 65.2522,90.5335C64.1014,90.7849 62.8095,90.3227 61.6617,90.4601C60.6266,90.588 59.8049,90.8052 58.8179,91.3581C58.0609,91.7825 56.8083,93.1172 55.9742,93.2269C55.2427,93.3199 54.2797,92.8142 53.5031,92.6304C51.6543,92.1886 49.8892,92.512 48.4146,93.1528C47.8024,93.4158 46.8671,93.979 46.2456,93.9717C45.6654,93.9688 44.8131,93.3345 44.1471,93.0017C42.7635,92.3093 41.0646,91.9053 39.1329,92.2577C38.2915,92.4081 37.3234,92.8004 36.5883,92.7031C35.5969,92.5723 34.7417,91.2477 33.6674,90.6112C32.7546,90.0684 31.9554,89.8149 30.9015,89.6412C29.7194,89.4458 28.4056,89.8149 27.308,89.4864C26.5438,89.2656 25.6842,87.5835 25.0611,86.9499C24.3129,86.1892 23.2524,85.52 22.1439,85.1574C21.1787,84.8428 19.4333,84.7454 18.8496,84.3356C18.2243,83.8946 17.7847,82.2213 17.2767,81.4206C16.7053,80.5181 15.6375,79.6004 14.8056,79.1049C13.9176,78.5716 12.2326,78.2693 11.6634,77.5355C11.1284,76.8467 11.1561,75.4734 10.7659,74.3995C10.485,73.6213 9.78404,72.546 9.19447,71.9327C8.46151,71.1727 6.45698,70.2528 6.1258,69.4659C5.75096,68.5788 6.01299,67.2484 5.82447,66.1018C5.52532,64.2912 4.70284,63.2296 3.57974,61.9937C3.14667,61.5148 2.4734,60.8478 2.38314,60.425C2.16478,59.3939 2.81403,58.0541 2.83369,56.9141C2.86498,54.9515 2.15095,53.8072 1.40999,52.5066C0.63336,51.1442 0.50744,50.7562 1.11229,49.2195C1.55556,48.086 2.0687,46.7338 1.93623,45.1099C1.87145,44.3702 1.61161,43.7337 1.40999,43.0892C1.21201,42.4687 0.843712,41.7312 0.886656,41.1463C0.944885,40.2976 2.05633,39.255 2.53453,38.3845C2.996,37.5446 3.41161,36.2578 3.43199,34.9506C3.448,33.8579 2.96252,32.6699 3.13138,31.7348C3.3148,30.7168 5.14174,29.6734 5.75096,28.8218C6.57708,27.6629 6.89152,26.302 7.09823,24.487C7.1601,23.945 7.1601,23.2009 7.32387,22.8456C7.61792,22.1924 9.3728,21.4615 10.0919,20.9013C11.4072,19.8695 12.1358,18.5391 12.7122,16.7161C12.8826,16.1784 13.0849,15.2244 13.4612,14.9221C14.2975,14.2551 15.8668,14.0597 16.8283,13.5038C17.7498,12.9712 18.6494,12.111 19.1473,11.4113C19.7718,10.543 20.234,9.0607 20.8694,8.6466C21.6948,8.1103 23.3623,8.2673 24.3886,7.9745C25.2664,7.7238 26.3436,7.1244 27.0831,6.4806C27.8328,5.8281 28.8074,4.1599 29.5535,3.9404C30.4364,3.6803 32.2502,4.1141 33.294,4.0146C34.2278,3.9281 35.292,3.5612 35.9885,3.195C36.91,2.7045 38.21,1.2768 38.9837,1.1765C39.8709,1.0588 41.5297,1.8827 42.3508,1.9983C44.8233,2.3383 46.2703,1.239 48.4146,0.5058C49.3717,0.1745 51.0997,1.6822 52.0815,1.9983C53.1413,2.3405 54.2462,2.448 55.3758,2.2976C56.3519,2.1661 57.4313,1.6168 58.2938,1.7004C59.3027,1.7926 60.4119,3.3395 61.2883,3.8649C62.1311,4.3728 63.4071,4.8116 64.4312,4.9104C65.4495,5.0114 66.697,4.7128 67.5741,4.9875C68.5516,5.2883 69.2693,6.9202 69.968,7.6017C70.6602,8.2724 71.7447,8.922 72.664,9.246C73.7238,9.6188 75.3644,9.5497 76.1104,10.0663C76.7219,10.4921 77.3041,12.3834 77.7525,13.0541C78.7766,14.5865 80.0307,15.3312 81.7965,16.1174C82.3177,16.3528 83.0528,16.5599 83.2923,16.8651C83.721,17.4107 83.7814,18.707 84.042,19.5571C84.5289,21.1309 85.6585,22.5695 86.9592,23.5163C87.5415,23.9392 88.5794,24.3947 88.832,25.0109C89.1581,25.8079 88.8983,26.9937 89.0577,28.1476C89.2047,29.2484 89.7862,30.5097 90.3285,31.285C90.9938,32.2361 92.4364,33.2555 92.5725,34.0504C92.7508,35.0807 92.1409,36.3864 92.1241,37.5627C92.1059,38.8822 92.5208,40.0673 92.9495,40.9232C93.3615,41.7537 94.3368,42.9148 94.371,43.6131C94.3929,44.1537 93.8812,45.0234 93.6213,45.7086C93.2254,46.7563 92.8818,47.7808 93.023,49.3699C93.1533,50.8616 94.1767,52.1222 94.0719,53.3283C93.9911,54.2308 92.7166,55.4325 92.2733,56.3902C91.8679,57.273 91.544,58.3324 91.5236,59.4535C91.5098,60.5034 91.996,61.6965 91.8221,62.6658C91.6394,63.7164 89.776,64.7663 89.1304,65.7298C88.6464,66.4549 88.1995,67.4656 88.0088,68.347C87.7919,69.346 87.952,70.7055 87.5597,71.5607C87.1885,72.3563 85.5464,72.9776 84.788,73.577C83.103,74.911 82.4166,77.0232 81.5716,79.4784" style="fill:rgb(25,142,145);"/>
            <path d="M44.972,99.0544L44.972,152.104C31.1608,157.521 17.4021,162.984 3.50572,168.314L3.50572,74.3242C3.49699,74.2173 3.49189,74.1142 3.57778,74.0989C4.35732,74.7216 5.37997,75.1517 5.82396,75.9684C6.51397,77.2262 6.43973,78.4548 6.94778,79.552C7.50678,80.7639 8.31616,81.5574 9.19542,82.0914C10.2181,82.7177 11.7451,82.9168 12.6375,83.8091C13.5007,84.6824 13.7052,86.1117 14.5081,87.1732C15.0947,87.9528 15.9565,88.6969 16.9035,89.1161C17.9713,89.5927 19.2763,89.4968 20.6469,90.0897C22.048,90.6935 22.6674,92.4199 23.7898,93.3005C24.7324,94.0417 25.9522,94.5546 27.2311,94.6462C28.1176,94.7116 29.1592,94.4667 30.302,94.7218C31.6718,95.0255 32.4608,96.3595 33.6683,97.0345C34.5927,97.5547 35.5185,97.8824 36.8127,97.8563C38.061,97.8337 39.3427,97.0912 40.7053,97.1856C42.324,97.2968 43.3343,98.7638 44.972,99.0544" style="fill:rgb(25,142,145);"/>
            <path d="M90.1783,76.1937C90.3537,106.751 90.2045,137.626 90.2526,168.314C89.8413,168.388 89.4214,168.166 89.0574,168.015C76.2667,162.807 63.1266,157.321 50.285,152.103C50.3366,134.044 50.1852,115.793 50.3592,97.8556C52.3674,96.9568 53.7074,98.317 55.5998,98.3795C57.6313,98.4507 58.9065,97.5134 60.09,96.6618C60.6585,96.2535 61.3157,95.6562 61.8864,95.5414C63.3501,95.2428 64.6333,95.7173 65.704,95.6192C66.8409,95.5174 67.8701,95.0953 68.697,94.4973C69.8302,93.6799 70.4584,91.9659 71.9134,91.4355C73.011,91.0336 74.0911,91.1296 74.982,90.9116C76.1532,90.6253 77.4182,89.8319 78.1286,89.0428C79.0624,88.0009 79.4329,86.1226 80.599,85.38C81.7169,84.6673 82.9274,84.5873 83.8911,84.0337C84.838,83.4974 85.6117,82.8108 86.21,81.7187C86.8411,80.5715 86.7261,79.4082 87.4838,78.133C87.978,77.2967 89.4046,76.8302 90.1783,76.1937" style="fill:rgb(25,142,145);"/>
        </g>
    </g>
</svg>
