<?xml version="1.0" encoding="utf-8"?>
<!-- Generator: Adobe Illustrator 15.1.0, SVG Export Plug-In . SVG Version: 6.00 Build 0)  -->
<!DOCTYPE svg PUBLIC "-//W3C//DTD SVG 1.1//EN" "http://www.w3.org/Graphics/SVG/1.1/DTD/svg11.dtd">
<svg version="1.1" id="Layer_1" xmlns="http://www.w3.org/2000/svg" xmlns:xlink="http://www.w3.org/1999/xlink" x="0px" y="0px"
	 width="318px" height="173px" viewBox="0 0 318 173" enable-background="new 0 0 318 173" xml:space="preserve">
<g>
	<g id="Layer1">
		<g>
			<g>
				<rect x="115.135" y="3.556" fill="#138C8F" width="4.797" height="42.433"/>
				<path fill="#138C8F" d="M146.954,46.595c8.441,0,14.513-4.728,14.513-12.002v-0.121c0-6.486-4.372-9.941-13.845-12.002
					c-9.351-2-11.537-4.244-11.537-8.244v-0.122c0-3.818,3.522-6.85,9.048-6.85c4.372,0,8.319,1.395,12.266,4.607l2.792-3.698
					c-4.311-3.455-8.743-5.213-14.938-5.213c-8.076,0-13.966,4.91-13.966,11.578v0.121c0,6.971,4.493,10.123,14.27,12.245
					c8.926,1.879,11.052,4.122,11.052,8.062v0.122c0,4.183-3.765,7.213-9.473,7.213c-5.891,0-10.141-2-14.574-6.001l-2.976,3.516
					C134.688,44.352,140.214,46.595,146.954,46.595z"/>
				<path fill="#138C8F" d="M190.979,46.716c12.935,0,21.739-10.244,21.739-21.943v-0.121c0-11.699-8.683-21.822-21.616-21.822
					c-12.936,0-21.74,10.244-21.74,21.943v0.121C169.361,36.593,178.045,46.716,190.979,46.716z M191.102,42.291
					c-9.717,0-16.761-7.88-16.761-17.519v-0.121c0-9.638,6.923-17.397,16.638-17.397c9.717,0,16.761,7.88,16.761,17.519v0.121
					C207.739,34.532,200.816,42.291,191.102,42.291z"/>
			</g>
			<g>
				<path fill="#138C8F" d="M111.863,107.091h29.694v-4.364h-22.528l11.355-10.062c7.469-6.486,10.748-10.305,10.748-16.488v-0.121
					c0-6.911-5.526-12.002-13.177-12.002c-7.469,0-11.477,3.334-15.302,9.032l3.522,2.546c3.4-4.729,6.558-7.274,11.416-7.274
					c4.615,0,8.562,3.152,8.562,8.123c0,4.243-2.368,7.517-8.866,13.336l-15.424,13.579V107.091z"/>
				<path fill="#138C8F" d="M153.641,107.091h5.344l19.31-38.855v-3.576h-28.844v4.364h23.379L153.641,107.091z"/>
				<path fill="#138C8F" d="M203.191,107.818c10.931,0,17.975-10.062,17.975-21.943v-0.121c0-11.881-6.923-21.822-17.854-21.822
					c-10.93,0-18.035,10.062-18.035,21.943v0.121C185.277,97.877,192.201,107.818,203.191,107.818z M203.312,103.454
					c-7.955,0-13.055-8.304-13.055-17.579v-0.121c0-9.335,4.979-17.458,12.934-17.458c7.895,0,12.996,8.305,12.996,17.579v0.121
					C216.188,95.271,211.268,103.454,203.312,103.454z"/>
				<path fill="#138C8F" d="M246.609,107.818c10.93,0,17.974-10.062,17.974-21.943v-0.121c0-11.881-6.922-21.822-17.853-21.822
					s-18.035,10.062-18.035,21.943v0.121C228.695,97.877,235.618,107.818,246.609,107.818z M246.73,103.454
					c-7.955,0-13.056-8.304-13.056-17.579v-0.121c0-9.335,4.979-17.458,12.935-17.458c7.894,0,12.994,8.305,12.994,17.579v0.121
					C259.604,95.271,254.686,103.454,246.73,103.454z"/>
				<path fill="#138C8F" d="M279.218,107.091h4.736V64.356h-3.522l-10.384,3.577l1.154,3.879l8.016-2.485V107.091z"/>
			</g>
			<g>
				<path fill="#138C8F" d="M226.788,157.693h0.866v-6.777h2.545v-0.789h-5.955v0.789h2.544V157.693z"/>
				<path fill="#138C8F" d="M231.801,157.693h0.834v-6.118l2.762,4.043h0.043l2.761-4.054v6.129h0.854v-7.566h-0.865l-2.762,4.129
					l-2.761-4.129h-0.866V157.693z"/>
			</g>
		</g>
		<g>
			<g>
				<path fill="#138C8F" d="M119.718,142.456c3.265,0,5.321-1.257,7.198-3.156l-1.337-1.309c-1.722,1.642-3.342,2.592-5.81,2.592
					c-3.959,0-6.966-3.259-6.966-7.416v-0.052c0-4.131,2.982-7.365,6.966-7.365c2.443,0,4.139,1.027,5.656,2.464l1.388-1.489
					c-1.799-1.692-3.753-2.848-7.018-2.848c-5.296,0-9.1,4.208-9.1,9.29v0.051C110.695,138.376,114.525,142.456,119.718,142.456z"/>
				<path fill="#138C8F" d="M130.464,142.148H143.6v-1.848h-11.106v-6.287h9.82v-1.848h-9.82v-6.134h10.977v-1.847h-13.007V142.148z
					"/>
			</g>
			<g>
				<path fill="#138C8F" d="M147.687,142.148h2.031v-6.98h5.142l5.218,6.98h2.494l-5.527-7.34c2.827-0.513,4.885-2.258,4.885-5.234
					v-0.053c0-1.41-0.515-2.668-1.389-3.541c-1.131-1.129-2.905-1.795-5.116-1.795h-7.738V142.148z M149.718,133.346v-7.287h5.553
					c2.905,0,4.601,1.334,4.601,3.541v0.051c0,2.31-1.928,3.695-4.627,3.695H149.718z"/>
			</g>
			<g>
				<path fill="#138C8F" d="M170.85,142.148h2.057v-16.09h6.041v-1.873h-14.139v1.873h6.041V142.148z"/>
				<rect x="182.932" y="124.186" fill="#138C8F" width="2.031" height="17.963"/>
				<path fill="#138C8F" d="M190.232,142.148h2.031v-7.828h9.742v-1.846h-9.742v-6.416h10.899v-1.873h-12.931V142.148z"/>
				<rect x="207.275" y="124.186" fill="#138C8F" width="2.031" height="17.963"/>
				<path fill="#138C8F" d="M222.803,142.456c3.266,0,5.322-1.257,7.198-3.156l-1.337-1.309c-1.723,1.642-3.341,2.592-5.809,2.592
					c-3.959,0-6.967-3.259-6.967-7.416v-0.052c0-4.131,2.981-7.365,6.967-7.365c2.441,0,4.139,1.027,5.654,2.464l1.389-1.489
					c-1.799-1.692-3.754-2.848-7.019-2.848c-5.295,0-9.1,4.208-9.1,9.29v0.051C213.78,138.376,217.609,142.456,222.803,142.456z"/>
			</g>
			<g>
				<path fill="#138C8F" d="M232.006,142.148h2.083l2.134-4.748h9.795l2.107,4.748h2.186l-8.201-18.092h-1.902L232.006,142.148z
					 M237.02,135.553l4.112-9.136l4.088,9.136H237.02z"/>
			</g>
			<g>
				<path fill="#138C8F" d="M256.3,142.148h2.056v-16.09h6.041v-1.873h-14.139v1.873h6.042V142.148z"/>
				<rect x="268.382" y="124.186" fill="#138C8F" width="2.031" height="17.963"/>
				<path fill="#138C8F" d="M284.037,142.456c5.477,0,9.204-4.337,9.204-9.289v-0.052c0-4.953-3.677-9.238-9.152-9.238
					s-9.203,4.337-9.203,9.29v0.051C274.886,138.171,278.562,142.456,284.037,142.456z M284.089,140.583
					c-4.112,0-7.095-3.336-7.095-7.416v-0.052c0-4.08,2.93-7.365,7.043-7.365s7.096,3.336,7.096,7.417v0.051
					C291.133,137.298,288.202,140.583,284.089,140.583z"/>
				<path fill="#138C8F" d="M297.534,142.148h1.979v-14.73l11.619,14.73h1.619v-17.963h-1.979v14.396l-11.338-14.396h-1.901V142.148
					z"/>
			</g>
			<g>
				<path fill="#138C8F" d="M111.492,168.016h13.136v-1.848h-11.105v-6.287h9.82v-1.848h-9.82V151.9h10.976v-1.849h-13.007V168.016z
					"/>
				<path fill="#138C8F" d="M135.913,168.298c4.499,0,7.507-2.72,7.507-7.955v-10.291h-2.031v10.445
					c0,3.926-2.108,5.928-5.424,5.928c-3.419,0-5.501-2.182-5.501-6.057v-10.316h-2.031v10.445
					C128.433,165.578,131.466,168.298,135.913,168.298z"/>
				<path fill="#138C8F" d="M148.227,168.016h2.031v-6.979h5.141l5.219,6.979h2.493l-5.527-7.34
					c2.828-0.513,4.885-2.258,4.885-5.234v-0.051c0-1.412-0.514-2.67-1.388-3.541c-1.131-1.131-2.905-1.798-5.116-1.798h-7.738
					V168.016z M150.258,159.214v-7.288h5.553c2.905,0,4.601,1.334,4.601,3.541v0.051c0,2.311-1.928,3.696-4.627,3.696H150.258z"/>
				<path fill="#138C8F" d="M175.168,168.324c5.477,0,9.203-4.338,9.203-9.29v-0.052c0-4.952-3.676-9.238-9.152-9.238
					c-5.475,0-9.203,4.337-9.203,9.29v0.051C166.016,164.038,169.691,168.324,175.168,168.324z M175.219,166.45
					c-4.113,0-7.095-3.336-7.095-7.416v-0.052c0-4.08,2.931-7.364,7.044-7.364s7.096,3.336,7.096,7.416v0.051
					C182.264,163.166,179.333,166.45,175.219,166.45z"/>
				<path fill="#138C8F" d="M188.664,168.016h2.031v-6.339h4.369c3.832,0,7.07-2.001,7.07-5.876v-0.052
					c0-3.541-2.674-5.697-6.734-5.697h-6.736V168.016z M190.695,159.83v-7.904h4.55c2.905,0,4.833,1.334,4.833,3.9v0.052
					c0,2.36-1.954,3.952-4.936,3.952H190.695z"/>
				<path fill="#138C8F" d="M205.837,168.016h13.136v-1.848h-11.105v-6.287h9.82v-1.848h-9.82V151.9h10.977v-1.849h-13.007V168.016z
					"/>
			</g>
		</g>
		<path fill="#138C8F" d="M81.572,79.479c-2.294,0.904-4.431,1.662-5.763,3.512c-0.604,0.837-1.012,2.39-1.797,2.839
			c-0.761,0.432-2.274,0.382-3.293,0.67c-0.935,0.269-1.857,0.676-2.622,1.271c-0.915,0.718-1.91,2.567-2.846,2.763
			c-1.15,0.252-2.442-0.211-3.59-0.073c-1.035,0.128-1.857,0.345-2.844,0.898c-0.757,0.424-2.01,1.759-2.844,1.868
			c-0.731,0.094-1.694-0.412-2.471-0.596c-1.849-0.442-3.614-0.119-5.088,0.521c-0.612,0.264-1.547,0.826-2.169,0.819
			c-0.58-0.003-1.433-0.638-2.099-0.97c-1.383-0.692-3.083-1.097-5.014-0.744c-0.841,0.15-1.81,0.543-2.544,0.445
			c-0.992-0.131-1.847-1.455-2.921-2.092c-0.913-0.543-1.712-0.797-2.766-0.971c-1.182-0.195-2.496,0.174-3.593-0.154
			c-0.764-0.221-1.624-1.902-2.247-2.536c-0.748-0.761-1.809-1.43-2.917-1.793c-0.965-0.314-2.711-0.412-3.294-0.822
			c-0.625-0.441-1.065-2.114-1.573-2.915c-0.572-0.903-1.639-1.82-2.471-2.316c-0.888-0.533-2.573-0.835-3.142-1.569
			c-0.535-0.689-0.507-2.062-0.897-3.136c-0.281-0.778-0.982-1.854-1.572-2.467c-0.733-0.76-2.737-1.68-3.068-2.467
			c-0.375-0.887-0.113-2.217-0.302-3.364c-0.299-1.811-1.122-2.872-2.245-4.108c-0.433-0.479-1.106-1.146-1.196-1.569
			c-0.218-1.031,0.431-2.371,0.45-3.511c0.032-1.962-0.683-3.107-1.423-4.407c-0.777-1.363-0.903-1.75-0.298-3.287
			c0.443-1.134,0.957-2.486,0.824-4.11c-0.064-0.74-0.324-1.376-0.526-2.021c-0.198-0.621-0.566-1.358-0.523-1.943
			c0.058-0.849,1.169-1.892,1.648-2.762c0.461-0.84,0.877-2.127,0.897-3.434c0.016-1.093-0.47-2.281-0.301-3.216
			c0.184-1.018,2.01-2.062,2.62-2.913c0.826-1.159,1.141-2.52,1.347-4.334c0.062-0.542,0.062-1.286,0.226-1.642
			c0.294-0.653,2.049-1.384,2.768-1.944c1.315-1.032,2.044-2.362,2.621-4.186c0.17-0.538,0.373-1.491,0.749-1.794
			c0.836-0.667,2.405-0.862,3.367-1.418c0.922-0.533,1.821-1.393,2.319-2.093c0.625-0.868,1.086-2.351,1.722-2.765
			c0.826-0.536,2.493-0.379,3.52-0.672c0.878-0.251,1.955-0.85,2.694-1.494c0.75-0.652,1.725-2.32,2.471-2.54
			c0.883-0.26,2.696,0.174,3.74,0.074c0.934-0.086,1.998-0.454,2.694-0.82c0.922-0.49,2.222-1.918,2.996-2.018
			c0.887-0.118,2.546,0.706,3.367,0.821c2.473,0.34,3.92-0.759,6.064-1.492c0.957-0.331,2.685,1.176,3.667,1.492
			c1.06,0.342,2.165,0.45,3.294,0.3c0.976-0.132,2.055-0.681,2.918-0.598c1.009,0.092,2.118,1.639,2.994,2.165
			c0.843,0.508,2.119,0.947,3.143,1.045c1.019,0.101,2.266-0.197,3.143,0.077c0.978,0.301,1.695,1.933,2.394,2.614
			c0.692,0.671,1.777,1.32,2.696,1.645c1.06,0.373,2.7,0.304,3.446,0.82c0.611,0.426,1.194,2.317,1.642,2.988
			c1.024,1.532,2.278,2.277,4.044,3.063c0.521,0.235,1.256,0.443,1.496,0.748c0.429,0.545,0.489,1.842,0.75,2.692
			c0.487,1.574,1.617,3.012,2.917,3.959c0.583,0.423,1.621,0.878,1.873,1.494c0.326,0.797,0.066,1.983,0.226,3.137
			c0.147,1.101,0.729,2.362,1.271,3.138c0.665,0.951,2.108,1.97,2.244,2.765c0.179,1.03-0.431,2.336-0.448,3.512
			c-0.018,1.32,0.397,2.505,0.826,3.361c0.412,0.831,1.387,1.992,1.421,2.69c0.022,0.541-0.49,1.41-0.75,2.095
			c-0.396,1.048-0.739,2.072-0.598,3.662c0.13,1.491,1.154,2.752,1.049,3.958c-0.081,0.903-1.355,2.104-1.798,3.062
			c-0.406,0.883-0.729,1.942-0.75,3.063c-0.014,1.05,0.473,2.243,0.299,3.212c-0.183,1.05-2.046,2.101-2.692,3.063
			c-0.484,0.726-0.931,1.736-1.122,2.618c-0.217,0.999-0.057,2.358-0.449,3.213c-0.371,0.796-2.013,1.417-2.771,2.017
			C83.103,74.911,82.417,77.023,81.572,79.479"/>
		<path fill="#138C8F" d="M44.972,99.055v53.049c-13.812,5.418-27.57,10.881-41.466,16.211v-93.99
			c-0.009-0.107-0.014-0.21,0.072-0.226c0.78,0.623,1.802,1.053,2.247,1.87c0.69,1.258,0.616,2.487,1.124,3.583
			c0.559,1.212,1.369,2.006,2.248,2.54c1.023,0.626,2.55,0.826,3.442,1.718c0.863,0.874,1.067,2.303,1.871,3.365
			c0.586,0.779,1.448,1.523,2.395,1.942c1.068,0.477,2.373,0.381,3.744,0.974c1.401,0.604,2.021,2.33,3.143,3.211
			c0.942,0.74,2.162,1.254,3.441,1.346c0.887,0.064,1.928-0.18,3.071,0.075c1.37,0.304,2.159,1.638,3.367,2.313
			c0.924,0.52,1.85,0.848,3.144,0.821c1.249-0.022,2.53-0.765,3.893-0.671C42.324,97.297,43.334,98.764,44.972,99.055"/>
		<path fill="#138C8F" d="M90.178,76.194c0.175,30.557,0.026,61.432,0.074,92.121c-0.411,0.074-0.831-0.148-1.195-0.299
			c-12.791-5.209-25.931-10.695-38.772-15.912c0.051-18.06-0.1-36.311,0.074-54.248c2.008-0.898,3.348,0.461,5.24,0.523
			c2.032,0.072,3.307-0.865,4.49-1.717c0.569-0.408,1.226-1.006,1.796-1.121c1.464-0.299,2.747,0.176,3.818,0.078
			c1.137-0.102,2.166-0.523,2.993-1.122c1.133-0.817,1.762-2.531,3.217-3.062c1.097-0.402,2.178-0.306,3.068-0.523
			c1.171-0.287,2.436-1.08,3.146-1.869c0.934-1.042,1.305-2.92,2.471-3.663c1.118-0.713,2.328-0.792,3.292-1.346
			c0.947-0.536,1.721-1.223,2.319-2.315c0.631-1.147,0.516-2.311,1.274-3.586C87.978,77.297,89.405,76.83,90.178,76.194"/>
	</g>
</g>
</svg>
