<?xml version="1.0" encoding="utf-8"?>
<!-- Generator: Adobe Illustrator 19.2.1, SVG Export Plug-In . SVG Version: 6.00 Build 0)  -->
<svg version="1.1" id="Layer_1" xmlns="http://www.w3.org/2000/svg" xmlns:xlink="http://www.w3.org/1999/xlink" x="0px" y="0px"
	 viewBox="0 0 444.7 241.3" style="enable-background:new 0 0 444.7 241.3;" xml:space="preserve">
<style type="text/css">
	.Arched_x0020_Green{fill:url(#SVGID_1_);stroke:#FFFFFF;stroke-width:0.25;stroke-miterlimit:1;}
	.st0{fill:#EF7B10;}
	.st1{font-family:'Gotham-Book';}
	.st2{font-size:83.4275px;}
	.st3{font-size:14.875px;}
	.st4{fill-rule:evenodd;clip-rule:evenodd;fill:#EF7B10;}
	.st5{fill:#0061A1;}
	.st6{font-size:35.3186px;}
	.st7{letter-spacing:-3;}
</style>
<linearGradient id="SVGID_1_" gradientUnits="userSpaceOnUse" x1="64.3333" y1="231" x2="65.0404" y2="230.2929">
	<stop  offset="0" style="stop-color:#1DA238"/>
	<stop  offset="0.9831" style="stop-color:#24391D"/>
</linearGradient>
<g>
	<text transform="matrix(1 0 0 1 158.7103 65.9814)" class="st0 st1 st2">ISO </text>
	<text transform="matrix(1 0 0 1 158.7103 150.0767)" class="st0 st1 st2">27001</text>
	<text transform="matrix(1 0 0 1 316.7279 219.7183)" class="st0 st1 st3">TM</text>
	<g>
		<path class="st4" d="M121.1,112.1c-3.2,1.2-6.1,2.3-7.9,4.8c-0.8,1.2-1.4,3.3-2.5,3.9c-1,0.6-3.1,0.5-4.5,0.9
			c-1.3,0.4-2.6,0.9-3.6,1.7c-1.3,1-2.6,3.5-3.9,3.8c-1.6,0.3-3.4-0.3-4.9-0.1c-1.4,0.2-2.6,0.5-3.9,1.2c-1,0.6-2.8,2.4-3.9,2.6
			c-1,0.1-2.3-0.6-3.4-0.8c-2.5-0.6-5-0.2-7,0.7c-0.8,0.4-2.1,1.1-3,1.1c-0.8,0-2-0.9-2.9-1.3c-1.9-1-4.2-1.5-6.9-1
			c-1.2,0.2-2.5,0.7-3.5,0.6c-1.4-0.2-2.5-2-4-2.9c-1.3-0.7-2.4-1.1-3.8-1.3c-1.6-0.3-3.4,0.2-4.9-0.2c-1.1-0.3-2.2-2.6-3.1-3.5
			c-1-1-2.5-2-4-2.5c-1.3-0.4-3.7-0.6-4.5-1.1c-0.9-0.6-1.5-2.9-2.2-4c-0.8-1.2-2.3-2.5-3.4-3.2c-1.2-0.7-3.5-1.2-4.3-2.2
			c-0.7-0.9-0.7-2.8-1.2-4.3c-0.4-1.1-1.3-2.6-2.2-3.4c-1-1-3.8-2.3-4.2-3.4c-0.5-1.2-0.2-3.1-0.4-4.6c-0.4-2.5-1.5-4-3.1-5.7
			c-0.6-0.7-1.5-1.6-1.6-2.2c-0.3-1.4,0.6-3.3,0.6-4.8c0-2.7-0.9-4.3-2-6.1c-1.1-1.9-1.2-2.4-0.4-4.5c0.6-1.6,1.3-3.4,1.1-5.7
			c-0.1-1-0.4-1.9-0.7-2.8c-0.3-0.9-0.8-1.9-0.7-2.7c0.1-1.2,1.6-2.6,2.3-3.8c0.6-1.2,1.2-2.9,1.2-4.7c0-1.5-0.6-3.1-0.4-4.4
			c0.3-1.4,2.8-2.8,3.6-4c1.1-1.6,1.6-3.5,1.9-6c0.1-0.7,0.1-1.8,0.3-2.3c0.4-0.9,2.8-1.9,3.8-2.7c1.8-1.4,2.8-3.3,3.6-5.8
			c0.2-0.7,0.5-2.1,1-2.5c1.1-0.9,3.3-1.2,4.6-2c1.3-0.7,2.5-1.9,3.2-2.9c0.9-1.2,1.5-3.2,2.4-3.8c1.1-0.7,3.4-0.5,4.8-0.9
			c1.2-0.3,2.7-1.2,3.7-2.1c1-0.9,2.4-3.2,3.4-3.5c1.2-0.4,3.7,0.2,5.1,0.1c1.3-0.1,2.7-0.6,3.7-1.1c1.3-0.7,3.1-2.6,4.1-2.8
			c1.2-0.2,3.5,1,4.6,1.1c3.4,0.5,5.4-1,8.3-2.1c1.3-0.5,3.7,1.6,5,2.1c1.5,0.5,3,0.6,4.5,0.4c1.3-0.2,2.8-0.9,4-0.8
			c1.4,0.1,2.9,2.3,4.1,3c1.2,0.7,2.9,1.3,4.3,1.4c1.4,0.1,3.1-0.3,4.3,0.1c1.3,0.4,2.3,2.7,3.3,3.6c1,0.9,2.4,1.8,3.7,2.3
			c1.5,0.5,3.7,0.4,4.7,1.1c0.8,0.6,1.6,3.2,2.3,4.1c1.4,2.1,3.1,3.1,5.6,4.2c0.7,0.3,1.7,0.6,2.1,1c0.6,0.8,0.7,2.5,1,3.7
			c0.7,2.2,2.2,4.1,4,5.4c0.8,0.6,2.2,1.2,2.6,2.1c0.4,1.1,0.1,2.7,0.3,4.3c0.2,1.5,1,3.3,1.7,4.3c0.9,1.3,2.9,2.7,3.1,3.8
			c0.2,1.4-0.6,3.2-0.6,4.8c0,1.8,0.5,3.4,1.1,4.6c0.6,1.1,1.9,2.7,2,3.7c0,0.7-0.7,1.9-1,2.9c-0.5,1.4-1,2.9-0.8,5
			c0.2,2.1,1.6,3.8,1.4,5.4c-0.1,1.2-1.9,2.9-2.5,4.2c-0.6,1.2-1,2.7-1,4.2c0,1.4,0.6,3.1,0.4,4.4c-0.3,1.4-2.8,2.9-3.7,4.2
			c-0.7,1-1.3,2.4-1.5,3.6c-0.3,1.4-0.1,3.2-0.6,4.4c-0.5,1.1-2.8,2-3.8,2.8C123.2,105.8,122.3,108.7,121.1,112.1"/>
		<path class="st4" d="M70.8,139v73c-19,7.5-37.9,15-57,22.3V105c0-0.1,0-0.3,0.1-0.3c1.1,0.9,2.5,1.4,3.1,2.6
			c0.9,1.7,0.8,3.4,1.5,4.9c0.8,1.7,1.9,2.8,3.1,3.5c1.4,0.9,3.5,1.1,4.7,2.4c1.2,1.2,1.5,3.2,2.6,4.6c0.8,1.1,2,2.1,3.3,2.7
			c1.5,0.7,3.3,0.5,5.1,1.3c1.9,0.8,2.8,3.2,4.3,4.4c1.3,1,3,1.7,4.7,1.9c1.2,0.1,2.6-0.2,4.2,0.1c1.9,0.4,3,2.3,4.6,3.2
			c1.3,0.7,2.5,1.2,4.3,1.1c1.7,0,3.5-1.1,5.3-0.9C67.2,136.6,68.6,138.6,70.8,139"/>
		<path class="st4" d="M132.9,107.6c0.2,42.1,0,84.5,0.1,126.8c-0.6,0.1-1.1-0.2-1.6-0.4c-17.6-7.2-35.6-14.7-53.3-21.9
			c0.1-24.9-0.1-50,0.1-74.7c2.8-1.2,4.6,0.6,7.2,0.7c2.8,0.1,4.5-1.2,6.2-2.4c0.8-0.6,1.7-1.4,2.5-1.5c2-0.4,3.8,0.2,5.2,0.1
			c1.6-0.1,3-0.7,4.1-1.5c1.6-1.1,2.4-3.5,4.4-4.2c1.5-0.6,3-0.4,4.2-0.7c1.6-0.4,3.3-1.5,4.3-2.6c1.3-1.4,1.8-4,3.4-5
			c1.5-1,3.2-1.1,4.5-1.9c1.3-0.7,2.4-1.7,3.2-3.2c0.9-1.6,0.7-3.2,1.8-4.9C129.9,109.1,131.9,108.4,132.9,107.6"/>
	</g>
	<text transform="matrix(1 0 0 1 158.7078 198.3247)"><tspan x="0" y="0" class="st5 st1 st6">CE</tspan><tspan x="49.9" y="0" class="st5 st1 st6">R</tspan><tspan x="75.2" y="0" class="st5 st1 st6">TIFIC</tspan><tspan x="167.8" y="0" class="st5 st1 st6 st7">A</tspan><tspan x="192.5" y="0" class="st5 st1 st6">TION</tspan></text>
	<text transform="matrix(1 0 0 1 158.7078 233.9233)" class="st5 st1 st6">EUROPE</text>
</g>
</svg>
