<?xml version="1.0" encoding="UTF-8" standalone="no"?>
<svg width="376px" height="273px" viewBox="0 0 376 273" version="1.1" xmlns="http://www.w3.org/2000/svg" xmlns:xlink="http://www.w3.org/1999/xlink" xmlns:sketch="http://www.bohemiancoding.com/sketch/ns">
    <!-- Generator: Sketch 3.3.3 (12072) - http://www.bohemiancoding.com/sketch -->
    <title>Rectangle 24 Copy + exposition copy 2</title>
    <desc>Created with Sketch.</desc>
    <defs></defs>
    <g id="Page-1" stroke="none" stroke-width="1" fill="none" fill-rule="evenodd" sketch:type="MSPage">
        <g id="Pricing" sketch:type="MSArtboardGroup" transform="translate(-532.000000, -587.000000)">
            <g id="Rectangle-24-Copy-+-exposition-copy-2" sketch:type="MSLayerGroup" transform="translate(483.000000, 574.000000)">
                <rect id="Mask" sketch:type="MSShapeGroup" x="0" y="0" width="474" height="302"></rect>
                <g id="exposition-copy-2" transform="translate(237.290997, 149.500000) scale(-1, 1) rotate(-180.000000) translate(-237.290997, -149.500000) translate(49.000000, 13.000000)" sketch:type="MSShapeGroup">
                    <ellipse id="Oval-3" fill-opacity="0.5" fill="#138C8F" cx="235.956081" cy="60.2676757" rx="9.9207536" ry="9.9207536"></ellipse>
                    <ellipse id="Oval-3-Copy" fill-opacity="0.1" fill="#D75B36" cx="244.723259" cy="72.264866" rx="9.9207536" ry="9.9207536"></ellipse>
                    <ellipse id="Oval-3-Copy-2" fill-opacity="0.3" fill="#D75B36" cx="229.957486" cy="117.946476" rx="15.9193488" ry="15.9193488"></ellipse>
                    <ellipse id="Oval-3-Copy-46" fill-opacity="0.3" fill="#D75B36" cx="142.773482" cy="123.532584" rx="15.9193488" ry="15.9193488"></ellipse>
                    <circle id="Oval-3-Copy-4" fill-opacity="0.3" fill="#D75B36" cx="253.029006" cy="29.3518389" r="7.1521712"></circle>
                    <circle id="Oval-3-Copy-5" fill-opacity="0.1" fill="#D75B36" cx="243.338967" cy="111.02502" r="7.1521712"></circle>
                    <ellipse id="Oval-3-Copy-3" fill-opacity="0.6" fill="#138C8F" cx="274.485519" cy="108.025722" rx="5.9985952" ry="5.9985952"></ellipse>
                    <ellipse id="Oval-3-Copy-6" fill-opacity="0.6" fill="#138C8F" cx="277.946247" cy="68.1119925" rx="9.4593232" ry="9.4593232"></ellipse>
                    <ellipse id="Oval-3-Copy-9" fill-opacity="0.1" fill="#138C8F" cx="276.331241" cy="42.9640357" rx="5.5371648" ry="5.5371648"></ellipse>
                    <ellipse id="Oval-3-Copy-7" fill-opacity="0.05" fill="#138C8F" cx="300.325622" cy="82.1856196" rx="4.614304" ry="4.614304"></ellipse>
                    <ellipse id="Oval-3-Copy-8" fill-opacity="0.6" fill="#D75B36" cx="297.326324" cy="138.710844" rx="14.0736272" ry="14.0736272"></ellipse>
                    <path d="M343.700079,115.177893 C343.700079,121.931179 349.174699,127.405799 355.927985,127.405799 C362.681271,127.405799 368.155891,121.931179 368.155891,115.177893 C368.155891,108.424607 362.681271,102.949988 355.927985,102.949988 C349.174699,102.949988 343.700079,108.424607 343.700079,115.177893 L343.700079,115.177893 Z" id="Oval-3-Copy-19" fill-opacity="0.5" fill="#138C8F"></path>
                    <path d="M309.438872,58.6526693 C309.438872,60.8825278 311.24653,62.6901853 313.476388,62.6901853 C315.706247,62.6901853 317.513904,60.8825278 317.513904,58.6526693 C317.513904,56.4228107 315.706247,54.6151533 313.476388,54.6151533 C311.24653,54.6151533 309.438872,56.4228107 309.438872,58.6526693 L309.438872,58.6526693 Z" id="Oval-3-Copy-21" fill-opacity="0.5" fill="#138C8F"></path>
                    <path d="M309.438872,75.8986304 C309.438872,77.4595314 310.704232,78.7248916 312.265133,78.7248916 C313.826034,78.7248916 315.091395,77.4595314 315.091395,75.8986304 C315.091395,74.3377295 313.826034,73.0723692 312.265133,73.0723692 C310.704232,73.0723692 309.438872,74.3377295 309.438872,75.8986304 L309.438872,75.8986304 Z" id="Oval-3-Copy-22" fill-opacity="0.3" fill="#138C8F"></path>
                    <path d="M335.163617,100.873551 C335.163617,103.804222 337.539395,106.18 340.470067,106.18 C343.400738,106.18 345.776516,103.804222 345.776516,100.873551 C345.776516,97.9428797 343.400738,95.5671012 340.470067,95.5671012 C337.539395,95.5671012 335.163617,97.9428797 335.163617,100.873551 L335.163617,100.873551 Z" id="Oval-3-Copy-10" fill-opacity="0.1" fill="#138C8F"></path>
                    <path d="M305.401356,20.4693037 C305.401356,31.6185962 314.439644,40.6568837 325.588936,40.6568837 C336.738229,40.6568837 345.776516,31.6185962 345.776516,20.4693037 C345.776516,9.32001109 336.738229,0.281723665 325.588936,0.281723665 C314.439644,0.281723665 305.401356,9.32001109 305.401356,20.4693037 L305.401356,20.4693037 Z" id="Oval-3-Copy-20" fill-opacity="0.1" fill="#D75B36"></path>
                    <path d="M281.637691,72.7262964 C281.637691,75.4021267 283.80688,77.5713156 286.48271,77.5713156 C289.15854,77.5713156 291.327729,75.4021267 291.327729,72.7262964 C291.327729,70.0504662 289.15854,67.8812773 286.48271,67.8812773 C283.80688,67.8812773 281.637691,70.0504662 281.637691,72.7262964 L281.637691,72.7262964 Z" id="Oval-3-Copy-11" fill-opacity="0.3" fill="#138C8F"></path>
                    <path d="M329.626452,148.400882 C329.626452,152.350917 332.828588,155.553053 336.778623,155.553053 C340.728658,155.553053 343.930795,152.350917 343.930795,148.400882 C343.930795,144.450847 340.728658,141.248711 336.778623,141.248711 C332.828588,141.248711 329.626452,144.450847 329.626452,148.400882 L329.626452,148.400882 Z" id="Oval-3-Copy-12" fill-opacity="0.3" fill="#138C8F"></path>
                    <path d="M339.316491,55.6533717 C339.316491,65.7195901 347.476773,73.8798724 357.542991,73.8798724 C367.60921,73.8798724 375.769492,65.7195901 375.769492,55.6533717 C375.769492,45.5871532 367.60921,37.4268709 357.542991,37.4268709 C347.476773,37.4268709 339.316491,45.5871532 339.316491,55.6533717 L339.316491,55.6533717 Z" id="Oval-3-Copy-13" fill-opacity="0.1" fill="#D75B36"></path>
                    <path d="M324.550718,57.6829444 C324.550718,64.8184917 330.335222,70.6029956 337.470769,70.6029956 C344.606316,70.6029956 350.39082,64.8184917 350.39082,57.6829444 C350.39082,50.5473972 344.606316,44.7628932 337.470769,44.7628932 C330.335222,44.7628932 324.550718,50.5473972 324.550718,57.6829444 L324.550718,57.6829444 Z" id="Oval-3-Copy-14" fill-opacity="0.5" fill="#CA4D85"></path>
                    <path d="M302.402059,109.640728 C302.402059,114.864968 306.637142,119.100052 311.861382,119.100052 C317.085622,119.100052 321.320705,114.864968 321.320705,109.640728 C321.320705,104.416488 317.085622,100.181405 311.861382,100.181405 C306.637142,100.181405 302.402059,104.416488 302.402059,109.640728 L302.402059,109.640728 Z" id="Oval-3-Copy-15" fill-opacity="0.6" fill="#138C8F"></path>
                    <path d="M307.939223,134.788685 C307.939223,137.846777 310.418296,140.32585 313.476388,140.32585 C316.53448,140.32585 319.013553,137.846777 319.013553,134.788685 C319.013553,131.730594 316.53448,129.25152 313.476388,129.25152 C310.418296,129.25152 307.939223,131.730594 307.939223,134.788685 L307.939223,134.788685 Z" id="Oval-3-Copy-16" fill-opacity="0.1" fill="#138C8F"></path>
                    <path d="M281.637691,93.9520948 C281.637691,97.392448 284.426648,100.181405 287.867001,100.181405 C291.307354,100.181405 294.096311,97.392448 294.096311,93.9520948 C294.096311,90.5117417 291.307354,87.7227844 287.867001,87.7227844 C284.426648,87.7227844 281.637691,90.5117417 281.637691,93.9520948 L281.637691,93.9520948 Z" id="Oval-3-Copy-17" fill-opacity="0.2" fill="#138C8F"></path>
                    <path d="M278.407678,46.1940485 C278.407678,50.016663 281.506519,53.1155045 285.329134,53.1155045 C289.151748,53.1155045 292.25059,50.016663 292.25059,46.1940485 C292.25059,42.3714339 289.151748,39.2725925 285.329134,39.2725925 C281.506519,39.2725925 278.407678,42.3714339 278.407678,46.1940485 L278.407678,46.1940485 Z" id="Oval-3-Copy-18" fill-opacity="0.6" fill="#138C8F"></path>
                    <path d="M133.307505,102.909604 C130.984202,98.8855255 125.838633,97.5067745 121.814555,99.8300771 C117.790477,102.15338 116.411726,107.298949 118.735028,111.323027 C121.058331,115.347105 126.2039,116.725856 130.227978,114.402553 C134.252056,112.079251 135.630807,106.933682 133.307505,102.909604 L133.307505,102.909604 L133.307505,102.909604 Z" id="Oval-3-Copy-45" fill-opacity="0.5" fill="#138C8F"></path>
                    <path d="M145.655836,101.678115 C143.332533,97.654037 138.186964,96.2752859 134.162886,98.5985886 C130.138808,100.921891 128.760057,106.06746 131.08336,110.091538 C133.406662,114.115616 138.552231,115.494367 142.576309,113.171065 C146.600387,110.847762 147.979138,105.702193 145.655836,101.678115 L145.655836,101.678115 L145.655836,101.678115 Z" id="Oval-3-Copy-23" fill-opacity="0.1" fill="#138C8F"></path>
                    <path d="M177.355458,129.35464 C173.627367,122.897398 165.370524,120.684984 158.913283,124.413074 C152.456041,128.141164 150.243626,136.398007 153.971717,142.855249 C157.699807,149.312491 165.95665,151.524905 172.413892,147.796815 C178.871134,144.068725 181.083548,135.811882 177.355458,129.35464 L177.355458,129.35464 L177.355458,129.35464 Z" id="Oval-3-Copy-24" fill-opacity="0.3" fill="#138C8F"></path>
                    <path d="M115.622474,78.5514447 C113.947535,75.650365 110.237939,74.6563817 107.33686,76.3313208 C104.43578,78.00626 103.441797,81.7158561 105.116736,84.6169357 C106.791675,87.5180154 110.501271,88.5119987 113.402351,86.8370596 C116.30343,85.1621205 117.297414,81.4525243 115.622474,78.5514447 L115.622474,78.5514447 L115.622474,78.5514447 Z" id="Oval-3-Copy-25" fill-opacity="0.3" fill="#138C8F"></path>
                    <path d="M171.507302,120.307204 C169.832363,117.406124 166.122767,116.412141 163.221687,118.08708 C160.320608,119.762019 159.326624,123.471615 161.001564,126.372695 C162.676503,129.273775 166.386099,130.267758 169.287179,128.592819 C172.188258,126.91788 173.182241,123.208284 171.507302,120.307204 L171.507302,120.307204 L171.507302,120.307204 Z" id="Oval-3-Copy-26" fill-opacity="0.1" fill="#138C8F"></path>
                    <path d="M181.666204,96.645129 C180.261417,94.2119655 177.150142,93.3783021 174.716979,94.7830897 C172.283815,96.1878774 171.450152,99.2991515 172.85494,101.732315 C174.259727,104.165479 177.371001,104.999142 179.804165,103.594354 C182.237328,102.189567 183.070992,99.0782926 181.666204,96.645129 L181.666204,96.645129 L181.666204,96.645129 Z" id="Oval-3-Copy-27" fill-opacity="0.6" fill="#138C8F"></path>
                    <path d="M156.356323,75.7080334 C154.141081,71.8711216 149.234841,70.5564986 145.397929,72.7717406 C141.561017,74.9869827 140.246394,79.8932227 142.461636,83.7301345 C144.676878,87.5670463 149.583118,88.8816694 153.42003,86.6664273 C157.256942,84.4511853 158.571565,79.5449452 156.356323,75.7080334 L156.356323,75.7080334 L156.356323,75.7080334 Z" id="Oval-3-Copy-28" fill-opacity="0.6" fill="#138C8F"></path>
                    <path d="M134.317939,67.8921766 C133.021212,65.6461795 130.149266,64.876644 127.903269,66.1733711 C125.657272,67.4700981 124.887737,70.3420435 126.184464,72.5880407 C127.481191,74.8340378 130.353136,75.6035733 132.599133,74.3068462 C134.845131,73.0101192 135.614666,70.1381738 134.317939,67.8921766 L134.317939,67.8921766 L134.317939,67.8921766 Z" id="Oval-3-Copy-29" fill-opacity="0.1" fill="#138C8F"></path>
                    <path d="M172.627088,67.2919888 C171.546482,65.4203246 169.153194,64.779045 167.28153,65.8596509 C165.409866,66.9402568 164.768586,69.3335446 165.849192,71.2052089 C166.929798,73.0768732 169.323086,73.7181527 171.19475,72.6375468 C173.066414,71.556941 173.707694,69.1636531 172.627088,67.2919888 L172.627088,67.2919888 L172.627088,67.2919888 Z" id="Oval-3-Copy-30" fill-opacity="0.05" fill="#138C8F"></path>
                    <path d="M219.823967,89.4565972 C216.528119,83.7480212 209.228591,81.7921186 203.520015,85.0879665 C197.811439,88.3838144 195.855537,95.6833423 199.151384,101.391918 C202.447232,107.100494 209.74676,109.056397 215.455336,105.760549 C221.163912,102.464701 223.119815,95.1651733 219.823967,89.4565972 L219.823967,89.4565972 L219.823967,89.4565972 Z" id="Oval-3-Copy-31" fill-opacity="0.6" fill="#D75B36"></path>
                    <path d="M226.034964,37.2120381 C223.171358,32.2521277 216.829145,30.552737 211.869235,33.4163425 C206.909325,36.2799481 205.209934,42.6221609 208.07354,47.5820712 C210.937145,52.5419816 217.279358,54.2413724 222.239268,51.3777668 C227.199179,48.5141612 228.898569,42.1719484 226.034964,37.2120381 L226.034964,37.2120381 L226.034964,37.2120381 Z" id="Oval-3-Copy-32" fill-opacity="0.5" fill="#138C8F"></path>
                    <path d="M160.494219,47.8960733 C159.548688,46.2583671 157.454562,45.6972475 155.816855,46.6427776 C154.179149,47.5883077 153.61803,49.6824346 154.56356,51.3201409 C155.50909,52.9578471 157.603217,53.5189667 159.240923,52.5734366 C160.878629,51.6279064 161.439749,49.5337796 160.494219,47.8960733 L160.494219,47.8960733 L160.494219,47.8960733 Z" id="Oval-3-Copy-33" fill-opacity="0.5" fill="#138C8F"></path>
                    <path d="M171.759232,56.6134819 C171.097361,55.4670875 169.631472,55.0743038 168.485078,55.7361749 C167.338683,56.398046 166.945899,57.8639348 167.607771,59.0103291 C168.269642,60.1567235 169.735531,60.5495072 170.881925,59.8876361 C172.028319,59.225765 172.421103,57.7598762 171.759232,56.6134819 L171.759232,56.6134819 L171.759232,56.6134819 Z" id="Oval-3-Copy-34" fill-opacity="0.3" fill="#138C8F"></path>
                    <path d="M203.888311,45.4353206 C202.645614,43.2829067 199.893333,42.5454352 197.740919,43.788132 C195.588505,45.0308288 194.851034,47.7831098 196.093731,49.9355237 C197.336427,52.0879376 200.088708,52.8254091 202.241122,51.5827123 C204.393536,50.3400156 205.131008,47.5877346 203.888311,45.4353206 L203.888311,45.4353206 L203.888311,45.4353206 Z" id="Oval-3-Copy-35" fill-opacity="0.1" fill="#138C8F"></path>
                    <path d="M149.444268,15.9568129 C144.716618,7.76828169 134.245983,4.96268369 126.057452,9.69033441 C117.868921,14.4179851 115.063323,24.8886194 119.790974,33.0771507 C124.518624,41.2656819 134.989259,44.0712799 143.17779,39.3436292 C151.366321,34.6159785 154.171919,24.1453442 149.444268,15.9568129 L149.444268,15.9568129 L149.444268,15.9568129 Z" id="Oval-3-Copy-36" fill-opacity="0.1" fill="#D75B36"></path>
                    <path d="M159.977222,73.3509796 C158.842586,71.3857321 156.329633,70.7123886 154.364386,71.8470247 C152.399138,72.9816609 151.725795,75.4946131 152.860431,77.4598606 C153.995067,79.4251081 156.50802,80.0984516 158.473267,78.9638155 C160.438515,77.8291793 161.111858,75.3162271 159.977222,73.3509796 L159.977222,73.3509796 L159.977222,73.3509796 Z" id="Oval-3-Copy-37" fill-opacity="0.3" fill="#138C8F"></path>
                    <path d="M238.590333,67.520736 C236.915394,64.6196564 233.205798,63.6256731 230.304718,65.3006122 C227.403639,66.9755513 226.409655,70.6851475 228.084595,73.5862271 C229.759534,76.4873068 233.46913,77.48129 236.370209,75.8063509 C239.271289,74.1314118 240.265272,70.4218157 238.590333,67.520736 L238.590333,67.520736 L238.590333,67.520736 Z" id="Oval-3-Copy-38" fill-opacity="0.3" fill="#138C8F"></path>
                    <path d="M187.400795,8.23763139 C183.132402,0.84455747 173.678915,-1.68849673 166.285841,2.57989649 C158.892767,6.84828971 156.359713,16.3017767 160.628106,23.6948506 C164.8965,31.0879245 174.349987,33.6209787 181.743061,29.3525855 C189.136134,25.0841923 191.669189,15.6307053 187.400795,8.23763139 L187.400795,8.23763139 L187.400795,8.23763139 Z" id="Oval-3-Copy-39" fill-opacity="0.1" fill="#D75B36"></path>
                    <path d="M176.481687,26.0928645 C173.45599,20.8522045 166.754785,19.0566218 161.514125,22.0823183 C156.273465,25.1080147 154.477882,31.8092207 157.503578,37.0498807 C160.529275,42.2905407 167.230481,44.0861234 172.471141,41.0604269 C177.711801,38.0347305 179.507383,31.3335245 176.481687,26.0928645 L176.481687,26.0928645 L176.481687,26.0928645 Z" id="Oval-3-Copy-40" fill-opacity="0.5" fill="#CA4D85"></path>
                    <path d="M201.245433,68.4075372 C199.030191,64.5706255 194.12395,63.2560024 190.287039,65.4712445 C186.450127,67.6864865 185.135504,72.5927266 187.350746,76.4296383 C189.565988,80.2665501 194.472228,81.5811732 198.30914,79.3659311 C202.146052,77.1506891 203.460675,72.244449 201.245433,68.4075372 L201.245433,68.4075372 L201.245433,68.4075372 Z" id="Oval-3-Copy-41" fill-opacity="0.6" fill="#138C8F"></path>
                    <path d="M217.522605,79.5496311 C216.225878,77.303634 213.353933,76.5340985 211.107936,77.8308256 C208.861938,79.1275526 208.092403,81.999498 209.38913,84.2454952 C210.685857,86.4914923 213.557802,87.2610278 215.8038,85.9643007 C218.049797,84.6675736 218.819332,81.7956282 217.522605,79.5496311 L217.522605,79.5496311 L217.522605,79.5496311 Z" id="Oval-3-Copy-42" fill-opacity="0.1" fill="#138C8F"></path>
                    <path d="M177.172751,80.7490514 C175.713933,78.2223046 172.482994,77.3565772 169.956248,78.8153951 C167.429501,80.2742131 166.563773,83.5051517 168.022591,86.0318984 C169.481409,88.5586452 172.712348,89.4243726 175.239095,87.9655547 C177.765842,86.5067367 178.631569,83.2757982 177.172751,80.7490514 L177.172751,80.7490514 L177.172751,80.7490514 Z" id="Oval-3-Copy-43" fill-opacity="0.2" fill="#138C8F"></path>
                    <path d="M141.52331,62.0654973 C139.902401,59.2580009 136.312469,58.2960816 133.504973,59.9169904 C130.697476,61.5378992 129.735557,65.127831 131.356466,67.9353274 C132.977375,70.7428238 136.567306,71.7047431 139.374803,70.0838343 C142.182299,68.4629255 143.144218,64.8729937 141.52331,62.0654973 L141.52331,62.0654973 L141.52331,62.0654973 Z" id="Oval-3-Copy-44" fill-opacity="0.6" fill="#138C8F"></path>
                    <path d="M163.860863,202.485339 C159.479444,202.485339 155.927601,206.037182 155.927601,210.418601 C155.927601,214.800021 159.479444,218.351864 163.860863,218.351864 C168.242283,218.351864 171.794126,214.800021 171.794126,210.418601 C171.794126,206.037182 168.242283,202.485339 163.860863,202.485339 L163.860863,202.485339 Z" id="Oval-3" fill-opacity="0.3" fill="#138C8F"></path>
                    <path d="M156.850073,192.891626 C152.468653,192.891626 148.916811,196.443469 148.916811,200.824889 C148.916811,205.206309 152.468653,208.758151 156.850073,208.758151 C161.231493,208.758151 164.783336,205.206309 164.783336,200.824889 C164.783336,196.443469 161.231493,192.891626 156.850073,192.891626 L156.850073,192.891626 Z" id="Oval-3-Copy" fill-opacity="0.1" fill="#138C8F"></path>
                    <path d="M168.65772,151.564863 C161.627069,151.564863 155.927601,157.264331 155.927601,164.294982 C155.927601,171.325633 161.627069,177.025101 168.65772,177.025101 C175.68837,177.025101 181.387839,171.325633 181.387839,164.294982 C181.387839,157.264331 175.68837,151.564863 168.65772,151.564863 L168.65772,151.564863 Z" id="Oval-3-Copy-2" fill-opacity="0.3" fill="#D75B36"></path>
                    <path d="M150.208272,229.421533 C147.049574,229.421533 144.488943,231.982163 144.488943,235.140862 C144.488943,238.29956 147.049574,240.86019 150.208272,240.86019 C153.36697,240.86019 155.927601,238.29956 155.927601,235.140862 C155.927601,231.982163 153.36697,229.421533 150.208272,229.421533 L150.208272,229.421533 Z" id="Oval-3-Copy-4" fill-opacity="0.3" fill="#138C8F"></path>
                    <path d="M157.95704,164.110487 C154.798342,164.110487 152.237711,166.671118 152.237711,169.829816 C152.237711,172.988514 154.798342,175.549145 157.95704,175.549145 C161.115738,175.549145 163.676369,172.988514 163.676369,169.829816 C163.676369,166.671118 161.115738,164.110487 157.95704,164.110487 L157.95704,164.110487 Z" id="Oval-3-Copy-5" fill-opacity="0.1" fill="#138C8F"></path>
                    <path d="M133.050286,167.431388 C130.401055,167.431388 128.253429,169.579014 128.253429,172.228245 C128.253429,174.877475 130.401055,177.025101 133.050286,177.025101 C135.699516,177.025101 137.847142,174.877475 137.847142,172.228245 C137.847142,169.579014 135.699516,167.431388 133.050286,167.431388 L133.050286,167.431388 Z" id="Oval-3-Copy-3" fill-opacity="0.6" fill="#138C8F"></path>
                    <path d="M130.282868,196.581516 C126.105236,196.581516 122.718595,199.968156 122.718595,204.145789 C122.718595,208.323422 126.105236,211.710063 130.282868,211.710063 C134.460501,211.710063 137.847142,208.323422 137.847142,204.145789 C137.847142,199.968156 134.460501,196.581516 130.282868,196.581516 L130.282868,196.581516 Z" id="Oval-3-Copy-6" fill-opacity="0.6" fill="#138C8F"></path>
                    <path d="M131.57433,219.82782 C129.128886,219.82782 127.146462,221.810244 127.146462,224.255687 C127.146462,226.701131 129.128886,228.683555 131.57433,228.683555 C134.019773,228.683555 136.002197,226.701131 136.002197,224.255687 C136.002197,221.810244 134.019773,219.82782 131.57433,219.82782 L131.57433,219.82782 Z" id="Oval-3-Copy-9" fill-opacity="0.1" fill="#138C8F"></path>
                    <path d="M112.386904,189.201736 C110.349034,189.201736 108.697015,190.853756 108.697015,192.891626 C108.697015,194.929496 110.349034,196.581516 112.386904,196.581516 C114.424774,196.581516 116.076794,194.929496 116.076794,192.891626 C116.076794,190.853756 114.424774,189.201736 112.386904,189.201736 L112.386904,189.201736 Z" id="Oval-3-Copy-7" fill-opacity="0.05" fill="#138C8F"></path>
                    <path d="M114.785332,136.436316 C108.56983,136.436316 103.531169,141.474976 103.531169,147.690479 C103.531169,153.905982 108.56983,158.944642 114.785332,158.944642 C121.000835,158.944642 126.039495,153.905982 126.039495,147.690479 C126.039495,141.474976 121.000835,136.436316 114.785332,136.436316 L114.785332,136.436316 Z" id="Oval-3-Copy-8" fill-opacity="0.6" fill="#D75B36"></path>
                    <path d="M77.7019422,166.508916 C77.7019422,161.108561 73.3240897,156.730708 67.9237349,156.730708 C62.5233801,156.730708 58.1455275,161.108561 58.1455275,166.508916 C58.1455275,171.90927 62.5233801,176.287123 67.9237349,176.287123 C73.3240897,176.287123 77.7019422,171.90927 77.7019422,166.508916 L77.7019422,166.508916 L77.7019422,166.508916 Z" id="Oval-3-Copy-19" fill-opacity="0.5" fill="#138C8F"></path>
                    <path d="M105.099372,211.710063 C105.099372,209.926927 103.653855,208.481409 101.870719,208.481409 C100.087583,208.481409 98.6420655,209.926927 98.6420655,211.710063 C98.6420655,213.493199 100.087583,214.938716 101.870719,214.938716 C103.653855,214.938716 105.099372,213.493199 105.099372,211.710063 L105.099372,211.710063 L105.099372,211.710063 Z" id="Oval-3-Copy-21" fill-opacity="0.5" fill="#138C8F"></path>
                    <path d="M105.099372,197.919101 C105.099372,196.670905 104.08751,195.659043 102.839315,195.659043 C101.59112,195.659043 100.579257,196.670905 100.579257,197.919101 C100.579257,199.167296 101.59112,200.179158 102.839315,200.179158 C104.08751,200.179158 105.099372,199.167296 105.099372,197.919101 L105.099372,197.919101 L105.099372,197.919101 Z" id="Oval-3-Copy-22" fill-opacity="0.3" fill="#138C8F"></path>
                    <path d="M84.5282379,177.947573 C84.5282379,175.604023 82.6284151,173.7042 80.2848649,173.7042 C77.9413147,173.7042 76.0414919,175.604023 76.0414919,177.947573 C76.0414919,180.291124 77.9413147,182.190946 80.2848649,182.190946 C82.6284151,182.190946 84.5282379,180.291124 84.5282379,177.947573 L84.5282379,177.947573 L84.5282379,177.947573 Z" id="Oval-3-Copy-10" fill-opacity="0.1" fill="#138C8F"></path>
                    <path d="M108.328026,242.243899 C108.328026,233.328219 101.100439,226.100632 92.1847587,226.100632 C83.2690787,226.100632 76.0414919,233.328219 76.0414919,242.243899 C76.0414919,251.159579 83.2690787,258.387166 92.1847587,258.387166 C101.100439,258.387166 108.328026,251.159579 108.328026,242.243899 L108.328026,242.243899 L108.328026,242.243899 Z" id="Oval-3-Copy-20" fill-opacity="0.1" fill="#D75B36"></path>
                    <path d="M127.330957,200.4559 C127.330957,198.316136 125.596336,196.581516 123.456573,196.581516 C121.31681,196.581516 119.582189,198.316136 119.582189,200.4559 C119.582189,202.595663 121.31681,204.330284 123.456573,204.330284 C125.596336,204.330284 127.330957,202.595663 127.330957,200.4559 L127.330957,200.4559 L127.330957,200.4559 Z" id="Oval-3-Copy-11" fill-opacity="0.3" fill="#138C8F"></path>
                    <path d="M88.9561054,139.941711 C88.9561054,136.783013 86.3954746,134.222382 83.2367766,134.222382 C80.0780785,134.222382 77.5174477,136.783013 77.5174477,139.941711 C77.5174477,143.100409 80.0780785,145.66104 83.2367766,145.66104 C86.3954746,145.66104 88.9561054,143.100409 88.9561054,139.941711 L88.9561054,139.941711 L88.9561054,139.941711 Z" id="Oval-3-Copy-12" fill-opacity="0.3" fill="#138C8F"></path>
                    <path d="M81.2073373,214.108491 C81.2073373,206.058906 74.681859,199.533427 66.6322735,199.533427 C58.5826881,199.533427 52.0572098,206.058906 52.0572098,214.108491 C52.0572098,222.158076 58.5826881,228.683555 66.6322735,228.683555 C74.681859,228.683555 81.2073373,222.158076 81.2073373,214.108491 L81.2073373,214.108491 L81.2073373,214.108491 Z" id="Oval-3-Copy-13" fill-opacity="0.1" fill="#D75B36"></path>
                    <path d="M93.0149839,212.485516 C93.0149839,206.779481 88.3893284,202.153825 82.6832931,202.153825 C76.9772579,202.153825 72.3516023,206.779481 72.3516023,212.485516 C72.3516023,218.191551 76.9772579,222.817207 82.6832931,222.817207 C88.3893284,222.817207 93.0149839,218.191551 93.0149839,212.485516 L93.0149839,212.485516 L93.0149839,212.485516 Z" id="Oval-3-Copy-14" fill-opacity="0.5" fill="#CA4D85"></path>
                    <path d="M110.726454,170.936783 C110.726454,166.75915 107.339813,163.37251 103.16218,163.37251 C98.9845472,163.37251 95.5979066,166.75915 95.5979066,170.936783 C95.5979066,175.114416 98.9845472,178.501057 103.16218,178.501057 C107.339813,178.501057 110.726454,175.114416 110.726454,170.936783 L110.726454,170.936783 L110.726454,170.936783 Z" id="Oval-3-Copy-15" fill-opacity="0.5" fill="#CA4D85"></path>
                    <path d="M106.298586,150.826885 C106.298586,148.381441 104.316163,146.399018 101.870719,146.399018 C99.4252752,146.399018 97.4428514,148.381441 97.4428514,150.826885 C97.4428514,153.272329 99.4252752,155.254753 101.870719,155.254753 C104.316163,155.254753 106.298586,153.272329 106.298586,150.826885 L106.298586,150.826885 L106.298586,150.826885 Z" id="Oval-3-Copy-16" fill-opacity="0.1" fill="#138C8F"></path>
                    <path d="M127.330957,183.482408 C127.330957,180.731284 125.10073,178.501057 122.349606,178.501057 C119.598482,178.501057 117.368255,180.731284 117.368255,183.482408 C117.368255,186.233532 119.598482,188.463759 122.349606,188.463759 C125.10073,188.463759 127.330957,186.233532 127.330957,183.482408 L127.330957,183.482408 L127.330957,183.482408 Z" id="Oval-3-Copy-17" fill-opacity="0.2" fill="#138C8F"></path>
                    <path d="M129.91388,221.672765 C129.91388,218.61596 127.43585,216.13793 124.379045,216.13793 C121.322241,216.13793 118.844211,218.61596 118.844211,221.672765 C118.844211,224.729569 121.322241,227.207599 124.379045,227.207599 C127.43585,227.207599 129.91388,224.729569 129.91388,221.672765 L129.91388,221.672765 L129.91388,221.672765 Z" id="Oval-3-Copy-18" fill-opacity="0.1" fill="#138C8F"></path>
                    <path d="M245.945163,176.319417 C247.803023,179.537324 251.917745,180.639861 255.135653,178.782001 C258.35356,176.924141 259.456097,172.809419 257.598237,169.591511 C255.740377,166.373603 251.625655,165.271067 248.407747,167.128927 C245.189839,168.986786 244.087303,173.101509 245.945163,176.319417 L245.945163,176.319417 L245.945163,176.319417 Z" id="Oval-3-Copy-45" fill-opacity="0.5" fill="#138C8F"></path>
                    <path d="M236.070655,177.304193 C237.928515,180.5221 242.043238,181.624637 245.261146,179.766777 C248.479053,177.908917 249.58159,173.794195 247.72373,170.576287 C245.86587,167.358379 241.751148,166.255843 238.53324,168.113703 C235.315332,169.971563 234.212796,174.086285 236.070655,177.304193 L236.070655,177.304193 L236.070655,177.304193 Z" id="Oval-3-Copy-23" fill-opacity="0.1" fill="#138C8F"></path>
                    <path d="M210.721631,155.172292 C213.702848,160.335911 220.305543,162.105097 225.469162,159.12388 C230.632781,156.142663 232.401968,149.539969 229.420751,144.37635 C226.439534,139.212731 219.836839,137.443544 214.67322,140.424761 C209.509601,143.405978 207.740414,150.008672 210.721631,155.172292 L210.721631,155.172292 L210.721631,155.172292 Z" id="Oval-3-Copy-24" fill-opacity="0.3" fill="#138C8F"></path>
                    <path d="M260.087232,195.797742 C261.42662,198.117629 264.393048,198.912481 266.712935,197.573094 C269.032821,196.233707 269.827673,193.267279 268.488286,190.947392 C267.148899,188.627505 264.182471,187.832653 261.862584,189.17204 C259.542697,190.511428 258.747845,193.477855 260.087232,195.797742 L260.087232,195.797742 L260.087232,195.797742 Z" id="Oval-3-Copy-25" fill-opacity="0.3" fill="#138C8F"></path>
                    <path d="M215.398186,162.407194 C216.737574,164.727081 219.704002,165.521933 222.023889,164.182546 C224.343776,162.843158 225.138627,159.876731 223.79924,157.556844 C222.459853,155.236957 219.493425,154.442105 217.173538,155.781492 C214.853651,157.120879 214.058799,160.087307 215.398186,162.407194 L215.398186,162.407194 L215.398186,162.407194 Z" id="Oval-3-Copy-26" fill-opacity="0.1" fill="#138C8F"></path>
                    <path d="M207.274485,181.328887 C208.397843,183.274599 210.885814,183.941249 212.831526,182.817892 C214.777238,181.694534 215.443888,179.206563 214.32053,177.260851 C213.197173,175.315139 210.709202,174.648489 208.76349,175.771847 C206.817778,176.895204 206.151128,179.383175 207.274485,181.328887 L207.274485,181.328887 L207.274485,181.328887 Z" id="Oval-3-Copy-27" fill-opacity="0.6" fill="#138C8F"></path>
                    <path d="M227.513869,198.071514 C229.285316,201.139752 233.208656,202.191007 236.276894,200.41956 C239.345132,198.648112 240.396387,194.724772 238.62494,191.656534 C236.853492,188.588297 232.930152,187.537041 229.861914,189.308489 C226.793677,191.079936 225.742421,195.003276 227.513869,198.071514 L227.513869,198.071514 L227.513869,198.071514 Z" id="Oval-3-Copy-28" fill-opacity="0.6" fill="#138C8F"></path>
                    <path d="M245.137155,204.321568 C246.174101,206.117609 248.47069,206.732979 250.266731,205.696034 C252.062773,204.659089 252.678142,202.362499 251.641197,200.566458 C250.604252,198.770416 248.307663,198.155047 246.511621,199.191992 C244.71558,200.228937 244.10021,202.525526 245.137155,204.321568 L245.137155,204.321568 L245.137155,204.321568 Z" id="Oval-3-Copy-29" fill-opacity="0.1" fill="#138C8F"></path>
                    <path d="M214.502735,204.801516 C215.366856,206.298217 217.28068,206.811025 218.777381,205.946904 C220.274083,205.082783 220.78689,203.168959 219.92277,201.672258 C219.058649,200.175556 217.144824,199.662749 215.648123,200.526869 C214.151422,201.39099 213.638614,203.304815 214.502735,204.801516 L214.502735,204.801516 L214.502735,204.801516 Z" id="Oval-3-Copy-30" fill-opacity="0.05" fill="#138C8F"></path>
                    <path d="M176.761123,187.077292 C179.396692,191.642231 185.233856,193.206294 189.798795,190.570726 C194.363734,187.935157 195.927797,182.097993 193.292229,177.533054 C190.65666,172.968115 184.819495,171.404052 180.254557,174.03962 C175.689618,176.675189 174.125554,182.512353 176.761123,187.077292 L176.761123,187.077292 L176.761123,187.077292 Z" id="Oval-3-Copy-31" fill-opacity="0.6" fill="#138C8F"></path>
                    <path d="M171.794417,228.855349 C174.084337,232.821607 179.155972,234.180547 183.12223,231.890627 C187.088488,229.600707 188.447429,224.529072 186.157509,220.562814 C183.867588,216.596555 178.795954,215.237615 174.829695,217.527535 C170.863437,219.817456 169.504497,224.88909 171.794417,228.855349 L171.794417,228.855349 L171.794417,228.855349 Z" id="Oval-3-Copy-32" fill-opacity="0.1" fill="#D75B36"></path>
                    <path d="M224.204945,220.311718 C224.961051,221.621331 226.635647,222.070038 227.945261,221.313932 C229.254875,220.557827 229.703581,218.88323 228.947476,217.573617 C228.19137,216.264003 226.516773,215.815296 225.20716,216.571402 C223.897546,217.327508 223.44884,219.002104 224.204945,220.311718 L224.204945,220.311718 L224.204945,220.311718 Z" id="Oval-3-Copy-33" fill-opacity="0.5" fill="#138C8F"></path>
                    <path d="M215.196728,213.340726 C215.726002,214.257456 216.898219,214.57155 217.814949,214.042276 C218.731678,213.513002 219.045773,212.340785 218.516499,211.424055 C217.987225,210.507326 216.815007,210.193231 215.898278,210.722505 C214.981548,211.251779 214.667454,212.423997 215.196728,213.340726 L215.196728,213.340726 L215.196728,213.340726 Z" id="Oval-3-Copy-34" fill-opacity="0.3" fill="#138C8F"></path>
                    <path d="M189.504282,222.279491 C190.498021,224.000698 192.698919,224.590427 194.420126,223.596688 C196.141332,222.602949 196.731061,220.402051 195.737322,218.680844 C194.743583,216.959638 192.542685,216.369909 190.821479,217.363648 C189.100272,218.357387 188.510543,220.558285 189.504282,222.279491 L189.504282,222.279491 L189.504282,222.279491 Z" id="Oval-3-Copy-35" fill-opacity="0.1" fill="#138C8F"></path>
                    <path d="M233.041185,245.852372 C236.821714,252.40044 245.194696,254.643974 251.742764,250.863445 C258.290832,247.082916 260.534365,238.709934 256.753837,232.161866 C252.973308,225.613799 244.600326,223.370265 238.052258,227.150794 C231.50419,230.931322 229.260656,239.304304 233.041185,245.852372 L233.041185,245.852372 L233.041185,245.852372 Z" id="Oval-3-Copy-36" fill-opacity="0.1" fill="#138C8F"></path>
                    <path d="M224.618369,199.956363 C225.525696,201.5279 227.535211,202.066348 229.106748,201.159021 C230.678284,200.251694 231.216732,198.242178 230.309405,196.670642 C229.402078,195.099106 227.392562,194.560658 225.821026,195.467985 C224.24949,196.375312 223.711042,198.384827 224.618369,199.956363 L224.618369,199.956363 L224.618369,199.956363 Z" id="Oval-3-Copy-37" fill-opacity="0.3" fill="#138C8F"></path>
                    <path d="M161.754349,204.618595 C163.093736,206.938482 166.060164,207.733334 168.380051,206.393947 C170.699938,205.054559 171.49479,202.088132 170.155402,199.768245 C168.816015,197.448358 165.849587,196.653506 163.5297,197.992893 C161.209813,199.33228 160.414961,202.298708 161.754349,204.618595 L161.754349,204.618595 L161.754349,204.618595 Z" id="Oval-3-Copy-38" fill-opacity="0.3" fill="#138C8F"></path>
                    <path d="M191.617695,203.909453 C193.389143,206.97769 197.312483,208.028946 200.380721,206.257498 C203.448958,204.486051 204.500214,200.562711 202.728766,197.494473 C200.957318,194.426236 197.033978,193.37498 193.965741,195.146427 C190.897503,196.917875 189.846247,200.841215 191.617695,203.909453 L191.617695,203.909453 L191.617695,203.909453 Z" id="Oval-3-Copy-41" fill-opacity="0.6" fill="#138C8F"></path>
                    <path d="M178.601438,194.999529 C179.638383,196.795571 181.934972,197.41094 183.731013,196.373995 C185.527055,195.33705 186.142424,193.040461 185.105479,191.244419 C184.068534,189.448378 181.771945,188.833008 179.975903,189.869953 C178.179862,190.906899 177.564493,193.203488 178.601438,194.999529 L178.601438,194.999529 L178.601438,194.999529 Z" id="Oval-3-Copy-42" fill-opacity="0.1" fill="#138C8F"></path>
                    <path d="M210.867735,194.040397 C212.034298,196.060944 214.617961,196.753234 216.638508,195.586671 C218.659055,194.420108 219.351345,191.836445 218.184782,189.815898 C217.018219,187.795351 214.434556,187.103061 212.414009,188.269624 C210.393462,189.436187 209.701172,192.01985 210.867735,194.040397 L210.867735,194.040397 L210.867735,194.040397 Z" id="Oval-3-Copy-43" fill-opacity="0.2" fill="#138C8F"></path>
                    <path d="M239.375285,208.980949 C240.671466,211.226001 243.542203,211.995213 245.787255,210.699032 C248.032307,209.40285 248.801518,206.532114 247.505337,204.287062 C246.209156,202.04201 243.338419,201.272798 241.093367,202.56898 C238.848315,203.865161 238.079104,206.735898 239.375285,208.980949 L239.375285,208.980949 L239.375285,208.980949 Z" id="Oval-3-Copy-44" fill-opacity="0.6" fill="#138C8F"></path>
                    <path d="M18.4044032,187.053168 C25.3961443,184.508382 29.0011139,176.7775 26.4563283,169.785759 C23.9115427,162.794018 16.1806603,159.189048 9.18891927,161.733834 C2.19717821,164.278619 -1.40779144,172.009502 1.13699419,179.001243 C3.68177982,185.992984 11.4126622,189.597953 18.4044032,187.053168 L18.4044032,187.053168 Z" id="Oval-3" fill-opacity="0.5" fill="#138C8F"></path>
                    <path d="M35.1687303,198.293633 C42.1604714,195.748847 45.765441,188.017965 43.2206554,181.026224 C40.6758697,174.034483 32.9449874,170.429513 25.9532463,172.974299 C18.9615053,175.519084 15.3565356,183.249967 17.9013212,190.241708 C20.4461069,197.233449 28.1769892,200.838418 35.1687303,198.293633 L35.1687303,198.293633 Z" id="Oval-3-Copy" fill-opacity="0.1" fill="#D75B36"></path>
                    <path d="M40.3302025,271.117431 C51.5495079,267.033938 57.3342266,254.628569 53.2507334,243.409263 C49.1672402,232.189958 36.7618708,226.405239 25.5425654,230.488733 C14.32326,234.572226 8.53854124,246.977595 12.6220345,258.196901 C16.7055277,269.416206 29.1108971,275.200925 40.3302025,271.117431 L40.3302025,271.117431 Z" id="Oval-3-Copy-2" fill-opacity="0.3" fill="#138C8F"></path>
                    <path d="M24.547937,136.126685 C29.5884945,134.292072 32.1874261,128.718645 30.3528132,123.678087 C28.5182003,118.63753 22.9447735,116.038598 17.904216,117.873211 C12.8636585,119.707824 10.2647269,125.281251 12.0993398,130.321808 C13.9339527,135.362366 19.5073795,137.961298 24.547937,136.126685 L24.547937,136.126685 Z" id="Oval-3-Copy-4" fill-opacity="0.3" fill="#138C8F"></path>
                    <path d="M50.1231431,244.878304 C55.1637006,243.043691 57.7626322,237.470264 55.9280193,232.429707 C54.0934064,227.389149 48.5199796,224.790218 43.479422,226.62483 C38.4388645,228.459443 35.8399329,234.03287 37.6745458,239.073428 C39.5091587,244.113985 45.0825855,246.712917 50.1231431,244.878304 L50.1231431,244.878304 Z" id="Oval-3-Copy-5" fill-opacity="0.1" fill="#138C8F"></path>
                    <path d="M75.4317716,176.969196 C82.0983154,174.542772 85.535612,167.171466 83.1091885,160.504922 C80.682765,153.838378 73.3114586,150.401082 66.6449148,152.827505 C59.978371,155.253929 56.5410744,162.625235 58.9674979,169.291779 C61.3939214,175.958323 68.7652278,179.39562 75.4317716,176.969196 L75.4317716,176.969196 Z" id="Oval-3-Copy-6" fill-opacity="0.6" fill="#138C8F"></path>
                    <path d="M59.8654004,140.614995 C63.7677675,139.19465 65.7798435,134.879739 64.3594981,130.977372 C62.9391526,127.075005 58.6242415,125.062929 54.7218744,126.483274 C50.8195073,127.90362 48.8074312,132.218531 50.2277767,136.120898 C51.6481222,140.023265 55.9630332,142.035341 59.8654004,140.614995 L59.8654004,140.614995 Z" id="Oval-3-Copy-9" fill-opacity="0.1" fill="#D75B36"></path>
                    <path d="M108.285448,178.353481 C111.53742,177.169859 113.21415,173.5741 112.030529,170.322128 C110.846908,167.070155 107.251149,165.393425 103.999176,166.577046 C100.747204,167.760667 99.0704736,171.356427 100.254095,174.608399 C101.437716,177.860372 105.033475,179.537102 108.285448,178.353481 L108.285448,178.353481 Z" id="Oval-3-Copy-7" fill-opacity="0.05" fill="#138C8F"></path>
                    <path d="M176.838455,194.42497 C179.975052,203.042697 189.503814,207.486032 198.121541,204.349435 C206.739268,201.212839 211.182603,191.684077 208.046007,183.06635 C204.909411,174.448622 195.380649,170.005288 186.762921,173.141884 C178.145194,176.27848 173.701859,185.807242 176.838455,194.42497 L176.838455,194.42497 L176.838455,194.42497 Z" id="Oval-3-Copy-19" fill-opacity="0.5" fill="#CA4D85"></path>
                    <path d="M106.843141,138.192827 C107.87881,141.038303 111.025099,142.505442 113.870575,141.469773 C116.716051,140.434105 118.18319,137.287816 117.147521,134.44234 C116.111853,131.596864 112.965563,130.129725 110.120087,131.165393 C107.274611,132.201062 105.807472,135.347351 106.843141,138.192827 L106.843141,138.192827 L106.843141,138.192827 Z" id="Oval-3-Copy-21" fill-opacity="0.5" fill="#138C8F"></path>
                    <path d="M114.85487,160.206182 C115.579838,162.198015 117.782241,163.225012 119.774074,162.500044 C121.765907,161.775076 122.792904,159.572673 122.067936,157.58084 C121.342968,155.589007 119.140566,154.56201 117.148733,155.286978 C115.156899,156.011946 114.129902,158.214348 114.85487,160.206182 L114.85487,160.206182 L114.85487,160.206182 Z" id="Oval-3-Copy-22" fill-opacity="0.3" fill="#138C8F"></path>
                    <path d="M159.294356,180.133284 C160.65552,183.873052 164.790644,185.801292 168.530412,184.440127 C172.270181,183.078963 174.19842,178.94384 172.837256,175.204071 C171.476091,171.464303 167.340968,169.536063 163.6012,170.897228 C159.861431,172.258392 157.933192,176.393515 159.294356,180.133284 L159.294356,180.133284 L159.294356,180.133284 Z" id="Oval-3-Copy-10" fill-opacity="0.1" fill="#138C8F"></path>
                    <path d="M83.9558821,91.3282818 C89.134225,105.555662 104.865672,112.891356 119.093052,107.713013 C133.320432,102.53467 140.656126,86.8032235 135.477783,72.5758434 C130.29944,58.3484634 114.567993,51.0127693 100.340613,56.1911122 C86.1132333,61.369455 78.7775393,77.1009017 83.9558821,91.3282818 L83.9558821,91.3282818 L83.9558821,91.3282818 Z" id="Oval-3-Copy-20" fill-opacity="0.1" fill="#138C8F"></path>
                    <path d="M77.8956007,169.072583 C79.1384029,172.487154 82.9139501,174.24772 86.3285214,173.004918 C89.7430926,171.762116 91.5036591,167.986569 90.2608569,164.571998 C89.0180546,161.157426 85.2425074,159.39686 81.8279362,160.639662 C78.413365,161.882464 76.6527984,165.658011 77.8956007,169.072583 L77.8956007,169.072583 L77.8956007,169.072583 Z" id="Oval-3-Copy-11" fill-opacity="0.3" fill="#138C8F"></path>
                    <path d="M174.30752,243.370656 C176.142133,248.411214 181.715559,251.010145 186.756117,249.175533 C191.796675,247.34092 194.395606,241.767493 192.560993,236.726935 C190.72638,231.686378 185.152954,229.087446 180.112396,230.922059 C175.071838,232.756672 172.472907,238.330099 174.30752,243.370656 L174.30752,243.370656 L174.30752,243.370656 Z" id="Oval-3-Copy-12" fill-opacity="0.3" fill="#138C8F"></path>
                    <path d="M143.591234,120.48207 C148.266538,133.327362 162.469787,139.950445 175.315078,135.275142 C188.16037,130.599838 194.783454,116.396589 190.10815,103.551297 C185.432846,90.7060053 171.229597,84.0829216 158.384306,88.7582254 C145.539014,93.4335292 138.91593,107.636778 143.591234,120.48207 L143.591234,120.48207 L143.591234,120.48207 Z" id="Oval-3-Copy-13" fill-opacity="0.1" fill="#D75B36"></path>
                    <path d="M138.015418,214.221238 C144.681962,211.794815 148.119259,204.423508 145.692835,197.756965 C143.266412,191.090421 135.895105,187.653124 129.228561,190.079548 C122.562018,192.505971 119.124721,199.877278 121.551144,206.543821 C123.977568,213.210365 131.348874,216.647662 138.015418,214.221238 L138.015418,214.221238 Z" id="Oval-3-Copy-15" fill-opacity="0.1" fill="#138C8F"></path>
                </g>
            </g>
        </g>
    </g>
</svg>