<?xml version="1.0" encoding="UTF-8" standalone="no"?>
<svg width="996px" height="495px" viewBox="0 0 996 495" version="1.1" xmlns="http://www.w3.org/2000/svg" xmlns:xlink="http://www.w3.org/1999/xlink" xmlns:sketch="http://www.bohemiancoding.com/sketch/ns">
    <!-- Generator: Sketch 3.3.2 (12043) - http://www.bohemiancoding.com/sketch -->
    <title>Group</title>
    <desc>Created with Sketch.</desc>
    <defs></defs>
    <g id="Page-1" stroke="none" stroke-width="1" fill="none" fill-rule="evenodd" sketch:type="MSPage">
        <g id="Desktop-HD-Copy" sketch:type="MSArtboardGroup" transform="translate(0.000000, -266.000000)">
            <g id="Group" sketch:type="MSLayerGroup" transform="translate(-33.000000, 264.000000)">
                <path d="M533.554703,281.460941 L545.488649,281.460941 C545.261095,281.106273 545.033541,280.802271 544.780703,280.548937 L534.464919,270.212886 C534.212081,269.959551 533.908676,269.73155 533.554703,269.503549 L533.554703,281.460941 Z M530.318379,282.271612 L530.318379,268.49021 L510.091352,268.49021 C508.751312,268.49021 507.664109,269.579549 507.664109,270.922222 L507.664109,311.455756 C507.664109,312.79843 508.751312,313.887768 510.091352,313.887768 L544.072757,313.887768 C545.412797,313.887768 546.5,312.79843 546.5,311.455756 L546.5,284.703624 L532.745622,284.703624 C531.405581,284.703624 530.318379,283.614285 530.318379,282.271612 L530.318379,282.271612 Z" id="" fill-opacity="0.3" fill="#D75B36" sketch:type="MSShapeGroup"></path>
                <path d="M709.900901,240.518496 C709.900901,237.681148 709.62278,234.767801 708.560861,232.082454 C705.046415,223.342411 694.730631,221.87307 686.43755,221.87307 L680.773983,221.87307 L680.773983,215.387705 C680.773983,214.501034 680.040753,213.766363 679.155821,213.766363 C678.725997,213.766363 678.321456,213.943698 678.018051,214.247699 L665.072754,227.21843 C664.769348,227.522431 664.592362,227.927767 664.592362,228.358436 C664.592362,228.789104 664.769348,229.19444 665.072754,229.498441 L678.018051,242.469172 C678.321456,242.773174 678.725997,242.950508 679.155821,242.950508 C680.040753,242.950508 680.773983,242.215837 680.773983,241.329166 L680.773983,234.843801 L686.43755,234.843801 C697.334861,234.843801 704.490172,236.946478 704.490172,249.030538 C704.490172,250.06921 704.439604,251.107881 704.363753,252.146553 C704.338469,252.551889 704.237334,253.007891 704.237334,253.413226 C704.237334,253.894562 704.540739,254.299897 705.046415,254.299897 C705.400388,254.299897 705.577374,254.122563 705.754361,253.869228 C706.133618,253.337226 706.411739,252.526555 706.689861,251.943886 C708.131036,248.701203 709.900901,244.06518 709.900901,240.518496 L709.900901,240.518496 Z" id="" fill-opacity="0.5" fill="#CA4D85" sketch:type="MSShapeGroup"></path>
                <path d="M757.118105,204.848986 C757.118105,204.392984 756.764132,204.038315 756.309024,204.038315 L754.690862,204.038315 C754.235754,204.038315 753.881781,204.392984 753.881781,204.848986 L753.881781,213.766363 L748.218213,213.766363 C747.763105,213.766363 747.409132,214.121032 747.409132,214.577034 L747.409132,216.198375 C747.409132,216.654378 747.763105,217.009046 748.218213,217.009046 L756.309024,217.009046 C756.764132,217.009046 757.118105,216.654378 757.118105,216.198375 L757.118105,204.848986 Z M767.636159,213.766363 C767.636159,221.366401 761.466916,227.547765 753.881781,227.547765 C746.296646,227.547765 740.127403,221.366401 740.127403,213.766363 C740.127403,206.166326 746.296646,199.984962 753.881781,199.984962 C761.466916,199.984962 767.636159,206.166326 767.636159,213.766363 L767.636159,213.766363 Z M773.299726,213.766363 C773.299726,203.024977 764.602105,194.310267 753.881781,194.310267 C743.161457,194.310267 734.463835,203.024977 734.463835,213.766363 C734.463835,224.50775 743.161457,233.22246 753.881781,233.22246 C764.602105,233.22246 773.299726,224.50775 773.299726,213.766363 L773.299726,213.766363 Z" id="" fill-opacity="0.3" fill="#D75B36" sketch:type="MSShapeGroup"></path>
                <path d="M49.2533065,468.241471 C49.2533065,467.785469 48.8993335,467.430801 48.4442255,467.430801 L46.8260633,467.430801 C46.3709552,467.430801 46.0169823,467.785469 46.0169823,468.241471 L46.0169823,477.158849 L40.3534149,477.158849 C39.8983068,477.158849 39.5443338,477.513517 39.5443338,477.969519 L39.5443338,479.590861 C39.5443338,480.046863 39.8983068,480.401531 40.3534149,480.401531 L48.4442255,480.401531 C48.8993335,480.401531 49.2533065,480.046863 49.2533065,479.590861 L49.2533065,468.241471 Z M59.7713603,477.158849 C59.7713603,484.758886 53.6021172,490.94025 46.0169823,490.94025 C38.4318473,490.94025 32.2626043,484.758886 32.2626043,477.158849 C32.2626043,469.558811 38.4318473,463.377447 46.0169823,463.377447 C53.6021172,463.377447 59.7713603,469.558811 59.7713603,477.158849 L59.7713603,477.158849 Z M65.4349277,477.158849 C65.4349277,466.417462 56.7373063,457.702752 46.0169823,457.702752 C35.2966582,457.702752 26.5990369,466.417462 26.5990369,477.158849 C26.5990369,487.900235 35.2966582,496.614945 46.0169823,496.614945 C56.7373063,496.614945 65.4349277,487.900235 65.4349277,477.158849 L65.4349277,477.158849 Z" id="-copy-8" fill-opacity="0.3" fill="#D75B36" sketch:type="MSShapeGroup"></path>
                <path d="M911.473714,235.107592 C911.473714,234.65159 911.119741,234.296921 910.664633,234.296921 L909.046471,234.296921 C908.591363,234.296921 908.23739,234.65159 908.23739,235.107592 L908.23739,244.024969 L902.573823,244.024969 C902.118715,244.024969 901.764742,244.379638 901.764742,244.83564 L901.764742,246.456981 C901.764742,246.912984 902.118715,247.267652 902.573823,247.267652 L910.664633,247.267652 C911.119741,247.267652 911.473714,246.912984 911.473714,246.456981 L911.473714,235.107592 Z M921.991768,244.024969 C921.991768,251.625007 915.822525,257.806371 908.23739,257.806371 C900.652255,257.806371 894.483012,251.625007 894.483012,244.024969 C894.483012,236.424932 900.652255,230.243568 908.23739,230.243568 C915.822525,230.243568 921.991768,236.424932 921.991768,244.024969 L921.991768,244.024969 Z M927.655336,244.024969 C927.655336,233.283583 918.957714,224.568873 908.23739,224.568873 C897.517066,224.568873 888.819445,233.283583 888.819445,244.024969 C888.819445,254.766356 897.517066,263.481066 908.23739,263.481066 C918.957714,263.481066 927.655336,254.766356 927.655336,244.024969 L927.655336,244.024969 Z" id="-copy" fill-opacity="0.5" fill="#CA4D85" sketch:type="MSShapeGroup"></path>
                <path d="M717.182631,232.820701 L713.946306,232.820701 C711.721334,232.820701 709.900901,234.64471 709.900901,236.874054 L709.900901,264.436857 C709.900901,266.666201 711.721334,268.49021 713.946306,268.49021 L717.182631,268.49021 C719.407604,268.49021 721.228036,266.666201 721.228036,264.436857 L721.228036,236.874054 C721.228036,234.64471 719.407604,232.820701 717.182631,232.820701 L717.182631,232.820701 Z M751.973116,236.950054 L751.973116,232.820701 C751.973116,231.478027 751.189319,229.603351 750.253819,228.666013 L746.410684,224.815328 C745.475184,223.87799 743.604184,223.092652 742.264144,223.092652 L725.273441,223.092652 C723.933401,223.092652 722.846198,224.181991 722.846198,225.524664 L722.846198,264.436857 C722.846198,266.666201 724.666631,268.49021 726.891603,268.49021 L748.736792,268.49021 C752.301805,268.49021 755.20944,265.576863 755.20944,262.004845 L755.20944,242.548749 C755.20944,240.167404 753.894684,238.064726 751.973116,236.950054 L751.973116,236.950054 Z M733.364252,262.004845 C733.364252,262.460847 733.010279,262.815516 732.555171,262.815516 L729.318847,262.815516 C728.863738,262.815516 728.509766,262.460847 728.509766,262.004845 L728.509766,258.762162 C728.509766,258.30616 728.863738,257.951492 729.318847,257.951492 L732.555171,257.951492 C733.010279,257.951492 733.364252,258.30616 733.364252,258.762162 L733.364252,262.004845 Z M733.364252,255.51948 C733.364252,255.975482 733.010279,256.33015 732.555171,256.33015 L729.318847,256.33015 C728.863738,256.33015 728.509766,255.975482 728.509766,255.51948 L728.509766,252.276797 C728.509766,251.820795 728.863738,251.466126 729.318847,251.466126 L732.555171,251.466126 C733.010279,251.466126 733.364252,251.820795 733.364252,252.276797 L733.364252,255.51948 Z M733.364252,249.034114 C733.364252,249.490116 733.010279,249.844785 732.555171,249.844785 L729.318847,249.844785 C728.863738,249.844785 728.509766,249.490116 728.509766,249.034114 L728.509766,245.791431 C728.509766,245.335429 728.863738,244.980761 729.318847,244.980761 L732.555171,244.980761 C733.010279,244.980761 733.364252,245.335429 733.364252,245.791431 L733.364252,249.034114 Z M739.8369,262.004845 C739.8369,262.460847 739.482927,262.815516 739.027819,262.815516 L735.791495,262.815516 C735.336387,262.815516 734.982414,262.460847 734.982414,262.004845 L734.982414,258.762162 C734.982414,258.30616 735.336387,257.951492 735.791495,257.951492 L739.027819,257.951492 C739.482927,257.951492 739.8369,258.30616 739.8369,258.762162 L739.8369,262.004845 Z M739.8369,255.51948 C739.8369,255.975482 739.482927,256.33015 739.027819,256.33015 L735.791495,256.33015 C735.336387,256.33015 734.982414,255.975482 734.982414,255.51948 L734.982414,252.276797 C734.982414,251.820795 735.336387,251.466126 735.791495,251.466126 L739.027819,251.466126 C739.482927,251.466126 739.8369,251.820795 739.8369,252.276797 L739.8369,255.51948 Z M739.8369,249.034114 C739.8369,249.490116 739.482927,249.844785 739.027819,249.844785 L735.791495,249.844785 C735.336387,249.844785 734.982414,249.490116 734.982414,249.034114 L734.982414,245.791431 C734.982414,245.335429 735.336387,244.980761 735.791495,244.980761 L739.027819,244.980761 C739.482927,244.980761 739.8369,245.335429 739.8369,245.791431 L739.8369,249.034114 Z M746.309549,262.004845 C746.309549,262.460847 745.955576,262.815516 745.500468,262.815516 L742.264144,262.815516 C741.809035,262.815516 741.455062,262.460847 741.455062,262.004845 L741.455062,258.762162 C741.455062,258.30616 741.809035,257.951492 742.264144,257.951492 L745.500468,257.951492 C745.955576,257.951492 746.309549,258.30616 746.309549,258.762162 L746.309549,262.004845 Z M746.309549,255.51948 C746.309549,255.975482 745.955576,256.33015 745.500468,256.33015 L742.264144,256.33015 C741.809035,256.33015 741.455062,255.975482 741.455062,255.51948 L741.455062,252.276797 C741.455062,251.820795 741.809035,251.466126 742.264144,251.466126 L745.500468,251.466126 C745.955576,251.466126 746.309549,251.820795 746.309549,252.276797 L746.309549,255.51948 Z M746.309549,249.034114 C746.309549,249.490116 745.955576,249.844785 745.500468,249.844785 L742.264144,249.844785 C741.809035,249.844785 741.455062,249.490116 741.455062,249.034114 L741.455062,245.791431 C741.455062,245.335429 741.809035,244.980761 742.264144,244.980761 L745.500468,244.980761 C745.955576,244.980761 746.309549,245.335429 746.309549,245.791431 L746.309549,249.034114 Z M748.736792,239.306066 L726.082522,239.306066 L726.082522,226.335335 L742.264144,226.335335 L742.264144,230.388689 C742.264144,231.731362 743.351346,232.820701 744.691387,232.820701 L748.736792,232.820701 L748.736792,239.306066 Z" id="" fill-opacity="0.7" fill="#FDB731" sketch:type="MSShapeGroup"></path>
                <path d="M669.010938,257.954917 C668.207184,258.839047 667.296262,259.61601 666.331757,260.285805 C661.857523,263.313281 657.356497,266.367548 652.989431,269.528982 C650.738918,271.190075 647.952569,273.226253 645.032261,273.226253 L645.005469,273.226253 L644.978677,273.226253 C642.058369,273.226253 639.27202,271.190075 637.021507,269.528982 C632.654441,266.340756 628.153415,263.313281 623.705974,260.285805 C622.714676,259.61601 621.803755,258.839047 621,257.954917 L621,279.227621 C621,281.585301 622.929011,283.514312 625.286691,283.514312 L664.724248,283.514312 C667.081928,283.514312 669.010938,281.585301 669.010938,279.227621 L669.010938,257.954917 Z M669.010938,250.078122 C669.010938,247.720442 667.055136,245.791431 664.724248,245.791431 L625.286691,245.791431 C622.419966,245.791431 621,248.041944 621,250.667542 C621,253.105598 623.705974,256.133073 625.608193,257.419081 C629.760925,260.312597 633.96724,263.206113 638.119972,266.126422 C639.86144,267.332053 642.80854,269.796901 644.978677,269.796901 L645.005469,269.796901 L645.032261,269.796901 C647.202398,269.796901 650.149498,267.332053 651.890967,266.126422 C656.043698,263.206113 660.250014,260.312597 664.429538,257.419081 C666.787218,255.78478 669.010938,253.078806 669.010938,250.078122 L669.010938,250.078122 Z" id="" fill-opacity="0.5" fill="#CA4D85" sketch:type="MSShapeGroup"></path>
                <path d="M980,225.771276 C979.447382,226.379156 978.821081,226.913354 978.157939,227.373869 C975.081698,229.455398 971.987035,231.555347 968.984476,233.728979 C967.437145,234.871057 965.521402,236.271023 963.513555,236.271023 L963.495135,236.271023 L963.476714,236.271023 C961.468868,236.271023 959.553125,234.871057 958.005794,233.728979 C955.003234,231.536926 951.908572,229.455398 948.850751,227.373869 C948.169189,226.913354 947.542888,226.379156 946.99027,225.771276 L946.99027,240.397239 C946.99027,242.018253 948.316553,243.344536 949.937567,243.344536 L977.052703,243.344536 C978.673716,243.344536 980,242.018253 980,240.397239 L980,225.771276 Z M980,220.355617 C980,218.734604 978.655296,217.40832 977.052703,217.40832 L949.937567,217.40832 C947.966562,217.40832 946.99027,218.955651 946.99027,220.760871 C946.99027,222.437146 948.850751,224.518675 950.158614,225.402864 C953.013809,227.39229 955.905844,229.381715 958.761038,231.389562 C959.958378,232.218489 961.984645,233.913185 963.476714,233.913185 L963.495135,233.913185 L963.513555,233.913185 C965.005625,233.913185 967.031892,232.218489 968.229231,231.389562 C971.084426,229.381715 973.976461,227.39229 976.850076,225.402864 C978.47109,224.279207 980,222.418725 980,220.355617 L980,220.355617 Z" id="-copy" fill-opacity="0.7" fill="#FDB731" sketch:type="MSShapeGroup"></path>
                <path d="M604.207275,246.95849 C604.207275,246.781156 604.207275,246.603822 604.131424,246.426487 C603.954437,245.894485 602.715532,245.337149 602.209856,245.083814 C600.768681,244.273143 599.302221,243.487806 597.886329,242.651802 C597.228951,242.246467 596.41987,241.486463 595.636073,241.486463 C594.093762,241.486463 591.843505,246.071819 590.478181,246.071819 C589.795519,246.071819 588.910586,245.438483 588.303776,245.083814 C583.702127,242.525135 580.51637,239.333119 577.962708,234.72243 C577.608735,234.114427 576.976641,233.227755 576.976641,232.543752 C576.976641,231.175745 581.553006,228.921067 581.553006,227.375727 C581.553006,226.590389 580.794492,225.779719 580.389952,225.121049 C579.555587,223.702375 578.771789,222.233034 577.962708,220.789027 C577.709871,220.282358 577.153627,219.041019 576.622668,218.863684 C576.445681,218.787684 576.268695,218.787684 576.091708,218.787684 C575.181492,218.787684 573.411627,219.193019 572.577263,219.573021 C571.338357,220.105024 570.529276,221.523698 569.897182,222.663703 C569.0881,224.158377 568.607709,225.678385 568.607709,227.375727 C568.607709,229.731738 569.568492,231.859749 570.35229,234.013093 C570.908533,235.558434 571.591195,237.053108 572.450844,238.446448 C575.105641,242.753136 580.288816,247.946495 584.58706,250.606508 C585.977668,251.467846 587.469411,252.151849 589.011722,252.709185 C591.160843,253.494522 593.284681,254.457194 595.636073,254.457194 C597.330086,254.457194 598.847113,253.975858 600.338856,253.165187 C601.476627,252.531851 602.892518,251.72118 603.423478,250.479841 C603.802735,249.643837 604.207275,247.870495 604.207275,246.95849 L604.207275,246.95849 Z" id="" fill-opacity="0.3" fill="#D75B36" sketch:type="MSShapeGroup"></path>
                <path d="M551.684047,207.562295 L561.242133,207.562295 C561.059882,207.277414 560.87763,207.03323 560.675128,206.829744 L552.413053,198.527494 C552.210552,198.324008 551.967549,198.14087 551.684047,197.957732 L551.684047,207.562295 Z M549.092023,208.213452 L549.092023,197.143786 L532.891877,197.143786 C531.818617,197.143786 530.94786,198.018778 530.94786,199.097257 L530.94786,231.655097 C530.94786,232.733575 531.818617,233.608567 532.891877,233.608567 L560.108123,233.608567 C561.181383,233.608567 562.05214,232.733575 562.05214,231.655097 L562.05214,210.166922 L551.036041,210.166922 C549.962781,210.166922 549.092023,209.29193 549.092023,208.213452 L549.092023,208.213452 Z" id="-copy" fill-opacity="0.7" fill="#FDB731" sketch:type="MSShapeGroup"></path>
                <path d="M825.194073,269.986246 C825.194073,267.707198 824.971321,265.367103 824.120813,263.210146 C821.306037,256.189862 813.043963,255.00964 806.401903,255.00964 L801.865862,255.00964 L801.865862,249.800386 C801.865862,249.088183 801.278607,248.498072 800.56985,248.498072 C800.225597,248.498072 799.901594,248.640513 799.658592,248.884696 L789.290498,259.303205 C789.047496,259.547389 788.905745,259.872967 788.905745,260.218894 C788.905745,260.564821 789.047496,260.8904 789.290498,261.134584 L799.658592,271.553092 C799.901594,271.797276 800.225597,271.939717 800.56985,271.939717 C801.278607,271.939717 801.865862,271.349606 801.865862,270.637403 L801.865862,265.428149 L806.401903,265.428149 C815.129732,265.428149 820.860533,267.117087 820.860533,276.823393 C820.860533,277.657687 820.820033,278.491982 820.759283,279.326277 C820.739032,279.651855 820.658032,280.018131 820.658032,280.343709 C820.658032,280.730334 820.901034,281.055912 821.306037,281.055912 C821.58954,281.055912 821.731291,280.913471 821.873043,280.709985 C822.176795,280.282663 822.399547,279.631506 822.622299,279.163487 C823.77656,276.55886 825.194073,272.835057 825.194073,269.986246 L825.194073,269.986246 Z" id="-copy" fill-opacity="0.3" fill="#D75B36" sketch:type="MSShapeGroup"></path>
                <path d="M1019.16398,246.290468 C1019.16398,246.031203 1018.96331,245.829552 1018.70529,245.829552 L1017.78792,245.829552 C1017.52991,245.829552 1017.32924,246.031203 1017.32924,246.290468 L1017.32924,251.360545 L1014.11844,251.360545 C1013.86043,251.360545 1013.65975,251.562196 1013.65975,251.821461 L1013.65975,252.743293 C1013.65975,253.002558 1013.86043,253.204209 1014.11844,253.204209 L1018.70529,253.204209 C1018.96331,253.204209 1019.16398,253.002558 1019.16398,252.743293 L1019.16398,246.290468 Z M1025.12689,251.360545 C1025.12689,255.681633 1021.62942,259.196117 1017.32924,259.196117 C1013.02906,259.196117 1009.53158,255.681633 1009.53158,251.360545 C1009.53158,247.039457 1013.02906,243.524972 1017.32924,243.524972 C1021.62942,243.524972 1025.12689,247.039457 1025.12689,251.360545 L1025.12689,251.360545 Z M1028.33769,251.360545 C1028.33769,245.253407 1023.40682,240.29856 1017.32924,240.29856 C1011.25165,240.29856 1006.32078,245.253407 1006.32078,251.360545 C1006.32078,257.467682 1011.25165,262.42253 1017.32924,262.42253 C1023.40682,262.42253 1028.33769,257.467682 1028.33769,251.360545 L1028.33769,251.360545 Z" id="-copy-2" fill-opacity="0.3" fill="#D75B36" sketch:type="MSShapeGroup"></path>
                <path d="M773.353604,269.280571 C773.353604,268.914295 773.070102,268.629414 772.705598,268.629414 L771.409587,268.629414 C771.045084,268.629414 770.761581,268.914295 770.761581,269.280571 L770.761581,276.443296 L766.22554,276.443296 C765.861037,276.443296 765.577534,276.728177 765.577534,277.094453 L765.577534,278.396766 C765.577534,278.763042 765.861037,279.047923 766.22554,279.047923 L772.705598,279.047923 C773.070102,279.047923 773.353604,278.763042 773.353604,278.396766 L773.353604,269.280571 Z M781.77768,276.443296 C781.77768,282.547891 776.836636,287.512961 770.761581,287.512961 C764.686526,287.512961 759.745481,282.547891 759.745481,276.443296 C759.745481,270.338701 764.686526,265.37363 770.761581,265.37363 C776.836636,265.37363 781.77768,270.338701 781.77768,276.443296 L781.77768,276.443296 Z M786.313721,276.443296 C786.313721,267.815468 779.347658,260.815533 770.761581,260.815533 C762.175503,260.815533 755.20944,267.815468 755.20944,276.443296 C755.20944,285.071123 762.175503,292.071059 770.761581,292.071059 C779.347658,292.071059 786.313721,285.071123 786.313721,276.443296 L786.313721,276.443296 Z" id="-copy-3" fill-opacity="0.3" fill="#D75B36" sketch:type="MSShapeGroup"></path>
                <path d="M665.156788,282.657015 L662.564764,282.657015 C660.782748,282.657015 659.324735,284.122118 659.324735,285.912799 L659.324735,308.05213 C659.324735,309.842811 660.782748,311.307914 662.564764,311.307914 L665.156788,311.307914 C666.938804,311.307914 668.396817,309.842811 668.396817,308.05213 L668.396817,285.912799 C668.396817,284.122118 666.938804,282.657015 665.156788,282.657015 L665.156788,282.657015 Z M693.021039,285.973845 L693.021039,282.657015 C693.021039,281.578536 692.393284,280.072736 691.644027,279.319836 L688.565999,276.226841 C687.816742,275.473941 686.318229,274.843133 685.244969,274.843133 L671.636846,274.843133 C670.563586,274.843133 669.692828,275.718125 669.692828,276.796604 L669.692828,308.05213 C669.692828,309.842811 671.150842,311.307914 672.932858,311.307914 L690.429016,311.307914 C693.284292,311.307914 695.613063,308.967819 695.613063,306.098659 L695.613063,290.470896 C695.613063,288.558123 694.560053,286.869185 693.021039,285.973845 L693.021039,285.973845 Z M678.116905,306.098659 C678.116905,306.464935 677.833402,306.749816 677.468899,306.749816 L674.876875,306.749816 C674.512372,306.749816 674.228869,306.464935 674.228869,306.098659 L674.228869,303.494032 C674.228869,303.127757 674.512372,302.842876 674.876875,302.842876 L677.468899,302.842876 C677.833402,302.842876 678.116905,303.127757 678.116905,303.494032 L678.116905,306.098659 Z M678.116905,300.889405 C678.116905,301.255681 677.833402,301.540562 677.468899,301.540562 L674.876875,301.540562 C674.512372,301.540562 674.228869,301.255681 674.228869,300.889405 L674.228869,298.284778 C674.228869,297.918502 674.512372,297.633621 674.876875,297.633621 L677.468899,297.633621 C677.833402,297.633621 678.116905,297.918502 678.116905,298.284778 L678.116905,300.889405 Z M678.116905,295.680151 C678.116905,296.046426 677.833402,296.331308 677.468899,296.331308 L674.876875,296.331308 C674.512372,296.331308 674.228869,296.046426 674.228869,295.680151 L674.228869,293.075524 C674.228869,292.709248 674.512372,292.424367 674.876875,292.424367 L677.468899,292.424367 C677.833402,292.424367 678.116905,292.709248 678.116905,293.075524 L678.116905,295.680151 Z M683.300951,306.098659 C683.300951,306.464935 683.017449,306.749816 682.652946,306.749816 L680.060922,306.749816 C679.696419,306.749816 679.412916,306.464935 679.412916,306.098659 L679.412916,303.494032 C679.412916,303.127757 679.696419,302.842876 680.060922,302.842876 L682.652946,302.842876 C683.017449,302.842876 683.300951,303.127757 683.300951,303.494032 L683.300951,306.098659 Z M683.300951,300.889405 C683.300951,301.255681 683.017449,301.540562 682.652946,301.540562 L680.060922,301.540562 C679.696419,301.540562 679.412916,301.255681 679.412916,300.889405 L679.412916,298.284778 C679.412916,297.918502 679.696419,297.633621 680.060922,297.633621 L682.652946,297.633621 C683.017449,297.633621 683.300951,297.918502 683.300951,298.284778 L683.300951,300.889405 Z M683.300951,295.680151 C683.300951,296.046426 683.017449,296.331308 682.652946,296.331308 L680.060922,296.331308 C679.696419,296.331308 679.412916,296.046426 679.412916,295.680151 L679.412916,293.075524 C679.412916,292.709248 679.696419,292.424367 680.060922,292.424367 L682.652946,292.424367 C683.017449,292.424367 683.300951,292.709248 683.300951,293.075524 L683.300951,295.680151 Z M688.484998,306.098659 C688.484998,306.464935 688.201496,306.749816 687.836992,306.749816 L685.244969,306.749816 C684.880466,306.749816 684.596963,306.464935 684.596963,306.098659 L684.596963,303.494032 C684.596963,303.127757 684.880466,302.842876 685.244969,302.842876 L687.836992,302.842876 C688.201496,302.842876 688.484998,303.127757 688.484998,303.494032 L688.484998,306.098659 Z M688.484998,300.889405 C688.484998,301.255681 688.201496,301.540562 687.836992,301.540562 L685.244969,301.540562 C684.880466,301.540562 684.596963,301.255681 684.596963,300.889405 L684.596963,298.284778 C684.596963,297.918502 684.880466,297.633621 685.244969,297.633621 L687.836992,297.633621 C688.201496,297.633621 688.484998,297.918502 688.484998,298.284778 L688.484998,300.889405 Z M688.484998,295.680151 C688.484998,296.046426 688.201496,296.331308 687.836992,296.331308 L685.244969,296.331308 C684.880466,296.331308 684.596963,296.046426 684.596963,295.680151 L684.596963,293.075524 C684.596963,292.709248 684.880466,292.424367 685.244969,292.424367 L687.836992,292.424367 C688.201496,292.424367 688.484998,292.709248 688.484998,293.075524 L688.484998,295.680151 Z M690.429016,287.866269 L672.284852,287.866269 L672.284852,277.44776 L685.244969,277.44776 L685.244969,280.703544 C685.244969,281.782023 686.115727,282.657015 687.188987,282.657015 L690.429016,282.657015 L690.429016,287.866269 Z" id="-copy" fill-opacity="0.3" fill="#D75B36" sketch:type="MSShapeGroup"></path>
                <path d="M380.655065,164.322467 C380.011325,165.032628 379.281753,165.65671 378.509266,166.194711 C374.925781,168.626477 371.320838,171.079763 367.823185,173.619129 C366.020714,174.953372 363.789083,176.588896 361.450162,176.588896 L361.428704,176.588896 L361.407246,176.588896 C359.068325,176.588896 356.836693,174.953372 355.034222,173.619129 C351.536569,171.058243 347.931627,168.626477 344.3696,166.194711 C343.575654,165.65671 342.846082,165.032628 342.202343,164.322467 L342.202343,181.409388 C342.202343,183.303152 343.747318,184.852596 345.635621,184.852596 L377.221786,184.852596 C379.110089,184.852596 380.655065,183.303152 380.655065,181.409388 L380.655065,164.322467 Z M380.655065,157.995572 C380.655065,156.101807 379.088631,154.552363 377.221786,154.552363 L345.635621,154.552363 C343.339616,154.552363 342.202343,156.360048 342.202343,158.469013 C342.202343,160.427337 344.3696,162.859103 345.893117,163.892066 C349.219106,166.216231 352.588011,168.540397 355.914,170.886082 C357.308769,171.854485 359.669148,173.834329 361.407246,173.834329 L361.428704,173.834329 L361.450162,173.834329 C363.188259,173.834329 365.548638,171.854485 366.943408,170.886082 C370.269397,168.540397 373.638301,166.216231 376.985748,163.892066 C378.874051,162.579343 380.655065,160.405817 380.655065,157.995572 L380.655065,157.995572 Z" id="-copy-2" fill-opacity="0.3" fill="#D75B36" sketch:type="MSShapeGroup"></path>
                <path d="M799.737743,240.325963 C799.295142,240.814232 798.793528,241.243316 798.262407,241.613217 C795.798596,243.285168 793.320032,244.971915 790.915235,246.717846 C789.675953,247.6352 788.141604,248.759698 786.533488,248.759698 L786.518734,248.759698 L786.503981,248.759698 C784.895865,248.759698 783.361516,247.6352 782.122234,246.717846 C779.717437,244.957119 777.238873,243.285168 774.789815,241.613217 C774.243941,241.243316 773.742327,240.814232 773.299726,240.325963 L773.299726,252.074007 C773.299726,253.376058 774.361968,254.441372 775.660263,254.441372 L797.377206,254.441372 C798.675501,254.441372 799.737743,253.376058 799.737743,252.074007 L799.737743,240.325963 Z M799.737743,235.975931 C799.737743,234.673881 798.660748,233.608567 797.377206,233.608567 L775.660263,233.608567 C774.081654,233.608567 773.299726,234.851433 773.299726,236.301444 C773.299726,237.647882 774.789815,239.319833 775.837304,240.030042 C778.124074,241.628013 780.440351,243.225984 782.727122,244.838751 C783.68609,245.504572 785.308959,246.865806 786.503981,246.865806 L786.518734,246.865806 L786.533488,246.865806 C787.72851,246.865806 789.351379,245.504572 790.310347,244.838751 C792.597118,243.225984 794.913395,241.628013 797.214919,240.030042 C798.513214,239.127485 799.737743,237.633086 799.737743,235.975931 L799.737743,235.975931 Z" id="-copy-3" fill-opacity="0.3" fill="#D75B36" sketch:type="MSShapeGroup"></path>
                <path d="M865.607846,252.327218 C865.607846,252.184778 865.607846,252.042337 865.547096,251.899897 C865.405345,251.472575 864.413086,251.024905 864.008082,250.821418 C862.853822,250.170262 861.679311,249.539453 860.545301,248.867948 C860.018796,248.54237 859.37079,247.93191 858.743034,247.93191 C857.507773,247.93191 855.705507,251.615016 854.611997,251.615016 C854.065242,251.615016 853.356486,251.106299 852.870481,250.821418 C849.184948,248.766205 846.633425,246.202275 844.588157,242.498821 C844.304654,242.010453 843.798399,241.29825 843.798399,240.748837 C843.798399,239.65001 847.463683,237.83898 847.463683,236.597712 C847.463683,235.966904 846.856177,235.315747 846.532174,234.786682 C845.863918,233.647158 845.236162,232.466936 844.588157,231.307063 C844.385655,230.90009 843.940151,229.903006 843.514897,229.760566 C843.373146,229.69952 843.231394,229.69952 843.089643,229.69952 C842.360637,229.69952 840.943124,230.025098 840.274868,230.330328 C839.282609,230.757649 838.634603,231.897174 838.128348,232.812863 C837.480342,234.013433 837.095589,235.234352 837.095589,236.597712 C837.095589,238.490136 837.865096,240.199423 838.492852,241.929058 C838.938356,243.170326 839.485111,244.370896 840.173617,245.490072 C842.299886,248.949343 846.451173,253.120816 849.893705,255.257424 C851.007465,255.949278 852.202225,256.498692 853.437487,256.946362 C855.158752,257.57717 856.859767,258.350419 858.743034,258.350419 C860.099797,258.350419 861.314808,257.963794 862.509568,257.312638 C863.420827,256.803921 864.554837,256.152765 864.980091,255.155681 C865.283844,254.484175 865.607846,253.05977 865.607846,252.327218 L865.607846,252.327218 Z" id="-copy" fill-opacity="0.7" fill="#FDB731" sketch:type="MSShapeGroup"></path>
                <path d="M199.175421,287.66344 L221.263005,287.66344 C220.841843,287.007013 220.420682,286.444361 219.952725,285.975484 L200.860068,266.845315 C200.39211,266.376438 199.830562,265.954449 199.175421,265.53246 L199.175421,287.66344 Z M193.185568,289.163845 L193.185568,263.656954 L155.748986,263.656954 C153.268812,263.656954 151.256596,265.673123 151.256596,268.15817 L151.256596,343.178439 C151.256596,345.663486 153.268812,347.679656 155.748986,347.679656 L218.642444,347.679656 C221.122618,347.679656 223.134834,345.663486 223.134834,343.178439 L223.134834,293.665061 L197.677958,293.665061 C195.197785,293.665061 193.185568,291.648892 193.185568,289.163845 L193.185568,289.163845 Z" id="" fill-opacity="0.5" fill="#CA4D85" sketch:type="MSShapeGroup"></path>
                <path d="M228.428972,145.627562 C228.428972,140.376144 227.914219,134.984062 225.948799,130.013969 C219.444192,113.837723 200.351535,111.118238 185.002537,111.118238 L174.520294,111.118238 L174.520294,99.1149953 C174.520294,97.4739269 173.163218,96.1141845 171.525367,96.1141845 C170.72984,96.1141845 169.981108,96.4423982 169.419559,97.0050502 L145.460147,121.011536 C144.898598,121.574188 144.571028,122.324391 144.571028,123.121482 C144.571028,123.918572 144.898598,124.668775 145.460147,125.231427 L169.419559,149.237913 C169.981108,149.800565 170.72984,150.128779 171.525367,150.128779 C173.163218,150.128779 174.520294,148.769036 174.520294,147.127968 L174.520294,135.124725 L185.002537,135.124725 C205.171495,135.124725 218.414686,139.016401 218.414686,161.381819 C218.414686,163.304213 218.321095,165.226608 218.180708,167.149002 C218.133912,167.899205 217.946729,168.743183 217.946729,169.493386 C217.946729,170.384251 218.508278,171.134454 219.444192,171.134454 C220.099333,171.134454 220.426903,170.80624 220.754473,170.337364 C221.456409,169.352723 221.971162,167.852317 222.485915,166.773901 C225.153271,160.772279 228.428972,152.191836 228.428972,145.627562 L228.428972,145.627562 Z" id="" fill-opacity="0.5" fill="#CA4D85" sketch:type="MSShapeGroup"></path>
                <path d="M234.418825,239.600379 C234.418825,238.756401 233.763685,238.099974 232.921362,238.099974 L229.926435,238.099974 C229.084112,238.099974 228.428972,238.756401 228.428972,239.600379 L228.428972,256.104838 L217.946729,256.104838 C217.104406,256.104838 216.449266,256.761266 216.449266,257.605244 L216.449266,260.606054 C216.449266,261.450032 217.104406,262.10646 217.946729,262.10646 L232.921362,262.10646 C233.763685,262.10646 234.418825,261.450032 234.418825,260.606054 L234.418825,239.600379 Z M253.885848,256.104838 C253.885848,270.171139 242.467691,281.61173 228.428972,281.61173 C214.390254,281.61173 202.972096,270.171139 202.972096,256.104838 C202.972096,242.038538 214.390254,230.597947 228.428972,230.597947 C242.467691,230.597947 253.885848,242.038538 253.885848,256.104838 L253.885848,256.104838 Z M264.368091,256.104838 C264.368091,236.224467 248.270361,220.095109 228.428972,220.095109 C208.587584,220.095109 192.489853,236.224467 192.489853,256.104838 C192.489853,275.98521 208.587584,292.114568 228.428972,292.114568 C248.270361,292.114568 264.368091,275.98521 264.368091,256.104838 L264.368091,256.104838 Z" id="" fill-opacity="0.5" fill="#D75B36" sketch:type="MSShapeGroup"></path>
                <path d="M70.1863453,214.498145 C70.1863453,213.654167 69.5312051,212.99774 68.688882,212.99774 L65.6939555,212.99774 C64.8516324,212.99774 64.1964922,213.654167 64.1964922,214.498145 L64.1964922,231.002604 L53.7142491,231.002604 C52.871926,231.002604 52.2167858,231.659032 52.2167858,232.50301 L52.2167858,235.503821 C52.2167858,236.347799 52.871926,237.004226 53.7142491,237.004226 L68.688882,237.004226 C69.5312051,237.004226 70.1863453,236.347799 70.1863453,235.503821 L70.1863453,214.498145 Z M89.6533681,231.002604 C89.6533681,245.068905 78.2352105,256.509496 64.1964922,256.509496 C50.1577738,256.509496 38.7396162,245.068905 38.7396162,231.002604 C38.7396162,216.936304 50.1577738,205.495713 64.1964922,205.495713 C78.2352105,205.495713 89.6533681,216.936304 89.6533681,231.002604 L89.6533681,231.002604 Z M100.135611,231.002604 C100.135611,211.122233 84.0378808,194.992875 64.1964922,194.992875 C44.3551035,194.992875 28.2573732,211.122233 28.2573732,231.002604 C28.2573732,250.882976 44.3551035,267.012334 64.1964922,267.012334 C84.0378808,267.012334 100.135611,250.882976 100.135611,231.002604 L100.135611,231.002604 Z" id="-copy" fill-opacity="0.5" fill="#CA4D85" sketch:type="MSShapeGroup"></path>
                <path d="M59.9831251,158.14427 L53.993272,158.14427 C49.8752479,158.14427 46.5059555,161.520182 46.5059555,165.646297 L46.5059555,216.66008 C46.5059555,220.786195 49.8752479,224.162107 53.993272,224.162107 L59.9831251,224.162107 C64.1011492,224.162107 67.4704416,220.786195 67.4704416,216.66008 L67.4704416,165.646297 C67.4704416,161.520182 64.1011492,158.14427 59.9831251,158.14427 L59.9831251,158.14427 Z M124.374047,165.78696 L124.374047,158.14427 C124.374047,155.659224 122.923379,152.189536 121.191937,150.454692 L114.078987,143.327767 C112.347545,141.592923 108.884661,140.139405 106.404487,140.139405 L74.9577581,140.139405 C72.4775845,140.139405 70.4653682,142.155575 70.4653682,144.640621 L70.4653682,216.66008 C70.4653682,220.786195 73.8346606,224.162107 77.9526846,224.162107 L118.384194,224.162107 C124.982391,224.162107 130.3639,218.770025 130.3639,212.158864 L130.3639,176.149135 C130.3639,171.741694 127.930522,167.850017 124.374047,165.78696 L124.374047,165.78696 Z M89.932391,212.158864 C89.932391,213.002842 89.2772508,213.659269 88.4349277,213.659269 L82.4450745,213.659269 C81.6027514,213.659269 80.9476112,213.002842 80.9476112,212.158864 L80.9476112,206.157242 C80.9476112,205.313264 81.6027514,204.656837 82.4450745,204.656837 L88.4349277,204.656837 C89.2772508,204.656837 89.932391,205.313264 89.932391,206.157242 L89.932391,212.158864 Z M89.932391,200.155621 C89.932391,200.999599 89.2772508,201.656026 88.4349277,201.656026 L82.4450745,201.656026 C81.6027514,201.656026 80.9476112,200.999599 80.9476112,200.155621 L80.9476112,194.153999 C80.9476112,193.310021 81.6027514,192.653594 82.4450745,192.653594 L88.4349277,192.653594 C89.2772508,192.653594 89.932391,193.310021 89.932391,194.153999 L89.932391,200.155621 Z M89.932391,188.152378 C89.932391,188.996356 89.2772508,189.652783 88.4349277,189.652783 L82.4450745,189.652783 C81.6027514,189.652783 80.9476112,188.996356 80.9476112,188.152378 L80.9476112,182.150756 C80.9476112,181.306778 81.6027514,180.650351 82.4450745,180.650351 L88.4349277,180.650351 C89.2772508,180.650351 89.932391,181.306778 89.932391,182.150756 L89.932391,188.152378 Z M101.912097,212.158864 C101.912097,213.002842 101.256957,213.659269 100.414634,213.659269 L94.4247809,213.659269 C93.5824578,213.659269 92.9273176,213.002842 92.9273176,212.158864 L92.9273176,206.157242 C92.9273176,205.313264 93.5824578,204.656837 94.4247809,204.656837 L100.414634,204.656837 C101.256957,204.656837 101.912097,205.313264 101.912097,206.157242 L101.912097,212.158864 Z M101.912097,200.155621 C101.912097,200.999599 101.256957,201.656026 100.414634,201.656026 L94.4247809,201.656026 C93.5824578,201.656026 92.9273176,200.999599 92.9273176,200.155621 L92.9273176,194.153999 C92.9273176,193.310021 93.5824578,192.653594 94.4247809,192.653594 L100.414634,192.653594 C101.256957,192.653594 101.912097,193.310021 101.912097,194.153999 L101.912097,200.155621 Z M101.912097,188.152378 C101.912097,188.996356 101.256957,189.652783 100.414634,189.652783 L94.4247809,189.652783 C93.5824578,189.652783 92.9273176,188.996356 92.9273176,188.152378 L92.9273176,182.150756 C92.9273176,181.306778 93.5824578,180.650351 94.4247809,180.650351 L100.414634,180.650351 C101.256957,180.650351 101.912097,181.306778 101.912097,182.150756 L101.912097,188.152378 Z M113.891804,212.158864 C113.891804,213.002842 113.236663,213.659269 112.39434,213.659269 L106.404487,213.659269 C105.562164,213.659269 104.907024,213.002842 104.907024,212.158864 L104.907024,206.157242 C104.907024,205.313264 105.562164,204.656837 106.404487,204.656837 L112.39434,204.656837 C113.236663,204.656837 113.891804,205.313264 113.891804,206.157242 L113.891804,212.158864 Z M113.891804,200.155621 C113.891804,200.999599 113.236663,201.656026 112.39434,201.656026 L106.404487,201.656026 C105.562164,201.656026 104.907024,200.999599 104.907024,200.155621 L104.907024,194.153999 C104.907024,193.310021 105.562164,192.653594 106.404487,192.653594 L112.39434,192.653594 C113.236663,192.653594 113.891804,193.310021 113.891804,194.153999 L113.891804,200.155621 Z M113.891804,188.152378 C113.891804,188.996356 113.236663,189.652783 112.39434,189.652783 L106.404487,189.652783 C105.562164,189.652783 104.907024,188.996356 104.907024,188.152378 L104.907024,182.150756 C104.907024,181.306778 105.562164,180.650351 106.404487,180.650351 L112.39434,180.650351 C113.236663,180.650351 113.891804,181.306778 113.891804,182.150756 L113.891804,188.152378 Z M118.384194,170.147513 L76.4552213,170.147513 L76.4552213,146.141027 L106.404487,146.141027 L106.404487,153.643054 C106.404487,156.1281 108.416703,158.14427 110.896877,158.14427 L118.384194,158.14427 L118.384194,170.147513 Z" id="" fill-opacity="0.7" fill="#FDB731" sketch:type="MSShapeGroup"></path>
                <path d="M106.581343,301.558555 C105.093739,303.19492 103.407786,304.632938 101.622661,305.872609 C93.34166,311.475921 85.0110726,317.128819 76.9284194,322.980065 C72.7631258,326.054449 67.6060955,329.823048 62.2011311,329.823048 L62.1515443,329.823048 L62.1019574,329.823048 C56.696993,329.823048 51.5399628,326.054449 47.3746691,322.980065 C39.2920159,317.079232 30.9614285,311.475921 22.7300148,305.872609 C20.8953022,304.632938 19.20935,303.19492 17.7217451,301.558555 L17.7217451,340.930497 C17.7217451,345.294138 21.2919968,348.86439 25.6556378,348.86439 L98.6474507,348.86439 C103.011092,348.86439 106.581343,345.294138 106.581343,340.930497 L106.581343,301.558555 Z M106.581343,286.980027 C106.581343,282.616386 102.961505,279.046134 98.6474507,279.046134 L25.6556378,279.046134 C20.349847,279.046134 17.7217451,283.211428 17.7217451,288.070937 C17.7217451,292.583339 22.7300148,298.18665 26.2506797,300.566818 C33.9366383,305.922196 41.7217705,311.277573 49.4077291,316.682538 C52.630873,318.913945 58.0854242,323.475933 62.1019574,323.475933 L62.1515443,323.475933 L62.2011311,323.475933 C66.2176643,323.475933 71.6722155,318.913945 74.8953594,316.682538 C82.581318,311.277573 90.3664502,305.922196 98.1019956,300.566818 C102.465637,297.542022 106.581343,292.533752 106.581343,286.980027 L106.581343,286.980027 Z" id="" fill-opacity="0.5" fill="#CA4D85" sketch:type="MSShapeGroup"></path>
                <path d="M169.278255,247.581531 C168.255458,248.706608 167.096288,249.695311 165.868932,250.547642 C160.175363,254.400177 154.447701,258.286805 148.890505,262.309806 C146.026673,264.423586 142.480978,267.014671 138.764816,267.014671 L138.730723,267.014671 L138.696629,267.014671 C134.980468,267.014671 131.434772,264.423586 128.570941,262.309806 C123.013745,258.252712 117.286082,254.400177 111.626607,250.547642 C110.365157,249.695311 109.205987,248.706608 108.18319,247.581531 L108.18319,274.651554 C108.18319,277.651758 110.637903,280.106471 113.638107,280.106471 L163.823338,280.106471 C166.823543,280.106471 169.278255,277.651758 169.278255,274.651554 L169.278255,247.581531 Z M169.278255,237.558122 C169.278255,234.557918 166.789449,232.103206 163.823338,232.103206 L113.638107,232.103206 C109.990132,232.103206 108.18319,234.967037 108.18319,238.308173 C108.18319,241.410657 111.626607,245.263192 114.047226,246.899667 C119.331676,250.581735 124.684313,254.263804 129.968763,257.979966 C132.184823,259.514161 135.935078,262.650738 138.696629,262.650738 L138.730723,262.650738 L138.764816,262.650738 C141.526367,262.650738 145.276622,259.514161 147.492682,257.979966 C152.777133,254.263804 158.129769,250.581735 163.448313,246.899667 C166.448517,244.81998 169.278255,241.376564 169.278255,237.558122 L169.278255,237.558122 Z" id="-copy" fill-opacity="0.7" fill="#FDB731" sketch:type="MSShapeGroup"></path>
                <path d="M215.247998,230.136609 C214.920428,229.151968 212.627437,228.120439 211.691522,227.651563 C209.024166,226.151157 206.310014,224.69764 203.689453,223.150346 C202.472764,222.400144 200.975301,220.993514 199.524633,220.993514 C196.670094,220.993514 192.505274,229.480182 189.978305,229.480182 C188.71482,229.480182 187.076969,228.30799 185.953872,227.651563 C177.43705,222.915908 171.540788,217.008062 166.814419,208.474506 C166.159279,207.349202 164.989386,205.708134 164.989386,204.442167 C164.989386,201.910233 173.459413,197.73723 173.459413,194.877082 C173.459413,193.423565 172.055541,191.923159 171.306809,190.70408 C169.76255,188.07837 168.311883,185.358886 166.814419,182.686289 C166.346462,181.748535 165.316956,179.451039 164.334246,179.122826 C164.006676,178.982163 163.679106,178.982163 163.351535,178.982163 C161.666889,178.982163 158.391188,179.732365 156.846929,180.435681 C154.553939,181.420322 153.056475,184.046031 151.886582,186.155976 C150.389119,188.922349 149.5,191.735609 149.5,194.877082 C149.5,199.237636 151.278238,203.1762 152.728905,207.161652 C153.758411,210.021799 155.021896,212.788172 156.612951,215.366994 C161.526502,223.337897 171.119626,232.949869 179.0749,237.873074 C181.648665,239.467255 184.409613,240.733222 187.264152,241.764751 C191.241789,243.218269 195.17263,245 199.524633,245 C202.659947,245 205.467691,244.109134 208.228638,242.608729 C210.334446,241.436537 212.955007,239.936132 213.937717,237.638636 C214.639653,236.091343 215.388385,232.809206 215.388385,231.12125 C215.388385,230.793036 215.388385,230.464823 215.247998,230.136609 Z" id="" fill-opacity="0.3" fill="#D75B36" sketch:type="MSShapeGroup"></path>
                <path d="M51.7462811,27.5379128 L69.4365771,27.5379128 C69.0992621,27.0106492 68.7619471,26.558709 68.3871527,26.1820921 L53.0955409,10.8161245 C52.7207465,10.4395076 52.2709932,10.1005524 51.7462811,9.76159726 L51.7462811,27.5379128 Z M46.9489127,28.7430867 L46.9489127,8.25512984 L16.9653601,8.25512984 C14.9789498,8.25512984 13.3673338,9.87458232 13.3673338,11.8706516 L13.3673338,72.1293484 C13.3673338,74.1254177 14.9789498,75.7448702 16.9653601,75.7448702 L67.3377284,75.7448702 C69.3241388,75.7448702 70.9357547,74.1254177 70.9357547,72.1293484 L70.9357547,32.3586085 L50.546939,32.3586085 C48.5605286,32.3586085 46.9489127,30.7391561 46.9489127,28.7430867 L46.9489127,28.7430867 Z" id="-copy" fill-opacity="0.7" fill="#FDB731" sketch:type="MSShapeGroup" transform="translate(42.151544, 42.000000) rotate(20.000000) translate(-42.151544, -42.000000) "></path>
                <path d="M290.297992,215.484731 C290.297992,211.266622 289.885718,206.935528 288.311581,202.943389 C283.101939,189.950108 267.810327,187.76573 255.517071,187.76573 L247.121676,187.76573 L247.121676,178.124339 C247.121676,176.80618 246.034772,175.713991 244.722992,175.713991 C244.085841,175.713991 243.48617,175.977623 243.036417,176.429563 L223.846943,195.712346 C223.39719,196.164286 223.134834,196.766873 223.134834,197.407122 C223.134834,198.04737 223.39719,198.649957 223.846943,199.101897 L243.036417,218.38468 C243.48617,218.836621 244.085841,219.100252 244.722992,219.100252 C246.034772,219.100252 247.121676,218.008064 247.121676,216.689905 L247.121676,207.048513 L255.517071,207.048513 C271.67071,207.048513 282.277392,210.174433 282.277392,228.139057 C282.277392,229.683186 282.202433,231.227315 282.089994,232.771444 C282.052515,233.374031 281.902597,234.051942 281.902597,234.654528 C281.902597,235.370101 282.35235,235.972687 283.101939,235.972687 C283.626651,235.972687 283.889007,235.709056 284.151364,235.332439 C284.713555,234.541543 285.125829,233.336369 285.538103,232.470151 C287.674431,227.649455 290.297992,220.757367 290.297992,215.484731 L290.297992,215.484731 Z" id="-copy" fill-opacity="0.5" fill="#D75B36" sketch:type="MSShapeGroup"></path>
                <path d="M204.395778,332.965118 C204.395778,332.485265 204.024365,332.112046 203.546834,332.112046 L201.848945,332.112046 C201.371413,332.112046 201,332.485265 201,332.965118 L201,342.348917 L195.057388,342.348917 C194.579857,342.348917 194.208444,342.722136 194.208444,343.201989 L194.208444,344.908134 C194.208444,345.387988 194.579857,345.761207 195.057388,345.761207 L203.546834,345.761207 C204.024365,345.761207 204.395778,345.387988 204.395778,344.908134 L204.395778,332.965118 Z M215.432057,342.348917 C215.432057,350.346472 208.958855,356.85115 201,356.85115 C193.041145,356.85115 186.567943,350.346472 186.567943,342.348917 C186.567943,334.351361 193.041145,327.846683 201,327.846683 C208.958855,327.846683 215.432057,334.351361 215.432057,342.348917 L215.432057,342.348917 Z M221.374669,342.348917 C221.374669,331.045705 212.248515,321.875175 201,321.875175 C189.751485,321.875175 180.625331,331.045705 180.625331,342.348917 C180.625331,353.652128 189.751485,362.822658 201,362.822658 C212.248515,362.822658 221.374669,353.652128 221.374669,342.348917 L221.374669,342.348917 Z" id="-copy-2" fill-opacity="0.5" fill="#D75B36" sketch:type="MSShapeGroup"></path>
                <path d="M51.3033239,140.697073 C51.3033239,140.019163 50.7786117,139.491899 50.1039818,139.491899 L47.7052976,139.491899 C47.0306677,139.491899 46.5059555,140.019163 46.5059555,140.697073 L46.5059555,153.953986 L38.1105608,153.953986 C37.4359309,153.953986 36.9112187,154.48125 36.9112187,155.15916 L36.9112187,157.569508 C36.9112187,158.247418 37.4359309,158.774682 38.1105608,158.774682 L50.1039818,158.774682 C50.7786117,158.774682 51.3033239,158.247418 51.3033239,157.569508 L51.3033239,140.697073 Z M66.8947712,153.953986 C66.8947712,165.252492 57.7497877,174.441943 46.5059555,174.441943 C35.2621233,174.441943 26.1171398,165.252492 26.1171398,153.953986 C26.1171398,142.655481 35.2621233,133.466029 46.5059555,133.466029 C57.7497877,133.466029 66.8947712,142.655481 66.8947712,153.953986 L66.8947712,153.953986 Z M75.2901659,153.953986 C75.2901659,137.985432 62.3972384,125.029812 46.5059555,125.029812 C30.6146727,125.029812 17.7217451,137.985432 17.7217451,153.953986 C17.7217451,169.922541 30.6146727,182.878161 46.5059555,182.878161 C62.3972384,182.878161 75.2901659,169.922541 75.2901659,153.953986 L75.2901659,153.953986 Z" id="-copy-3" fill-opacity="0.5" fill="#D75B36" sketch:type="MSShapeGroup"></path>
                <path d="M128.469096,118.106801 L123.671728,118.106801 C120.373537,118.106801 117.675017,120.818442 117.675017,124.132671 L117.675017,165.108584 C117.675017,168.422813 120.373537,171.134454 123.671728,171.134454 L128.469096,171.134454 C131.767287,171.134454 134.465807,168.422813 134.465807,165.108584 L134.465807,124.132671 C134.465807,120.818442 131.767287,118.106801 128.469096,118.106801 L128.469096,118.106801 Z M180.040807,124.245656 L180.040807,118.106801 C180.040807,116.110732 178.878944,113.323767 177.492205,111.930285 L171.79533,106.205708 C170.40859,104.812226 167.635112,103.644714 165.648701,103.644714 L140.462517,103.644714 C138.476107,103.644714 136.864491,105.264166 136.864491,107.260236 L136.864491,165.108584 C136.864491,168.422813 139.563011,171.134454 142.861201,171.134454 L175.243438,171.134454 C180.528039,171.134454 184.838175,166.80336 184.838175,161.493063 L184.838175,132.568888 C184.838175,129.02869 182.889244,125.90277 180.040807,124.245656 L180.040807,124.245656 Z M152.455938,161.493063 C152.455938,162.170973 151.931226,162.698237 151.256596,162.698237 L146.459228,162.698237 C145.784598,162.698237 145.259886,162.170973 145.259886,161.493063 L145.259886,156.672367 C145.259886,155.994457 145.784598,155.467193 146.459228,155.467193 L151.256596,155.467193 C151.931226,155.467193 152.455938,155.994457 152.455938,156.672367 L152.455938,161.493063 Z M152.455938,151.851671 C152.455938,152.529581 151.931226,153.056845 151.256596,153.056845 L146.459228,153.056845 C145.784598,153.056845 145.259886,152.529581 145.259886,151.851671 L145.259886,147.030975 C145.259886,146.353065 145.784598,145.825801 146.459228,145.825801 L151.256596,145.825801 C151.931226,145.825801 152.455938,146.353065 152.455938,147.030975 L152.455938,151.851671 Z M152.455938,142.21028 C152.455938,142.88819 151.931226,143.415454 151.256596,143.415454 L146.459228,143.415454 C145.784598,143.415454 145.259886,142.88819 145.259886,142.21028 L145.259886,137.389584 C145.259886,136.711674 145.784598,136.18441 146.459228,136.18441 L151.256596,136.18441 C151.931226,136.18441 152.455938,136.711674 152.455938,137.389584 L152.455938,142.21028 Z M162.050675,161.493063 C162.050675,162.170973 161.525963,162.698237 160.851333,162.698237 L156.053965,162.698237 C155.379335,162.698237 154.854622,162.170973 154.854622,161.493063 L154.854622,156.672367 C154.854622,155.994457 155.379335,155.467193 156.053965,155.467193 L160.851333,155.467193 C161.525963,155.467193 162.050675,155.994457 162.050675,156.672367 L162.050675,161.493063 Z M162.050675,151.851671 C162.050675,152.529581 161.525963,153.056845 160.851333,153.056845 L156.053965,153.056845 C155.379335,153.056845 154.854622,152.529581 154.854622,151.851671 L154.854622,147.030975 C154.854622,146.353065 155.379335,145.825801 156.053965,145.825801 L160.851333,145.825801 C161.525963,145.825801 162.050675,146.353065 162.050675,147.030975 L162.050675,151.851671 Z M162.050675,142.21028 C162.050675,142.88819 161.525963,143.415454 160.851333,143.415454 L156.053965,143.415454 C155.379335,143.415454 154.854622,142.88819 154.854622,142.21028 L154.854622,137.389584 C154.854622,136.711674 155.379335,136.18441 156.053965,136.18441 L160.851333,136.18441 C161.525963,136.18441 162.050675,136.711674 162.050675,137.389584 L162.050675,142.21028 Z M171.645412,161.493063 C171.645412,162.170973 171.1207,162.698237 170.44607,162.698237 L165.648701,162.698237 C164.974071,162.698237 164.449359,162.170973 164.449359,161.493063 L164.449359,156.672367 C164.449359,155.994457 164.974071,155.467193 165.648701,155.467193 L170.44607,155.467193 C171.1207,155.467193 171.645412,155.994457 171.645412,156.672367 L171.645412,161.493063 Z M171.645412,151.851671 C171.645412,152.529581 171.1207,153.056845 170.44607,153.056845 L165.648701,153.056845 C164.974071,153.056845 164.449359,152.529581 164.449359,151.851671 L164.449359,147.030975 C164.449359,146.353065 164.974071,145.825801 165.648701,145.825801 L170.44607,145.825801 C171.1207,145.825801 171.645412,146.353065 171.645412,147.030975 L171.645412,151.851671 Z M171.645412,142.21028 C171.645412,142.88819 171.1207,143.415454 170.44607,143.415454 L165.648701,143.415454 C164.974071,143.415454 164.449359,142.88819 164.449359,142.21028 L164.449359,137.389584 C164.449359,136.711674 164.974071,136.18441 165.648701,136.18441 L170.44607,136.18441 C171.1207,136.18441 171.645412,136.711674 171.645412,137.389584 L171.645412,142.21028 Z M175.243438,127.748192 L141.661859,127.748192 L141.661859,108.465409 L165.648701,108.465409 L165.648701,114.491279 C165.648701,116.487348 167.260317,118.106801 169.246728,118.106801 L175.243438,118.106801 L175.243438,127.748192 Z" id="-copy" fill-opacity="0.5" fill="#D75B36" sketch:type="MSShapeGroup"></path>
                <path d="M151.256596,346.042565 C150.06515,347.356947 148.714844,348.512009 147.285108,349.507753 C140.652724,354.008513 133.980624,358.549103 127.507099,363.249012 C124.171049,365.718456 120.040702,368.745516 115.71178,368.745516 L115.672065,368.745516 L115.63235,368.745516 C111.303429,368.745516 107.173081,365.718456 103.837032,363.249012 C97.3635064,358.509274 90.6914068,354.008513 84.0987371,349.507753 C82.6292866,348.512009 81.2789807,347.356947 80.0875344,346.042565 L80.0875344,377.667378 C80.0875344,381.172395 82.9470056,384.040136 86.4419149,384.040136 L144.902216,384.040136 C148.397125,384.040136 151.256596,381.172395 151.256596,377.667378 L151.256596,346.042565 Z M151.256596,334.332622 C151.256596,330.827605 148.35741,327.959864 144.902216,327.959864 L86.4419149,327.959864 C82.1924229,327.959864 80.0875344,331.305562 80.0875344,335.208877 C80.0875344,338.833383 84.0987371,343.334143 86.9184934,345.245971 C93.0742995,349.547582 99.3095354,353.849194 105.465342,358.190636 C108.046809,359.982974 112.415445,363.64731 115.63235,363.64731 L115.672065,363.64731 L115.71178,363.64731 C118.928685,363.64731 123.297322,359.982974 125.878789,358.190636 C132.034595,353.849194 138.269831,349.547582 144.465352,345.245971 C147.960261,342.816357 151.256596,338.793553 151.256596,334.332622 L151.256596,334.332622 Z" id="-copy-2" fill-opacity="0.5" fill="#D75B36" sketch:type="MSShapeGroup"></path>
                <path d="M120,88.3215873 C117.9924,90.5363345 115.717119,92.4826274 113.307999,94.1604661 C102.132358,101.744297 90.8897962,109.395242 79.9818348,117.314641 C74.360554,121.475681 67.4008731,126.576311 60.1065922,126.576311 L60.0396722,126.576311 L59.9727522,126.576311 C52.6784712,126.576311 45.7187903,121.475681 40.0975096,117.314641 C29.1895481,109.328128 17.9469867,101.744297 6.83826523,94.1604661 C4.3622249,92.4826274 2.08694461,90.5363345 0.0793443435,88.3215873 L0.0793443435,141.609746 C0.0793443435,147.515738 4.89758497,152.347914 10.7865457,152.347914 L109.292799,152.347914 C115.181759,152.347914 120,147.515738 120,141.609746 L120,88.3215873 Z M120,68.5902038 C120,62.6842114 115.114839,57.8520358 109.292799,57.8520358 L10.7865457,57.8520358 C3.62610481,57.8520358 0.0793443435,63.489574 0.0793443435,70.0667018 C0.0793443435,76.1740349 6.83826523,83.757866 11.5895858,86.9793163 C21.9621872,94.2275797 32.4686286,101.475843 42.8412299,108.79122 C47.1910305,111.81133 54.5522315,117.985776 59.9727522,117.985776 L60.0396722,117.985776 L60.1065922,117.985776 C65.5271129,117.985776 72.8883138,111.81133 77.2381144,108.79122 C87.6107158,101.475843 98.1171571,94.2275797 108.556679,86.9793163 C114.445639,82.8853898 120,76.1069213 120,68.5902038 L120,68.5902038 Z" id="-copy-4" fill-opacity="0.3" fill="#D75B36" sketch:type="MSShapeGroup"></path>
                <path d="M241,168.867796 C240.180826,169.771494 239.252428,170.565652 238.269419,171.250272 C233.70935,174.344752 229.121974,177.466617 224.671127,180.69802 C222.37744,182.395877 219.537636,184.47712 216.561303,184.47712 L216.533997,184.47712 L216.506691,184.47712 C213.530358,184.47712 210.690554,182.395877 208.396866,180.69802 C203.94602,177.439232 199.358644,174.344752 194.82588,171.250272 C193.815566,170.565652 192.887168,169.771494 192.067994,168.867796 L192.067994,190.61131 C192.067994,193.021171 194.034012,194.992875 196.436923,194.992875 L236.631071,194.992875 C239.033982,194.992875 241,193.021171 241,190.61131 L241,168.867796 Z M241,160.816671 C241,158.406811 239.006676,156.435107 236.631071,156.435107 L196.436923,156.435107 C193.515202,156.435107 192.067994,158.735428 192.067994,161.419136 C192.067994,163.911151 194.82588,167.005631 196.764593,168.320101 C200.996993,171.277657 205.284004,174.235213 209.516405,177.220154 C211.291282,178.452469 214.294921,180.971868 216.506691,180.971868 L216.533997,180.971868 L216.561303,180.971868 C218.773073,180.971868 221.776712,178.452469 223.551589,177.220154 C227.783989,174.235213 232.071001,171.277657 236.330707,168.320101 C238.733618,166.649629 241,163.883766 241,160.816671 L241,160.816671 Z" id="-copy-3" fill-opacity="0.5" fill="#D75B36" sketch:type="MSShapeGroup"></path>
                <path d="M130.3639,425.317993 C130.3639,424.83672 130.3639,424.355448 130.158638,423.874175 C129.679694,422.430357 126.327088,420.917786 124.958677,420.230253 C121.058706,418.030149 117.090314,415.898799 113.258764,413.629942 C111.47983,412.52989 109.290373,410.467293 107.169336,410.467293 C102.995683,410.467293 96.9062543,422.911629 93.2115449,422.911629 C91.3641903,422.911629 88.9694712,421.192798 87.3273782,420.230253 C74.8748394,413.286176 66.2538509,404.623268 59.3433761,392.110178 C58.3854884,390.4601 56.6749749,388.053737 56.6749749,386.197399 C56.6749749,382.484724 69.0590932,376.365686 69.0590932,372.171738 C69.0590932,370.040388 67.0064769,367.840284 65.9117482,366.0527 C63.6538703,362.202519 61.5328334,358.214831 59.3433761,354.295896 C58.6591706,352.920831 57.1539187,349.551923 55.7170873,349.07065 C55.2381435,348.86439 54.7591997,348.86439 54.2802559,348.86439 C51.8171163,348.86439 47.0276783,349.964442 44.7698004,350.995741 C41.4171937,352.439559 39.2277364,356.28974 37.5172228,359.383636 C35.3277654,363.440077 34.0277751,367.565271 34.0277751,372.171738 C34.0277751,378.56579 36.6277557,384.341062 38.7487926,390.185087 C40.2540445,394.379035 42.1013992,398.435476 44.4276976,402.216904 C51.6118547,413.904955 65.638066,427.999369 77.2695584,435.218459 C81.0326882,437.55607 85.0695003,439.412407 89.2431534,440.924978 C95.0588996,443.056329 100.806225,445.668952 107.169336,445.668952 C111.753512,445.668952 115.858745,444.36264 119.895557,442.162537 C122.974481,440.443706 126.806032,438.243602 128.242863,434.874693 C129.269171,432.605836 130.3639,427.79311 130.3639,425.317993 L130.3639,425.317993 Z" id="-copy" fill-opacity="0.7" fill="#FDB731" sketch:type="MSShapeGroup"></path>
                <path d="M418.742883,221.337206 L433.903132,221.337206 C433.61406,220.874334 433.324987,220.477586 433.003796,220.146963 L419.899173,206.657544 C419.577981,206.32692 419.192551,206.02936 418.742883,205.731799 L418.742883,221.337206 Z M414.631629,222.3952 L414.631629,204.409307 L388.93629,204.409307 C387.233974,204.409307 385.85285,205.830986 385.85285,207.583288 L385.85285,260.482973 C385.85285,262.235275 387.233974,263.656954 388.93629,263.656954 L432.104459,263.656954 C433.806775,263.656954 435.187899,262.235275 435.187899,260.482973 L435.187899,225.569181 L417.715069,225.569181 C416.012753,225.569181 414.631629,224.147502 414.631629,222.3952 L414.631629,222.3952 Z" id="-copy-3" fill-opacity="0.5" fill="#CA4D85" sketch:type="MSShapeGroup"></path>
                <path d="M546.5,270.886479 C546.5,267.183501 546.146689,263.381337 544.797684,259.876732 C540.333119,248.470238 527.228496,246.552624 516.693408,246.552624 L509.498713,246.552624 L509.498713,238.088675 C509.498713,236.931494 508.567257,235.972687 507.443086,235.972687 C506.89706,235.972687 506.383153,236.204124 505.997723,236.600871 L489.552707,253.52877 C489.167277,253.925518 488.942442,254.454515 488.942442,255.016574 C488.942442,255.578633 489.167277,256.10763 489.552707,256.504378 L505.997723,273.432277 C506.383153,273.829024 506.89706,274.06046 507.443086,274.06046 C508.567257,274.06046 509.498713,273.101654 509.498713,271.944473 L509.498713,263.480523 L516.693408,263.480523 C530.536771,263.480523 539.626497,266.224695 539.626497,281.995413 C539.626497,283.350967 539.562259,284.706522 539.465901,286.062076 C539.433782,286.591073 539.305305,287.186195 539.305305,287.715191 C539.305305,288.343375 539.690735,288.872372 540.333119,288.872372 C540.782787,288.872372 541.007621,288.640936 541.232456,288.310313 C541.714243,287.616005 542.067554,286.558011 542.420865,285.797578 C544.251658,281.565603 546.5,275.515202 546.5,270.886479 L546.5,270.886479 Z" id="-copy-2" fill-opacity="0.5" fill="#CA4D85" sketch:type="MSShapeGroup"></path>
                <path d="M456.111254,290.930085 C456.111254,290.334963 455.661586,289.872091 455.083441,289.872091 L453.027814,289.872091 C452.449668,289.872091 452,290.334963 452,290.930085 L452,302.568016 L444.805305,302.568016 C444.22716,302.568016 443.777492,303.030888 443.777492,303.626009 L443.777492,305.741997 C443.777492,306.337118 444.22716,306.79999 444.805305,306.79999 L455.083441,306.79999 C455.661586,306.79999 456.111254,306.337118 456.111254,305.741997 L456.111254,290.930085 Z M469.47283,302.568016 C469.47283,312.486706 461.635752,320.553908 452,320.553908 C442.364248,320.553908 434.52717,312.486706 434.52717,302.568016 C434.52717,292.649325 442.364248,284.582123 452,284.582123 C461.635752,284.582123 469.47283,292.649325 469.47283,302.568016 L469.47283,302.568016 Z M476.667525,302.568016 C476.667525,288.549599 465.618529,277.176167 452,277.176167 C438.381471,277.176167 427.332475,288.549599 427.332475,302.568016 C427.332475,316.586432 438.381471,327.959864 452,327.959864 C465.618529,327.959864 476.667525,316.586432 476.667525,302.568016 L476.667525,302.568016 Z" id="-copy-4" fill-opacity="0.5" fill="#D75B36" sketch:type="MSShapeGroup"></path>
                <path d="M319.076771,178.346397 C319.076771,177.751276 318.627102,177.288404 318.048957,177.288404 L315.99333,177.288404 C315.415185,177.288404 314.965517,177.751276 314.965517,178.346397 L314.965517,189.984328 L307.770822,189.984328 C307.192677,189.984328 306.743008,190.4472 306.743008,191.042322 L306.743008,193.158309 C306.743008,193.753431 307.192677,194.216303 307.770822,194.216303 L318.048957,194.216303 C318.627102,194.216303 319.076771,193.753431 319.076771,193.158309 L319.076771,178.346397 Z M332.438347,189.984328 C332.438347,199.903019 324.601268,207.970221 314.965517,207.970221 C305.329765,207.970221 297.492687,199.903019 297.492687,189.984328 C297.492687,180.065637 305.329765,171.998435 314.965517,171.998435 C324.601268,171.998435 332.438347,180.065637 332.438347,189.984328 L332.438347,189.984328 Z M339.633041,189.984328 C339.633041,175.965912 328.584046,164.592479 314.965517,164.592479 C301.346987,164.592479 290.297992,175.965912 290.297992,189.984328 C290.297992,204.002744 301.346987,215.376177 314.965517,215.376177 C328.584046,215.376177 339.633041,204.002744 339.633041,189.984328 L339.633041,189.984328 Z" id="-copy-5" fill-opacity="0.5" fill="#CA4D85" sketch:type="MSShapeGroup"></path>
                <path d="M292.250322,228.072101 L288.139068,228.072101 C285.31258,228.072101 283,230.452587 283,233.362069 L283,269.333855 C283,272.243338 285.31258,274.623823 288.139068,274.623823 L292.250322,274.623823 C295.076809,274.623823 297.389389,272.243338 297.389389,269.333855 L297.389389,233.362069 C297.389389,230.452587 295.076809,228.072101 292.250322,228.072101 L292.250322,228.072101 Z M336.446304,233.461256 L336.446304,228.072101 C336.446304,226.319799 335.450609,223.873188 334.2622,222.649883 L329.380086,217.624413 C328.191676,216.401108 325.814857,215.376177 324.112541,215.376177 L302.528457,215.376177 C300.826141,215.376177 299.445016,216.797856 299.445016,218.550158 L299.445016,269.333855 C299.445016,272.243338 301.757597,274.623823 304.584084,274.623823 L332.335049,274.623823 C336.863853,274.623823 340.557558,270.821659 340.557558,266.159874 L340.557558,240.768025 C340.557558,237.660169 338.887361,234.915998 336.446304,233.461256 L336.446304,233.461256 Z M312.806592,266.159874 C312.806592,266.754995 312.356924,267.217868 311.778779,267.217868 L307.667525,267.217868 C307.08938,267.217868 306.639711,266.754995 306.639711,266.159874 L306.639711,261.927899 C306.639711,261.332778 307.08938,260.869905 307.667525,260.869905 L311.778779,260.869905 C312.356924,260.869905 312.806592,261.332778 312.806592,261.927899 L312.806592,266.159874 Z M312.806592,257.695924 C312.806592,258.291046 312.356924,258.753918 311.778779,258.753918 L307.667525,258.753918 C307.08938,258.753918 306.639711,258.291046 306.639711,257.695924 L306.639711,253.46395 C306.639711,252.868828 307.08938,252.405956 307.667525,252.405956 L311.778779,252.405956 C312.356924,252.405956 312.806592,252.868828 312.806592,253.46395 L312.806592,257.695924 Z M312.806592,249.231975 C312.806592,249.827096 312.356924,250.289968 311.778779,250.289968 L307.667525,250.289968 C307.08938,250.289968 306.639711,249.827096 306.639711,249.231975 L306.639711,245 C306.639711,244.404879 307.08938,243.942006 307.667525,243.942006 L311.778779,243.942006 C312.356924,243.942006 312.806592,244.404879 312.806592,245 L312.806592,249.231975 Z M321.029101,266.159874 C321.029101,266.754995 320.579432,267.217868 320.001287,267.217868 L315.890033,267.217868 C315.311888,267.217868 314.862219,266.754995 314.862219,266.159874 L314.862219,261.927899 C314.862219,261.332778 315.311888,260.869905 315.890033,260.869905 L320.001287,260.869905 C320.579432,260.869905 321.029101,261.332778 321.029101,261.927899 L321.029101,266.159874 Z M321.029101,257.695924 C321.029101,258.291046 320.579432,258.753918 320.001287,258.753918 L315.890033,258.753918 C315.311888,258.753918 314.862219,258.291046 314.862219,257.695924 L314.862219,253.46395 C314.862219,252.868828 315.311888,252.405956 315.890033,252.405956 L320.001287,252.405956 C320.579432,252.405956 321.029101,252.868828 321.029101,253.46395 L321.029101,257.695924 Z M321.029101,249.231975 C321.029101,249.827096 320.579432,250.289968 320.001287,250.289968 L315.890033,250.289968 C315.311888,250.289968 314.862219,249.827096 314.862219,249.231975 L314.862219,245 C314.862219,244.404879 315.311888,243.942006 315.890033,243.942006 L320.001287,243.942006 C320.579432,243.942006 321.029101,244.404879 321.029101,245 L321.029101,249.231975 Z M329.251609,266.159874 C329.251609,266.754995 328.80194,267.217868 328.223795,267.217868 L324.112541,267.217868 C323.534396,267.217868 323.084728,266.754995 323.084728,266.159874 L323.084728,261.927899 C323.084728,261.332778 323.534396,260.869905 324.112541,260.869905 L328.223795,260.869905 C328.80194,260.869905 329.251609,261.332778 329.251609,261.927899 L329.251609,266.159874 Z M329.251609,257.695924 C329.251609,258.291046 328.80194,258.753918 328.223795,258.753918 L324.112541,258.753918 C323.534396,258.753918 323.084728,258.291046 323.084728,257.695924 L323.084728,253.46395 C323.084728,252.868828 323.534396,252.405956 324.112541,252.405956 L328.223795,252.405956 C328.80194,252.405956 329.251609,252.868828 329.251609,253.46395 L329.251609,257.695924 Z M329.251609,249.231975 C329.251609,249.827096 328.80194,250.289968 328.223795,250.289968 L324.112541,250.289968 C323.534396,250.289968 323.084728,249.827096 323.084728,249.231975 L323.084728,245 C323.084728,244.404879 323.534396,243.942006 324.112541,243.942006 L328.223795,243.942006 C328.80194,243.942006 329.251609,244.404879 329.251609,245 L329.251609,249.231975 Z M332.335049,236.53605 L303.556271,236.53605 L303.556271,219.608151 L324.112541,219.608151 L324.112541,224.89812 C324.112541,226.650422 325.493666,228.072101 327.195982,228.072101 L332.335049,228.072101 L332.335049,236.53605 Z" id="-copy-2" fill-opacity="0.7" fill="#FDB731" sketch:type="MSShapeGroup"></path>
                <path d="M385.85285,191.588367 C384.831803,192.742231 383.674616,193.756233 382.44936,194.630372 C376.765531,198.581484 371.047668,202.56756 365.499979,206.693499 C362.641048,208.861366 359.101418,211.51875 355.391614,211.51875 L355.357579,211.51875 L355.323544,211.51875 C351.61374,211.51875 348.07411,208.861366 345.215179,206.693499 C339.66749,202.532595 333.949627,198.581484 328.299833,194.630372 C327.040542,193.756233 325.883355,192.742231 324.862308,191.588367 L324.862308,219.351041 C324.862308,222.428013 327.312821,224.945535 330.307892,224.945535 L380.407266,224.945535 C383.402337,224.945535 385.85285,222.428013 385.85285,219.351041 L385.85285,191.588367 Z M385.85285,181.308484 C385.85285,178.231513 383.368302,175.713991 380.407266,175.713991 L330.307892,175.713991 C326.666158,175.713991 324.862308,178.6511 324.862308,182.077727 C324.862308,185.259596 328.299833,189.210707 330.716311,190.889055 C335.991721,194.665338 341.3352,198.441621 346.61061,202.25287 C348.822878,203.826321 352.566717,207.043155 355.323544,207.043155 L355.357579,207.043155 L355.391614,207.043155 C358.148441,207.043155 361.89228,203.826321 364.104548,202.25287 C369.379958,198.441621 374.723437,194.665338 380.032882,190.889055 C383.027953,188.756154 385.85285,185.22463 385.85285,181.308484 L385.85285,181.308484 Z" id="-copy-5" fill-opacity="0.5" fill="#CA4D85" sketch:type="MSShapeGroup"></path>
                <path d="M353.712584,303.989888 C353.010567,304.783222 352.214948,305.480395 351.372528,306.081407 C347.464634,308.797978 343.53334,311.538589 339.719049,314.375362 C337.753401,315.86587 335.319743,317.692944 332.769082,317.692944 L332.745681,317.692944 L332.722281,317.692944 C330.17162,317.692944 327.737961,315.86587 325.772314,314.375362 C321.958023,311.514548 318.026729,308.797978 314.142235,306.081407 C313.276415,305.480395 312.480796,304.783222 311.778779,303.989888 L311.778779,323.078005 C311.778779,325.193564 313.463619,326.924476 315.522869,326.924476 L349.968494,326.924476 C352.027744,326.924476 353.712584,325.193564 353.712584,323.078005 L353.712584,303.989888 Z M353.712584,296.921995 C353.712584,294.806436 352.004343,293.075524 349.968494,293.075524 L315.522869,293.075524 C313.019009,293.075524 311.778779,295.094921 311.778779,297.450885 C311.778779,299.638566 314.142235,302.355137 315.803675,303.509079 C319.430762,306.105447 323.10465,308.701816 326.731737,311.322225 C328.252774,312.404045 330.826835,314.615766 332.722281,314.615766 L332.745681,314.615766 L332.769082,314.615766 C334.664527,314.615766 337.238589,312.404045 338.759626,311.322225 C342.386712,308.701816 346.060601,306.105447 349.711088,303.509079 C351.770337,302.042611 353.712584,299.614526 353.712584,296.921995 L353.712584,296.921995 Z" id="-copy-6" fill-opacity="0.7" fill="#FDB731" sketch:type="MSShapeGroup"></path>
                <path d="M377.969477,272.737968 C377.969477,272.506532 377.969477,272.275096 377.873119,272.04366 C377.648285,271.349352 376.074445,270.621981 375.432062,270.291358 C373.601269,269.233364 371.738357,268.208433 369.939683,267.117377 C369.104585,266.58838 368.076771,265.596511 367.081077,265.596511 C365.121808,265.596511 362.263201,271.580788 360.528766,271.580788 C359.661548,271.580788 358.537377,270.75423 357.766517,270.291358 C351.920828,266.952065 347.873812,262.786215 344.629775,256.768876 C344.180107,255.975381 343.377128,254.8182 343.377128,253.925518 C343.377128,252.140154 349.190698,249.197609 349.190698,247.180808 C349.190698,246.155877 348.227123,245.097883 347.713216,244.238263 C346.653283,242.386774 345.657589,240.469161 344.629775,238.584609 C344.308584,237.923363 343.601962,236.30331 342.927459,236.071874 C342.702625,235.972687 342.477791,235.972687 342.252957,235.972687 C341.096666,235.972687 338.848324,236.501684 337.788391,236.997619 C336.214552,237.691927 335.186739,239.543416 334.383759,241.03122 C333.355946,242.981896 332.745681,244.965634 332.745681,247.180808 C332.745681,250.255602 333.96621,253.032836 334.961904,255.843131 C335.668526,257.859932 336.535744,259.810608 337.627796,261.629034 C341.000309,267.249626 347.584739,274.027398 353.044999,277.49894 C354.811553,278.623058 356.706584,279.51574 358.665854,280.243111 C361.395984,281.268042 364.093994,282.52441 367.081077,282.52441 C369.233062,282.52441 371.160212,281.896226 373.055243,280.838232 C374.500606,280.011675 376.29928,278.953681 376.973782,277.333628 C377.45557,276.242572 377.969477,273.928211 377.969477,272.737968 L377.969477,272.737968 Z" id="-copy-2" fill-opacity="0.5" fill="#D75B36" sketch:type="MSShapeGroup"></path>
                <path d="M465.200642,217.733518 L476.610469,221.886356 C476.52007,221.457798 476.411505,221.079151 476.2606,220.741616 L470.103703,206.970178 C469.952799,206.632642 469.744465,206.302465 469.487784,205.954692 L465.200642,217.733518 Z M461.96569,217.287518 L466.906803,203.711922 L447.568113,196.673214 C446.286925,196.2069 444.856905,196.90164 444.375509,198.224263 L429.842824,238.152489 C429.361428,239.475111 430.010317,240.926513 431.291505,241.392827 L463.780504,253.217856 C465.061693,253.68417 466.491713,252.98943 466.973108,251.666807 L476.564681,225.314178 L463.414372,220.527857 C462.133184,220.061543 461.484295,218.610141 461.96569,217.287518 L461.96569,217.287518 Z" id="-copy-2" fill-opacity="0.7" fill="#FDB731" sketch:type="MSShapeGroup"></path>
                <path d="M604.207275,278.628675 C604.207275,275.654324 603.924303,272.600303 602.843863,269.785292 C599.268122,260.623228 588.772422,259.082939 580.334703,259.082939 L574.572358,259.082939 L574.572358,252.284422 C574.572358,251.354938 573.82634,250.584793 572.925973,250.584793 C572.488652,250.584793 572.077056,250.77069 571.768359,251.089371 L558.597285,264.686404 C558.288588,265.005085 558.108514,265.429992 558.108514,265.881456 C558.108514,266.33292 558.288588,266.757827 558.597285,267.076508 L571.768359,280.673542 C572.077056,280.992222 572.488652,281.178119 572.925973,281.178119 C573.82634,281.178119 574.572358,280.407975 574.572358,279.47849 L574.572358,272.679973 L580.334703,272.679973 C591.422072,272.679973 598.702178,274.88418 598.702178,287.551729 C598.702178,288.640554 598.650728,289.729379 598.573554,290.818203 C598.547829,291.243111 598.44493,291.721131 598.44493,292.146039 C598.44493,292.650616 598.753627,293.075524 599.268122,293.075524 C599.628269,293.075524 599.808342,292.889627 599.988415,292.62406 C600.374287,292.066369 600.657259,291.216554 600.940231,290.60575 C602.406542,287.206491 604.207275,282.346614 604.207275,278.628675 L604.207275,278.628675 Z" id="-copy-3" fill-opacity="0.5" fill="#D75B36" sketch:type="MSShapeGroup"></path>
                <path d="M683.959265,186.802109 C683.959265,186.463746 683.704338,186.200575 683.376575,186.200575 L682.211196,186.200575 C681.883433,186.200575 681.628506,186.463746 681.628506,186.802109 L681.628506,193.418987 L677.549677,193.418987 C677.221914,193.418987 676.966987,193.682159 676.966987,194.020522 L676.966987,195.22359 C676.966987,195.561953 677.221914,195.825125 677.549677,195.825125 L683.376575,195.825125 C683.704338,195.825125 683.959265,195.561953 683.959265,195.22359 L683.959265,186.802109 Z M691.534234,193.418987 C691.534234,199.058372 687.091223,203.645071 681.628506,203.645071 C676.165788,203.645071 671.722778,199.058372 671.722778,193.418987 C671.722778,187.779603 676.165788,183.192903 681.628506,183.192903 C687.091223,183.192903 691.534234,187.779603 691.534234,193.418987 L691.534234,193.418987 Z M695.613063,193.418987 C695.613063,185.448657 689.349146,178.982163 681.628506,178.982163 C673.907865,178.982163 667.643949,185.448657 667.643949,193.418987 C667.643949,201.389318 673.907865,207.855812 681.628506,207.855812 C689.349146,207.855812 695.613063,201.389318 695.613063,193.418987 L695.613063,193.418987 Z" id="-copy-6" fill-opacity="0.7" fill="#FDB731" sketch:type="MSShapeGroup"></path>
                <path d="M283.292769,130.791445 C283.292769,130.313424 282.932622,129.94163 282.469576,129.94163 L280.823192,129.94163 C280.360147,129.94163 280,130.313424 280,130.791445 L280,140.139405 L274.237655,140.139405 C273.774609,140.139405 273.414463,140.511199 273.414463,140.98922 L273.414463,142.688849 C273.414463,143.16687 273.774609,143.538664 274.237655,143.538664 L282.469576,143.538664 C282.932622,143.538664 283.292769,143.16687 283.292769,142.688849 L283.292769,130.791445 Z M293.994267,140.139405 C293.994267,148.106417 287.717426,154.586254 280,154.586254 C272.282574,154.586254 266.005733,148.106417 266.005733,140.139405 C266.005733,132.172393 272.282574,125.692557 280,125.692557 C287.717426,125.692557 293.994267,132.172393 293.994267,140.139405 L293.994267,140.139405 Z M299.756612,140.139405 C299.756612,128.879362 290.907296,119.743855 280,119.743855 C269.092704,119.743855 260.243388,128.879362 260.243388,140.139405 C260.243388,151.399449 269.092704,160.534956 280,160.534956 C290.907296,160.534956 299.756612,151.399449 299.756612,140.139405 L299.756612,140.139405 Z" id="-copy-7" fill-opacity="0.5" fill="#D75B36" sketch:type="MSShapeGroup"></path>
                <path d="M502.08057,181.395841 L498.787802,181.395841 C496.524023,181.395841 494.671841,183.307924 494.671841,185.644914 L494.671841,214.538611 C494.671841,216.875601 496.524023,218.787684 498.787802,218.787684 L502.08057,218.787684 C504.344349,218.787684 506.196531,216.875601 506.196531,214.538611 L506.196531,185.644914 C506.196531,183.307924 504.344349,181.395841 502.08057,181.395841 L502.08057,181.395841 Z M537.477833,185.724584 L537.477833,181.395841 C537.477833,179.988336 536.680366,178.02314 535.72855,177.040541 L531.818387,173.003922 C530.866571,172.021324 528.962939,171.198066 527.599527,171.198066 L510.312492,171.198066 C508.94908,171.198066 507.842915,172.340004 507.842915,173.74751 L507.842915,214.538611 C507.842915,216.875601 509.695098,218.787684 511.958876,218.787684 L534.185064,218.787684 C537.812255,218.787684 540.770602,215.733663 540.770602,211.989167 L540.770602,191.593617 C540.770602,189.097286 539.432914,186.893079 537.477833,185.724584 L537.477833,185.724584 Z M518.544413,211.989167 C518.544413,212.467188 518.184267,212.838982 517.721221,212.838982 L514.428453,212.838982 C513.965407,212.838982 513.60526,212.467188 513.60526,211.989167 L513.60526,208.589909 C513.60526,208.111888 513.965407,207.740094 514.428453,207.740094 L517.721221,207.740094 C518.184267,207.740094 518.544413,208.111888 518.544413,208.589909 L518.544413,211.989167 Z M518.544413,205.19065 C518.544413,205.668671 518.184267,206.040465 517.721221,206.040465 L514.428453,206.040465 C513.965407,206.040465 513.60526,205.668671 513.60526,205.19065 L513.60526,201.791392 C513.60526,201.313371 513.965407,200.941577 514.428453,200.941577 L517.721221,200.941577 C518.184267,200.941577 518.544413,201.313371 518.544413,201.791392 L518.544413,205.19065 Z M518.544413,198.392133 C518.544413,198.870154 518.184267,199.241948 517.721221,199.241948 L514.428453,199.241948 C513.965407,199.241948 513.60526,198.870154 513.60526,198.392133 L513.60526,194.992875 C513.60526,194.514854 513.965407,194.14306 514.428453,194.14306 L517.721221,194.14306 C518.184267,194.14306 518.544413,194.514854 518.544413,194.992875 L518.544413,198.392133 Z M525.129951,211.989167 C525.129951,212.467188 524.769804,212.838982 524.306758,212.838982 L521.01399,212.838982 C520.550944,212.838982 520.190798,212.467188 520.190798,211.989167 L520.190798,208.589909 C520.190798,208.111888 520.550944,207.740094 521.01399,207.740094 L524.306758,207.740094 C524.769804,207.740094 525.129951,208.111888 525.129951,208.589909 L525.129951,211.989167 Z M525.129951,205.19065 C525.129951,205.668671 524.769804,206.040465 524.306758,206.040465 L521.01399,206.040465 C520.550944,206.040465 520.190798,205.668671 520.190798,205.19065 L520.190798,201.791392 C520.190798,201.313371 520.550944,200.941577 521.01399,200.941577 L524.306758,200.941577 C524.769804,200.941577 525.129951,201.313371 525.129951,201.791392 L525.129951,205.19065 Z M525.129951,198.392133 C525.129951,198.870154 524.769804,199.241948 524.306758,199.241948 L521.01399,199.241948 C520.550944,199.241948 520.190798,198.870154 520.190798,198.392133 L520.190798,194.992875 C520.190798,194.514854 520.550944,194.14306 521.01399,194.14306 L524.306758,194.14306 C524.769804,194.14306 525.129951,194.514854 525.129951,194.992875 L525.129951,198.392133 Z M531.715488,211.989167 C531.715488,212.467188 531.355341,212.838982 530.892296,212.838982 L527.599527,212.838982 C527.136481,212.838982 526.776335,212.467188 526.776335,211.989167 L526.776335,208.589909 C526.776335,208.111888 527.136481,207.740094 527.599527,207.740094 L530.892296,207.740094 C531.355341,207.740094 531.715488,208.111888 531.715488,208.589909 L531.715488,211.989167 Z M531.715488,205.19065 C531.715488,205.668671 531.355341,206.040465 530.892296,206.040465 L527.599527,206.040465 C527.136481,206.040465 526.776335,205.668671 526.776335,205.19065 L526.776335,201.791392 C526.776335,201.313371 527.136481,200.941577 527.599527,200.941577 L530.892296,200.941577 C531.355341,200.941577 531.715488,201.313371 531.715488,201.791392 L531.715488,205.19065 Z M531.715488,198.392133 C531.715488,198.870154 531.355341,199.241948 530.892296,199.241948 L527.599527,199.241948 C527.136481,199.241948 526.776335,198.870154 526.776335,198.392133 L526.776335,194.992875 C526.776335,194.514854 527.136481,194.14306 527.599527,194.14306 L530.892296,194.14306 C531.355341,194.14306 531.715488,194.514854 531.715488,194.992875 L531.715488,198.392133 Z M534.185064,188.194358 L511.135684,188.194358 L511.135684,174.597324 L527.599527,174.597324 L527.599527,178.846397 C527.599527,180.253903 528.705692,181.395841 530.069104,181.395841 L534.185064,181.395841 L534.185064,188.194358 Z" id="-copy-3" fill-opacity="0.5" fill="#D75B36" sketch:type="MSShapeGroup"></path>
                <path d="M410.276996,265.321016 C409.459223,266.247837 408.532414,267.062316 407.551087,267.764453 C402.998819,270.938112 398.419291,274.139858 393.976059,277.453945 C391.686296,279.195245 388.85135,281.329742 385.880109,281.329742 L385.85285,281.329742 L385.825591,281.329742 C382.85435,281.329742 380.019404,279.195245 377.729641,277.453945 C373.286409,274.111772 368.706881,270.938112 364.181872,267.764453 C363.173286,267.062316 362.246477,266.247837 361.428704,265.321016 L361.428704,287.62089 C361.428704,290.092413 363.391358,292.114568 365.790158,292.114568 L405.915541,292.114568 C408.314341,292.114568 410.276996,290.092413 410.276996,287.62089 L410.276996,265.321016 Z M410.276996,257.063883 C410.276996,254.592361 408.287082,252.570206 405.915541,252.570206 L365.790158,252.570206 C362.873436,252.570206 361.428704,254.929386 361.428704,257.681764 C361.428704,260.237543 364.181872,263.411203 366.117268,264.759306 C370.342427,267.792538 374.622104,270.825771 378.847263,273.887088 C380.619104,275.150935 383.617604,277.7348 385.825591,277.7348 L385.85285,277.7348 L385.880109,277.7348 C388.088095,277.7348 391.086595,275.150935 392.858436,273.887088 C397.083596,270.825771 401.363273,267.792538 405.615691,264.759306 C408.014491,263.046091 410.276996,260.209457 410.276996,257.063883 L410.276996,257.063883 Z" id="-copy-7" fill-opacity="0.5" fill="#D75B36" sketch:type="MSShapeGroup"></path>
                <path d="M324.154956,272.337941 C322.777,273.899644 321.215316,275.272051 319.561769,276.455159 C311.891147,281.802811 304.174592,287.197787 296.687697,292.782061 C292.82942,295.71617 288.052506,299.312821 283.045932,299.312821 L283,299.312821 L282.954068,299.312821 C277.947494,299.312821 273.17058,295.71617 269.312303,292.782061 C261.825408,287.150463 254.108853,281.802811 246.484163,276.455159 C244.784684,275.272051 243.223,273.899644 241.845044,272.337941 L241.845044,309.913476 C241.845044,314.078019 245.152139,317.485372 249.194143,317.485372 L316.805857,317.485372 C320.847861,317.485372 324.154956,314.078019 324.154956,309.913476 L324.154956,272.337941 Z M324.154956,258.424581 C324.154956,254.260038 320.80193,250.852685 316.805857,250.852685 L249.194143,250.852685 C244.279433,250.852685 241.845044,254.827931 241.845044,259.465717 C241.845044,263.772233 246.484163,269.119885 249.745326,271.391454 C256.864766,276.502484 264.076069,281.613514 271.195509,286.771868 C274.181081,288.901464 279.233587,293.255304 282.954068,293.255304 L283,293.255304 L283.045932,293.255304 C286.766413,293.255304 291.818919,288.901464 294.804491,286.771868 C301.923931,281.613514 309.135234,276.502484 316.300606,271.391454 C320.342611,268.504668 324.154956,263.724909 324.154956,258.424581 L324.154956,258.424581 Z" id="-copy-8" fill-opacity="0.3" fill="#D75B36" sketch:type="MSShapeGroup"></path>
                <path d="M621,212.580804 C620.437744,213.218036 619.80052,213.778028 619.125812,214.260779 C615.995918,216.442817 612.847282,218.644164 609.792356,220.922751 C608.218038,222.119975 606.268882,223.58754 604.226017,223.58754 L604.207275,223.58754 L604.188533,223.58754 C602.145668,223.58754 600.196513,222.119975 598.622195,220.922751 C595.567268,218.624854 592.418632,216.442817 589.30748,214.260779 C588.614031,213.778028 587.976807,213.218036 587.41455,212.580804 L587.41455,227.912994 C587.41455,229.61228 588.763966,231.002604 590.413251,231.002604 L618.001299,231.002604 C619.650585,231.002604 621,229.61228 621,227.912994 L621,212.580804 Z M621,206.903645 C621,205.20436 619.631843,203.814035 618.001299,203.814035 L590.413251,203.814035 C588.40787,203.814035 587.41455,205.43608 587.41455,207.328467 C587.41455,209.085682 589.30748,211.26772 590.638154,212.194603 C593.543145,214.28009 596.48562,216.365576 599.390612,218.470373 C600.608834,219.339326 602.670441,221.115852 604.188533,221.115852 L604.207275,221.115852 L604.226017,221.115852 C605.744109,221.115852 607.805716,219.339326 609.023938,218.470373 C611.92893,216.365576 614.871405,214.28009 617.795138,212.194603 C619.444424,211.016689 621,209.066372 621,206.903645 L621,206.903645 Z" id="-copy-9" fill-opacity="0.5" fill="#D75B36" sketch:type="MSShapeGroup"></path>
                <path d="M452,176.215175 C452,175.875811 452,175.536447 451.859115,175.197083 C451.530382,174.178992 449.229254,173.112419 448.290018,172.627614 C445.613196,171.076236 442.889412,169.573338 440.259552,167.97348 C439.038545,167.197791 437.535768,165.743374 436.079952,165.743374 C433.215283,165.743374 429.035684,174.518356 426.499747,174.518356 C425.231778,174.518356 423.588116,173.306342 422.461033,172.627614 C413.913987,167.731077 407.996801,161.622526 403.25366,152.799065 C402.596195,151.635531 401.42215,149.938711 401.42215,148.629736 C401.42215,146.011786 409.922234,141.697016 409.922234,138.739702 C409.922234,137.236805 408.51338,135.685427 407.761992,134.424932 C406.212253,131.710021 404.756437,128.898148 403.25366,126.134756 C402.784042,125.165145 401.750882,122.789598 400.764685,122.450234 C400.435952,122.304792 400.10722,122.304792 399.778487,122.304792 C398.087863,122.304792 394.800537,123.080481 393.250798,123.807689 C390.94967,124.825781 389.446893,127.540693 388.272848,129.722318 C386.770071,132.582671 385.877797,135.491504 385.877797,138.739702 C385.877797,143.248394 387.662345,147.320761 389.11816,151.441609 C390.15132,154.398923 391.419288,157.259276 393.015989,159.925707 C397.946977,168.167402 407.574145,178.105917 415.557649,183.196376 C418.140548,184.844715 420.911294,186.15369 423.775963,187.220262 C427.767715,188.72316 431.712506,190.565421 436.079952,190.565421 C439.226393,190.565421 442.0441,189.64429 444.814846,188.092912 C446.928126,186.880898 449.557987,185.32952 450.544184,182.953973 C451.248611,181.354115 452,177.960475 452,176.215175 L452,176.215175 Z" id="-copy-3" fill-opacity="0.7" fill="#FDB731" sketch:type="MSShapeGroup"></path>
            </g>
        </g>
    </g>
</svg>