<?xml version="1.0" standalone="no"?>
<!DOCTYPE svg PUBLIC "-//W3C//DTD SVG 1.1//EN" "http://www.w3.org/Graphics/SVG/1.1/DTD/svg11.dtd">
<svg width="200px" height="170px" version="1.1" xmlns="http://www.w3.org/2000/svg" xmlns:xlink="http://www.w3.org/1999/xlink" xml:space="preserve" style="fill-rule:evenodd;clip-rule:evenodd;stroke-linejoin:round;stroke-miterlimit:1.41421;">
    <g id="Layer_1">
        <g>
            <g>
                <path d="M55,59.0195L10,85.0015L55,110.979Z" style="fill:rgb(19,140,143);fill-opacity:0.6;fill-rule:nonzero;"/>
                <path d="M55,162.942L145,162.942L100,136.962Z" style="fill:rgb(19,140,143);fill-rule:nonzero;"/>
                <path d="M145,7.0575L55,7.0575L100,33.0395Z" style="fill:rgb(19,140,143);fill-opacity:0.5;fill-rule:nonzero;"/>
                <path d="M55,7.0575L10,85.0015L55,59.0195Z" style="fill:rgb(19,140,143);fill-opacity:0.5;fill-rule:nonzero;"/>
                <path d="M145,110.979L145,162.942L190,85.0015Z" style="fill:rgb(19,140,143);fill-rule:nonzero;"/>
                <path d="M100,33.0395L55,7.0575L55,59.0195Z" style="fill:rgb(19,140,143);fill-opacity:0.6;fill-rule:nonzero;"/>
                <path d="M100,136.962L145,162.942L145,110.979Z" style="fill:rgb(19,140,143);fill-opacity:0.9;fill-rule:nonzero;"/>
                <path d="M190,85.0015L145,7.0575L145,59.0195Z" style="fill:rgb(19,140,143);fill-opacity:0.2;fill-rule:nonzero;"/>
                <path d="M10,85.0015L55,162.942L55,110.979Z" style="fill:rgb(19,140,143);fill-opacity:0.1;fill-rule:nonzero;"/>
                <path d="M145,59.0195L145,7.0575L100,33.0395Z" style="fill:rgb(19,140,143);fill-opacity:0.1;fill-rule:nonzero;"/>
                <path d="M55,110.979L55,162.942L100,136.962Z" style="fill:rgb(19,140,143);fill-opacity:0.2;fill-rule:nonzero;"/>
                <path d="M145,110.979L190,85.0015L145,59.0195Z" style="fill:rgb(19,140,143);fill-opacity:0.9;fill-rule:nonzero;"/>
                <path d="M100,33.0395L55,59.0195L55,110.979L100,136.962L145,110.979L145,59.0195Z" style="fill:rgb(19,140,143);fill-opacity:0.8;fill-rule:nonzero;"/>
            </g>
            <g>
                <path d="M93.5516,99.3011L92.9978,92.2989C92.9714,92.167 92.9582,91.9824 92.9582,91.7451C92.9582,90.3209 93.3472,89.0088 94.1253,87.8088C94.9033,86.6088 95.8725,85.4484 97.033,84.3275C98.1934,83.2066 99.4593,82.0923 100.831,80.9846C102.202,79.8769 103.468,78.7165 104.629,77.5033C105.789,76.2901 106.758,74.9912 107.536,73.6066C108.314,72.222 108.703,70.6857 108.703,68.9978C108.703,67.3099 108.393,65.8659 107.774,64.6659C107.154,63.4659 106.343,62.4835 105.341,61.7186C104.338,60.9538 103.191,60.3934 101.899,60.0373C100.607,59.6813 99.2747,59.5032 97.9033,59.5032C96.6637,59.5032 95.5099,59.589 94.4417,59.7604C93.3736,59.9318 92.3648,60.1494 91.4154,60.4131C90.4659,60.6769 89.5692,60.9538 88.7253,61.2439C87.8813,61.534 87.0901,61.7978 86.3516,62.0351L86.3516,57.8417C88.0395,56.9186 89.7934,56.2527 91.6132,55.8439C93.433,55.4351 95.1736,55.2307 96.8352,55.2307C99.1824,55.2307 101.378,55.501 103.422,56.0417C105.466,56.5824 107.246,57.4065 108.763,58.5142C110.279,59.6219 111.473,61.0197 112.343,62.7076C113.213,64.3956 113.648,66.3736 113.648,68.6417C113.648,71.1736 113.121,73.3758 112.066,75.2483C111.011,77.1209 109.666,78.7297 108.031,80.0747C107.582,80.4439 107.213,80.7538 106.923,81.0044C106.633,81.2549 106.303,81.5385 105.934,81.8549C104.273,83.411 102.895,84.6769 101.8,85.6527C100.705,86.6286 99.8352,87.5253 99.189,88.3429C98.5429,89.1604 98.0879,89.9912 97.8242,90.8352C97.5604,91.6791 97.4286,92.7341 97.4286,94C97.4286,94.7649 97.4681,95.622 97.5472,96.5715L97.7451,99.3011L93.5516,99.3011ZM99.8813,114.769L93.0373,114.769L93.0373,107.688L99.8813,107.688L99.8813,114.769Z" style="fill:white;fill-rule:nonzero;"/>
            </g>
        </g>
    </g>
</svg>
