<?xml version="1.0" encoding="utf-8"?>
<!-- Generator: Adobe Illustrator 15.1.0, SVG Export Plug-In . SVG Version: 6.00 Build 0)  -->
<!DOCTYPE svg PUBLIC "-//W3C//DTD SVG 1.1//EN" "http://www.w3.org/Graphics/SVG/1.1/DTD/svg11.dtd">
<svg version="1.1" id="Layer_1" xmlns="http://www.w3.org/2000/svg" xmlns:xlink="http://www.w3.org/1999/xlink" x="0px" y="0px"
	 width="200px" height="170px" viewBox="0 0 200 170" enable-background="new 0 0 200 170" xml:space="preserve">
<polygon display="none" fill="#FFFCF5" points="60.316,166.68 15.316,88.68 60.316,10.68 150.314,10.68 195.314,88.68 
	150.314,166.68 "/>
<g>
	<polygon fill="#CA4D85" fill-opacity="0.6" points="60.12,63.12 15.12,89.102 60.12,115.08 	"/>
	<g>
		<polygon fill="#CA4D85" points="60.12,167.043 150.12,167.043 105.12,141.062 		"/>
		<polygon opacity="0.5" fill="#CA4D85" enable-background="new    " points="150.12,11.158 60.12,11.158 105.12,37.14 		"/>
		<polygon opacity="0.5" fill="#CA4D85" enable-background="new    " points="60.12,11.158 15.12,89.102 60.12,63.12 		"/>
		<polygon fill="#CA4D85" points="150.12,115.08 150.12,167.043 195.12,89.102 		"/>
		<polygon opacity="0.6" fill="#CA4D85" enable-background="new    " points="105.12,37.14 60.12,11.158 60.12,63.12 		"/>
		<polygon opacity="0.9" fill="#CA4D85" enable-background="new    " points="105.12,141.062 150.12,167.043 150.12,115.08 		"/>
		<polygon opacity="0.2" fill="#CA4D85" enable-background="new    " points="195.12,89.102 150.12,11.158 150.12,63.12 		"/>
		<polygon opacity="0.1" fill="#CA4D85" enable-background="new    " points="15.12,89.102 60.12,167.043 60.12,115.08 		"/>
		<polygon opacity="0.1" fill="#CA4D85" enable-background="new    " points="150.12,63.12 150.12,11.158 105.12,37.14 		"/>
		<polygon opacity="0.2" fill="#CA4D85" enable-background="new    " points="60.12,115.08 60.12,167.043 105.12,141.062 		"/>
		<polygon opacity="0.9" fill="#CA4D85" enable-background="new    " points="150.12,115.08 195.12,89.102 150.12,63.12 		"/>
		<polygon opacity="0.8" fill="#CA4D85" enable-background="new    " points="105.12,37.14 60.12,63.12 60.12,115.08 
			105.12,141.062 150.12,115.08 150.12,63.12 		"/>
		<g>
			<path fill="#CA4D85" d="M174.518,14.411c0.508-0.477,1.1-0.914,1.774-1.313c0.679-0.4,1.41-0.742,2.203-1.027
				c0.793-0.284,1.635-0.508,2.526-0.669c0.892-0.161,1.812-0.242,2.771-0.242c1.338,0,2.635,0.186,3.888,0.554
				c1.256,0.369,2.364,0.911,3.334,1.627c0.971,0.716,1.747,1.601,2.332,2.653c0.584,1.052,0.877,2.272,0.877,3.657
				c0,1.062-0.183,2.05-0.543,2.965c-0.361,0.916-0.89,1.715-1.58,2.399c-0.691,0.684-1.552,1.238-2.572,1.66
				c-1.023,0.425-2.189,0.689-3.496,0.798v0.092c1.322,0.123,2.543,0.404,3.658,0.842c1.112,0.438,2.076,1.016,2.883,1.73
				c0.807,0.716,1.436,1.565,1.881,2.551c0.445,0.983,0.668,2.092,0.668,3.322c0,1.461-0.311,2.778-0.934,3.956
				c-0.623,1.177-1.47,2.173-2.539,2.988c-1.068,0.814-2.312,1.441-3.728,1.881c-1.416,0.438-2.914,0.656-4.5,0.656
				c-1.812,0-3.494-0.258-5.041-0.771c-1.545-0.515-2.862-1.305-3.955-2.365l1.312-2.055c0.972,0.878,2.099,1.548,3.382,2.009
				c1.284,0.461,2.674,0.691,4.166,0.691c1.215,0,2.354-0.156,3.413-0.474c1.062-0.314,1.988-0.772,2.779-1.373
				c0.793-0.6,1.416-1.334,1.869-2.203c0.455-0.869,0.682-1.856,0.682-2.965c0-1.293-0.241-2.389-0.727-3.288
				c-0.484-0.899-1.178-1.63-2.076-2.192c-0.899-0.561-1.996-0.973-3.289-1.233c-1.291-0.261-2.738-0.394-4.338-0.394
				c-0.215,0-0.428,0.01-0.635,0.023c-0.207,0.016-0.396,0.022-0.564,0.022l0.021-2.606c0.062,0.016,0.154,0.022,0.277,0.022h0.576
				c1.432,0,2.742-0.11,3.934-0.335c1.193-0.222,2.217-0.589,3.07-1.096c0.854-0.508,1.514-1.177,1.983-2.008
				c0.47-0.83,0.703-1.845,0.703-3.046c0-1.062-0.183-1.977-0.543-2.745c-0.36-0.77-0.869-1.403-1.521-1.903
				c-0.654-0.5-1.437-0.869-2.342-1.106c-0.908-0.238-1.9-0.357-2.979-0.357c-1.632,0-3.104,0.253-4.431,0.761
				c-1.324,0.508-2.461,1.186-3.416,2.03L174.518,14.411z"/>
		</g>
	</g>
</g>
</svg>
