<?xml version="1.0" encoding="utf-8"?>
<!-- Generator: Adobe Illustrator 19.2.1, SVG Export Plug-In . SVG Version: 6.00 Build 0)  -->
<svg version="1.1" id="Layer_1" xmlns="http://www.w3.org/2000/svg" xmlns:xlink="http://www.w3.org/1999/xlink" x="0px" y="0px"
	 viewBox="0 0 200 170" style="enable-background:new 0 0 200 170;" xml:space="preserve">
<style type="text/css">
	.st0{display:none;fill:#FFFCF5;}
	.st1{fill:#71BABC;}
	.st2{fill:#138C8F;}
	.st3{fill:#89C5C7;}
	.st4{fill:#2A979A;}
	.st5{fill:#D0E8E9;}
	.st6{fill:#E7F3F4;}
	.st7{fill:#42A3A5;}
	.st8{fill:#D75B36;}
</style>
<polygon class="st0" points="60.3,166.7 15.3,88.7 60.3,10.7 150.3,10.7 195.3,88.7 150.3,166.7 "/>
<g>
	<polyline class="st1" points="60.1,63.1 15.1,89.1 60.1,115.1 60.1,63.1 	"/>
	<polyline class="st2" points="60.1,167 150.1,167 105.1,141.1 60.1,167 	"/>
	<polyline class="st3" points="150.1,11.2 60.1,11.2 105.1,37.1 150.1,11.2 	"/>
	<polyline class="st3" points="60.1,11.2 15.1,89.1 60.1,63.1 60.1,11.2 	"/>
	<polyline class="st2" points="150.1,115.1 150.1,167 195.1,89.1 150.1,115.1 	"/>
	<polyline class="st1" points="60.1,11.2 60.1,63.1 105.1,37.1 60.1,11.2 	"/>
	<polyline class="st4" points="150.1,115.1 105.1,141.1 150.1,167 150.1,115.1 	"/>
	<polyline class="st5" points="150.1,11.2 150.1,63.1 195.1,89.1 150.1,11.2 	"/>
	<polyline class="st6" points="15.1,89.1 60.1,167 60.1,115.1 15.1,89.1 	"/>
	<polyline class="st6" points="150.1,11.2 150.1,11.2 105.1,37.1 150.1,63.1 150.1,11.2 	"/>
	<polyline class="st5" points="60.1,115.1 60.1,167 105.1,141.1 60.1,115.1 	"/>
	<polyline class="st4" points="150.1,63.1 150.1,115.1 195.1,89.1 150.1,63.1 	"/>
	<polyline class="st7" points="105.1,37.1 105.1,37.1 60.1,63.1 60.1,115.1 105.1,141.1 150.1,115.1 150.1,63.1 105.1,37.1 	"/>
	<path class="st8" d="M174.5,14.4c0.5-0.5,1.1-0.9,1.8-1.3c0.7-0.4,1.4-0.7,2.2-1c0.8-0.3,1.6-0.5,2.5-0.7c0.9-0.2,1.8-0.2,2.8-0.2
		c1.3,0,2.6,0.2,3.9,0.6c1.3,0.4,2.4,0.9,3.3,1.6c1,0.7,1.7,1.6,2.3,2.7c0.6,1.1,0.9,2.3,0.9,3.7c0,1.1-0.2,2.1-0.5,3
		c-0.4,0.9-0.9,1.7-1.6,2.4c-0.7,0.7-1.6,1.2-2.6,1.7c-1,0.4-2.2,0.7-3.5,0.8v0.1c1.3,0.1,2.5,0.4,3.7,0.8c1.1,0.4,2.1,1,2.9,1.7
		c0.8,0.7,1.4,1.6,1.9,2.6c0.4,1,0.7,2.1,0.7,3.3c0,1.5-0.3,2.8-0.9,4c-0.6,1.2-1.5,2.2-2.5,3c-1.1,0.8-2.3,1.4-3.7,1.9
		c-1.4,0.4-2.9,0.7-4.5,0.7c-1.8,0-3.5-0.3-5-0.8c-1.5-0.5-2.9-1.3-4-2.4l1.3-2.1c1,0.9,2.1,1.5,3.4,2c1.3,0.5,2.7,0.7,4.2,0.7
		c1.2,0,2.4-0.2,3.4-0.5c1.1-0.3,2-0.8,2.8-1.4c0.8-0.6,1.4-1.3,1.9-2.2c0.5-0.9,0.7-1.9,0.7-3c0-1.3-0.2-2.4-0.7-3.3
		c-0.5-0.9-1.2-1.6-2.1-2.2c-0.9-0.6-2-1-3.3-1.2c-1.3-0.3-2.7-0.4-4.3-0.4c-0.2,0-0.4,0-0.6,0c-0.2,0-0.4,0-0.6,0l0-2.6
		c0.1,0,0.2,0,0.3,0h0.6c1.4,0,2.7-0.1,3.9-0.3c1.2-0.2,2.2-0.6,3.1-1.1c0.9-0.5,1.5-1.2,2-2c0.5-0.8,0.7-1.8,0.7-3
		c0-1.1-0.2-2-0.5-2.7c-0.4-0.8-0.9-1.4-1.5-1.9c-0.7-0.5-1.4-0.9-2.3-1.1c-0.9-0.2-1.9-0.4-3-0.4c-1.6,0-3.1,0.3-4.4,0.8
		c-1.3,0.5-2.5,1.2-3.4,2L174.5,14.4z"/>
</g>
</svg>
