<?xml version="1.0" encoding="utf-8"?>
<!-- Generator: Adobe Illustrator 15.1.0, SVG Export Plug-In . SVG Version: 6.00 Build 0)  -->
<!DOCTYPE svg PUBLIC "-//W3C//DTD SVG 1.1//EN" "http://www.w3.org/Graphics/SVG/1.1/DTD/svg11.dtd">
<svg version="1.1" id="Layer_1" xmlns="http://www.w3.org/2000/svg" xmlns:xlink="http://www.w3.org/1999/xlink" x="0px" y="0px"
	 width="205.291px" height="244.445px" viewBox="0 0 205.291 244.445" enable-background="new 0 0 205.291 244.445"
	 xml:space="preserve">
<polygon fill="#FFFCF5" points="57.841,168.349 12.841,90.349 57.841,12.349 147.841,12.349 192.841,90.349 147.841,168.349 "/>
<g>
	<g>
		<polygon fill="#138C8F" fill-opacity="0.6" points="57.645,64.79 12.645,90.77 57.645,116.75 		"/>
		<g>
			<polygon fill="#138C8F" points="57.645,168.712 147.645,168.712 102.645,142.731 			"/>
			<polygon opacity="0.5" fill="#138C8F" points="147.645,12.828 57.645,12.828 102.645,38.809 			"/>
			<polygon opacity="0.5" fill="#138C8F" points="57.645,12.828 12.645,90.77 57.645,64.79 			"/>
			<polygon fill="#138C8F" points="147.645,116.75 147.645,168.712 192.645,90.77 			"/>
			<polygon opacity="0.6" fill="#138C8F" points="102.645,38.809 57.645,12.828 57.645,64.79 			"/>
			<polygon opacity="0.9" fill="#138C8F" points="102.645,142.731 147.645,168.712 147.645,116.75 			"/>
			<polygon opacity="0.2" fill="#138C8F" points="192.645,90.77 147.645,12.828 147.645,64.79 			"/>
			<polygon opacity="0.1" fill="#138C8F" points="12.645,90.77 57.645,168.712 57.645,116.75 			"/>
			<polygon opacity="0.1" fill="#138C8F" points="147.645,64.79 147.645,12.828 102.645,38.809 			"/>
			<polygon opacity="0.2" fill="#138C8F" points="57.645,116.75 57.645,168.712 102.645,142.731 			"/>
			<polygon opacity="0.9" fill="#138C8F" points="147.645,116.75 192.645,90.77 147.645,64.79 			"/>
			<polygon opacity="0.8" fill="#138C8F" points="102.645,38.809 57.645,64.79 57.645,116.75 102.645,142.731 147.645,116.75 
				147.645,64.79 			"/>
			<g>
				<path fill="#D75B36" d="M172.041,16.081c0.508-0.477,1.101-0.914,1.777-1.314c0.676-0.4,1.41-0.742,2.203-1.027
					c0.792-0.284,1.635-0.508,2.526-0.669s1.814-0.242,2.77-0.242c1.338,0,2.634,0.185,3.887,0.554
					c1.255,0.369,2.366,0.911,3.334,1.627c0.97,0.715,1.747,1.6,2.331,2.653s0.877,2.272,0.877,3.657
					c0,1.062-0.181,2.05-0.542,2.965c-0.362,0.916-0.888,1.715-1.581,2.399c-0.691,0.685-1.55,1.239-2.572,1.661
					c-1.023,0.424-2.188,0.689-3.496,0.797v0.092c1.323,0.123,2.543,0.404,3.658,0.842c1.114,0.438,2.076,1.016,2.884,1.73
					c0.807,0.716,1.435,1.566,1.88,2.551c0.446,0.984,0.669,2.092,0.669,3.322c0,1.461-0.312,2.779-0.934,3.957
					c-0.623,1.176-1.47,2.172-2.539,2.988c-1.068,0.814-2.311,1.441-3.726,1.881c-1.416,0.438-2.915,0.656-4.5,0.656
					c-1.814,0-3.495-0.258-5.041-0.772s-2.864-1.304-3.957-2.365l1.314-2.054c0.97,0.877,2.097,1.547,3.381,2.008
					c1.285,0.461,2.673,0.692,4.165,0.692c1.215,0,2.354-0.157,3.414-0.474c1.062-0.314,1.988-0.772,2.78-1.373
					c0.793-0.6,1.416-1.334,1.869-2.203c0.454-0.869,0.682-1.857,0.682-2.965c0-1.293-0.243-2.389-0.727-3.288
					c-0.485-0.899-1.178-1.63-2.077-2.192c-0.899-0.561-1.996-0.973-3.288-1.234c-1.292-0.261-2.738-0.393-4.338-0.393
					c-0.215,0-0.427,0.009-0.635,0.023c-0.207,0.016-0.396,0.023-0.564,0.023l0.022-2.607c0.062,0.016,0.153,0.023,0.276,0.023
					h0.577c1.431,0,2.742-0.111,3.934-0.335c1.192-0.222,2.216-0.589,3.069-1.096c0.854-0.508,1.515-1.177,1.984-2.008
					c0.47-0.83,0.703-1.845,0.703-3.046c0-1.061-0.181-1.976-0.542-2.745c-0.361-0.769-0.869-1.403-1.522-1.903
					c-0.654-0.5-1.435-0.869-2.342-1.107c-0.908-0.238-1.9-0.357-2.977-0.357c-1.631,0-3.107,0.253-4.431,0.761
					c-1.323,0.507-2.46,1.185-3.415,2.03L172.041,16.081z"/>
			</g>
		</g>
	</g>
	<g>
		<path fill="#333333" d="M29.167,227.221c0.525,0.59,1.055,1.055,1.586,1.393c0.532,0.338,1.063,0.594,1.595,0.766
			c0.532,0.172,1.061,0.281,1.587,0.33s1.047,0.072,1.562,0.072c0.924,0,1.772-0.09,2.545-0.273c0.773-0.182,1.437-0.451,1.99-0.805
			c0.553-0.355,0.984-0.795,1.296-1.322c0.312-0.525,0.468-1.137,0.468-1.836c0-0.795-0.191-1.469-0.572-2.021
			s-0.886-1.033-1.514-1.441c-0.629-0.408-1.34-0.768-2.135-1.08c-0.795-0.311-1.61-0.619-2.448-0.926s-1.654-0.639-2.448-0.998
			c-0.795-0.359-1.507-0.789-2.135-1.289s-1.133-1.096-1.514-1.789c-0.382-0.691-0.572-1.531-0.572-2.52
			c0-1.01,0.236-1.896,0.709-2.658c0.472-0.762,1.101-1.402,1.885-1.918c0.783-0.514,1.672-0.9,2.666-1.158
			c0.993-0.258,2.016-0.387,3.068-0.387c0.516,0,1.047,0.035,1.595,0.104c0.548,0.07,1.09,0.186,1.627,0.348
			c0.537,0.16,1.055,0.377,1.555,0.652c0.499,0.273,0.958,0.613,1.377,1.021l-0.789,1.498c-0.741-0.643-1.587-1.1-2.537-1.369
			c-0.95-0.268-1.904-0.402-2.859-0.402c-0.73,0-1.455,0.076-2.175,0.227s-1.366,0.391-1.941,0.725
			c-0.574,0.332-1.041,0.756-1.401,1.271c-0.359,0.516-0.539,1.133-0.539,1.854c0,0.762,0.19,1.412,0.571,1.949
			c0.382,0.537,0.887,1.012,1.515,1.426c0.628,0.412,1.342,0.783,2.143,1.111c0.8,0.328,1.618,0.658,2.456,0.99
			s1.656,0.688,2.457,1.062c0.8,0.377,1.514,0.824,2.142,1.346c0.629,0.521,1.134,1.131,1.515,1.828
			c0.381,0.699,0.572,1.535,0.572,2.514c0,0.752-0.121,1.426-0.363,2.021c-0.241,0.596-0.577,1.119-1.007,1.57
			c-0.429,0.451-0.929,0.834-1.498,1.152c-0.569,0.316-1.187,0.576-1.852,0.781c-0.666,0.203-1.356,0.352-2.07,0.441
			c-0.715,0.092-1.426,0.137-2.135,0.137c-1.385,0-2.671-0.258-3.857-0.771c-1.187-0.516-2.183-1.295-2.988-2.336L29.167,227.221z"
			/>
		<path fill="#333333" d="M61.006,231.249v-21.617h-7.685v-1.838h17.526v1.838H63.18v21.617H61.006z"/>
		<path fill="#333333" d="M96.326,231.249l-2.449-6.701c-0.29-0.783-0.58-1.438-0.869-1.957c-0.29-0.521-0.634-0.938-1.031-1.248
			c-0.397-0.312-0.87-0.533-1.418-0.662c-0.547-0.129-1.224-0.193-2.029-0.193h-4.801v10.762h-2.094v-23.455h5.509
			c0.634,0,1.324,0.012,2.07,0.033s1.495,0.092,2.247,0.209c0.752,0.119,1.477,0.299,2.175,0.539
			c0.698,0.242,1.318,0.586,1.86,1.031s0.978,1.01,1.305,1.691s0.491,1.518,0.491,2.506c0,0.783-0.134,1.5-0.402,2.15
			c-0.269,0.648-0.65,1.219-1.144,1.707c-0.494,0.488-1.085,0.896-1.772,1.225s-1.449,0.561-2.287,0.701
			c-0.021,0.064-0.032,0.107-0.032,0.129c0,0.01,0.003,0.018,0.008,0.023c0.006,0.006,0.008,0.014,0.008,0.023
			c0.773,0.15,1.399,0.412,1.877,0.781c0.478,0.371,0.904,0.879,1.281,1.523c0.375,0.645,0.743,1.443,1.103,2.4
			c0.36,0.955,0.809,2.094,1.346,3.414l1.288,3.367H96.326z M83.792,218.635h4.72c0.784,0,1.565-0.066,2.344-0.201
			c0.779-0.135,1.479-0.373,2.103-0.717s1.13-0.809,1.522-1.395c0.392-0.584,0.588-1.328,0.588-2.23s-0.161-1.641-0.483-2.215
			s-0.771-1.027-1.345-1.361c-0.575-0.332-1.254-0.562-2.038-0.691s-1.638-0.193-2.562-0.193h-4.849V218.635z"/>
		<path fill="#333333" d="M112.717,231.249h-2.175v-23.455h2.175V231.249z"/>
		<path fill="#333333" d="M128.401,209.954v21.295h-2.11v-23.455h2.852l12.178,18.252l2.158,3.561v-5.479v-16.334h1.965v23.455h-2.9
			l-12.225-18.234L128.401,209.954z"/>
		<path fill="#333333" d="M168.955,221.196v-1.836h8.039l-0.064,10.68c-1.203,0.58-2.477,0.988-3.818,1.225
			s-2.705,0.354-4.092,0.354c-1.91,0-3.594-0.279-5.049-0.836c-1.455-0.559-2.674-1.348-3.656-2.369
			c-0.984-1.02-1.725-2.24-2.225-3.664c-0.498-1.424-0.748-3.004-0.748-4.744s0.264-3.375,0.789-4.904
			c0.525-1.531,1.285-2.871,2.279-4.02s2.209-2.057,3.648-2.723s3.076-0.998,4.914-0.998c0.869,0,1.703,0.074,2.504,0.225
			s1.531,0.377,2.191,0.678s1.232,0.676,1.715,1.127c0.484,0.451,0.838,0.977,1.062,1.578l-0.9,1.127
			c-0.27-0.492-0.627-0.92-1.072-1.279s-0.961-0.658-1.547-0.895c-0.584-0.236-1.227-0.414-1.924-0.531
			c-0.699-0.119-1.434-0.178-2.207-0.178c-1.525,0-2.867,0.295-4.027,0.887c-1.16,0.59-2.129,1.375-2.908,2.352
			c-0.777,0.977-1.365,2.102-1.764,3.375c-0.396,1.271-0.596,2.584-0.596,3.938c0,1.494,0.201,2.855,0.604,4.084
			c0.404,1.23,1.014,2.285,1.828,3.166c0.816,0.881,1.838,1.562,3.061,2.045c1.225,0.484,2.658,0.725,4.303,0.725
			c1.041,0,2.033-0.08,2.979-0.24c0.945-0.162,1.826-0.436,2.643-0.822l0.031-7.523H168.955z"/>
	</g>
</g>
</svg>
