<?xml version="1.0" encoding="utf-8"?>
<!-- Generator: Adobe Illustrator 15.1.0, SVG Export Plug-In . SVG Version: 6.00 Build 0)  -->
<!DOCTYPE svg PUBLIC "-//W3C//DTD SVG 1.1//EN" "http://www.w3.org/Graphics/SVG/1.1/DTD/svg11.dtd">
<svg version="1.1" id="Layer_1" xmlns="http://www.w3.org/2000/svg" xmlns:xlink="http://www.w3.org/1999/xlink" x="0px" y="0px"
	 width="205.291px" height="244.445px" viewBox="0 0 205.291 244.445" enable-background="new 0 0 205.291 244.445"
	 xml:space="preserve">
<polygon fill="#FFFCF5" points="57.841,168.349 12.841,90.349 57.841,12.349 147.841,12.349 192.841,90.349 147.841,168.349 "/>
<g>
	<polygon fill="#CA4D85" fill-opacity="0.6" points="57.645,64.79 12.645,90.77 57.645,116.75 	"/>
	<polygon fill="#CA4D85" points="57.645,168.712 147.646,168.712 102.645,142.731 	"/>
	<polygon opacity="0.5" fill="#CA4D85" enable-background="new    " points="147.646,12.828 57.645,12.828 102.645,38.809 	"/>
	<polygon opacity="0.5" fill="#CA4D85" enable-background="new    " points="57.645,12.828 12.645,90.77 57.645,64.79 	"/>
	<polygon fill="#CA4D85" points="147.646,116.75 147.646,168.712 192.646,90.77 	"/>
	<polygon opacity="0.6" fill="#CA4D85" enable-background="new    " points="102.645,38.809 57.645,12.828 57.645,64.79 	"/>
	<polygon opacity="0.9" fill="#CA4D85" enable-background="new    " points="102.645,142.731 147.646,168.712 147.646,116.75 	"/>
	<polygon opacity="0.2" fill="#CA4D85" enable-background="new    " points="192.646,90.77 147.646,12.828 147.646,64.79 	"/>
	<polygon opacity="0.1" fill="#CA4D85" enable-background="new    " points="12.645,90.77 57.645,168.712 57.645,116.75 	"/>
	<polygon opacity="0.1" fill="#CA4D85" enable-background="new    " points="147.646,64.79 147.646,12.828 102.645,38.809 	"/>
	<polygon opacity="0.2" fill="#CA4D85" enable-background="new    " points="57.645,116.75 57.645,168.712 102.645,142.731 	"/>
	<polygon opacity="0.9" fill="#CA4D85" enable-background="new    " points="147.646,116.75 192.646,90.77 147.646,64.79 	"/>
	<polygon opacity="0.8" fill="#CA4D85" enable-background="new    " points="102.645,38.809 57.645,64.79 57.645,116.75 
		102.645,142.731 147.646,116.75 147.646,64.79 	"/>
</g>
<g>
	<path fill="#D75B36" d="M172.041,16.081c0.508-0.477,1.101-0.914,1.776-1.313c0.677-0.4,1.41-0.742,2.203-1.027
		c0.793-0.284,1.636-0.508,2.526-0.669c0.892-0.161,1.813-0.242,2.771-0.242c1.338,0,2.634,0.186,3.887,0.554
		c1.255,0.369,2.365,0.911,3.334,1.627c0.97,0.716,1.747,1.601,2.331,2.653s0.877,2.272,0.877,3.657c0,1.062-0.181,2.05-0.542,2.965
		c-0.362,0.916-0.889,1.715-1.581,2.399c-0.69,0.685-1.55,1.238-2.572,1.66c-1.022,0.425-2.188,0.689-3.495,0.798v0.092
		c1.322,0.123,2.543,0.403,3.657,0.842s2.076,1.016,2.884,1.73c0.807,0.716,1.436,1.565,1.881,2.551
		c0.445,0.983,0.668,2.092,0.668,3.321c0,1.462-0.312,2.779-0.934,3.957c-0.623,1.177-1.47,2.173-2.539,2.988
		c-1.068,0.814-2.311,1.441-3.726,1.881c-1.416,0.438-2.915,0.656-4.5,0.656c-1.814,0-3.495-0.258-5.041-0.771
		c-1.546-0.515-2.864-1.305-3.957-2.365l1.313-2.055c0.971,0.878,2.098,1.548,3.381,2.009c1.285,0.461,2.674,0.691,4.166,0.691
		c1.215,0,2.354-0.157,3.414-0.474c1.062-0.314,1.987-0.772,2.779-1.373c0.793-0.6,1.416-1.334,1.869-2.203
		c0.454-0.869,0.682-1.857,0.682-2.965c0-1.293-0.242-2.389-0.727-3.288c-0.485-0.899-1.178-1.63-2.077-2.192
		c-0.899-0.561-1.996-0.973-3.288-1.233s-2.738-0.394-4.338-0.394c-0.215,0-0.427,0.01-0.635,0.023
		c-0.207,0.016-0.396,0.022-0.564,0.022l0.022-2.606c0.062,0.016,0.153,0.022,0.276,0.022h0.576c1.432,0,2.742-0.11,3.934-0.335
		c1.192-0.222,2.217-0.589,3.069-1.096c0.854-0.508,1.515-1.177,1.984-2.008c0.47-0.83,0.703-1.845,0.703-3.046
		c0-1.062-0.181-1.977-0.542-2.745c-0.361-0.77-0.869-1.403-1.522-1.903s-1.435-0.869-2.342-1.106
		c-0.908-0.238-1.899-0.357-2.978-0.357c-1.631,0-3.106,0.253-4.431,0.761c-1.323,0.508-2.46,1.186-3.415,2.03L172.041,16.081z"/>
</g>
<g>
	<path fill="#333333" d="M29.167,227.221c0.525,0.59,1.055,1.055,1.586,1.393c0.532,0.338,1.063,0.594,1.595,0.766
		c0.532,0.172,1.061,0.281,1.587,0.33s1.047,0.072,1.562,0.072c0.924,0,1.772-0.09,2.545-0.273c0.773-0.182,1.437-0.45,1.99-0.805
		c0.553-0.354,0.984-0.795,1.296-1.322c0.312-0.524,0.468-1.137,0.468-1.836c0-0.795-0.191-1.469-0.572-2.021
		c-0.381-0.552-0.886-1.033-1.514-1.441c-0.629-0.408-1.34-0.768-2.135-1.08c-0.795-0.311-1.61-0.619-2.448-0.926
		s-1.654-0.639-2.448-0.998c-0.795-0.358-1.507-0.789-2.135-1.289s-1.133-1.096-1.514-1.789c-0.382-0.69-0.572-1.53-0.572-2.52
		c0-1.01,0.236-1.896,0.709-2.658c0.472-0.762,1.101-1.402,1.885-1.918c0.783-0.514,1.672-0.9,2.666-1.158
		c0.993-0.258,2.016-0.387,3.068-0.387c0.516,0,1.047,0.035,1.595,0.104c0.548,0.07,1.09,0.187,1.627,0.349
		c0.537,0.16,1.055,0.377,1.555,0.651c0.499,0.273,0.958,0.613,1.377,1.021l-0.789,1.498c-0.741-0.644-1.587-1.101-2.537-1.369
		c-0.95-0.268-1.904-0.402-2.859-0.402c-0.73,0-1.455,0.076-2.175,0.228c-0.72,0.15-1.366,0.391-1.941,0.725
		c-0.574,0.332-1.041,0.756-1.401,1.271c-0.359,0.516-0.539,1.133-0.539,1.854c0,0.762,0.19,1.412,0.571,1.949
		c0.382,0.537,0.887,1.012,1.515,1.426c0.628,0.412,1.342,0.783,2.143,1.111c0.8,0.328,1.618,0.658,2.456,0.99
		c0.838,0.332,1.656,0.688,2.457,1.062c0.8,0.377,1.514,0.824,2.142,1.346c0.629,0.521,1.134,1.132,1.515,1.828
		c0.381,0.699,0.572,1.535,0.572,2.515c0,0.752-0.121,1.426-0.363,2.021c-0.241,0.596-0.577,1.119-1.007,1.57
		c-0.429,0.451-0.929,0.834-1.498,1.151c-0.569,0.316-1.187,0.576-1.852,0.781c-0.666,0.203-1.356,0.353-2.07,0.441
		c-0.715,0.092-1.426,0.137-2.135,0.137c-1.385,0-2.671-0.258-3.857-0.771c-1.187-0.517-2.183-1.296-2.988-2.337L29.167,227.221z"/>
	<path fill="#333333" d="M61.006,231.249v-21.617h-7.685v-1.838h17.526v1.838H63.18v21.617H61.006z"/>
	<path fill="#333333" d="M96.326,231.249l-2.449-6.701c-0.29-0.782-0.58-1.438-0.869-1.957c-0.29-0.521-0.634-0.938-1.031-1.248
		c-0.397-0.312-0.87-0.532-1.418-0.661c-0.547-0.13-1.224-0.193-2.029-0.193h-4.801v10.762h-2.094v-23.455h5.509
		c0.634,0,1.324,0.013,2.07,0.033c0.746,0.021,1.495,0.092,2.247,0.209c0.752,0.119,1.477,0.299,2.175,0.539
		c0.698,0.242,1.318,0.586,1.86,1.031c0.542,0.444,0.978,1.01,1.305,1.69c0.327,0.682,0.491,1.519,0.491,2.506
		c0,0.783-0.134,1.5-0.402,2.15c-0.269,0.648-0.65,1.219-1.144,1.707s-1.085,0.896-1.772,1.225
		c-0.687,0.329-1.449,0.562-2.287,0.701c-0.021,0.064-0.032,0.107-0.032,0.129c0,0.011,0.003,0.019,0.008,0.023
		c0.006,0.006,0.008,0.014,0.008,0.022c0.773,0.15,1.399,0.412,1.877,0.781c0.478,0.371,0.904,0.879,1.281,1.523
		c0.375,0.645,0.743,1.442,1.103,2.399c0.36,0.955,0.809,2.095,1.346,3.414l1.288,3.367h-2.24V231.249z M83.792,218.635h4.72
		c0.784,0,1.565-0.065,2.344-0.2c0.779-0.136,1.479-0.373,2.103-0.718c0.624-0.344,1.13-0.809,1.522-1.395
		c0.392-0.584,0.588-1.328,0.588-2.23c0-0.901-0.161-1.641-0.483-2.215c-0.322-0.574-0.771-1.026-1.345-1.36
		c-0.575-0.332-1.254-0.562-2.038-0.691c-0.784-0.129-1.638-0.193-2.562-0.193h-4.849V218.635z"/>
	<path fill="#333333" d="M112.717,231.249h-2.175v-23.455h2.175V231.249z"/>
	<path fill="#333333" d="M128.401,209.954v21.295h-2.11v-23.455h2.853l12.178,18.252l2.158,3.562v-5.479v-16.334h1.965v23.455h-2.9
		l-12.225-18.233L128.401,209.954z"/>
	<path fill="#333333" d="M168.955,221.196v-1.836h8.039l-0.063,10.68c-1.203,0.58-2.478,0.988-3.818,1.226
		c-1.342,0.236-2.705,0.354-4.092,0.354c-1.91,0-3.595-0.279-5.049-0.836c-1.455-0.559-2.675-1.348-3.656-2.369
		c-0.984-1.02-1.726-2.24-2.226-3.664c-0.498-1.424-0.748-3.004-0.748-4.744c0-1.739,0.265-3.375,0.789-4.903
		c0.525-1.531,1.285-2.871,2.279-4.021c0.994-1.148,2.209-2.057,3.647-2.723c1.439-0.666,3.076-0.998,4.914-0.998
		c0.869,0,1.703,0.074,2.504,0.225c0.801,0.151,1.531,0.377,2.191,0.679c0.66,0.301,1.232,0.676,1.715,1.127
		c0.484,0.45,0.838,0.977,1.062,1.577l-0.9,1.128c-0.27-0.492-0.627-0.921-1.072-1.279c-0.445-0.359-0.961-0.658-1.547-0.896
		c-0.584-0.235-1.227-0.414-1.924-0.53c-0.699-0.119-1.434-0.179-2.207-0.179c-1.525,0-2.867,0.295-4.027,0.888
		c-1.16,0.59-2.129,1.375-2.908,2.352c-0.776,0.977-1.364,2.102-1.764,3.375c-0.396,1.271-0.596,2.584-0.596,3.938
		c0,1.493,0.201,2.854,0.604,4.084c0.404,1.229,1.015,2.284,1.828,3.166c0.816,0.881,1.838,1.562,3.062,2.045
		c1.225,0.483,2.657,0.725,4.303,0.725c1.041,0,2.033-0.08,2.979-0.24c0.944-0.162,1.826-0.436,2.643-0.821l0.031-7.523h-5.993
		V221.196z"/>
</g>
</svg>
