<?xml version="1.0" encoding="UTF-8" standalone="no"?>
<svg width="256px" height="226px" viewBox="0 0 256 226" version="1.1" xmlns="http://www.w3.org/2000/svg" xmlns:xlink="http://www.w3.org/1999/xlink" xmlns:sketch="http://www.bohemiancoding.com/sketch/ns">
    <!-- Generator: Sketch 3.3.3 (12072) - http://www.bohemiancoding.com/sketch -->
    <title>Group</title>
    <desc>Created with Sketch.</desc>
    <defs></defs>
    <g id="Page-1" stroke="none" stroke-width="1" fill="none" fill-rule="evenodd" sketch:type="MSPage">
        <g id="Pricing" sketch:type="MSArtboardGroup" transform="translate(-102.000000, -620.000000)">
            <g id="Group" sketch:type="MSLayerGroup" transform="translate(0.000000, 574.000000)">
                <path d="M337.115808,264.951784 C339.138369,270.508726 345.282771,273.373908 350.839713,271.351346 C356.396655,269.328785 359.261837,263.184383 357.239275,257.627441 C355.216714,252.070499 349.072312,249.205317 343.51537,251.227879 C337.958428,253.25044 335.093246,259.394842 337.115808,264.951784 L337.115808,264.951784 L337.115808,264.951784 Z" id="Oval-3-Copy-70" fill-opacity="0.6" fill="#138C8F" sketch:type="MSShapeGroup"></path>
                <path d="M156.141073,78.4146575 C150.632237,73.7921949 142.419196,74.5107429 137.796734,80.0195792 C133.174271,85.5284156 133.892819,93.7414561 139.401656,98.3639187 C144.910492,102.986381 153.123532,102.267833 157.745995,96.7589969 C162.368458,91.2501606 161.64991,83.03712 156.141073,78.4146575 L156.141073,78.4146575 L156.141073,78.4146575 Z" id="Oval-3-Copy-47" fill-opacity="0.5" fill="#CA4D85" sketch:type="MSShapeGroup"></path>
                <path d="M173.444988,86.7406942 C167.936152,82.1182317 159.723111,82.8367796 155.100649,88.345616 C150.478186,93.8544523 151.196734,102.067493 156.70557,106.689955 C162.214407,111.312418 170.427447,110.59387 175.04991,105.085034 C179.672372,99.5761973 178.953824,91.3631568 173.444988,86.7406942 L173.444988,86.7406942 L173.444988,86.7406942 Z" id="Oval-3-Copy-48" fill-opacity="0.1" fill="#138C8F" sketch:type="MSShapeGroup"></path>
                <path d="M234.187809,51.2118185 C225.348049,43.7943785 212.168983,44.9473973 204.751544,53.787158 C197.334104,62.6269187 198.487122,75.8059837 207.326883,83.2234236 C216.166644,90.6408635 229.345709,89.4878447 236.763149,80.648084 C244.180589,71.8083234 243.02757,58.6292584 234.187809,51.2118185 L234.187809,51.2118185 L234.187809,51.2118185 Z" id="Oval-3-Copy-49" fill-opacity="0.3" fill="#D75B36" sketch:type="MSShapeGroup"></path>
                <path d="M117.533466,110.040862 C113.561979,106.708389 107.64095,107.226412 104.308477,111.197898 C100.976004,115.169385 101.494027,121.090414 105.465514,124.422887 C109.437001,127.75536 115.35803,127.237337 118.690503,123.26585 C122.022976,119.294364 121.504953,113.373335 117.533466,110.040862 L117.533466,110.040862 L117.533466,110.040862 Z" id="Oval-3-Copy-50" fill-opacity="0.3" fill="#138C8F" sketch:type="MSShapeGroup"></path>
                <path d="M220.894619,78.9008606 C216.923132,75.5683876 211.002103,76.0864105 207.66963,80.0578972 C204.337157,84.0293839 204.85518,89.9504131 208.826666,93.2828861 C212.798153,96.6153591 218.719182,96.0973361 222.051655,92.1258495 C225.384128,88.1543628 224.866105,82.2333336 220.894619,78.9008606 L220.894619,78.9008606 L220.894619,78.9008606 Z" id="Oval-3-Copy-51" fill-opacity="0.1" fill="#D75B36" sketch:type="MSShapeGroup"></path>
                <path d="M223.143402,121.003921 C219.812478,118.208944 214.846453,118.643415 212.051476,121.974339 C209.256499,125.305263 209.690969,130.271288 213.021894,133.066265 C216.352818,135.861243 221.318842,135.426772 224.11382,132.095847 C226.908797,128.764923 226.474326,123.798899 223.143402,121.003921 L223.143402,121.003921 L223.143402,121.003921 Z" id="Oval-3-Copy-52" fill-opacity="0.6" fill="#138C8F" sketch:type="MSShapeGroup"></path>
                <path d="M175.259865,131.094746 C170.007253,126.687282 162.176215,127.372409 157.76875,132.62502 C153.361286,137.877632 154.046413,145.70867 159.299025,150.116135 C164.551636,154.523599 172.382675,153.838472 176.790139,148.58586 C181.197603,143.333249 180.512476,135.50221 175.259865,131.094746 L175.259865,131.094746 L175.259865,131.094746 Z" id="Oval-3-Copy-53" fill-opacity="0.6" fill="#D75B36" sketch:type="MSShapeGroup"></path>
                <path d="M139.076901,138.682339 C136.002201,136.10236 131.418179,136.50341 128.8382,139.57811 C126.258221,142.652809 126.659271,147.236832 129.73397,149.816811 C132.808669,152.39679 137.392692,151.99574 139.972671,148.92104 C142.55265,145.846341 142.1516,141.262318 139.076901,138.682339 L139.076901,138.682339 L139.076901,138.682339 Z" id="Oval-3-Copy-54" fill-opacity="0.1" fill="#138C8F" sketch:type="MSShapeGroup"></path>
                <path d="M194.46438,161.685732 C191.902131,159.535749 188.082112,159.869958 185.932129,162.432207 C183.782147,164.994457 184.116355,168.814476 186.678605,170.964458 C189.240854,173.114441 193.060873,172.780232 195.210855,170.217983 C197.360838,167.655733 197.02663,163.835715 194.46438,161.685732 L194.46438,161.685732 L194.46438,161.685732 Z" id="Oval-3-Copy-55" fill-opacity="0.05" fill="#138C8F" sketch:type="MSShapeGroup"></path>
                <path d="M274.824972,135.415072 C267.010111,128.857625 255.359054,129.87696 248.801607,137.691821 C242.24416,145.506682 243.263496,157.157739 251.078357,163.715186 C258.893217,170.272633 270.544275,169.253298 277.101722,161.438437 C283.659169,153.623576 282.639833,141.972518 274.824972,135.415072 L274.824972,135.415072 L274.824972,135.415072 Z" id="Oval-3-Copy-56" fill-opacity="0.6" fill="#D75B36" sketch:type="MSShapeGroup"></path>
                <path d="M256.205804,218.38214 C249.415842,212.684686 239.292793,213.570338 233.595339,220.360299 C227.897885,227.15026 228.783537,237.27331 235.573498,242.970764 C242.363459,248.668218 252.486509,247.782566 258.183963,240.992604 C263.881417,234.202643 262.995765,224.079593 256.205804,218.38214 L256.205804,218.38214 L256.205804,218.38214 Z" id="Oval-3-Copy-57" fill-opacity="0.5" fill="#CA4D85" sketch:type="MSShapeGroup"></path>
                <path d="M166.556681,184.627743 C164.314713,182.746508 160.972196,183.038941 159.090961,185.280909 C157.209727,187.522877 157.502159,190.865394 159.744127,192.746628 C161.986095,194.627863 165.328612,194.335431 167.209847,192.093463 C169.091081,189.851494 168.798649,186.508978 166.556681,184.627743 L166.556681,184.627743 L166.556681,184.627743 Z" id="Oval-3-Copy-58" fill-opacity="0.5" fill="#138C8F" sketch:type="MSShapeGroup"></path>
                <path d="M187.550635,180.34926 C185.981257,179.032395 183.641496,179.237098 182.324631,180.806476 C181.007767,182.375853 181.21247,184.715615 182.781848,186.032479 C184.351225,187.349344 186.690987,187.144641 188.007851,185.575263 C189.324716,184.005885 189.120013,181.666124 187.550635,180.34926 L187.550635,180.34926 L187.550635,180.34926 Z" id="Oval-3-Copy-59" fill-opacity="0.3" fill="#138C8F" sketch:type="MSShapeGroup"></path>
                <path d="M228.353729,208.620697 C225.407142,206.148217 221.01412,206.532557 218.54164,209.479144 C216.06916,212.425731 216.4535,216.818752 219.400087,219.291232 C222.346674,221.763712 226.739695,221.379373 229.212175,218.432786 C231.684655,215.486199 231.300316,211.093177 228.353729,208.620697 L228.353729,208.620697 L228.353729,208.620697 Z" id="Oval-3-Copy-60" fill-opacity="0.1" fill="#138C8F" sketch:type="MSShapeGroup"></path>
                <path d="M137.343333,201.721982 C131.749239,197.02798 123.40909,197.757649 118.715088,203.351742 C114.021086,208.945836 114.750755,217.285985 120.344849,221.979987 C125.938942,226.673988 134.279091,225.94432 138.973093,220.350226 C143.667095,214.756133 142.937426,206.415984 137.343333,201.721982 L137.343333,201.721982 L137.343333,201.721982 Z" id="Oval-3-Copy-61" fill-opacity="0.1" fill="#138C8F" sketch:type="MSShapeGroup"></path>
                <path d="M179.276979,145.716546 C176.586617,143.459065 172.575597,143.809983 170.318115,146.500345 C168.060634,149.190707 168.411553,153.201727 171.101914,155.459209 C173.792276,157.71669 177.803296,157.365772 180.060778,154.67541 C182.31826,151.985048 181.967341,147.974028 179.276979,145.716546 L179.276979,145.716546 L179.276979,145.716546 Z" id="Oval-3-Copy-62" fill-opacity="0.3" fill="#138C8F" sketch:type="MSShapeGroup"></path>
                <path d="M290.502745,191.161109 C286.531258,187.828636 280.610229,188.346659 277.277756,192.318145 C273.945283,196.289632 274.463306,202.210661 278.434793,205.543134 C282.406279,208.875607 288.327308,208.357584 291.659781,204.386098 C294.992254,200.414611 294.474231,194.493582 290.502745,191.161109 L290.502745,191.161109 L290.502745,191.161109 Z" id="Oval-3-Copy-63" fill-opacity="0.3" fill="#138C8F" sketch:type="MSShapeGroup"></path>
                <path d="M184.694028,228.005211 C174.573143,219.51278 159.484068,220.832902 150.991637,230.953788 C142.499206,241.074673 143.819329,256.163748 153.940214,264.656179 C164.061099,273.14861 179.150174,271.828487 187.642605,261.707602 C196.135036,251.586716 194.814913,236.497642 184.694028,228.005211 L184.694028,228.005211 L184.694028,228.005211 Z" id="Oval-3-Copy-64" fill-opacity="0.1" fill="#D75B36" sketch:type="MSShapeGroup"></path>
                <path d="M178.265786,206.93281 C171.091488,200.912859 160.395435,201.848642 154.375484,209.02294 C148.355533,216.197239 149.291316,226.893292 156.465615,232.913243 C163.639913,238.933194 174.335966,237.997411 180.355917,230.823112 C186.375868,223.648814 185.440085,212.952761 178.265786,206.93281 L178.265786,206.93281 L178.265786,206.93281 Z" id="Oval-3-Copy-65" fill-opacity="0.6" fill="#D75B36" sketch:type="MSShapeGroup"></path>
                <path d="M236.669234,165.467861 C231.416623,161.060397 223.585584,161.745524 219.17812,166.998135 C214.770655,172.250747 215.455783,180.081785 220.708394,184.48925 C225.961005,188.896714 233.792044,188.211587 238.199508,182.958976 C242.606973,177.706364 241.921845,169.875326 236.669234,165.467861 L236.669234,165.467861 L236.669234,165.467861 Z" id="Oval-3-Copy-66" fill-opacity="0.6" fill="#138C8F" sketch:type="MSShapeGroup"></path>
                <path d="M266.234289,165.767185 C263.159589,163.187206 258.575567,163.588256 255.995588,166.662955 C253.415608,169.737655 253.816659,174.321677 256.891358,176.901657 C259.966057,179.481636 264.55008,179.080586 267.130059,176.005886 C269.710038,172.931187 269.308988,168.347164 266.234289,165.767185 L266.234289,165.767185 L266.234289,165.767185 Z" id="Oval-3-Copy-67" fill-opacity="0.1" fill="#D75B36" sketch:type="MSShapeGroup"></path>
                <path d="M208.19654,141.276314 C204.737503,138.373837 199.580477,138.825018 196.678001,142.284055 C193.775525,145.743092 194.226706,150.900117 197.685743,153.802594 C201.144779,156.70507 206.301805,156.253889 209.204281,152.794852 C212.106758,149.335815 211.655576,144.17879 208.19654,141.276314 L208.19654,141.276314 L208.19654,141.276314 Z" id="Oval-3-Copy-68" fill-opacity="0.2" fill="#138C8F" sketch:type="MSShapeGroup"></path>
                <path d="M146.470621,148.184911 C142.627247,144.959937 136.897218,145.46125 133.672244,149.304624 C130.447271,153.147998 130.948583,158.878026 134.791957,162.103 C138.635331,165.327974 144.36536,164.826662 147.590334,160.983288 C150.815307,157.139913 150.313995,151.409885 146.470621,148.184911 L146.470621,148.184911 L146.470621,148.184911 Z" id="Oval-3-Copy-69" fill-opacity="0.6" fill="#138C8F" sketch:type="MSShapeGroup"></path>
                <rect id="Rectangle-24" sketch:type="MSShapeGroup" x="0" y="0" width="474" height="302"></rect>
            </g>
        </g>
    </g>
</svg>