<?xml version="1.0" encoding="UTF-8" standalone="no"?>
<svg width="63px" height="66px" viewBox="0 0 63 66" version="1.1" xmlns="http://www.w3.org/2000/svg" xmlns:xlink="http://www.w3.org/1999/xlink" xmlns:sketch="http://www.bohemiancoding.com/sketch/ns">
    <!-- Generator: Sketch 3.2.2 (9983) - http://www.bohemiancoding.com/sketch -->
    <title>Imported Layers</title>
    <desc>Created with Sketch.</desc>
    <defs></defs>
    <g id="Page-1" stroke="none" stroke-width="1" fill="none" fill-rule="evenodd" sketch:type="MSPage">
        <g id="Desktop-HD" sketch:type="MSArtboardGroup" transform="translate(-30.000000, -2984.000000)">
            <g id="Group" sketch:type="MSLayerGroup" transform="translate(-398.000000, 877.000000)">
                <g id="Imported-Layers" transform="translate(428.000000, 2107.000000)" sketch:type="MSShapeGroup">
                    <path d="M55.802,34.895 C55.802,50.082 43.49,62.395 28.304,62.395 C13.115,62.395 0.803,50.082 0.803,34.895 C0.803,19.707 13.115,7.395 28.304,7.395 C43.49,7.395 55.802,19.707 55.802,34.895" id="Fill-1" fill="#FFFCF6"></path>
                    <path d="M48.763,39.563 C47.333,45.856 43.08,51.061 37.402,53.799 L43.048,65.524 C52.742,60.856 59.208,52.188 61.435,42.456 L48.763,39.563" id="Fill-2" fill="#CF5F90"></path>
                    <path d="M54.873,13.698 L44.708,21.804 C47.578,25.396 49.302,29.94 49.302,34.893 C49.302,36.5 49.105,38.059 48.763,39.563 L61.443,42.457 C63.837,31.967 61.091,21.508 54.873,13.698" id="Fill-3" fill="#D5709B"></path>
                    <path d="M28.303,13.894 C34.947,13.894 40.859,16.988 44.708,21.804 L54.878,13.693 C48.169,5.281 38.281,0.906 28.297,0.9 L28.297,13.895 C28.299,13.895 28.301,13.894 28.303,13.894" id="Fill-4" fill="#DA82A7"></path>
                    <path d="M26.293,33.859 C26.396,33.866 26.505,33.869 26.622,33.869 L26.94,33.869 C27.541,33.869 28.083,33.823 28.565,33.731 C29.047,33.638 29.455,33.483 29.79,33.264 C30.125,33.045 30.383,32.758 30.565,32.403 C30.745,32.047 30.836,31.606 30.836,31.08 C30.836,30.69 30.764,30.354 30.621,30.07 C30.477,29.787 30.277,29.552 30.021,29.368 C29.765,29.183 29.459,29.044 29.103,28.953 C28.748,28.86 28.361,28.814 27.944,28.814 C27.22,28.814 26.574,28.964 26.006,29.265 C25.439,29.566 24.974,30.024 24.612,30.639 L23.607,29.727 C23.757,29.357 23.976,29.026 24.263,28.732 C24.55,28.438 24.887,28.188 25.273,27.983 C25.659,27.778 26.085,27.621 26.55,27.512 C27.015,27.402 27.5,27.348 28.006,27.348 C28.607,27.348 29.192,27.428 29.759,27.588 C30.327,27.75 30.829,27.987 31.267,28.301 C31.704,28.616 32.056,29.005 32.323,29.47 C32.589,29.935 32.723,30.468 32.723,31.07 C32.723,31.521 32.651,31.933 32.507,32.305 C32.364,32.678 32.162,33.011 31.902,33.305 C31.643,33.599 31.332,33.851 30.969,34.059 C30.607,34.268 30.204,34.433 29.759,34.556 L29.862,34.577 C30.34,34.672 30.779,34.823 31.18,35.028 C31.579,35.233 31.923,35.489 32.21,35.797 C32.497,36.104 32.723,36.459 32.887,36.858 C33.051,37.258 33.133,37.704 33.133,38.196 C33.133,38.853 32.987,39.444 32.694,39.97 C32.402,40.497 32.006,40.943 31.505,41.308 C31.004,41.674 30.426,41.955 29.769,42.149 C29.113,42.344 28.419,42.441 27.688,42.441 C27.155,42.441 26.654,42.388 26.185,42.283 C25.717,42.177 25.299,42.018 24.93,41.806 C24.56,41.594 24.25,41.331 23.997,41.016 C23.744,40.702 23.569,40.336 23.474,39.919 L24.325,38.883 C24.455,39.225 24.632,39.526 24.858,39.786 C25.083,40.045 25.347,40.264 25.647,40.442 C25.948,40.62 26.28,40.754 26.642,40.847 C27.004,40.939 27.384,40.985 27.78,40.985 C28.272,40.985 28.732,40.92 29.159,40.79 C29.586,40.661 29.959,40.476 30.277,40.237 C30.595,39.998 30.844,39.704 31.025,39.355 C31.207,39.006 31.297,38.61 31.297,38.165 C31.297,37.653 31.2,37.215 31.005,36.853 C30.81,36.491 30.532,36.195 30.169,35.966 C29.807,35.737 29.366,35.571 28.847,35.469 C28.327,35.366 27.746,35.315 27.103,35.315 C26.987,35.315 26.856,35.317 26.709,35.32 C26.561,35.324 26.43,35.329 26.314,35.335 L26.293,33.859" id="Fill-5" fill="#191918"></path>
                </g>
            </g>
        </g>
    </g>
</svg>