<?xml version="1.0" encoding="UTF-8" standalone="no"?>
<svg width="68px" height="69px" viewBox="0 0 68 69" version="1.1" xmlns="http://www.w3.org/2000/svg" xmlns:xlink="http://www.w3.org/1999/xlink" xmlns:sketch="http://www.bohemiancoding.com/sketch/ns">
    <!-- Generator: Sketch 3.2.2 (9983) - http://www.bohemiancoding.com/sketch -->
    <title>Imported Layers</title>
    <desc>Created with Sketch.</desc>
    <defs></defs>
    <g id="Page-1" stroke="none" stroke-width="1" fill="none" fill-rule="evenodd" sketch:type="MSPage">
        <g id="Desktop-HD" sketch:type="MSArtboardGroup" transform="translate(-23.000000, -5027.000000)">
            <g id="Group" sketch:type="MSLayerGroup" transform="translate(-398.000000, 877.000000)">
                <g transform="translate(396.000000, 4140.000000)" id="Imported-Layers" sketch:type="MSShapeGroup">
                    <g transform="translate(25.000000, 10.000000)">
                        <path d="M61.368,34.017 C61.368,49.204 49.056,61.517 33.869,61.517 C18.68,61.517 6.369,49.204 6.369,34.017 C6.369,18.829 18.68,6.517 33.869,6.517 C49.056,6.517 61.368,18.829 61.368,34.017" id="Fill-1" fill="#FFFCF6"></path>
                        <path d="M13.407,38.683 L0.715,41.58 C3.109,52.07 10.121,60.303 19.113,64.641 L24.759,52.916 C19.085,50.176 14.836,44.974 13.407,38.683" id="Fill-2" fill="#B8487A"></path>
                        <path d="M33.869,55.018 C30.6,55.018 27.518,54.248 24.759,52.916 L19.11,64.646 C28.805,69.316 39.612,68.967 48.61,64.641 L42.968,52.922 C40.212,54.25 37.134,55.018 33.869,55.018" id="Fill-3" fill="#CA4D85"></path>
                        <path d="M54.329,38.686 C52.899,44.979 48.646,50.183 42.968,52.922 L48.614,64.646 C58.308,59.979 64.774,51.311 67.001,41.578 L54.329,38.686" id="Fill-4" fill="#CF5F90"></path>
                        <path d="M60.439,12.82 L50.273,20.926 C53.143,24.518 54.868,29.063 54.868,34.016 C54.868,35.623 54.671,37.182 54.329,38.686 L67.009,41.58 C69.403,31.089 66.657,20.63 60.439,12.82" id="Fill-5" fill="#D5709B"></path>
                        <path d="M33.869,13.016 C40.513,13.016 46.425,16.11 50.273,20.926 L60.444,12.815 C53.735,4.403 43.847,0.028 33.862,0.022 L33.862,13.017 C33.864,13.017 33.867,13.016 33.869,13.016" id="Fill-6" fill="#DA82A7"></path>
                        <path d="M29.978,38.241 C30.388,38.836 30.873,39.275 31.434,39.559 C31.994,39.843 32.596,39.984 33.238,39.984 C33.806,39.984 34.31,39.894 34.751,39.712 C35.191,39.532 35.563,39.286 35.863,38.974 C36.164,38.664 36.392,38.301 36.545,37.887 C36.699,37.474 36.775,37.035 36.775,36.57 C36.775,36.132 36.709,35.724 36.576,35.344 C36.442,34.965 36.248,34.634 35.991,34.35 C35.735,34.066 35.415,33.842 35.032,33.678 C34.649,33.514 34.212,33.432 33.72,33.432 C33.241,33.432 32.811,33.521 32.428,33.699 C32.045,33.876 31.744,34.129 31.525,34.458 L29.721,34.519 L29.721,26.593 L37.832,26.593 L37.832,28.08 L31.393,28.08 L31.249,32.596 C31.639,32.369 32.04,32.198 32.454,32.085 C32.867,31.971 33.31,31.915 33.781,31.915 C34.526,31.915 35.196,32.033 35.791,32.269 C36.386,32.505 36.89,32.832 37.304,33.249 C37.717,33.667 38.035,34.161 38.258,34.732 C38.48,35.304 38.591,35.925 38.591,36.595 C38.591,37.28 38.468,37.916 38.222,38.504 C37.976,39.093 37.623,39.605 37.165,40.04 C36.707,40.474 36.148,40.816 35.489,41.066 C34.829,41.315 34.086,41.44 33.259,41.44 C32.849,41.44 32.445,41.401 32.049,41.323 C31.652,41.244 31.276,41.123 30.921,40.959 C30.565,40.794 30.237,40.586 29.936,40.333 C29.636,40.08 29.372,39.779 29.147,39.431 L29.978,38.241" id="Fill-7" fill="#191918"></path>
                    </g>
                </g>
            </g>
        </g>
    </g>
</svg>