<?xml version="1.0" encoding="UTF-8" standalone="no"?>
<svg width="69px" height="69px" viewBox="0 0 69 69" version="1.1" xmlns="http://www.w3.org/2000/svg" xmlns:xlink="http://www.w3.org/1999/xlink" xmlns:sketch="http://www.bohemiancoding.com/sketch/ns">
    <!-- Generator: Sketch 3.2.2 (9983) - http://www.bohemiancoding.com/sketch -->
    <title>Imported Layers</title>
    <desc>Created with Sketch.</desc>
    <defs></defs>
    <g id="Page-1" stroke="none" stroke-width="1" fill="none" fill-rule="evenodd" sketch:type="MSPage">
        <g id="Desktop-HD" sketch:type="MSArtboardGroup" transform="translate(-22.000000, -6057.000000)">
            <g id="Group" sketch:type="MSLayerGroup" transform="translate(-398.000000, 877.000000)">
                <g id="Rectangle-364-+-Group" transform="translate(384.000000, 5125.000000)" sketch:type="MSShapeGroup">
                    <g id="Group" transform="translate(12.000000, 1.000000)">
                        <g id="Imported-Layers" transform="translate(24.000000, 54.500000)">
                            <path d="M61.567,34.021 C61.567,49.208 49.254,61.521 34.067,61.521 C18.878,61.521 6.567,49.208 6.567,34.021 C6.567,18.833 18.878,6.521 34.067,6.521 C49.254,6.521 61.567,18.833 61.567,34.021" id="Fill-1" fill="#FFFCF6"></path>
                            <path d="M13.067,34.02 C13.067,29.069 14.791,24.526 17.657,20.937 L7.479,12.819 C0.77,21.232 -1.295,31.847 0.92,41.582 L13.605,38.687 C13.264,37.184 13.067,35.626 13.067,34.02" id="Fill-2" fill="#A7436F"></path>
                            <path d="M13.605,38.687 L0.913,41.584 C3.308,52.074 10.319,60.306 19.312,64.644 L24.958,52.92 C19.284,50.18 15.035,44.977 13.605,38.687" id="Fill-3" fill="#B8487A"></path>
                            <path d="M34.067,55.021 C30.798,55.021 27.716,54.252 24.958,52.92 L19.309,64.65 C29.003,69.32 39.811,68.97 48.809,64.644 L43.166,52.925 C40.41,54.254 37.331,55.021 34.067,55.021" id="Fill-4" fill="#CA4D85"></path>
                            <path d="M54.528,38.69 C53.097,44.983 48.844,50.186 43.166,52.925 L48.812,64.65 C58.506,59.982 64.973,51.314 67.2,41.582 L54.528,38.69" id="Fill-5" fill="#CF5F90"></path>
                            <path d="M60.636,12.824 L50.472,20.93 C53.341,24.521 55.067,29.066 55.067,34.02 C55.067,35.627 54.87,37.186 54.528,38.69 L67.208,41.584 C69.602,31.093 66.856,20.634 60.636,12.824" id="Fill-6" fill="#D5709B"></path>
                            <path d="M34.067,13.02 C40.711,13.02 46.624,16.114 50.472,20.93 L60.642,12.819 C53.934,4.407 44.044,0.032 34.061,0.026 L34.061,13.021 C34.063,13.021 34.065,13.02 34.067,13.02" id="Fill-7" fill="#DA82A7"></path>
                            <path d="M37.637,29.037 C37.295,28.668 36.894,28.386 36.433,28.191 C35.973,27.997 35.456,27.899 34.882,27.899 C34.411,27.899 33.981,27.978 33.591,28.134 C33.202,28.291 32.854,28.508 32.547,28.784 C32.24,29.06 31.974,29.389 31.748,29.771 C31.523,30.153 31.337,30.565 31.19,31.008 C31.044,31.452 30.934,31.921 30.862,32.416 C30.791,32.912 30.755,33.412 30.755,33.918 C30.94,33.583 31.163,33.293 31.427,33.046 C31.69,32.8 31.985,32.597 32.314,32.436 C32.642,32.276 32.997,32.158 33.38,32.083 C33.763,32.007 34.163,31.97 34.58,31.97 C35.284,31.97 35.923,32.079 36.497,32.298 C37.071,32.517 37.56,32.832 37.963,33.243 C38.367,33.653 38.678,34.149 38.897,34.731 C39.115,35.313 39.225,35.966 39.225,36.691 C39.225,37.39 39.106,38.036 38.871,38.631 C38.635,39.227 38.302,39.744 37.871,40.182 C37.44,40.62 36.918,40.963 36.302,41.213 C35.687,41.463 35,41.588 34.241,41.588 C33.346,41.588 32.565,41.414 31.898,41.065 C31.231,40.716 30.676,40.226 30.232,39.593 C29.788,38.961 29.456,38.204 29.237,37.322 C29.019,36.44 28.909,35.466 28.909,34.4 C28.909,33.313 29.037,32.288 29.294,31.324 C29.549,30.36 29.928,29.518 30.43,28.796 C30.932,28.075 31.554,27.504 32.295,27.084 C33.036,26.664 33.895,26.453 34.871,26.453 C35.615,26.453 36.274,26.575 36.848,26.817 C37.421,27.06 37.873,27.417 38.201,27.889 L37.637,29.037 L37.637,29.037 Z M34.318,33.375 C33.908,33.375 33.526,33.428 33.171,33.534 C32.816,33.64 32.496,33.788 32.209,33.979 C31.922,34.171 31.673,34.4 31.461,34.667 C31.25,34.933 31.083,35.227 30.96,35.548 C30.953,35.671 30.948,35.771 30.944,35.846 C30.941,35.921 30.94,35.982 30.94,36.03 L30.94,36.143 L30.94,36.215 C30.94,36.727 31.008,37.22 31.144,37.691 C31.281,38.163 31.487,38.58 31.764,38.942 C32.04,39.305 32.386,39.593 32.803,39.809 C33.219,40.024 33.704,40.132 34.256,40.132 C34.734,40.132 35.166,40.046 35.551,39.876 C35.937,39.705 36.267,39.467 36.54,39.163 C36.813,38.859 37.023,38.502 37.169,38.091 C37.316,37.681 37.389,37.237 37.389,36.758 C37.389,36.28 37.328,35.835 37.205,35.425 C37.082,35.015 36.893,34.658 36.637,34.354 C36.38,34.05 36.06,33.81 35.674,33.636 C35.289,33.461 34.836,33.375 34.318,33.375 L34.318,33.375 Z" id="Fill-8" fill="#191918"></path>
                        </g>
                    </g>
                </g>
            </g>
        </g>
    </g>
</svg>