<?xml version="1.0" encoding="UTF-8" standalone="no"?>
<svg width="63px" height="62px" viewBox="0 0 63 62" version="1.1" xmlns="http://www.w3.org/2000/svg" xmlns:xlink="http://www.w3.org/1999/xlink" xmlns:sketch="http://www.bohemiancoding.com/sketch/ns">
    <!-- Generator: Sketch 3.2.2 (9983) - http://www.bohemiancoding.com/sketch -->
    <title>Imported Layers</title>
    <desc>Created with Sketch.</desc>
    <defs></defs>
    <g id="Page-1" stroke="none" stroke-width="1" fill="none" fill-rule="evenodd" sketch:type="MSPage">
        <g id="Desktop-HD" sketch:type="MSArtboardGroup" transform="translate(-30.000000, -1958.000000)">
            <g id="Group" sketch:type="MSLayerGroup" transform="translate(-398.000000, 877.000000)">
                <g id="Rectangle-326-+-Group" transform="translate(372.000000, 1020.000000)" sketch:type="MSShapeGroup">
                    <g id="Group" transform="translate(25.000000, 0.000000)">
                        <g id="Imported-Layers" transform="translate(31.000000, 61.000000)">
                            <path d="M55.652,34.365 C55.652,49.553 43.34,61.865 28.152,61.865 C12.964,61.865 0.652,49.553 0.652,34.365 C0.652,19.178 12.964,6.865 28.152,6.865 C43.34,6.865 55.652,19.178 55.652,34.365" id="Fill-1" fill="#FFFCF6"></path>
                            <path d="M54.723,13.169 L44.559,21.275 C47.428,24.866 49.152,29.411 49.152,34.363 C49.152,35.971 48.955,37.529 48.613,39.033 L61.293,41.928 C63.687,31.437 60.941,20.979 54.723,13.169" id="Fill-2" fill="#D5709B"></path>
                            <path d="M28.152,13.365 C34.797,13.365 40.709,16.459 44.559,21.275 L54.729,13.164 C48.019,4.751 38.131,0.377 28.147,0.371 L28.147,13.365 L28.152,13.365" id="Fill-3" fill="#DA82A7"></path>
                            <path d="M32.957,41.789 L23.358,41.789 L23.348,40.282 C23.827,39.824 24.353,39.331 24.927,38.805 C25.501,38.279 26.076,37.737 26.65,37.18 C27.225,36.623 27.781,36.057 28.322,35.483 C28.861,34.909 29.34,34.347 29.758,33.796 C30.174,33.246 30.508,32.718 30.756,32.212 C31.006,31.706 31.131,31.238 31.131,30.807 C31.131,30.452 31.062,30.125 30.926,29.828 C30.789,29.53 30.592,29.276 30.336,29.064 C30.08,28.852 29.771,28.687 29.414,28.566 C29.055,28.447 28.656,28.387 28.219,28.387 C27.822,28.387 27.445,28.442 27.086,28.551 C26.727,28.661 26.397,28.816 26.096,29.018 C25.795,29.22 25.527,29.466 25.291,29.756 C25.055,30.047 24.859,30.373 24.702,30.735 L23.707,29.741 C23.871,29.303 24.102,28.912 24.399,28.566 C24.697,28.222 25.047,27.928 25.45,27.685 C25.853,27.442 26.298,27.258 26.783,27.131 C27.269,27.005 27.785,26.941 28.332,26.941 C28.994,26.941 29.607,27.03 30.168,27.208 C30.728,27.386 31.213,27.639 31.623,27.967 C32.033,28.295 32.353,28.693 32.582,29.161 C32.81,29.63 32.926,30.154 32.926,30.735 C32.926,31.351 32.773,31.976 32.469,32.612 C32.164,33.248 31.758,33.89 31.248,34.54 C30.74,35.189 30.148,35.845 29.475,36.508 C28.801,37.171 28.096,37.841 27.357,38.518 C27.036,38.812 26.723,39.101 26.419,39.385 C26.115,39.668 25.799,39.974 25.471,40.302 L32.957,40.302 L32.957,41.789" id="Fill-4" fill="#191918"></path>
                        </g>
                    </g>
                </g>
            </g>
        </g>
    </g>
</svg>