<?xml version="1.0" encoding="UTF-8" standalone="no"?>
<svg width="62px" height="69px" viewBox="0 0 62 69" version="1.1" xmlns="http://www.w3.org/2000/svg" xmlns:xlink="http://www.w3.org/1999/xlink" xmlns:sketch="http://www.bohemiancoding.com/sketch/ns">
    <!-- Generator: Sketch 3.2.2 (9983) - http://www.bohemiancoding.com/sketch -->
    <title>Imported Layers</title>
    <desc>Created with Sketch.</desc>
    <defs></defs>
    <g id="Page-1" stroke="none" stroke-width="1" fill="none" fill-rule="evenodd" sketch:type="MSPage">
        <g id="Desktop-HD" sketch:type="MSArtboardGroup" transform="translate(-30.000000, -4001.000000)">
            <g id="Group" sketch:type="MSLayerGroup" transform="translate(-398.000000, 877.000000)">
                <g id="Rectangle-363-+-Group" transform="translate(319.000000, 3075.000000)" sketch:type="MSShapeGroup">
                    <g id="Group" transform="translate(78.000000, 0.000000)">
                        <g id="Imported-Layers" transform="translate(31.025000, 49.000000)">
                            <path d="M55.375,34.894 C55.375,50.081 43.063,62.394 27.876,62.394 C12.687,62.394 0.376,50.081 0.376,34.894 C0.376,19.707 12.687,7.394 27.876,7.394 C43.063,7.394 55.375,19.707 55.375,34.894" id="Fill-1" fill="#FFFCF6"></path>
                            <path d="M27.876,55.895 C24.607,55.895 21.525,55.126 18.767,53.794 L13.118,65.524 C22.812,70.194 33.62,69.844 42.618,65.518 L36.975,53.799 C34.219,55.127 31.141,55.895 27.876,55.895" id="Fill-2" fill="#CA4D85"></path>
                            <path d="M48.336,39.563 C46.907,45.856 42.653,51.06 36.975,53.799 L42.622,65.524 C52.315,60.856 58.782,52.188 61.008,42.456 L48.336,39.563" id="Fill-3" fill="#CF5F90"></path>
                            <path d="M54.446,13.698 L44.281,21.804 C47.15,25.395 48.875,29.94 48.875,34.893 C48.875,36.5 48.678,38.059 48.336,39.563 L61.016,42.457 C63.411,31.967 60.665,21.508 54.446,13.698" id="Fill-4" fill="#D5709B"></path>
                            <path d="M27.876,13.894 C34.52,13.894 40.432,16.988 44.281,21.804 L54.452,13.693 C47.743,5.28 37.854,0.906 27.87,0.899 L27.87,13.894 L27.876,13.894" id="Fill-5" fill="#DA82A7"></path>
                            <path d="M29.491,42.174 L29.491,38.575 L22.303,38.575 L22.303,37.304 L29.122,27.614 L31.255,27.614 L31.255,37.222 L33.449,37.222 L33.449,38.575 L31.255,38.575 L31.255,42.174 L29.491,42.174 L29.491,42.174 Z M29.491,37.222 L29.491,28.926 L28.589,30.423 L24.057,37.222 L29.491,37.222 L29.491,37.222 Z" id="Fill-6" fill="#191918"></path>
                        </g>
                    </g>
                </g>
            </g>
        </g>
    </g>
</svg>