<?xml version="1.0" encoding="UTF-8" standalone="no"?>
<svg width="315px" height="99px" viewBox="0 0 315 99" version="1.1" xmlns="http://www.w3.org/2000/svg" xmlns:xlink="http://www.w3.org/1999/xlink" xmlns:sketch="http://www.bohemiancoding.com/sketch/ns">
    <!-- Generator: Sketch 3.2.2 (9983) - http://www.bohemiancoding.com/sketch -->
    <title>Imported Layers</title>
    <desc>Created with Sketch.</desc>
    <defs></defs>
    <g id="Page-1" stroke="none" stroke-width="1" fill="none" fill-rule="evenodd" sketch:type="MSPage">
        <g id="Pricing" sketch:type="MSArtboardGroup" transform="translate(-249.000000, -1374.000000)">
            <g id="Imported-Layers" sketch:type="MSLayerGroup" transform="translate(248.500000, 1374.250000)">
                <path d="M97.06256,49.5 C97.06256,76.2012209 75.4550545,97.8488372 48.8007418,97.8488372 C22.1464291,97.8488372 0.538923636,76.2012209 0.538923636,49.5 C0.538923636,22.7987791 22.1464291,1.15116279 48.8007418,1.15116279 C75.4550545,1.15116279 97.06256,22.7987791 97.06256,49.5" id="Fill-1" fill-opacity="0.6" fill="#000000" sketch:type="MSShapeGroup"></path>
                <path d="M169.455287,49.5 C169.455287,76.2012209 147.847782,97.8488372 121.193469,97.8488372 C94.5403055,97.8488372 72.9316509,76.2012209 72.9316509,49.5 C72.9316509,22.7987791 94.5403055,1.15116279 121.193469,1.15116279 C147.847782,1.15116279 169.455287,22.7987791 169.455287,49.5" id="Fill-2" fill="#656462" sketch:type="MSShapeGroup"></path>
                <path d="M72.9362473,50.1411977 L72.9362473,50.1584651 L72.9362473,50.1411977 M72.9350982,50.0652209 C72.9350982,50.0744302 72.9350982,50.0813372 72.9362473,50.0893953 C72.9350982,50.0813372 72.9350982,50.0732791 72.9350982,50.0652209 M72.9350982,49.988093 L72.9350982,50.0191744 L72.9350982,49.988093 M72.9339491,49.9132674 L72.9339491,49.9466512 L72.9339491,49.9132674 M72.9328,49.8349884 C72.9339491,49.8488023 72.9339491,49.860314 72.9339491,49.8729767 C72.9339491,49.8626163 72.9328,49.8465 72.9328,49.8349884 M72.9328,49.7601628 L72.9328,49.7993023 L72.9328,49.7601628 M72.9328,49.6807326 L72.9328,49.7244767 L72.9328,49.6807326 M72.9328,49.599 L72.9328,49.6508023 L72.9328,49.599 M72.9316509,49.5 L72.9316509,49.5748256 L72.9316509,49.5 M72.9316509,49.4251744 L72.9316509,49.5 L72.9316509,49.4251744 M72.9328,49.3491977 L72.9328,49.401 L72.9328,49.3491977 M72.9328,49.2755233 L72.9328,49.3192674 L72.9328,49.2755233 M72.9328,49.2006977 L72.9328,49.238686 L72.9328,49.2006977 M72.9339491,49.1270233 C72.9339491,49.139686 72.9339491,49.1511977 72.9328,49.1650116 C72.9328,49.1535 72.9339491,49.1385349 72.9339491,49.1270233 M72.9339491,49.0533488 L72.9339491,49.0867326 L72.9339491,49.0533488 M72.9350982,48.9808256 L72.9350982,49.0107558 L72.9350982,48.9808256 M72.9362473,48.9106047 C72.9350982,48.9175116 72.9350982,48.9267209 72.9350982,48.9336279 C72.9350982,48.9255698 72.9350982,48.9186628 72.9362473,48.9106047 M72.9362473,48.8415349 L72.9362473,48.8588023 L72.9362473,48.8415349" id="Fill-3" fill="#9AAF92" sketch:type="MSShapeGroup"></path>
                <path d="M84.9971055,17.5379651 C77.6279855,25.9069186 73.09712,36.8429651 72.9362473,48.8415349 L72.9362473,48.8588023 L72.9362473,48.9106047 C72.9350982,48.9186628 72.9350982,48.9255698 72.9350982,48.9336279 L72.9350982,48.9808256 L72.9350982,49.0107558 C72.9339491,49.0257209 72.9339491,49.0395349 72.9339491,49.0533488 L72.9339491,49.0867326 L72.9339491,49.1270233 C72.9339491,49.1385349 72.9328,49.1535 72.9328,49.1650116 L72.9328,49.2006977 L72.9328,49.238686 L72.9328,49.2755233 L72.9328,49.3192674 L72.9328,49.3491977 L72.9328,49.401 C72.9316509,49.407907 72.9316509,49.4171163 72.9316509,49.4251744 L72.9316509,49.5 L72.9316509,49.5748256 C72.9316509,49.5828837 72.9316509,49.5909419 72.9328,49.599 L72.9328,49.6508023 L72.9328,49.6807326 L72.9328,49.7244767 L72.9328,49.7601628 L72.9328,49.7993023 L72.9328,49.8349884 C72.9328,49.8465 72.9339491,49.8626163 72.9339491,49.8729767 L72.9339491,49.9132674 L72.9339491,49.9466512 C72.9339491,49.9604651 72.9339491,49.9742791 72.9350982,49.988093 L72.9350982,50.0191744 L72.9350982,50.0652209 C72.9350982,50.0732791 72.9350982,50.0813372 72.9362473,50.0893953 L72.9362473,50.1411977 L72.9362473,50.1584651 C73.09712,62.1570349 77.6279855,73.0930814 84.9971055,81.4620349 C92.5018182,72.9399767 97.06256,61.7575814 97.06256,49.5 C97.06256,37.2424186 92.5018182,26.0600233 84.9971055,17.5379651" id="Fill-4" fill="#989793" sketch:type="MSShapeGroup"></path>
                <path d="M241.848015,49.5 C241.848015,76.2012209 220.240509,97.8488372 193.586196,97.8488372 C166.933033,97.8488372 145.324378,76.2012209 145.324378,49.5 C145.324378,22.7987791 166.933033,1.15116279 193.586196,1.15116279 C220.240509,1.15116279 241.848015,22.7987791 241.848015,49.5" id="Fill-5" fill="#656462" sketch:type="MSShapeGroup"></path>
                <path d="M145.328975,50.1411977 L145.328975,50.1584651 L145.328975,50.1411977 M145.327825,50.0652209 C145.327825,50.0744302 145.327825,50.0813372 145.328975,50.0893953 C145.327825,50.0813372 145.327825,50.0732791 145.327825,50.0652209 M145.327825,49.988093 L145.327825,50.0191744 L145.327825,49.988093 M145.326676,49.9132674 L145.326676,49.9466512 L145.326676,49.9132674 M145.325527,49.8349884 C145.325527,49.8488023 145.326676,49.860314 145.326676,49.8729767 C145.326676,49.8626163 145.325527,49.8465 145.325527,49.8349884 M145.325527,49.7601628 L145.325527,49.7993023 L145.325527,49.7601628 M145.325527,49.6807326 L145.325527,49.7244767 L145.325527,49.6807326 M145.324378,49.599 C145.325527,49.6162674 145.325527,49.6323837 145.325527,49.6508023 C145.325527,49.6323837 145.325527,49.6174186 145.324378,49.599 M145.324378,49.5 L145.324378,49.5748256 L145.324378,49.5 M145.324378,49.4251744 L145.324378,49.5 L145.324378,49.4251744 M145.325527,49.3491977 C145.325527,49.3676163 145.325527,49.3825814 145.324378,49.401 C145.325527,49.3825814 145.325527,49.3676163 145.325527,49.3491977 M145.325527,49.2755233 L145.325527,49.3192674 L145.325527,49.2755233 M145.325527,49.2006977 L145.325527,49.238686 L145.325527,49.2006977 M145.326676,49.1270233 C145.326676,49.139686 145.325527,49.1511977 145.325527,49.1650116 C145.325527,49.1535 145.326676,49.1385349 145.326676,49.1270233 M145.326676,49.0533488 L145.326676,49.0867326 L145.326676,49.0533488 M145.327825,48.9808256 L145.327825,49.0107558 L145.327825,48.9808256 M145.328975,48.9106047 C145.327825,48.9175116 145.327825,48.9267209 145.327825,48.9336279 C145.327825,48.9255698 145.327825,48.9186628 145.328975,48.9106047 M145.328975,48.8415349 L145.328975,48.8588023 L145.328975,48.8415349" id="Fill-6" fill="#9AAF92" sketch:type="MSShapeGroup"></path>
                <path d="M157.389833,17.5379651 C150.020713,25.9069186 145.489847,36.8429651 145.328975,48.8415349 L145.328975,48.8588023 L145.328975,48.9106047 C145.327825,48.9186628 145.327825,48.9255698 145.327825,48.9336279 L145.327825,48.9808256 L145.327825,49.0107558 C145.326676,49.0257209 145.326676,49.0395349 145.326676,49.0533488 L145.326676,49.0867326 L145.326676,49.1270233 C145.326676,49.1385349 145.325527,49.1535 145.325527,49.1650116 L145.325527,49.2006977 L145.325527,49.238686 L145.325527,49.2755233 L145.325527,49.3192674 L145.325527,49.3491977 C145.325527,49.3676163 145.325527,49.3825814 145.324378,49.401 L145.324378,49.4251744 L145.324378,49.5 L145.324378,49.5748256 L145.324378,49.599 C145.325527,49.6174186 145.325527,49.6323837 145.325527,49.6508023 L145.325527,49.6807326 L145.325527,49.7244767 L145.325527,49.7601628 L145.325527,49.7993023 L145.325527,49.8349884 C145.325527,49.8465 145.326676,49.8626163 145.326676,49.8729767 L145.326676,49.9132674 L145.326676,49.9466512 C145.326676,49.9604651 145.326676,49.9742791 145.327825,49.988093 L145.327825,50.0191744 L145.327825,50.0652209 C145.327825,50.0732791 145.327825,50.0813372 145.328975,50.0893953 L145.328975,50.1411977 L145.328975,50.1584651 C145.489847,62.1570349 150.020713,73.0930814 157.389833,81.4620349 C164.894545,72.9399767 169.455287,61.7575814 169.455287,49.5 C169.455287,37.2424186 164.894545,26.0600233 157.389833,17.5379651" id="Fill-7" fill="#989793" sketch:type="MSShapeGroup"></path>
                <path d="M314.815287,49.5 L314.240742,49.5 C314.240742,62.6934767 308.904364,74.6333372 300.273542,83.2808721 C291.641571,91.9272558 279.7232,97.2732558 266.553469,97.2732558 C253.383738,97.2732558 241.465367,91.9272558 232.834545,83.2808721 C224.203724,74.6333372 218.867345,62.6934767 218.866196,49.5 C218.867345,36.3065233 224.203724,24.3666628 232.834545,15.7191279 C241.465367,7.07389535 253.383738,1.72674419 266.553469,1.72674419 C279.7232,1.72674419 291.641571,7.07389535 300.273542,15.7191279 C308.904364,24.3666628 314.240742,36.3065233 314.240742,49.5 L315.389833,49.5 C315.389833,22.479907 293.524931,0.575581395 266.553469,0.575581395 C239.583156,0.575581395 217.718255,22.479907 217.717105,49.5 C217.718255,76.520093 239.583156,98.4244186 266.553469,98.4244186 C293.524931,98.4244186 315.389833,76.520093 315.389833,49.5 L314.815287,49.5" id="Fill-8" fill="#CCC9C4" sketch:type="MSShapeGroup"></path>
                <path d="M313.765018,39.4480465 C309.145673,17.5713488 289.765105,1.15116279 266.553469,1.15116279 L266.553469,49.5011512 L219.344218,59.5542558 C223.963564,81.4286512 243.342982,97.8488372 266.553469,97.8488372 C293.207782,97.8488372 314.815287,76.2012209 314.815287,49.5 C314.815287,46.0522674 314.448727,42.6908721 313.765018,39.4480465" id="Fill-9" fill="#656462" sketch:type="MSShapeGroup"></path>
                <path d="M241.5504,54.8252791 L219.899229,59.4368372 C219.899229,59.4379884 219.899229,59.435686 219.899229,59.435686 L241.5504,54.8252791" id="Fill-10" fill="#9AAF92" sketch:type="MSShapeGroup"></path>
                <path d="M219.78432,61.4467674 L219.78432,61.4479186 L219.78432,61.4467674 M219.760189,61.3489186 C219.760189,61.3535233 219.761338,61.3569767 219.762487,61.3615814 C219.761338,61.3569767 219.760189,61.3535233 219.760189,61.3489186 M219.734909,61.2499186 C219.736058,61.2545233 219.737207,61.2591279 219.738356,61.2637326 C219.737207,61.2591279 219.736058,61.2545233 219.734909,61.2499186 M219.711927,61.1566744 C219.713076,61.1647326 219.715375,61.1727907 219.717673,61.1796977 C219.715375,61.1716395 219.713076,61.1658837 219.711927,61.1566744 M219.686647,61.0519186 C219.687796,61.0611279 219.690095,61.0703372 219.692393,61.0795465 C219.690095,61.0703372 219.688945,61.0622791 219.686647,61.0519186 M219.664815,60.9632791 C219.667113,60.9747907 219.67056,60.9863023 219.672858,60.9966628 C219.67056,60.9874535 219.667113,60.9747907 219.664815,60.9632791 M219.638385,60.8562209 C219.641833,60.8677326 219.644131,60.8803953 219.646429,60.8930581 C219.644131,60.8803953 219.641833,60.8677326 219.638385,60.8562209 M219.618851,60.772186 C219.622298,60.786 219.624596,60.7986628 219.628044,60.8124767 C219.624596,60.7986628 219.622298,60.7871512 219.618851,60.772186 M219.592422,60.6605233 C219.597018,60.6812442 219.601615,60.7019651 219.606211,60.7203837 C219.600465,60.7019651 219.597018,60.6812442 219.592422,60.6605233 M219.572887,60.5799419 C219.576335,60.594907 219.579782,60.6110233 219.583229,60.6259884 C219.579782,60.6098721 219.576335,60.5960581 219.572887,60.5799419 M219.547607,60.4682791 C219.552204,60.4947558 219.559098,60.5212326 219.565993,60.5488605 C219.559098,60.5212326 219.553353,60.495907 219.547607,60.4682791 M219.528073,60.39 C219.532669,60.4061163 219.536116,60.4210814 219.539564,60.4371977 C219.536116,60.4210814 219.532669,60.4061163 219.528073,60.39 M219.503942,60.2817907 C219.509687,60.3059651 219.515433,60.3301395 219.520029,60.354314 C219.515433,60.3301395 219.509687,60.3059651 219.503942,60.2817907 M219.485556,60.2000581 C219.489004,60.2161744 219.492451,60.2288372 219.495898,60.2449535 C219.492451,60.2299884 219.489004,60.2150233 219.485556,60.2000581 M219.461425,60.0918488 C219.466022,60.1148721 219.471767,60.1378953 219.477513,60.1609186 C219.471767,60.1367442 219.466022,60.1160233 219.461425,60.0918488 M219.44304,60.0124186 C219.446487,60.0262326 219.449935,60.0400465 219.452233,60.0538605 C219.449935,60.0400465 219.446487,60.0262326 219.44304,60.0124186 M219.421207,59.9099651 C219.424655,59.9272326 219.429251,59.9433488 219.431549,59.9606163 C219.428102,59.9433488 219.424655,59.9272326 219.421207,59.9099651 M219.401673,59.8236279 C219.40512,59.8362907 219.407418,59.8466512 219.409716,59.859314 C219.407418,59.8466512 219.40512,59.8362907 219.401673,59.8236279 M219.382138,59.7303837 C219.384436,59.7407442 219.385585,59.7499535 219.387884,59.7591628 C219.385585,59.7499535 219.384436,59.7407442 219.382138,59.7303837 M219.361455,59.6382907 C219.363753,59.6451977 219.366051,59.654407 219.3672,59.6636163 C219.366051,59.6555581 219.363753,59.6451977 219.361455,59.6382907 M219.899229,59.4368372 L219.344218,59.5542558 L219.899229,59.4368372 C219.899229,59.4368372 219.899229,59.4379884 219.899229,59.4368372" id="Fill-11" fill="#D6D3CE" sketch:type="MSShapeGroup"></path>
                <path d="M241.5504,54.8252791 L219.899229,59.4368372 L219.344218,59.5542558 C219.351113,59.5830349 219.356858,59.6095116 219.361455,59.6382907 C219.363753,59.6451977 219.366051,59.6555581 219.3672,59.6636163 C219.372945,59.6854884 219.377542,59.7073605 219.382138,59.7303837 C219.384436,59.7407442 219.385585,59.7499535 219.387884,59.7591628 C219.39248,59.7810349 219.397076,59.8017558 219.401673,59.8236279 C219.40512,59.8362907 219.407418,59.8466512 219.409716,59.859314 C219.413164,59.8765814 219.41776,59.8926977 219.421207,59.9099651 C219.424655,59.9272326 219.428102,59.9433488 219.431549,59.9606163 C219.436145,59.9778837 219.439593,59.9951512 219.44304,60.0124186 C219.446487,60.0262326 219.449935,60.0400465 219.452233,60.0538605 C219.45568,60.0676744 219.457978,60.079186 219.461425,60.0918488 C219.466022,60.1160233 219.471767,60.1367442 219.477513,60.1609186 C219.479811,60.1747326 219.482109,60.1873953 219.485556,60.2000581 C219.489004,60.2150233 219.492451,60.2299884 219.495898,60.2449535 C219.498196,60.2576163 219.500495,60.2702791 219.503942,60.2817907 C219.509687,60.3059651 219.515433,60.3301395 219.520029,60.354314 C219.523476,60.3669767 219.525775,60.3773372 219.528073,60.39 C219.532669,60.4061163 219.536116,60.4210814 219.539564,60.4371977 C219.541862,60.4487093 219.54416,60.4579186 219.547607,60.4682791 C219.553353,60.495907 219.559098,60.5212326 219.565993,60.5488605 C219.568291,60.5580698 219.56944,60.5684302 219.572887,60.5799419 C219.576335,60.5960581 219.579782,60.6098721 219.583229,60.6259884 C219.586676,60.6386512 219.588975,60.6501628 219.592422,60.6605233 C219.597018,60.6812442 219.600465,60.7019651 219.606211,60.7203837 C219.609658,60.7376512 219.614255,60.7549186 219.618851,60.772186 C219.622298,60.7871512 219.624596,60.7986628 219.628044,60.8124767 C219.631491,60.8274419 219.634938,60.842407 219.638385,60.8562209 C219.641833,60.8677326 219.644131,60.8803953 219.646429,60.8930581 C219.652175,60.9160814 219.65792,60.9402558 219.664815,60.9632791 C219.667113,60.9747907 219.67056,60.9874535 219.672858,60.9966628 C219.676305,61.0162326 219.682051,61.0346512 219.686647,61.0519186 C219.688945,61.0622791 219.690095,61.0703372 219.692393,61.0795465 C219.698138,61.1048721 219.705033,61.1290465 219.711927,61.1566744 C219.713076,61.1658837 219.715375,61.1716395 219.717673,61.1796977 C219.723418,61.2038721 219.729164,61.2268953 219.734909,61.2499186 C219.736058,61.2545233 219.737207,61.2591279 219.738356,61.2637326 C219.745251,61.2925116 219.752145,61.3212907 219.760189,61.3489186 C219.760189,61.3535233 219.761338,61.3569767 219.762487,61.3615814 C219.769382,61.3892093 219.777425,61.4191395 219.78432,61.4467674 L219.78432,61.4479186 C221.659636,68.8372326 225.235607,75.543907 230.066385,81.1351047 C236.309396,73.9161628 240.455316,64.8334884 241.5504,54.8252791" id="Fill-12" fill="#989793" sketch:type="MSShapeGroup"></path>
            </g>
        </g>
    </g>
</svg>